<?xml version="1.0" encoding="UTF-8"?> <svg xmlns="http://www.w3.org/2000/svg" width="1362" height="305" viewBox="0 0 1362 305" fill="none"> <mask id="mask0_588_10138" style="mask-type:alpha" maskUnits="userSpaceOnUse" x="0" y="0" width="1366" height="305"> <rect width="1366" height="305" fill="#DF192C"></rect> </mask> <g mask="url(#mask0_588_10138)"> <mask id="mask1_588_10138" style="mask-type:alpha" maskUnits="userSpaceOnUse" x="0" y="4" width="1366" height="305"> <rect y="4" width="1366" height="305" fill="#C1C1C1"></rect> </mask> <g mask="url(#mask1_588_10138)"> <g clip-path="url(#clip0_588_10138)"> <path d="M702.256 8.12522C702.256 7.89025 702.152 7.68139 701.974 7.51169C701.795 7.35505 701.543 7.26367 701.275 7.26367H569.16C568.907 7.26367 568.654 7.35505 568.461 7.51169C568.283 7.66834 568.164 7.89025 568.164 8.12522V39.5063C568.164 39.7282 568.268 39.9501 568.461 40.1198C568.64 40.2765 568.892 40.3678 569.16 40.3678H613.902C614.154 40.3678 614.407 40.4592 614.6 40.6159C614.778 40.7725 614.882 40.9944 614.882 41.2294V138.806C614.882 139.028 614.986 139.25 615.165 139.406C615.343 139.563 615.595 139.654 615.863 139.654H654.542C654.795 139.654 655.047 139.563 655.241 139.406C655.419 139.25 655.523 139.028 655.523 138.806V41.2163C655.523 40.9944 655.627 40.7725 655.805 40.6028C655.983 40.4462 656.236 40.3548 656.504 40.3548H701.26C701.513 40.3548 701.765 40.2634 701.959 40.1068C702.137 39.9501 702.241 39.7282 702.241 39.4932V8.12522H702.256Z" fill="white" fill-opacity="0.1"></path> <path d="M582.696 138.635C582.726 138.766 582.726 138.897 582.696 139.027C582.667 139.158 582.592 139.275 582.503 139.379C582.414 139.484 582.295 139.562 582.147 139.614C582.013 139.667 581.864 139.693 581.716 139.693H540.525C540.302 139.693 540.08 139.641 539.901 139.51C539.723 139.393 539.589 139.223 539.545 139.027L503.243 8.3204C503.213 8.18987 503.198 8.05933 503.243 7.92879C503.273 7.79825 503.347 7.68077 503.436 7.57634C503.54 7.47191 503.659 7.39359 503.793 7.32832C503.927 7.27611 504.075 7.25 504.239 7.25H545.429C545.652 7.25 545.875 7.30221 546.053 7.4197C546.231 7.53718 546.35 7.70688 546.41 7.90268L582.696 138.635Z" fill="white" fill-opacity="0.1"></path> <path d="M462.186 73.5105C461.963 73.5105 461.741 73.5627 461.562 73.6932C461.384 73.8107 461.265 73.9804 461.206 74.1762L443.345 138.648C443.315 138.779 443.315 138.909 443.345 139.04C443.374 139.171 443.449 139.288 443.538 139.392C443.627 139.497 443.761 139.575 443.894 139.627C444.028 139.68 444.177 139.706 444.325 139.706H485.516C485.739 139.706 485.962 139.654 486.14 139.523C486.318 139.406 486.452 139.236 486.496 139.04L504.372 74.5548C504.402 74.4242 504.402 74.2937 504.372 74.1632C504.343 74.0326 504.268 73.9151 504.179 73.8107C504.09 73.7063 503.956 73.628 503.823 73.5627C503.689 73.4974 503.54 73.4844 503.377 73.4844L462.186 73.5105Z" fill="white" fill-opacity="0.1"></path> <path d="M856.274 138.636C856.229 138.766 856.229 138.897 856.274 139.027C856.303 139.158 856.378 139.275 856.467 139.38C856.571 139.484 856.69 139.563 856.823 139.615C856.957 139.667 857.106 139.693 857.254 139.693H898.445C898.668 139.693 898.891 139.641 899.069 139.51C899.247 139.393 899.366 139.223 899.426 139.027L935.712 8.30771C935.742 8.17717 935.742 8.04663 935.712 7.9161C935.683 7.78556 935.608 7.66808 935.519 7.56365C935.43 7.45922 935.296 7.3809 935.163 7.31563C935.029 7.26341 934.88 7.2373 934.732 7.2373H893.541C893.318 7.2373 893.095 7.28952 892.917 7.407C892.739 7.52449 892.62 7.69418 892.561 7.88999L856.274 138.636Z" fill="white" fill-opacity="0.1"></path> <path d="M976.784 73.5107C977.007 73.5107 977.23 73.563 977.409 73.6935C977.587 73.811 977.706 73.9807 977.765 74.1765L995.641 138.675C995.671 138.805 995.671 138.936 995.641 139.066C995.611 139.197 995.537 139.314 995.448 139.419C995.344 139.523 995.225 139.602 995.091 139.654C994.958 139.706 994.809 139.732 994.66 139.732H953.47C953.247 139.732 953.024 139.68 952.846 139.562C952.667 139.445 952.549 139.275 952.489 139.079L934.598 74.5942C934.569 74.4637 934.554 74.3331 934.598 74.2026C934.628 74.072 934.702 73.9546 934.792 73.8501C934.896 73.7457 935.015 73.6674 935.148 73.6152C935.282 73.563 935.431 73.5369 935.594 73.5369H976.784V73.5107Z" fill="white" fill-opacity="0.1"></path> <path d="M781.724 142.239C802.528 142.239 822.484 135.007 837.21 122.123C844.506 115.74 850.286 108.169 854.239 99.8275C858.191 91.4862 860.212 82.5444 860.227 73.5113C860.227 64.4781 858.206 55.5363 854.253 47.195C850.301 38.8537 844.52 31.2695 837.224 24.8862C829.928 18.503 821.28 13.4512 811.755 9.99199C802.231 6.54581 792.022 4.77051 781.724 4.77051C771.412 4.77051 761.203 6.54581 751.679 10.005C742.139 13.4512 733.476 18.516 726.18 24.9124C718.884 31.3087 713.103 38.8929 709.166 47.2472C705.228 55.5755 703.207 64.4912 703.207 73.4982C703.222 91.7342 711.499 109.226 726.224 122.123C740.965 135.007 760.921 142.239 781.724 142.239ZM781.724 35.2378C787.445 35.2509 793.107 36.243 798.397 38.1619C803.702 40.0807 808.501 42.9003 812.558 46.464C816.629 50.0277 819.854 54.244 822.068 58.9042C824.252 63.5382 825.382 68.4986 825.367 73.5113C825.367 83.654 820.79 93.3659 812.617 100.545C804.43 107.699 793.33 111.719 781.754 111.719C776.033 111.719 770.357 110.74 765.052 108.822C759.747 106.903 754.948 104.096 750.891 100.545C742.718 93.3659 738.127 83.6409 738.142 73.5113C738.142 68.4986 739.271 63.5382 741.455 58.9042C743.64 54.2571 746.849 50.0407 750.906 46.4771C754.963 42.9265 759.777 40.1069 765.082 38.1749C770.357 36.256 776.018 35.2639 781.724 35.2378Z" fill="white" fill-opacity="0.1"></path> <path d="M358.393 142.239C379.196 142.239 399.153 135.007 413.878 122.123C421.174 115.74 426.955 108.169 430.907 99.8275C434.86 91.4862 436.881 82.5444 436.896 73.5113C436.896 64.4781 434.875 55.5363 430.922 47.195C426.969 38.8537 421.189 31.2695 413.908 24.8862C406.612 18.503 397.964 13.4512 388.439 9.99199C378.914 6.54581 368.706 4.77051 358.408 4.77051C348.096 4.77051 337.887 6.54581 328.362 10.005C318.822 13.4512 310.159 18.516 302.863 24.9124C295.567 31.3087 289.787 38.8929 285.849 47.2472C281.912 55.5755 279.891 64.4912 279.891 73.4982C279.905 91.7342 288.182 109.226 302.908 122.123C317.619 135.007 337.575 142.239 358.393 142.239ZM358.393 35.2378C364.114 35.2509 369.775 36.243 375.065 38.1619C380.37 40.0807 385.17 42.9003 389.226 46.464C393.298 50.0277 396.523 54.244 398.737 58.9042C400.921 63.5382 402.05 68.4986 402.035 73.5113C402.035 83.654 397.459 93.3659 389.286 100.545C381.098 107.699 369.998 111.719 358.423 111.719C352.702 111.719 347.026 110.74 341.721 108.822C336.416 106.903 331.616 104.096 327.56 100.545C319.387 93.3659 314.795 83.6409 314.81 73.5113C314.81 68.4986 315.94 63.5382 318.124 58.9042C320.308 54.2571 323.518 50.0407 327.575 46.4771C331.631 42.9265 336.446 40.1069 341.751 38.1749C347.026 36.256 352.672 35.2639 358.393 35.2378Z" fill="white" fill-opacity="0.1"></path> <path d="M200.14 138.936C200.17 139.067 200.17 139.197 200.14 139.328C200.11 139.458 200.036 139.576 199.947 139.68C199.858 139.785 199.724 139.863 199.59 139.915C199.456 139.967 199.308 139.994 199.159 139.994H157.969C157.746 139.994 157.523 139.941 157.345 139.811C157.166 139.693 157.033 139.524 156.988 139.328L120.686 8.62118C120.657 8.49065 120.657 8.36011 120.686 8.22957C120.716 8.09904 120.79 7.98155 120.88 7.87712C120.969 7.77269 121.102 7.69437 121.236 7.6291C121.37 7.57689 121.519 7.55078 121.682 7.55078H162.872C163.095 7.55078 163.318 7.603 163.496 7.72048C163.675 7.83796 163.809 8.00766 163.853 8.20347L200.14 138.936Z" fill="white" fill-opacity="0.1"></path> <path d="M273.799 138.936C273.829 139.067 273.829 139.197 273.799 139.328C273.769 139.458 273.695 139.576 273.606 139.68C273.516 139.785 273.383 139.863 273.249 139.915C273.115 139.967 272.967 139.994 272.818 139.994H231.628C231.405 139.994 231.182 139.941 231.004 139.811C230.825 139.693 230.706 139.524 230.647 139.328L194.36 8.62118C194.33 8.49065 194.33 8.36011 194.36 8.22957C194.39 8.09904 194.464 7.98155 194.553 7.87712C194.643 7.77269 194.776 7.69437 194.91 7.6291C195.044 7.57689 195.192 7.55078 195.356 7.55078H236.546C236.769 7.55078 236.992 7.603 237.17 7.72048C237.349 7.83796 237.467 8.00766 237.527 8.20347L273.799 138.936Z" fill="white" fill-opacity="0.1"></path> <path d="M1069.08 138.936C1069.11 139.067 1069.11 139.197 1069.08 139.328C1069.05 139.458 1068.97 139.576 1068.88 139.68C1068.79 139.785 1068.66 139.863 1068.53 139.915C1068.39 139.967 1068.24 139.994 1068.08 139.994H1026.89C1026.67 139.994 1026.44 139.941 1026.27 139.811C1026.09 139.693 1025.97 139.524 1025.91 139.328L989.638 8.62118C989.608 8.49065 989.593 8.36011 989.638 8.22957C989.667 8.09904 989.742 7.98155 989.831 7.87712C989.92 7.77269 990.054 7.69437 990.187 7.6291C990.321 7.57689 990.485 7.55078 990.633 7.55078H1031.82C1032.05 7.55078 1032.27 7.603 1032.45 7.72048C1032.63 7.83796 1032.74 8.00766 1032.8 8.20347L1069.08 138.936Z" fill="white" fill-opacity="0.1"></path> <path d="M36.0025 142.239C56.8057 142.239 76.762 135.007 91.4877 122.123C98.7837 115.74 104.564 108.169 108.517 99.8275C112.469 91.4862 114.49 82.5444 114.505 73.5113C114.505 64.4781 112.484 55.5363 108.532 47.195C104.594 38.8537 98.7986 31.2695 91.5175 24.8862C84.2215 18.503 75.5732 13.4512 66.0483 9.99199C56.5234 6.54581 46.315 4.77051 36.0174 4.77051C25.7049 4.77051 15.4965 6.54581 5.97156 10.005C-3.56821 13.4512 -12.2313 18.516 -19.5273 24.9124C-26.8233 31.3087 -32.6036 38.8929 -36.5413 47.2472C-40.4791 55.5755 -42.5 64.4912 -42.5 73.4982C-42.4851 91.7342 -34.2084 109.226 -19.4827 122.123C-4.75697 135.007 15.1993 142.239 36.0025 142.239ZM36.0025 35.2378C41.7234 35.2509 47.3848 36.243 52.6748 38.1619C57.9796 40.0807 62.7792 42.9003 66.8359 46.464C70.9074 50.0277 74.1319 54.244 76.3459 58.9042C78.5303 63.5382 79.6596 68.4986 79.6447 73.5113C79.6447 83.654 75.068 93.3659 66.8953 100.545C58.7078 107.699 47.6077 111.719 36.0322 111.719C30.2965 111.719 24.635 110.74 19.3302 108.822C14.0402 106.903 9.22577 104.096 5.16914 100.545C-3.00356 93.3659 -7.59514 83.6409 -7.58028 73.5113C-7.58028 68.4986 -6.45094 63.5382 -4.26661 58.9042C-2.08226 54.2571 1.14224 50.0407 5.18401 46.4771C9.24064 42.9265 14.0551 40.1069 19.3599 38.1749C24.635 36.256 30.2965 35.2639 36.0025 35.2378Z" fill="white" fill-opacity="0.1"></path> <path d="M1228.34 141.468C1249.14 141.468 1269.1 134.237 1283.83 121.353C1291.12 114.969 1296.9 107.385 1300.85 99.057C1304.81 90.7157 1306.83 81.7739 1306.84 72.7408C1306.84 63.7076 1304.82 54.7658 1300.87 46.4245C1296.92 38.0832 1291.14 30.499 1283.86 24.1157C1276.56 17.7325 1267.91 12.6807 1258.39 9.22148C1248.86 5.76225 1238.65 4 1228.36 4C1218.04 4 1207.83 5.7753 1198.31 9.23453C1188.77 12.6807 1180.11 17.7586 1172.81 24.1418C1165.51 30.5382 1159.73 38.1224 1155.8 46.4767C1151.86 54.805 1149.84 63.7206 1149.84 72.7277C1149.85 90.9637 1158.13 108.456 1172.86 121.353C1187.57 134.237 1207.52 141.468 1228.34 141.468ZM1228.34 34.4673C1234.06 34.4804 1239.72 35.4725 1245.01 37.3913C1250.32 39.3102 1255.13 42.1298 1259.17 45.6935C1263.25 49.2572 1266.47 53.4735 1268.68 58.1337C1270.87 62.7677 1272 67.7281 1271.98 72.7408C1271.98 82.8835 1267.41 92.5954 1259.23 99.775C1251.05 106.928 1239.95 110.949 1228.37 110.949C1222.63 110.949 1216.96 109.97 1211.67 108.051C1206.38 106.132 1201.56 103.326 1197.51 99.775C1189.33 92.5954 1184.74 82.8704 1184.76 72.7408C1184.76 67.7281 1185.89 62.7677 1188.07 58.1337C1190.26 53.4866 1193.48 49.2702 1197.52 45.7066C1201.58 42.1559 1206.39 39.3363 1211.7 37.4044C1216.97 35.4855 1222.62 34.4804 1228.34 34.4673Z" fill="white" fill-opacity="0.1"></path> <path d="M1143.75 138.153C1143.79 138.284 1143.79 138.414 1143.75 138.545C1143.72 138.675 1143.64 138.793 1143.55 138.897C1143.46 139.002 1143.33 139.08 1143.2 139.132C1143.06 139.185 1142.91 139.211 1142.77 139.211H1101.57C1101.35 139.211 1101.13 139.158 1100.95 139.028C1100.77 138.91 1100.64 138.741 1100.59 138.545L1064.31 7.8513C1064.28 7.72076 1064.28 7.59022 1064.31 7.45968C1064.34 7.32915 1064.41 7.21166 1064.5 7.10723C1064.59 7.00281 1064.72 6.92448 1064.86 6.87227C1064.99 6.82005 1065.14 6.79395 1065.3 6.79395H1106.49C1106.72 6.79395 1106.94 6.84616 1107.12 6.96364C1107.3 7.08113 1107.43 7.25082 1107.47 7.44663L1143.75 138.153Z" fill="white" fill-opacity="0.1"></path> <path d="M1392.48 138.153C1392.51 138.284 1392.51 138.414 1392.48 138.545C1392.45 138.675 1392.37 138.793 1392.28 138.897C1392.2 139.001 1392.06 139.08 1391.93 139.132C1391.79 139.184 1391.65 139.21 1391.48 139.21H1350.29C1350.07 139.21 1349.85 139.158 1349.67 139.028C1349.49 138.91 1349.37 138.74 1349.31 138.545L1313.02 7.82493C1312.99 7.69439 1312.99 7.56385 1313.02 7.43332C1313.05 7.30278 1313.13 7.1853 1313.22 7.08087C1313.31 6.97644 1313.44 6.89811 1313.57 6.8459C1313.71 6.79368 1313.87 6.76758 1314.02 6.76758H1355.21C1355.43 6.76758 1355.66 6.81979 1355.83 6.93728C1356.01 7.05476 1356.13 7.22446 1356.19 7.42026L1392.48 138.153Z" fill="white" fill-opacity="0.1"></path> <path d="M209.561 169.886C209.561 169.651 209.457 169.442 209.279 169.272C209.101 169.116 208.848 169.024 208.581 169.024H76.4653C76.2127 169.024 75.9601 169.116 75.7669 169.272C75.5886 169.429 75.4697 169.651 75.4697 169.886V201.267C75.4697 201.489 75.5738 201.711 75.7669 201.881C75.9452 202.037 76.1979 202.129 76.4653 202.129H121.207C121.46 202.129 121.712 202.22 121.906 202.377C122.084 202.533 122.188 202.755 122.188 202.99V300.566C122.188 300.788 122.292 301.01 122.47 301.167C122.649 301.324 122.901 301.415 123.169 301.415H161.848C162.1 301.415 162.353 301.324 162.546 301.167C162.724 301.01 162.828 300.788 162.828 300.566V202.99C162.828 202.768 162.932 202.546 163.111 202.377C163.289 202.22 163.542 202.129 163.809 202.129H208.566C208.833 202.129 209.071 202.037 209.264 201.881C209.443 201.724 209.547 201.502 209.547 201.267V169.886H209.561Z" fill="white" fill-opacity="0.1"></path> <path d="M90.0019 300.397C90.0316 300.528 90.0316 300.659 90.0019 300.789C89.9722 300.92 89.8979 301.037 89.8087 301.142C89.7196 301.246 89.6007 301.324 89.4521 301.377C89.3184 301.429 89.1698 301.455 89.0212 301.455H47.8308C47.6079 301.455 47.385 301.403 47.2067 301.272C47.0284 301.155 46.8947 300.985 46.8501 300.789L10.5633 170.069C10.5336 169.939 10.5187 169.808 10.5633 169.678C10.593 169.547 10.6673 169.43 10.7565 169.325C10.8456 169.221 10.9793 169.143 11.1131 169.077C11.2468 169.025 11.3954 168.999 11.5589 168.999H52.7493C52.9722 168.999 53.1951 169.051 53.3734 169.169C53.5517 169.286 53.6706 169.456 53.73 169.652L90.0019 300.397Z" fill="white" fill-opacity="0.1"></path> <path d="M-30.4934 235.272C-30.7162 235.272 -30.9391 235.324 -31.1174 235.455C-31.2958 235.572 -31.4295 235.742 -31.4741 235.938L-49.3351 300.41C-49.3649 300.541 -49.3649 300.671 -49.3351 300.802C-49.3054 300.932 -49.2311 301.05 -49.142 301.154C-49.0528 301.259 -48.9339 301.337 -48.7853 301.389C-48.6516 301.441 -48.503 301.467 -48.3544 301.467H-7.16402C-6.94112 301.467 -6.71821 301.415 -6.5399 301.285C-6.36159 301.167 -6.22787 300.998 -6.18329 300.802L11.6926 236.316C11.7224 236.186 11.7372 236.055 11.6926 235.925C11.6629 235.794 11.5886 235.677 11.4995 235.572C11.4103 235.468 11.2766 235.39 11.1428 235.324C11.0091 235.272 10.8605 235.246 10.6971 235.246L-30.4934 235.272Z" fill="white" fill-opacity="0.1"></path> <path d="M363.579 300.397C363.549 300.528 363.549 300.659 363.579 300.789C363.609 300.92 363.683 301.037 363.772 301.142C363.876 301.246 363.995 301.324 364.129 301.377C364.262 301.429 364.411 301.455 364.56 301.455H405.75C405.973 301.455 406.196 301.403 406.374 301.272C406.552 301.155 406.671 300.985 406.731 300.789L443.018 170.069C443.047 169.939 443.047 169.808 443.018 169.678C442.988 169.547 442.914 169.43 442.824 169.325C442.72 169.221 442.602 169.143 442.468 169.077C442.334 169.025 442.185 168.999 442.037 168.999H400.846C400.624 168.999 400.401 169.051 400.222 169.169C400.044 169.286 399.925 169.456 399.866 169.652L363.579 300.397Z" fill="white" fill-opacity="0.1"></path> <path d="M484.089 235.272C484.312 235.272 484.535 235.325 484.713 235.455C484.892 235.573 485.01 235.742 485.07 235.938L502.946 300.437C502.976 300.567 502.976 300.698 502.946 300.828C502.916 300.959 502.842 301.076 502.753 301.181C502.649 301.285 502.53 301.363 502.396 301.416C502.262 301.468 502.114 301.494 501.965 301.494H460.775C460.552 301.494 460.329 301.442 460.151 301.324C459.972 301.207 459.853 301.037 459.794 300.841L441.903 236.356C441.873 236.225 441.859 236.095 441.903 235.964C441.933 235.834 442.007 235.716 442.096 235.612C442.185 235.507 442.319 235.429 442.453 235.377C442.587 235.325 442.735 235.299 442.899 235.299H484.089V235.272Z" fill="white" fill-opacity="0.1"></path> <path d="M289.045 304C309.848 304 329.804 296.768 344.53 283.884C351.826 277.501 357.606 269.93 361.559 261.588C365.511 253.247 367.532 244.305 367.547 235.272C367.547 226.239 365.511 217.297 361.574 208.956C357.621 200.614 351.841 193.03 344.559 186.647C337.263 180.264 328.615 175.212 319.09 171.753C309.565 168.307 299.357 166.531 289.059 166.531C278.747 166.531 268.538 168.307 259.014 171.766C249.474 175.212 240.811 180.277 233.515 186.673C226.219 193.069 220.438 200.654 216.501 209.008C212.563 217.336 210.542 226.252 210.542 235.259C210.557 253.495 218.834 270.987 233.559 283.884C248.27 296.768 268.226 304 289.045 304ZM289.045 196.999C294.765 197.012 300.427 198.004 305.717 199.923C311.022 201.841 315.821 204.661 319.878 208.225C323.949 211.788 327.174 216.005 329.388 220.665C331.572 225.299 332.702 230.259 332.687 235.272C332.687 245.415 328.11 255.127 319.937 262.306C311.75 269.46 300.65 273.48 289.074 273.48C283.353 273.48 277.677 272.501 272.372 270.582C267.067 268.663 262.268 265.857 258.211 262.306C250.038 255.127 245.447 245.402 245.462 235.272C245.462 230.259 246.591 225.299 248.775 220.665C250.96 216.018 254.169 211.801 258.226 208.238C262.283 204.687 267.097 201.868 272.402 199.936C277.662 198.017 283.324 197.012 289.045 196.999Z" fill="white" fill-opacity="0.1"></path> <path d="M734.635 304C755.439 304 775.395 296.768 790.121 283.884C797.417 277.501 803.197 269.93 807.149 261.588C811.102 253.247 813.123 244.305 813.138 235.272C813.138 226.239 811.117 217.297 807.164 208.956C803.212 200.614 797.431 193.03 790.15 186.647C782.854 180.264 774.206 175.212 764.681 171.753C755.156 168.307 744.948 166.531 734.65 166.531C724.338 166.531 714.129 168.307 704.604 171.766C695.065 175.212 686.402 180.277 679.106 186.673C671.81 193.069 666.029 200.654 662.091 209.008C658.154 217.336 656.133 226.252 656.133 235.259C656.148 253.495 664.424 270.987 679.15 283.884C693.876 296.768 713.832 304 734.635 304ZM734.635 196.999C740.356 197.012 746.018 198.004 751.308 199.923C756.612 201.841 761.427 204.661 765.469 208.225C769.54 211.788 772.765 216.005 774.979 220.665C777.163 225.299 778.292 230.259 778.278 235.272C778.278 245.415 773.701 255.127 765.528 262.306C757.341 269.46 746.241 273.48 734.665 273.48C728.929 273.48 723.253 272.501 717.963 270.582C712.673 268.663 707.859 265.857 703.802 262.306C695.629 255.127 691.038 245.402 691.053 235.272C691.053 230.259 692.182 225.299 694.366 220.665C696.551 216.018 699.775 211.801 703.817 208.238C707.873 204.687 712.688 201.868 717.993 199.936C723.268 198.017 728.929 197.012 734.635 196.999Z" fill="white" fill-opacity="0.1"></path> <path d="M576.382 300.697C576.412 300.828 576.412 300.958 576.382 301.089C576.352 301.219 576.278 301.337 576.189 301.441C576.085 301.546 575.966 301.624 575.832 301.676C575.698 301.729 575.55 301.755 575.401 301.755H534.211C533.988 301.755 533.765 301.702 533.587 301.572C533.408 301.454 533.289 301.285 533.23 301.089L496.943 170.369C496.913 170.239 496.899 170.108 496.943 169.978C496.973 169.847 497.047 169.73 497.136 169.625C497.226 169.521 497.359 169.442 497.493 169.377C497.627 169.325 497.79 169.299 497.939 169.299H539.129C539.352 169.299 539.575 169.351 539.753 169.469C539.932 169.586 540.051 169.756 540.11 169.952L576.382 300.697Z" fill="white" fill-opacity="0.1"></path> <path d="M650.055 300.697C650.099 300.828 650.099 300.958 650.055 301.089C650.025 301.219 649.951 301.337 649.862 301.441C649.772 301.546 649.639 301.624 649.505 301.676C649.371 301.729 649.223 301.755 649.074 301.755H607.884C607.661 301.755 607.438 301.702 607.26 301.572C607.081 301.454 606.947 301.285 606.903 301.089L570.616 170.369C570.586 170.239 570.586 170.108 570.616 169.978C570.646 169.847 570.72 169.73 570.809 169.625C570.898 169.521 571.032 169.442 571.166 169.377C571.3 169.325 571.448 169.299 571.612 169.299H612.802C613.025 169.299 613.248 169.351 613.426 169.469C613.604 169.586 613.738 169.756 613.783 169.952L650.055 300.697Z" fill="white" fill-opacity="0.1"></path> <path d="M1057.03 304C1077.83 304 1097.8 296.768 1112.51 283.884C1119.81 277.501 1125.59 269.93 1129.54 261.588C1133.49 253.247 1135.51 244.305 1135.53 235.272C1135.53 226.239 1133.51 217.297 1129.55 208.956C1125.6 200.614 1119.82 193.03 1112.54 186.647C1105.24 180.264 1096.6 175.212 1087.07 171.753C1077.55 168.307 1067.34 166.531 1057.04 166.531C1046.73 166.531 1036.52 168.307 1026.99 171.766C1017.46 175.212 1008.79 180.277 1001.5 186.673C994.2 193.069 988.42 200.654 984.482 209.008C980.544 217.336 978.523 226.252 978.523 235.259C978.538 253.495 986.815 270.987 1001.54 283.884C1016.25 296.768 1036.22 304 1057.03 304ZM1057.03 196.999C1062.75 197.012 1068.42 198.004 1073.7 199.923C1079 201.841 1083.8 204.661 1087.86 208.225C1091.93 211.788 1095.16 216.005 1097.37 220.665C1099.55 225.299 1100.68 230.259 1100.67 235.272C1100.67 245.415 1096.09 255.127 1087.92 262.306C1079.73 269.46 1068.63 273.48 1057.06 273.48C1051.32 273.48 1045.66 272.501 1040.35 270.582C1035.06 268.663 1030.25 265.857 1026.19 262.306C1018.02 255.127 1013.43 245.402 1013.44 235.272C1013.44 230.259 1014.57 225.299 1016.76 220.665C1018.94 216.018 1022.17 211.801 1026.21 208.238C1030.26 204.687 1035.08 201.868 1040.38 199.936C1045.66 198.017 1051.31 197.012 1057.03 196.999Z" fill="white" fill-opacity="0.1"></path> <path d="M898.773 300.697C898.802 300.828 898.802 300.958 898.773 301.089C898.743 301.219 898.669 301.337 898.58 301.441C898.49 301.546 898.357 301.624 898.223 301.676C898.089 301.729 897.941 301.755 897.777 301.755H856.587C856.364 301.755 856.141 301.702 855.963 301.572C855.784 301.454 855.665 301.285 855.606 301.089L819.319 170.369C819.289 170.239 819.289 170.108 819.319 169.978C819.349 169.847 819.423 169.73 819.512 169.625C819.602 169.521 819.735 169.442 819.869 169.377C820.003 169.325 820.166 169.299 820.315 169.299H861.505C861.728 169.299 861.951 169.351 862.129 169.469C862.308 169.586 862.426 169.756 862.486 169.952L898.773 300.697Z" fill="white" fill-opacity="0.1"></path> <path d="M972.444 300.697C972.474 300.828 972.474 300.958 972.444 301.089C972.415 301.219 972.34 301.337 972.251 301.441C972.162 301.546 972.043 301.624 971.895 301.676C971.761 301.729 971.612 301.755 971.464 301.755H930.259C930.036 301.755 929.813 301.702 929.634 301.572C929.456 301.454 929.322 301.285 929.278 301.089L892.991 170.369C892.961 170.239 892.946 170.108 892.991 169.978C893.021 169.847 893.095 169.73 893.184 169.625C893.288 169.521 893.407 169.442 893.541 169.377C893.675 169.325 893.823 169.299 893.987 169.299H935.177C935.4 169.299 935.623 169.351 935.801 169.469C935.979 169.586 936.113 169.756 936.158 169.952L972.444 300.697Z" fill="white" fill-opacity="0.1"></path> <path d="M1400.89 169.886C1400.89 169.651 1400.78 169.442 1400.61 169.272C1400.43 169.116 1400.18 169.024 1399.91 169.024H1267.79C1267.54 169.024 1267.29 169.116 1267.09 169.272C1266.92 169.429 1266.8 169.651 1266.8 169.886V201.267C1266.8 201.489 1266.9 201.711 1267.09 201.881C1267.27 202.037 1267.53 202.129 1267.79 202.129H1312.53C1312.79 202.129 1313.04 202.22 1313.23 202.377C1313.41 202.533 1313.51 202.755 1313.51 202.99V300.566C1313.51 300.788 1313.62 301.01 1313.8 301.167C1313.98 301.324 1314.23 301.415 1314.5 301.415H1353.17C1353.43 301.415 1353.68 301.324 1353.87 301.167C1354.05 301.01 1354.16 300.788 1354.16 300.566V202.99C1354.16 202.768 1354.26 202.546 1354.44 202.377C1354.62 202.22 1354.87 202.129 1355.14 202.129H1399.89C1400.15 202.129 1400.4 202.037 1400.59 201.881C1400.77 201.724 1400.87 201.502 1400.87 201.267V169.886H1400.89Z" fill="white" fill-opacity="0.1"></path> <path d="M1281.33 300.397C1281.36 300.528 1281.36 300.659 1281.33 300.789C1281.3 300.92 1281.23 301.037 1281.14 301.142C1281.05 301.246 1280.93 301.324 1280.78 301.377C1280.65 301.429 1280.5 301.455 1280.35 301.455H1239.16C1238.94 301.455 1238.71 301.403 1238.53 301.272C1238.36 301.155 1238.22 300.985 1238.18 300.789L1201.89 170.069C1201.86 169.939 1201.85 169.808 1201.89 169.678C1201.92 169.547 1202 169.43 1202.08 169.325C1202.19 169.221 1202.31 169.143 1202.44 169.077C1202.57 169.025 1202.72 168.999 1202.89 168.999H1244.08C1244.3 168.999 1244.52 169.051 1244.7 169.169C1244.88 169.286 1245 169.456 1245.06 169.652L1281.33 300.397Z" fill="white" fill-opacity="0.1"></path> <path d="M1160.83 235.272C1160.61 235.272 1160.39 235.324 1160.21 235.442C1160.03 235.559 1159.91 235.729 1159.85 235.925L1141.99 300.397C1141.96 300.528 1141.96 300.658 1141.99 300.789C1142.02 300.919 1142.1 301.037 1142.18 301.141C1142.27 301.246 1142.41 301.324 1142.54 301.376C1142.67 301.428 1142.82 301.454 1142.97 301.454H1184.16C1184.39 301.454 1184.61 301.402 1184.79 301.272C1184.96 301.154 1185.1 300.984 1185.14 300.789L1203.02 236.303C1203.05 236.173 1203.06 236.042 1203.02 235.912C1202.99 235.781 1202.91 235.664 1202.83 235.559C1202.74 235.455 1202.6 235.377 1202.47 235.324C1202.34 235.272 1202.19 235.246 1202.02 235.246L1160.83 235.272Z" fill="white" fill-opacity="0.1"></path> </g> </g> </g> <defs> <clipPath id="clip0_588_10138"> <rect width="1902.01" height="300" fill="white" transform="translate(-268.005 4)"></rect> </clipPath> </defs> </svg> 