<?xml version="1.0" encoding="UTF-8"?> <svg xmlns="http://www.w3.org/2000/svg" width="229" height="28" viewBox="0 0 229 28" fill="none"> <path fill-rule="evenodd" clip-rule="evenodd" d="M61.2706 2.53375e-07C65.0398 2.53375e-07 68.655 1.47561 71.3203 4.10219C73.9855 6.72877 75.4829 10.2913 75.4829 14.0058C75.4799 17.7184 73.9811 21.2777 71.3161 23.9019C68.651 26.526 65.038 28 61.2706 28C57.5026 28.0005 53.8888 26.5269 51.2234 23.9028C48.5578 21.2786 47.0589 17.7188 47.0557 14.0058C47.0557 12.1664 47.4233 10.345 48.1377 8.64553C48.8523 6.94612 49.8995 5.40191 51.2193 4.10131C52.5395 2.80088 54.1062 1.76925 55.8309 1.0654C57.5556 0.361728 59.4039 -0.00034966 61.2706 2.53375e-07ZM61.2706 6.2064C60.2316 6.2064 59.2028 6.40818 58.2432 6.80018C57.2835 7.19235 56.4117 7.76688 55.6774 8.49139C54.9431 9.21571 54.3613 10.0756 53.9644 11.0217C53.5678 11.9681 53.3641 12.9821 53.3654 14.0059C53.3659 16.0716 54.1993 18.0523 55.6815 19.5129C57.1641 20.9733 59.1742 21.7937 61.2706 21.7937C63.3666 21.7937 65.3767 20.9733 66.8588 19.5127C68.3407 18.0522 69.1734 16.0714 69.1734 14.0059C69.175 12.9823 68.9715 11.9683 68.5753 11.0219C68.1786 10.0758 67.597 9.21589 66.8627 8.49139C66.1288 7.76706 65.257 7.19235 64.2977 6.80035C63.3379 6.40818 62.3093 6.2064 61.2706 6.2064Z" fill="#DF192C"></path> <path d="M18.6518 0.595551C18.6211 0.541253 18.5626 0.505859 18.4971 0.505859H11.0322L10.985 0.512062C10.8953 0.536284 10.8363 0.627804 10.8596 0.722158L17.425 27.3494L17.4425 27.3934C17.4733 27.4478 17.5321 27.483 17.5976 27.483H25.0601L25.1073 27.4768C25.1969 27.4527 25.2559 27.3613 25.2324 27.2667L18.6693 0.639561L18.6518 0.595551Z" fill="#DF192C"></path> <path d="M46.8743 0.634356C46.8536 0.560306 46.7846 0.505859 46.7031 0.505859H22.7831L22.736 0.512114C22.6609 0.532496 22.6055 0.600362 22.6055 0.68086V7.0738L22.6119 7.12031C22.6325 7.19436 22.7015 7.2488 22.7831 7.2488H30.8846L30.9318 7.25506C31.007 7.27544 31.0621 7.3433 31.0621 7.4238V27.308L31.0685 27.3546C31.0892 27.4287 31.158 27.483 31.2398 27.483H38.2439L38.2912 27.4768C38.3664 27.4565 38.4215 27.3887 38.4215 27.308V7.4238L38.4279 7.37729C38.4486 7.30324 38.5176 7.2488 38.5991 7.2488H46.7031L46.7502 7.24255C46.8253 7.22216 46.8807 7.1543 46.8807 7.0738V0.68086L46.8743 0.634356Z" fill="#DF192C"></path> <path d="M10.8805 13.998C10.9791 13.998 11.0555 14.0762 11.0581 14.1678L11.0532 14.2146L7.81476 27.3508C7.79927 27.4135 7.75059 27.4615 7.68983 27.4781L7.64232 27.4845H0.177643C0.0790082 27.4845 0.00268393 27.4065 0 27.3149L0.00503237 27.2682L3.24343 14.1318C3.25892 14.0691 3.30759 14.0211 3.36835 14.0044L3.41586 13.998H10.8805Z" fill="#DF192C"></path> <path d="M89.1459 0.675462C89.1433 0.583776 89.0669 0.505859 88.9684 0.505859H81.5035L81.456 0.512237C81.3951 0.528901 81.3463 0.576839 81.3309 0.639561L74.7678 27.2667L74.7627 27.3134C74.7654 27.4051 74.8416 27.483 74.9404 27.483H82.4051L82.4527 27.4767C82.5135 27.46 82.5621 27.4122 82.5775 27.3494L89.1406 0.722158L89.1459 0.675462Z" fill="#DF192C"></path> <path d="M96.5844 13.998C96.6501 13.998 96.7087 14.0335 96.7389 14.0878L96.7566 14.1318L99.9949 27.2682C100.019 27.3625 99.9594 27.454 99.8697 27.4783L99.8227 27.4845H92.3599C92.2951 27.4845 92.2365 27.4491 92.2054 27.3948L92.1877 27.3508L88.9494 14.2146C88.9263 14.1201 88.9849 14.0285 89.0745 14.0043L89.1216 13.998H96.5844Z" fill="#DF192C"></path> <path d="M111.776 9.992C110.952 9.152 110.54 8.088 110.54 6.8C110.54 5.512 110.952 4.452 111.776 3.62C112.608 2.78 113.656 2.36 114.92 2.36C116.336 2.36 117.452 2.872 118.268 3.896C118.628 4.336 118.892 4.844 119.06 5.42H117.98C117.812 5.02 117.6 4.68 117.344 4.4C116.712 3.72 115.904 3.38 114.92 3.38C113.952 3.38 113.16 3.696 112.544 4.328C111.928 4.96 111.62 5.784 111.62 6.8C111.62 7.816 111.928 8.64 112.544 9.272C113.16 9.904 113.952 10.22 114.92 10.22C115.92 10.22 116.748 9.852 117.404 9.116C117.668 8.812 117.88 8.44 118.04 8H119.12C118.928 8.624 118.648 9.164 118.28 9.62C117.44 10.7 116.32 11.24 114.92 11.24C113.656 11.24 112.608 10.824 111.776 9.992ZM120.954 10.232C120.37 9.64 120.078 8.896 120.078 8C120.078 7.104 120.37 6.36 120.954 5.768C121.538 5.176 122.266 4.88 123.138 4.88C124.01 4.88 124.738 5.172 125.322 5.756C125.906 6.34 126.198 7.068 126.198 7.94V8.3H121.038C121.102 8.86 121.33 9.32 121.722 9.68C122.114 10.04 122.586 10.22 123.138 10.22C123.73 10.22 124.238 10.04 124.662 9.68C124.854 9.52 125.006 9.34 125.118 9.14H126.078C125.934 9.516 125.73 9.848 125.466 10.136C124.842 10.792 124.066 11.12 123.138 11.12C122.266 11.12 121.538 10.824 120.954 10.232ZM121.062 7.46H125.178C125.106 6.988 124.886 6.592 124.518 6.272C124.15 5.944 123.69 5.78 123.138 5.78C122.586 5.78 122.122 5.944 121.746 6.272C121.37 6.592 121.142 6.988 121.062 7.46ZM127.516 13.28V5H128.476V5.96H128.488L128.608 5.78C128.744 5.572 128.988 5.372 129.34 5.18C129.692 4.98 130.124 4.88 130.636 4.88C131.436 4.88 132.116 5.18 132.676 5.78C133.236 6.372 133.516 7.112 133.516 8C133.516 8.888 133.236 9.632 132.676 10.232C132.116 10.824 131.436 11.12 130.636 11.12C130.124 11.12 129.688 11.024 129.328 10.832C128.976 10.632 128.736 10.424 128.608 10.208L128.488 10.04H128.476V13.28H127.516ZM129.052 6.404C128.668 6.82 128.476 7.352 128.476 8C128.476 8.648 128.668 9.18 129.052 9.596C129.444 10.012 129.932 10.22 130.516 10.22C131.1 10.22 131.584 10.012 131.968 9.596C132.36 9.18 132.556 8.648 132.556 8C132.556 7.352 132.36 6.82 131.968 6.404C131.584 5.988 131.1 5.78 130.516 5.78C129.932 5.78 129.444 5.988 129.052 6.404ZM134.84 11V5H137.78C138.34 5 138.78 5.14 139.1 5.42C139.42 5.7 139.58 6.06 139.58 6.5C139.58 6.7 139.552 6.884 139.496 7.052C139.44 7.212 139.372 7.34 139.292 7.436C139.212 7.524 139.124 7.6 139.028 7.664C138.94 7.72 138.864 7.76 138.8 7.784C138.744 7.8 138.704 7.808 138.68 7.808V7.82C138.704 7.82 138.752 7.832 138.824 7.856C138.896 7.872 138.988 7.916 139.1 7.988C139.22 8.052 139.332 8.132 139.436 8.228C139.54 8.324 139.628 8.464 139.7 8.648C139.78 8.832 139.82 9.036 139.82 9.26C139.82 9.78 139.64 10.2 139.28 10.52C138.928 10.84 138.432 11 137.792 11H134.84ZM135.8 7.46H137.72C138.32 7.46 138.62 7.2 138.62 6.68C138.62 6.16 138.32 5.9 137.72 5.9H135.8V7.46ZM135.8 10.1H137.78C138.132 10.1 138.4 10.02 138.584 9.86C138.768 9.7 138.86 9.48 138.86 9.2C138.86 8.92 138.768 8.7 138.584 8.54C138.4 8.38 138.132 8.3 137.78 8.3H135.8V10.1ZM141.145 11V5H142.105V9.5L142.093 9.62H142.117L145.345 5H146.425V11H145.465V6.5L145.477 6.38H145.453L142.225 11H141.145ZM148.61 10.232C148.034 9.64 147.746 8.896 147.746 8C147.746 7.104 148.034 6.36 148.61 5.768C149.186 5.176 149.898 4.88 150.746 4.88C151.73 4.88 152.51 5.232 153.086 5.936C153.334 6.248 153.514 6.596 153.626 6.98H152.666C152.578 6.764 152.446 6.564 152.27 6.38C151.886 5.98 151.378 5.78 150.746 5.78C150.162 5.78 149.674 5.988 149.282 6.404C148.898 6.82 148.706 7.352 148.706 8C148.706 8.648 148.906 9.18 149.306 9.596C149.706 10.012 150.186 10.22 150.746 10.22C151.402 10.22 151.926 10 152.318 9.56C152.494 9.376 152.63 9.156 152.726 8.9H153.686C153.582 9.308 153.398 9.68 153.134 10.016C152.526 10.752 151.73 11.12 150.746 11.12C149.898 11.12 149.186 10.824 148.61 10.232ZM111.344 24.232C110.768 23.64 110.48 22.896 110.48 22C110.48 21.104 110.768 20.36 111.344 19.768C111.92 19.176 112.632 18.88 113.48 18.88C114.464 18.88 115.244 19.232 115.82 19.936C116.068 20.248 116.248 20.596 116.36 20.98H115.4C115.312 20.764 115.18 20.564 115.004 20.38C114.62 19.98 114.112 19.78 113.48 19.78C112.896 19.78 112.408 19.988 112.016 20.404C111.632 20.82 111.44 21.352 111.44 22C111.44 22.648 111.64 23.18 112.04 23.596C112.44 24.012 112.92 24.22 113.48 24.22C114.136 24.22 114.66 24 115.052 23.56C115.228 23.376 115.364 23.156 115.46 22.9H116.42C116.316 23.308 116.132 23.68 115.868 24.016C115.26 24.752 114.464 25.12 113.48 25.12C112.632 25.12 111.92 24.824 111.344 24.232ZM118.105 24.232C117.545 23.632 117.265 22.888 117.265 22C117.265 21.112 117.545 20.372 118.105 19.78C118.665 19.18 119.345 18.88 120.145 18.88C120.649 18.88 121.073 18.976 121.417 19.168C121.769 19.36 122.025 19.568 122.185 19.792L122.293 19.972H122.305V19H123.265V25H122.305V24.04H122.293L122.185 24.208C122.041 24.424 121.793 24.632 121.441 24.832C121.089 25.024 120.657 25.12 120.145 25.12C119.345 25.12 118.665 24.824 118.105 24.232ZM118.801 20.404C118.417 20.82 118.225 21.352 118.225 22C118.225 22.648 118.417 23.18 118.801 23.596C119.193 24.012 119.681 24.22 120.265 24.22C120.849 24.22 121.333 24.012 121.717 23.596C122.109 23.18 122.305 22.648 122.305 22C122.305 21.352 122.109 20.82 121.717 20.404C121.333 19.988 120.849 19.78 120.265 19.78C119.681 19.78 119.193 19.988 118.801 20.404ZM124.949 25V19H126.389L128.189 22.72H128.489L130.289 19H131.729V25H130.769V20.2L130.781 20.08H130.757L128.969 23.8H127.709L125.921 20.08H125.897L125.909 20.2V25H124.949ZM133.938 24.232C133.346 23.64 133.05 22.896 133.05 22C133.05 21.104 133.346 20.36 133.938 19.768C134.53 19.176 135.274 18.88 136.17 18.88C137.066 18.88 137.81 19.176 138.402 19.768C138.994 20.36 139.29 21.104 139.29 22C139.29 22.896 138.994 23.64 138.402 24.232C137.81 24.824 137.066 25.12 136.17 25.12C135.274 25.12 134.53 24.824 133.938 24.232ZM134.622 20.404C134.214 20.82 134.01 21.352 134.01 22C134.01 22.648 134.214 23.18 134.622 23.596C135.03 24.012 135.546 24.22 136.17 24.22C136.794 24.22 137.31 24.012 137.718 23.596C138.126 23.18 138.33 22.648 138.33 22C138.33 21.352 138.126 20.82 137.718 20.404C137.31 19.988 136.794 19.78 136.17 19.78C135.546 19.78 135.03 19.988 134.622 20.404ZM141.134 24.232C140.542 23.64 140.246 22.896 140.246 22C140.246 21.104 140.542 20.36 141.134 19.768C141.726 19.176 142.47 18.88 143.366 18.88C144.262 18.88 145.006 19.176 145.598 19.768C146.19 20.36 146.486 21.104 146.486 22C146.486 22.896 146.19 23.64 145.598 24.232C145.006 24.824 144.262 25.12 143.366 25.12C142.47 25.12 141.726 24.824 141.134 24.232ZM141.818 20.404C141.41 20.82 141.206 21.352 141.206 22C141.206 22.648 141.41 23.18 141.818 23.596C142.226 24.012 142.742 24.22 143.366 24.22C143.99 24.22 144.506 24.012 144.914 23.596C145.322 23.18 145.526 22.648 145.526 22C145.526 21.352 145.322 20.82 144.914 20.404C144.506 19.988 143.99 19.78 143.366 19.78C142.742 19.78 142.226 19.988 141.818 20.404ZM147.441 21.76C147.441 19.952 147.773 18.64 148.437 17.824C149.101 17.008 150.089 16.6 151.401 16.6H152.841V17.62H151.401C150.449 17.62 149.737 17.844 149.265 18.292C148.801 18.732 148.513 19.448 148.401 20.44H148.413C148.533 20.264 148.693 20.104 148.893 19.96C149.341 19.64 149.877 19.48 150.501 19.48C151.317 19.48 151.989 19.748 152.517 20.284C153.053 20.812 153.321 21.484 153.321 22.3C153.321 23.124 153.045 23.8 152.493 24.328C151.949 24.856 151.245 25.12 150.381 25.12C149.493 25.12 148.781 24.824 148.245 24.232C147.709 23.64 147.441 22.816 147.441 21.76ZM148.965 20.932C148.589 21.3 148.401 21.756 148.401 22.3C148.401 22.844 148.589 23.3 148.965 23.668C149.341 24.036 149.813 24.22 150.381 24.22C150.949 24.22 151.421 24.036 151.797 23.668C152.173 23.3 152.361 22.844 152.361 22.3C152.361 21.756 152.173 21.3 151.797 20.932C151.421 20.564 150.949 20.38 150.381 20.38C149.813 20.38 149.341 20.564 148.965 20.932ZM155.02 24.232C154.444 23.64 154.156 22.896 154.156 22C154.156 21.104 154.444 20.36 155.02 19.768C155.596 19.176 156.308 18.88 157.156 18.88C158.14 18.88 158.92 19.232 159.496 19.936C159.744 20.248 159.924 20.596 160.036 20.98H159.076C158.988 20.764 158.856 20.564 158.68 20.38C158.296 19.98 157.788 19.78 157.156 19.78C156.572 19.78 156.084 19.988 155.692 20.404C155.308 20.82 155.116 21.352 155.116 22C155.116 22.648 155.316 23.18 155.716 23.596C156.116 24.012 156.596 24.22 157.156 24.22C157.812 24.22 158.336 24 158.728 23.56C158.904 23.376 159.04 23.156 159.136 22.9H160.096C159.992 23.308 159.808 23.68 159.544 24.016C158.936 24.752 158.14 25.12 157.156 25.12C156.308 25.12 155.596 24.824 155.02 24.232ZM160.581 25L162.261 19H164.781L166.461 25H165.441L164.061 19.9H162.981L161.601 25H160.581ZM166.642 19H167.662L168.982 24.1H169.882L171.442 19H172.462L169.942 27.28H168.922L169.642 25H168.262L166.642 19ZM172.521 25L174.801 21.82L172.701 19H173.841L175.641 21.4H176.661V19H177.621V21.4H178.641L180.441 19H181.581L179.481 21.82L181.761 25H180.561L178.641 22.3H177.621V25H176.661V22.3H175.641L173.721 25H172.521ZM182.664 25V19H183.624V23.5L183.612 23.62H183.636L186.864 19H187.944V25H186.984V20.5L186.996 20.38H186.972L183.744 25H182.664ZM189.625 25V19H192.565C193.125 19 193.565 19.14 193.885 19.42C194.205 19.7 194.365 20.06 194.365 20.5C194.365 20.7 194.337 20.884 194.281 21.052C194.225 21.212 194.157 21.34 194.077 21.436C193.997 21.524 193.909 21.6 193.813 21.664C193.725 21.72 193.649 21.76 193.585 21.784C193.529 21.8 193.489 21.808 193.465 21.808V21.82C193.489 21.82 193.537 21.832 193.609 21.856C193.681 21.872 193.773 21.916 193.885 21.988C194.005 22.052 194.117 22.132 194.221 22.228C194.325 22.324 194.413 22.464 194.485 22.648C194.565 22.832 194.605 23.036 194.605 23.26C194.605 23.78 194.425 24.2 194.065 24.52C193.713 24.84 193.217 25 192.577 25H189.625ZM190.585 21.46H192.505C193.105 21.46 193.405 21.2 193.405 20.68C193.405 20.16 193.105 19.9 192.505 19.9H190.585V21.46ZM190.585 24.1H192.565C192.917 24.1 193.185 24.02 193.369 23.86C193.553 23.7 193.645 23.48 193.645 23.2C193.645 22.92 193.553 22.7 193.369 22.54C193.185 22.38 192.917 22.3 192.565 22.3H190.585V24.1ZM196.41 24.232C195.85 23.632 195.57 22.888 195.57 22C195.57 21.112 195.85 20.372 196.41 19.78C196.97 19.18 197.65 18.88 198.45 18.88C198.954 18.88 199.378 18.976 199.722 19.168C200.074 19.36 200.33 19.568 200.49 19.792L200.598 19.972H200.61V19H201.57V25H200.61V24.04H200.598L200.49 24.208C200.346 24.424 200.098 24.632 199.746 24.832C199.394 25.024 198.962 25.12 198.45 25.12C197.65 25.12 196.97 24.824 196.41 24.232ZM197.106 20.404C196.722 20.82 196.53 21.352 196.53 22C196.53 22.648 196.722 23.18 197.106 23.596C197.498 24.012 197.986 24.22 198.57 24.22C199.154 24.22 199.638 24.012 200.022 23.596C200.414 23.18 200.61 22.648 200.61 22C200.61 21.352 200.414 20.82 200.022 20.404C199.638 19.988 199.154 19.78 198.57 19.78C197.986 19.78 197.498 19.988 197.106 20.404ZM203.254 25V19H204.214V21.46H207.574V19H208.534V25H207.574V22.36H204.214V25H203.254ZM210.215 25V19H211.175V23.5L211.163 23.62H211.187L214.415 19H215.495V25H214.535V20.5L214.547 20.38H214.523L211.295 25H210.215ZM216.936 25L218.136 22.84C217.936 22.752 217.736 22.624 217.536 22.456C217.136 22.088 216.936 21.616 216.936 21.04C216.936 20.456 217.148 19.972 217.572 19.588C217.996 19.196 218.56 19 219.264 19H221.976V25H221.016V23.08H219.096L218.04 25H216.936ZM218.244 20.212C218.012 20.42 217.896 20.696 217.896 21.04C217.896 21.384 218.012 21.66 218.244 21.868C218.484 22.076 218.828 22.18 219.276 22.18H221.016V19.9H219.276C218.828 19.9 218.484 20.004 218.244 20.212Z" fill="#DF192C"></path> </svg> 