<?xml version="1.0" encoding="UTF-8"?> <svg xmlns="http://www.w3.org/2000/svg" width="1366" height="367" viewBox="0 0 1366 367" fill="none"> <mask id="mask0_653_3927" style="mask-type:alpha" maskUnits="userSpaceOnUse" x="0" y="0" width="1366" height="300"> <rect width="1366" height="300" fill="#DF192C"></rect> </mask> <g mask="url(#mask0_653_3927)"> <g clip-path="url(#clip0_653_3927)"> <path d="M699.916 4.12522C699.916 3.89025 699.824 3.68139 699.668 3.51169C699.511 3.35505 699.289 3.26367 699.054 3.26367H582.994C582.772 3.26367 582.55 3.35505 582.38 3.51169C582.224 3.66834 582.119 3.89025 582.119 4.12522V35.5063C582.119 35.7282 582.211 35.9501 582.38 36.1198C582.537 36.2765 582.759 36.3678 582.994 36.3678H622.298C622.52 36.3678 622.742 36.4592 622.912 36.6159C623.069 36.7725 623.16 36.9944 623.16 37.2294V134.806C623.16 135.028 623.251 135.25 623.408 135.406C623.565 135.563 623.787 135.654 624.022 135.654H658C658.222 135.654 658.444 135.563 658.614 135.406C658.77 135.25 658.862 135.028 658.862 134.806V37.2163C658.862 36.9944 658.953 36.7725 659.11 36.6028C659.267 36.4462 659.488 36.3548 659.723 36.3548H699.041C699.263 36.3548 699.485 36.2634 699.655 36.1068C699.811 35.9501 699.903 35.7282 699.903 35.4932V4.12522H699.916Z" fill="white" fill-opacity="0.05"></path> <path d="M594.885 134.635C594.911 134.766 594.911 134.897 594.885 135.027C594.859 135.158 594.794 135.275 594.716 135.379C594.637 135.484 594.533 135.562 594.402 135.614C594.285 135.667 594.154 135.693 594.024 135.693H557.839C557.643 135.693 557.447 135.641 557.291 135.51C557.134 135.393 557.017 135.223 556.977 135.027L525.087 4.3204C525.061 4.18987 525.048 4.05933 525.087 3.92879C525.113 3.79825 525.179 3.68077 525.257 3.57634C525.348 3.47191 525.453 3.39359 525.57 3.32832C525.688 3.27611 525.818 3.25 525.962 3.25H562.147C562.342 3.25 562.538 3.30221 562.695 3.4197C562.852 3.53718 562.956 3.70688 563.008 3.90268L594.885 134.635Z" fill="white" fill-opacity="0.05"></path> <path d="M489.021 69.5105C488.825 69.5105 488.629 69.5627 488.473 69.6932C488.316 69.8107 488.212 69.9804 488.159 70.1762L472.469 134.648C472.443 134.779 472.443 134.909 472.469 135.04C472.495 135.171 472.56 135.288 472.639 135.392C472.717 135.497 472.834 135.575 472.952 135.627C473.069 135.68 473.2 135.706 473.33 135.706H509.515C509.711 135.706 509.907 135.654 510.063 135.523C510.22 135.406 510.338 135.236 510.377 135.04L526.08 70.5548C526.106 70.4242 526.106 70.2937 526.08 70.1632C526.054 70.0326 525.989 69.9151 525.911 69.8107C525.832 69.7063 525.715 69.628 525.597 69.5627C525.48 69.4974 525.349 69.4844 525.206 69.4844L489.021 69.5105Z" fill="white" fill-opacity="0.05"></path> <path d="M835.218 134.636C835.179 134.766 835.179 134.897 835.218 135.027C835.244 135.158 835.309 135.275 835.388 135.38C835.479 135.484 835.583 135.563 835.701 135.615C835.818 135.667 835.949 135.693 836.079 135.693H872.264C872.46 135.693 872.656 135.641 872.812 135.51C872.969 135.393 873.074 135.223 873.126 135.027L905.003 4.30771C905.029 4.17717 905.029 4.04663 905.003 3.9161C904.977 3.78556 904.912 3.66808 904.833 3.56365C904.755 3.45922 904.637 3.3809 904.52 3.31563C904.402 3.26341 904.272 3.2373 904.141 3.2373H867.957C867.761 3.2373 867.565 3.28952 867.408 3.407C867.252 3.52449 867.147 3.69418 867.095 3.88999L835.218 134.636Z" fill="white" fill-opacity="0.05"></path> <path d="M941.082 69.5107C941.278 69.5107 941.474 69.563 941.63 69.6935C941.787 69.811 941.892 69.9807 941.944 70.1765L957.647 134.675C957.673 134.805 957.673 134.936 957.647 135.066C957.621 135.197 957.556 135.314 957.478 135.419C957.386 135.523 957.282 135.602 957.164 135.654C957.047 135.706 956.916 135.732 956.786 135.732H920.601C920.405 135.732 920.209 135.68 920.053 135.562C919.896 135.445 919.792 135.275 919.739 135.079L904.023 70.5942C903.997 70.4637 903.984 70.3331 904.023 70.2026C904.049 70.072 904.114 69.9546 904.192 69.8501C904.284 69.7457 904.388 69.6674 904.506 69.6152C904.623 69.563 904.754 69.5369 904.897 69.5369H941.082V69.5107Z" fill="white" fill-opacity="0.05"></path> <path d="M769.727 138.239C788.002 138.239 805.533 131.007 818.469 118.123C824.879 111.74 829.956 104.169 833.429 95.8275C836.901 87.4862 838.676 78.5444 838.689 69.5113C838.689 60.4781 836.914 51.5363 833.442 43.195C829.97 34.8537 824.892 27.2695 818.482 20.8862C812.073 14.503 804.476 9.45121 796.108 5.99199C787.741 2.54581 778.773 0.770508 769.727 0.770508C760.667 0.770508 751.7 2.54581 743.332 6.00504C734.952 9.45121 727.341 14.516 720.932 20.9124C714.523 27.3087 709.445 34.8929 705.986 43.2472C702.526 51.5755 700.751 60.4912 700.751 69.4982C700.764 87.7342 708.035 105.226 720.971 118.123C733.92 131.007 751.452 138.239 769.727 138.239ZM769.727 31.2378C774.752 31.2509 779.726 32.243 784.373 34.1619C789.033 36.0807 793.249 38.9003 796.813 42.464C800.39 46.0277 803.223 50.244 805.168 54.9042C807.086 59.5382 808.078 64.4986 808.065 69.5113C808.065 79.654 804.045 89.3659 796.865 96.5455C789.673 103.699 779.922 107.719 769.753 107.719C764.727 107.719 759.741 106.74 755.08 104.822C750.42 102.903 746.204 100.096 742.64 96.5455C735.461 89.3659 731.427 79.6409 731.44 69.5113C731.44 64.4986 732.432 59.5382 734.351 54.9042C736.27 50.2571 739.09 46.0407 742.653 42.4771C746.217 38.9265 750.446 36.1069 755.107 34.1749C759.741 32.256 764.714 31.2639 769.727 31.2378Z" fill="white" fill-opacity="0.05"></path> <path d="M23.0164 69.5107C23.2122 69.5107 23.408 69.563 23.5647 69.6935C23.7213 69.811 23.8257 69.9807 23.878 70.1765L39.5816 134.675C39.6077 134.805 39.6077 134.936 39.5816 135.066C39.5554 135.197 39.4902 135.314 39.4118 135.419C39.3335 135.523 39.216 135.602 39.0986 135.654C38.9811 135.706 38.8505 135.732 38.72 135.732H2.53516C2.33936 135.732 2.14356 135.68 1.98691 135.562C1.83027 135.445 1.72583 135.275 1.67362 135.079L-14.043 70.5942C-14.0691 70.4637 -14.0822 70.3331 -14.0561 70.2026C-14.03 70.072 -13.9647 69.9546 -13.8864 69.8501C-13.8081 69.7457 -13.6906 69.6674 -13.5731 69.6152C-13.4556 69.563 -13.3251 69.5369 -13.1815 69.5369H23.0164V69.5107Z" fill="white" fill-opacity="0.05"></path> <path d="M397.841 138.239C416.116 138.239 433.647 131.007 446.583 118.123C452.992 111.74 458.07 104.169 461.543 95.8275C465.015 87.4862 466.79 78.5444 466.803 69.5113C466.803 60.4781 465.028 51.5363 461.556 43.195C458.083 34.8537 453.006 27.2695 446.609 20.8862C440.2 14.503 432.603 9.45121 424.235 5.99199C415.868 2.54581 406.9 0.770508 397.854 0.770508C388.794 0.770508 379.826 2.54581 371.459 6.00504C363.079 9.45121 355.468 14.516 349.059 20.9124C342.65 27.3087 337.572 34.8929 334.112 43.2472C330.653 51.5755 328.878 60.4912 328.878 69.4982C328.891 87.7342 336.162 105.226 349.098 118.123C362.021 131.007 379.552 138.239 397.841 138.239ZM397.841 31.2378C402.866 31.2509 407.84 32.243 412.487 34.1619C417.147 36.0807 421.363 38.9003 424.927 42.464C428.504 46.0277 431.336 50.244 433.281 54.9042C435.2 59.5382 436.192 64.4986 436.179 69.5113C436.179 79.654 432.159 89.3659 424.979 96.5455C417.787 103.699 408.036 107.719 397.867 107.719C392.841 107.719 387.854 106.74 383.194 104.822C378.534 102.903 374.318 100.096 370.754 96.5455C363.575 89.3659 359.541 79.6409 359.554 69.5113C359.554 64.4986 360.546 59.5382 362.465 54.9042C364.384 50.2571 367.204 46.0407 370.767 42.4771C374.331 38.9265 378.56 36.1069 383.22 34.1749C387.855 32.256 392.815 31.2639 397.841 31.2378Z" fill="white" fill-opacity="0.05"></path> <path d="M258.819 134.936C258.845 135.067 258.845 135.197 258.819 135.328C258.793 135.458 258.727 135.576 258.649 135.68C258.571 135.785 258.453 135.863 258.336 135.915C258.218 135.967 258.088 135.994 257.957 135.994H221.772C221.577 135.994 221.381 135.941 221.224 135.811C221.067 135.693 220.95 135.524 220.911 135.328L189.021 4.62118C188.994 4.49065 188.994 4.36011 189.021 4.22957C189.047 4.09904 189.112 3.98155 189.19 3.87712C189.269 3.77269 189.386 3.69437 189.504 3.6291C189.621 3.57689 189.752 3.55078 189.895 3.55078H226.08C226.276 3.55078 226.472 3.603 226.628 3.72048C226.785 3.83796 226.902 4.00766 226.942 4.20347L258.819 134.936Z" fill="white" fill-opacity="0.05"></path> <path d="M323.525 134.936C323.551 135.067 323.551 135.197 323.525 135.328C323.499 135.458 323.434 135.576 323.356 135.68C323.277 135.785 323.16 135.863 323.042 135.915C322.925 135.967 322.794 135.994 322.664 135.994H286.479C286.283 135.994 286.087 135.941 285.931 135.811C285.774 135.693 285.67 135.524 285.617 135.328L253.74 4.62118C253.714 4.49065 253.714 4.36011 253.74 4.22957C253.766 4.09904 253.832 3.98155 253.91 3.87712C253.988 3.77269 254.106 3.69437 254.223 3.6291C254.341 3.57689 254.471 3.55078 254.615 3.55078H290.8C290.996 3.55078 291.191 3.603 291.348 3.72048C291.505 3.83796 291.609 4.00766 291.661 4.20347L323.525 134.936Z" fill="white" fill-opacity="0.05"></path> <path d="M1022.16 134.936C1022.19 135.067 1022.19 135.197 1022.16 135.328C1022.13 135.458 1022.07 135.576 1021.99 135.68C1021.91 135.785 1021.79 135.863 1021.68 135.915C1021.56 135.967 1021.43 135.994 1021.28 135.994H985.1C984.904 135.994 984.708 135.941 984.552 135.811C984.395 135.693 984.291 135.524 984.238 135.328L952.374 4.62118C952.348 4.49065 952.335 4.36011 952.374 4.22957C952.4 4.09904 952.466 3.98155 952.544 3.87712C952.622 3.77269 952.74 3.69437 952.857 3.6291C952.975 3.57689 953.118 3.55078 953.249 3.55078H989.434C989.63 3.55078 989.825 3.603 989.982 3.72048C990.139 3.83796 990.243 4.00766 990.295 4.20347L1022.16 134.936Z" fill="white" fill-opacity="0.05"></path> <path d="M114.628 138.239C132.903 138.239 150.434 131.007 163.37 118.123C169.78 111.74 174.857 104.169 178.33 95.8275C181.802 87.4862 183.577 78.5444 183.59 69.5113C183.59 60.4781 181.815 51.5363 178.343 43.195C174.884 34.8537 169.793 27.2695 163.396 20.8862C156.987 14.503 149.39 9.45121 141.022 5.99199C132.655 2.54581 123.687 0.770508 114.641 0.770508C105.582 0.770508 96.6136 2.54581 88.2462 6.00504C79.8657 9.45121 72.2554 14.516 65.8461 20.9124C59.4367 27.3087 54.3588 34.8929 50.8996 43.2472C47.4404 51.5755 45.665 60.4912 45.665 69.4982C45.6781 87.7342 52.949 105.226 65.8852 118.123C78.8214 131.007 96.3525 138.239 114.628 138.239ZM114.628 31.2378C119.653 31.2509 124.627 32.243 129.274 34.1619C133.934 36.0807 138.15 38.9003 141.714 42.464C145.291 46.0277 148.123 50.244 150.068 54.9042C151.987 59.5382 152.979 64.4986 152.966 69.5113C152.966 79.654 148.946 89.3659 141.766 96.5455C134.574 103.699 124.823 107.719 114.654 107.719C109.615 107.719 104.642 106.74 99.9815 104.822C95.3343 102.903 91.1049 100.096 87.5413 96.5455C80.3618 89.3659 76.3282 79.6409 76.3412 69.5113C76.3412 64.4986 77.3333 59.5382 79.2522 54.9042C81.1711 50.2571 84.0038 46.0407 87.5544 42.4771C91.118 38.9265 95.3474 36.1069 100.008 34.1749C104.642 32.256 109.615 31.2639 114.628 31.2378Z" fill="white" fill-opacity="0.05"></path> <path d="M1162.07 137.468C1180.34 137.468 1197.88 130.237 1210.81 117.353C1217.22 110.969 1222.3 103.385 1225.77 95.057C1229.24 86.7157 1231.02 77.7739 1231.03 68.7408C1231.03 59.7076 1229.26 50.7658 1225.78 42.4245C1222.31 34.0832 1217.23 26.499 1210.84 20.1157C1204.43 13.7325 1196.83 8.68071 1188.46 5.22148C1180.1 1.76225 1171.13 0 1162.08 0C1153.02 0 1144.06 1.7753 1135.69 5.23453C1127.31 8.68071 1119.7 13.7586 1113.29 20.1418C1106.88 26.5382 1101.8 34.1224 1098.34 42.4767C1094.88 50.805 1093.11 59.7207 1093.11 68.7277C1093.12 86.9637 1100.39 104.456 1113.33 117.353C1126.25 130.237 1143.78 137.468 1162.07 137.468ZM1162.07 30.4673C1167.09 30.4804 1172.07 31.4725 1176.72 33.3913C1181.38 35.3102 1185.6 38.1298 1189.16 41.6935C1192.73 45.2572 1195.56 49.4735 1197.51 54.1337C1199.43 58.7677 1200.42 63.7281 1200.41 68.7408C1200.41 78.8835 1196.39 88.5954 1189.21 95.775C1182.02 102.928 1172.26 106.949 1162.1 106.949C1157.06 106.949 1152.07 105.97 1147.42 104.051C1142.78 102.132 1138.55 99.3256 1134.98 95.775C1127.8 88.5954 1123.77 78.8704 1123.78 68.7408C1123.78 63.7281 1124.77 58.7677 1126.69 54.1337C1128.61 49.4866 1131.45 45.2702 1135 41.7066C1138.56 38.1559 1142.79 35.3363 1147.45 33.4044C1152.08 31.4855 1157.04 30.4804 1162.07 30.4673Z" fill="white" fill-opacity="0.05"></path> <path d="M1087.75 134.153C1087.79 134.284 1087.79 134.414 1087.75 134.545C1087.73 134.675 1087.66 134.793 1087.58 134.897C1087.51 135.002 1087.39 135.08 1087.27 135.132C1087.15 135.185 1087.02 135.211 1086.89 135.211H1050.71C1050.51 135.211 1050.32 135.158 1050.16 135.028C1050 134.91 1049.89 134.741 1049.85 134.545L1017.97 3.8513C1017.94 3.72076 1017.94 3.59022 1017.97 3.45968C1017.99 3.32915 1018.06 3.21166 1018.14 3.10723C1018.22 3.00281 1018.33 2.92448 1018.45 2.87227C1018.57 2.82005 1018.7 2.79395 1018.84 2.79395H1055.03C1055.22 2.79395 1055.42 2.84616 1055.58 2.96364C1055.73 3.08113 1055.85 3.25082 1055.89 3.44663L1087.75 134.153Z" fill="white" fill-opacity="0.05"></path> <path d="M1306.26 134.153C1306.29 134.284 1306.29 134.414 1306.26 134.545C1306.23 134.675 1306.17 134.793 1306.09 134.897C1306.01 135.001 1305.89 135.08 1305.78 135.132C1305.66 135.184 1305.53 135.21 1305.39 135.21H1269.2C1269 135.21 1268.81 135.158 1268.65 135.028C1268.5 134.91 1268.39 134.74 1268.34 134.545L1236.46 3.82493C1236.44 3.69439 1236.44 3.56385 1236.46 3.43332C1236.49 3.30278 1236.55 3.1853 1236.63 3.08087C1236.71 2.97644 1236.83 2.89811 1236.94 2.8459C1237.06 2.79368 1237.21 2.76758 1237.34 2.76758H1273.52C1273.72 2.76758 1273.91 2.81979 1274.07 2.93728C1274.23 3.05476 1274.33 3.22446 1274.38 3.42026L1306.26 134.153Z" fill="white" fill-opacity="0.05"></path> <path d="M1370.97 134.153C1370.99 134.284 1370.99 134.414 1370.97 134.545C1370.94 134.675 1370.88 134.793 1370.8 134.897C1370.72 135.001 1370.61 135.08 1370.48 135.132C1370.37 135.184 1370.24 135.21 1370.11 135.21H1333.92C1333.72 135.21 1333.53 135.158 1333.37 135.028C1333.22 134.91 1333.1 134.74 1333.06 134.545L1301.18 3.82493C1301.16 3.69439 1301.14 3.56385 1301.18 3.43332C1301.21 3.30278 1301.27 3.1853 1301.35 3.08087C1301.44 2.97644 1301.55 2.89811 1301.66 2.8459C1301.78 2.79368 1301.91 2.76758 1302.06 2.76758H1338.24C1338.44 2.76758 1338.63 2.81979 1338.79 2.93728C1338.95 3.05476 1339.06 3.22446 1339.1 3.42026L1370.97 134.153Z" fill="white" fill-opacity="0.05"></path> <path d="M267.094 165.886C267.094 165.651 267.003 165.443 266.846 165.273C266.69 165.116 266.468 165.025 266.233 165.025H150.172C149.951 165.025 149.729 165.116 149.559 165.273C149.402 165.43 149.298 165.651 149.298 165.886V197.268C149.298 197.489 149.389 197.711 149.559 197.881C149.716 198.038 149.938 198.129 150.172 198.129H189.477C189.699 198.129 189.921 198.22 190.091 198.377C190.247 198.534 190.339 198.756 190.339 198.991V296.567C190.339 296.789 190.43 297.011 190.587 297.167C190.743 297.324 190.965 297.415 191.2 297.415H225.179C225.401 297.415 225.623 297.324 225.793 297.167C225.949 297.011 226.041 296.789 226.041 296.567V198.991C226.041 198.769 226.132 198.547 226.289 198.377C226.445 198.22 226.667 198.129 226.902 198.129H266.22C266.455 198.129 266.664 198.038 266.833 197.881C266.99 197.724 267.081 197.502 267.081 197.268V165.886H267.094Z" fill="white" fill-opacity="0.05"></path> <path d="M162.065 296.397C162.091 296.528 162.091 296.658 162.065 296.789C162.039 296.919 161.973 297.037 161.895 297.141C161.817 297.245 161.712 297.324 161.582 297.376C161.464 297.428 161.334 297.454 161.203 297.454H125.018C124.822 297.454 124.627 297.402 124.47 297.272C124.313 297.154 124.196 296.984 124.157 296.789L92.2796 166.069C92.2535 165.938 92.2404 165.808 92.2796 165.677C92.3057 165.547 92.371 165.429 92.4493 165.325C92.5276 165.22 92.6451 165.142 92.7626 165.077C92.8801 165.025 93.0106 164.999 93.1542 164.999H129.339C129.535 164.999 129.731 165.051 129.887 165.168C130.044 165.286 130.148 165.455 130.201 165.651L162.065 296.397Z" fill="white" fill-opacity="0.05"></path> <path d="M56.2123 231.272C56.0165 231.272 55.8207 231.324 55.664 231.455C55.5074 231.572 55.3899 231.742 55.3507 231.938L39.6602 296.41C39.6341 296.541 39.6341 296.671 39.6602 296.802C39.6863 296.932 39.7516 297.05 39.8299 297.154C39.9082 297.259 40.0126 297.337 40.1432 297.389C40.2607 297.441 40.3912 297.467 40.5218 297.467H76.7066C76.9024 297.467 77.0982 297.415 77.2548 297.285C77.4115 297.167 77.529 296.998 77.5681 296.802L93.2717 232.316C93.2978 232.186 93.3109 232.055 93.2717 231.925C93.2456 231.794 93.1804 231.677 93.102 231.572C93.0237 231.468 92.9062 231.39 92.7887 231.324C92.6713 231.272 92.5407 231.246 92.3971 231.246L56.2123 231.272Z" fill="white" fill-opacity="0.05"></path> <path d="M402.397 296.397C402.37 296.528 402.37 296.658 402.397 296.789C402.423 296.919 402.488 297.037 402.566 297.141C402.658 297.245 402.762 297.324 402.88 297.376C402.997 297.428 403.128 297.454 403.258 297.454H439.443C439.639 297.454 439.835 297.402 439.991 297.272C440.148 297.154 440.252 296.984 440.304 296.789L472.182 166.069C472.208 165.938 472.208 165.808 472.182 165.677C472.155 165.547 472.09 165.429 472.012 165.325C471.92 165.22 471.816 165.142 471.699 165.077C471.581 165.025 471.451 164.999 471.32 164.999H435.135C434.939 164.999 434.744 165.051 434.587 165.168C434.43 165.286 434.326 165.455 434.274 165.651L402.397 296.397Z" fill="white" fill-opacity="0.05"></path> <path d="M508.262 231.272C508.458 231.272 508.653 231.325 508.81 231.455C508.967 231.573 509.071 231.742 509.123 231.938L524.827 296.436C524.853 296.567 524.853 296.698 524.827 296.828C524.801 296.959 524.736 297.076 524.657 297.181C524.566 297.285 524.462 297.363 524.344 297.416C524.227 297.468 524.096 297.494 523.965 297.494H487.781C487.585 297.494 487.389 297.442 487.232 297.324C487.076 297.207 486.971 297.037 486.919 296.841L471.202 232.356C471.176 232.225 471.163 232.095 471.202 231.964C471.229 231.834 471.294 231.716 471.372 231.612C471.45 231.507 471.568 231.429 471.685 231.377C471.803 231.325 471.933 231.299 472.077 231.299H508.262V231.272Z" fill="white" fill-opacity="0.05"></path> <path d="M336.919 300C355.194 300 372.725 292.768 385.661 279.884C392.071 273.501 397.148 265.93 400.621 257.589C404.093 249.247 405.868 240.306 405.881 231.272C405.881 222.239 404.093 213.298 400.634 204.956C397.162 196.615 392.084 189.031 385.687 182.647C379.278 176.264 371.681 171.212 363.313 167.753C354.946 164.307 345.978 162.532 336.932 162.532C327.873 162.532 318.905 164.307 310.537 167.766C302.157 171.212 294.546 176.277 288.137 182.674C281.728 189.07 276.65 196.654 273.191 205.008C269.731 213.337 267.956 222.252 267.956 231.259C267.969 249.495 275.24 266.987 288.176 279.884C301.099 292.768 318.631 300 336.919 300ZM336.919 192.999C341.944 193.012 346.918 194.004 351.565 195.923C356.225 197.842 360.441 200.662 364.005 204.225C367.582 207.789 370.415 212.005 372.36 216.665C374.278 221.299 375.27 226.26 375.257 231.272C375.257 241.415 371.237 251.127 364.057 258.307C356.865 265.46 347.114 269.481 336.945 269.481C331.919 269.481 326.933 268.502 322.272 266.583C317.612 264.664 313.396 261.857 309.832 258.307C302.653 251.127 298.619 241.402 298.632 231.272C298.632 226.26 299.624 221.299 301.543 216.665C303.462 212.018 306.282 207.802 309.845 204.238C313.409 200.688 317.638 197.868 322.299 195.936C326.92 194.017 331.893 193.012 336.919 192.999Z" fill="white" fill-opacity="0.05"></path> <path d="M-34.9807 300C-16.7055 300 0.825595 292.768 13.7618 279.884C20.1712 273.501 25.249 265.93 28.7213 257.589C32.1936 249.247 33.9689 240.306 33.982 231.272C33.982 222.239 32.1936 213.298 28.7344 204.956C25.2751 196.615 20.1842 189.031 13.7879 182.647C7.37853 176.264 -0.218715 171.212 -8.58613 167.753C-16.9535 164.307 -25.9214 162.532 -34.9676 162.532C-44.0269 162.532 -52.9948 164.307 -61.3622 167.766C-69.7427 171.212 -77.353 176.277 -83.7623 182.674C-90.1717 189.07 -95.2496 196.654 -98.7088 205.008C-102.168 213.337 -103.943 222.252 -103.943 231.259C-103.93 249.495 -96.6594 266.987 -83.7232 279.884C-70.787 292.768 -53.2559 300 -34.9807 300ZM-34.9807 192.999C-29.955 193.012 -24.9816 194.004 -20.3345 195.923C-15.6743 197.842 -11.4579 200.662 -7.89429 204.225C-4.31758 207.789 -1.48491 212.005 0.460088 216.665C2.37898 221.299 3.37106 226.26 3.35801 231.272C3.35801 241.415 -0.662531 251.127 -7.84206 258.307C-15.0346 265.46 -24.7858 269.481 -34.9546 269.481C-39.9933 269.481 -44.9798 268.502 -49.6269 266.583C-54.2741 264.664 -58.5034 261.857 -62.0671 258.307C-69.2466 251.127 -73.2802 241.402 -73.2672 231.272C-73.2672 226.26 -72.2751 221.299 -70.3562 216.665C-68.4373 212.018 -65.6177 207.802 -62.0541 204.238C-58.4904 200.688 -54.261 197.868 -49.6008 195.936C-44.9668 194.017 -39.9933 193.012 -34.9807 192.999Z" fill="white" fill-opacity="0.05"></path> <path d="M728.36 300C746.635 300 764.166 292.768 777.103 279.884C783.512 273.501 788.59 265.93 792.062 257.589C795.534 249.247 797.31 240.306 797.323 231.272C797.323 222.239 795.548 213.298 792.075 204.956C788.603 196.615 783.525 189.031 777.129 182.647C770.719 176.264 763.122 171.212 754.755 167.753C746.387 164.307 737.419 162.532 728.373 162.532C719.314 162.532 710.346 164.307 701.979 167.766C693.598 171.212 685.988 176.277 679.579 182.674C673.169 189.07 668.091 196.654 664.632 205.008C661.173 213.337 659.397 222.252 659.397 231.259C659.411 249.495 666.681 266.987 679.618 279.884C692.554 292.768 710.085 300 728.36 300ZM728.36 192.999C733.386 193.012 738.359 194.004 743.006 195.923C747.667 197.842 751.896 200.662 755.447 204.225C759.023 207.789 761.856 212.005 763.801 216.665C765.72 221.299 766.712 226.26 766.699 231.272C766.699 241.415 762.678 251.127 755.499 258.307C748.306 265.46 738.555 269.481 728.386 269.481C723.348 269.481 718.361 268.502 713.714 266.583C709.067 264.664 704.837 261.857 701.274 258.307C694.094 251.127 690.061 241.402 690.074 231.272C690.074 226.26 691.066 221.299 692.985 216.665C694.904 212.018 697.736 207.802 701.287 204.238C704.85 200.688 709.08 197.868 713.74 195.936C718.374 194.017 723.348 193.012 728.36 192.999Z" fill="white" fill-opacity="0.05"></path> <path d="M589.338 296.697C589.364 296.828 589.364 296.958 589.338 297.089C589.312 297.219 589.247 297.337 589.168 297.441C589.077 297.546 588.973 297.624 588.855 297.676C588.738 297.729 588.607 297.755 588.477 297.755H552.292C552.096 297.755 551.9 297.702 551.743 297.572C551.587 297.454 551.482 297.285 551.43 297.089L519.553 166.369C519.527 166.239 519.514 166.108 519.553 165.978C519.579 165.847 519.644 165.73 519.723 165.625C519.801 165.521 519.919 165.442 520.036 165.377C520.153 165.325 520.297 165.299 520.428 165.299H556.612C556.808 165.299 557.004 165.351 557.161 165.469C557.317 165.586 557.422 165.756 557.474 165.952L589.338 296.697Z" fill="white" fill-opacity="0.05"></path> <path d="M654.059 296.697C654.098 296.828 654.098 296.958 654.059 297.089C654.032 297.219 653.967 297.337 653.889 297.441C653.811 297.546 653.693 297.624 653.576 297.676C653.458 297.729 653.328 297.755 653.197 297.755H617.012C616.816 297.755 616.621 297.702 616.464 297.572C616.307 297.454 616.19 297.285 616.151 297.089L584.273 166.369C584.247 166.239 584.247 166.108 584.273 165.978C584.3 165.847 584.365 165.73 584.443 165.625C584.522 165.521 584.639 165.442 584.756 165.377C584.874 165.325 585.004 165.299 585.148 165.299H621.333C621.529 165.299 621.725 165.351 621.881 165.469C622.038 165.586 622.155 165.756 622.194 165.952L654.059 296.697Z" fill="white" fill-opacity="0.05"></path> <path d="M1011.57 300C1029.85 300 1047.39 292.768 1060.32 279.884C1066.72 273.501 1071.8 265.93 1075.28 257.589C1078.75 249.247 1080.52 240.306 1080.54 231.272C1080.54 222.239 1078.76 213.298 1075.29 204.956C1071.82 196.615 1066.74 189.031 1060.34 182.647C1053.93 176.264 1046.33 171.212 1037.97 167.753C1029.6 164.307 1020.63 162.532 1011.59 162.532C1002.53 162.532 993.559 164.307 985.191 167.766C976.811 171.212 969.201 176.277 962.791 182.674C956.382 189.07 951.304 196.654 947.845 205.008C944.386 213.337 942.61 222.252 942.61 231.259C942.623 249.495 949.894 266.987 962.831 279.884C975.754 292.768 993.298 300 1011.57 300ZM1011.57 192.999C1016.6 193.012 1021.59 194.004 1026.22 195.923C1030.88 197.842 1035.1 200.662 1038.66 204.225C1042.24 207.789 1045.07 212.005 1047.01 216.665C1048.93 221.299 1049.92 226.26 1049.91 231.272C1049.91 241.415 1045.89 251.127 1038.71 258.307C1031.52 265.46 1021.77 269.481 1011.6 269.481C1006.56 269.481 1001.59 268.502 996.927 266.583C992.28 264.664 988.05 261.857 984.487 258.307C977.307 251.127 973.273 241.402 973.287 231.272C973.287 226.26 974.279 221.299 976.197 216.665C978.116 212.018 980.949 207.802 984.5 204.238C988.063 200.688 992.293 197.868 996.953 195.936C1001.59 194.017 1006.55 193.012 1011.57 192.999Z" fill="white" fill-opacity="0.05"></path> <path d="M872.551 296.697C872.577 296.828 872.577 296.958 872.551 297.089C872.525 297.219 872.46 297.337 872.381 297.441C872.303 297.546 872.186 297.624 872.068 297.676C871.951 297.729 871.82 297.755 871.676 297.755H835.492C835.296 297.755 835.1 297.702 834.943 297.572C834.787 297.454 834.682 297.285 834.63 297.089L802.753 166.369C802.727 166.239 802.727 166.108 802.753 165.978C802.779 165.847 802.844 165.73 802.923 165.625C803.001 165.521 803.118 165.442 803.236 165.377C803.353 165.325 803.497 165.299 803.628 165.299H839.812C840.008 165.299 840.204 165.351 840.361 165.469C840.517 165.586 840.622 165.756 840.674 165.952L872.551 296.697Z" fill="white" fill-opacity="0.05"></path> <path d="M937.271 296.697C937.297 296.828 937.297 296.958 937.271 297.089C937.245 297.219 937.18 297.337 937.101 297.441C937.023 297.546 936.919 297.624 936.788 297.676C936.671 297.729 936.54 297.755 936.41 297.755H900.212C900.016 297.755 899.82 297.702 899.663 297.572C899.507 297.454 899.389 297.285 899.35 297.089L867.473 166.369C867.447 166.239 867.434 166.108 867.473 165.978C867.499 165.847 867.564 165.73 867.643 165.625C867.734 165.521 867.838 165.442 867.956 165.377C868.073 165.325 868.204 165.299 868.348 165.299H904.532C904.728 165.299 904.924 165.351 905.081 165.469C905.237 165.586 905.355 165.756 905.394 165.952L937.271 296.697Z" fill="white" fill-opacity="0.05"></path> <path d="M1313.65 165.886C1313.65 165.651 1313.56 165.443 1313.4 165.273C1313.24 165.116 1313.02 165.025 1312.79 165.025H1196.73C1196.5 165.025 1196.28 165.116 1196.11 165.273C1195.96 165.43 1195.85 165.651 1195.85 165.886V197.268C1195.85 197.489 1195.94 197.711 1196.11 197.881C1196.27 198.038 1196.49 198.129 1196.73 198.129H1236.03C1236.25 198.129 1236.47 198.22 1236.64 198.377C1236.8 198.534 1236.89 198.756 1236.89 198.991V296.567C1236.89 296.789 1236.98 297.011 1237.14 297.167C1237.3 297.324 1237.52 297.415 1237.75 297.415H1271.73C1271.95 297.415 1272.18 297.324 1272.35 297.167C1272.5 297.011 1272.59 296.789 1272.59 296.567V198.991C1272.59 198.769 1272.69 198.547 1272.84 198.377C1273 198.22 1273.22 198.129 1273.46 198.129H1312.77C1313 198.129 1313.22 198.038 1313.39 197.881C1313.54 197.724 1313.64 197.502 1313.64 197.268V165.886H1313.65Z" fill="white" fill-opacity="0.05"></path> <path d="M1208.62 296.397C1208.64 296.528 1208.64 296.658 1208.62 296.789C1208.59 296.919 1208.53 297.037 1208.45 297.141C1208.37 297.245 1208.27 297.324 1208.14 297.376C1208.02 297.428 1207.89 297.454 1207.76 297.454H1171.57C1171.38 297.454 1171.18 297.402 1171.02 297.272C1170.87 297.154 1170.75 296.984 1170.71 296.789L1138.83 166.069C1138.81 165.938 1138.79 165.808 1138.83 165.677C1138.86 165.547 1138.92 165.429 1139 165.325C1139.09 165.22 1139.2 165.142 1139.32 165.077C1139.43 165.025 1139.56 164.999 1139.71 164.999H1175.89C1176.09 164.999 1176.28 165.051 1176.44 165.168C1176.6 165.286 1176.7 165.455 1176.75 165.651L1208.62 296.397Z" fill="white" fill-opacity="0.05"></path> <path d="M1102.77 231.272C1102.57 231.272 1102.37 231.324 1102.22 231.442C1102.06 231.559 1101.96 231.729 1101.9 231.925L1086.21 296.397C1086.19 296.528 1086.19 296.658 1086.21 296.789C1086.24 296.919 1086.31 297.037 1086.38 297.141C1086.46 297.246 1086.58 297.324 1086.7 297.376C1086.81 297.428 1086.94 297.454 1087.08 297.454H1123.26C1123.46 297.454 1123.65 297.402 1123.81 297.272C1123.97 297.154 1124.08 296.984 1124.12 296.789L1139.83 232.303C1139.85 232.173 1139.86 232.042 1139.83 231.912C1139.8 231.781 1139.73 231.664 1139.66 231.559C1139.58 231.455 1139.46 231.377 1139.34 231.324C1139.22 231.272 1139.09 231.246 1138.95 231.246L1102.77 231.272Z" fill="white" fill-opacity="0.05"></path> <path d="M1383.46 300C1401.74 300 1419.27 292.768 1432.2 279.884C1438.61 273.501 1443.69 265.93 1447.16 257.589C1450.63 249.247 1452.41 240.306 1452.42 231.272C1452.42 222.239 1450.65 213.298 1447.18 204.956C1443.7 196.615 1438.62 189.031 1432.22 182.647C1425.81 176.264 1418.21 171.212 1409.84 167.753C1401.47 164.307 1392.51 162.532 1383.46 162.532C1374.4 162.532 1365.43 164.307 1357.07 167.766C1348.69 171.212 1341.07 176.277 1334.67 182.674C1328.26 189.07 1323.18 196.654 1319.72 205.008C1316.26 213.337 1314.48 222.252 1314.48 231.259C1314.5 249.495 1321.77 266.987 1334.7 279.884C1347.65 292.768 1365.18 300 1383.46 300ZM1383.46 192.999C1388.49 193.012 1393.46 194.004 1398.11 195.923C1402.77 197.842 1406.98 200.662 1410.55 204.225C1414.12 207.789 1416.96 212.005 1418.9 216.665C1420.82 221.299 1421.81 226.26 1421.8 231.272C1421.8 241.415 1417.78 251.127 1410.6 258.307C1403.41 265.46 1393.66 269.481 1383.49 269.481C1378.46 269.481 1373.47 268.502 1368.81 266.583C1364.15 264.664 1359.94 261.857 1356.37 258.307C1349.19 251.127 1345.16 241.402 1345.17 231.272C1345.17 226.26 1346.17 221.299 1348.08 216.665C1350 212.018 1352.82 207.802 1356.39 204.238C1359.95 200.688 1364.18 197.868 1368.84 195.936C1373.47 194.017 1378.45 193.025 1383.46 192.999Z" fill="white" fill-opacity="0.05"></path> </g> </g> <mask id="mask1_653_3927" style="mask-type:alpha" maskUnits="userSpaceOnUse" x="0" y="300" width="1366" height="67"> <rect y="300" width="1366" height="67" fill="#DF192C"></rect> </mask> <g mask="url(#mask1_653_3927)"> <g clip-path="url(#clip1_653_3927)"> <path d="M619.916 330.125C619.916 329.89 619.824 329.681 619.668 329.511C619.511 329.355 619.289 329.263 619.054 329.263H502.994C502.772 329.263 502.55 329.355 502.38 329.511C502.224 329.668 502.119 329.89 502.119 330.125V361.506C502.119 361.728 502.211 361.95 502.38 362.119C502.537 362.276 502.759 362.367 502.994 362.367H542.298C542.52 362.367 542.742 362.459 542.912 362.615C543.069 362.772 543.16 362.994 543.16 363.229V460.805C543.16 461.027 543.251 461.249 543.408 461.406C543.565 461.562 543.787 461.654 544.022 461.654H578C578.222 461.654 578.444 461.562 578.614 461.406C578.77 461.249 578.862 461.027 578.862 460.805V363.216C578.862 362.994 578.953 362.772 579.11 362.602C579.267 362.446 579.488 362.354 579.723 362.354H619.041C619.263 362.354 619.485 362.263 619.655 362.106C619.811 361.95 619.903 361.728 619.903 361.493V330.125H619.916Z" fill="white" fill-opacity="0.05"></path> <path d="M514.885 460.636C514.911 460.766 514.911 460.897 514.885 461.028C514.859 461.158 514.794 461.276 514.716 461.38C514.637 461.484 514.533 461.563 514.402 461.615C514.285 461.667 514.154 461.693 514.024 461.693H477.839C477.643 461.693 477.447 461.641 477.291 461.511C477.134 461.393 477.017 461.223 476.977 461.028L445.087 330.321C445.061 330.19 445.048 330.06 445.087 329.929C445.113 329.799 445.179 329.681 445.257 329.577C445.348 329.472 445.453 329.394 445.57 329.329C445.688 329.277 445.818 329.25 445.962 329.25H482.147C482.342 329.25 482.538 329.303 482.695 329.42C482.852 329.538 482.956 329.707 483.008 329.903L514.885 460.636Z" fill="white" fill-opacity="0.05"></path> <path d="M755.218 460.636C755.179 460.766 755.179 460.897 755.218 461.027C755.244 461.158 755.309 461.275 755.388 461.38C755.479 461.484 755.583 461.563 755.701 461.615C755.818 461.667 755.949 461.693 756.079 461.693H792.264C792.46 461.693 792.656 461.641 792.812 461.51C792.969 461.393 793.074 461.223 793.126 461.027L825.003 330.308C825.029 330.177 825.029 330.047 825.003 329.916C824.977 329.786 824.912 329.668 824.833 329.564C824.755 329.459 824.637 329.381 824.52 329.316C824.402 329.263 824.272 329.237 824.141 329.237H787.957C787.761 329.237 787.565 329.29 787.408 329.407C787.252 329.524 787.147 329.694 787.095 329.89L755.218 460.636Z" fill="white" fill-opacity="0.05"></path> <path d="M689.727 464.238C708.002 464.238 725.533 457.007 738.469 444.123C744.879 437.739 749.956 430.168 753.429 421.827C756.901 413.486 758.676 404.544 758.689 395.511C758.689 386.478 756.914 377.536 753.442 369.195C749.97 360.853 744.892 353.269 738.482 346.886C732.073 340.503 724.476 335.451 716.108 331.991C707.741 328.545 698.773 326.77 689.727 326.77C680.667 326.77 671.7 328.545 663.332 332.005C654.952 335.451 647.341 340.516 640.932 346.912C634.523 353.308 629.445 360.892 625.986 369.247C622.526 377.575 620.751 386.491 620.751 395.498C620.764 413.734 628.035 431.226 640.971 444.123C653.92 457.007 671.452 464.238 689.727 464.238ZM689.727 357.237C694.752 357.25 699.726 358.242 704.373 360.161C709.033 362.08 713.249 364.9 716.813 368.464C720.39 372.027 723.223 376.244 725.168 380.904C727.086 385.538 728.078 390.498 728.065 395.511C728.065 405.653 724.045 415.365 716.865 422.545C709.673 429.698 699.922 433.719 689.753 433.719C684.727 433.719 679.741 432.74 675.08 430.821C670.42 428.902 666.204 426.096 662.64 422.545C655.461 415.365 651.427 405.64 651.44 395.511C651.44 390.498 652.432 385.538 654.351 380.904C656.27 376.257 659.09 372.04 662.653 368.477C666.217 364.926 670.446 362.106 675.107 360.174C679.741 358.256 684.714 357.263 689.727 357.237Z" fill="white" fill-opacity="0.05"></path> <path d="M317.841 464.238C336.116 464.238 353.647 457.007 366.583 444.123C372.992 437.739 378.07 430.168 381.543 421.827C385.015 413.486 386.79 404.544 386.803 395.511C386.803 386.478 385.028 377.536 381.556 369.195C378.083 360.853 373.006 353.269 366.609 346.886C360.2 340.503 352.603 335.451 344.235 331.991C335.868 328.545 326.9 326.77 317.854 326.77C308.794 326.77 299.826 328.545 291.459 332.005C283.079 335.451 275.468 340.516 269.059 346.912C262.65 353.308 257.572 360.892 254.112 369.247C250.653 377.575 248.878 386.491 248.878 395.498C248.891 413.734 256.162 431.226 269.098 444.123C282.021 457.007 299.552 464.238 317.841 464.238ZM317.841 357.237C322.866 357.25 327.84 358.242 332.487 360.161C337.147 362.08 341.363 364.9 344.927 368.464C348.504 372.027 351.336 376.244 353.281 380.904C355.2 385.538 356.192 390.498 356.179 395.511C356.179 405.653 352.159 415.365 344.979 422.545C337.787 429.698 328.036 433.719 317.867 433.719C312.841 433.719 307.854 432.74 303.194 430.821C298.534 428.902 294.318 426.096 290.754 422.545C283.575 415.365 279.541 405.64 279.554 395.511C279.554 390.498 280.546 385.538 282.465 380.904C284.384 376.257 287.204 372.04 290.767 368.477C294.331 364.926 298.56 362.106 303.22 360.174C307.855 358.256 312.815 357.263 317.841 357.237Z" fill="white" fill-opacity="0.05"></path> <path d="M178.819 460.936C178.845 461.067 178.845 461.197 178.819 461.328C178.793 461.458 178.727 461.576 178.649 461.68C178.571 461.785 178.453 461.863 178.336 461.915C178.218 461.967 178.088 461.994 177.957 461.994H141.772C141.577 461.994 141.381 461.941 141.224 461.811C141.067 461.693 140.95 461.524 140.911 461.328L109.021 330.621C108.994 330.491 108.994 330.36 109.021 330.23C109.047 330.099 109.112 329.982 109.19 329.877C109.269 329.773 109.386 329.694 109.504 329.629C109.621 329.577 109.752 329.551 109.895 329.551H146.08C146.276 329.551 146.472 329.603 146.628 329.72C146.785 329.838 146.902 330.008 146.942 330.203L178.819 460.936Z" fill="white" fill-opacity="0.05"></path> <path d="M243.525 460.936C243.551 461.067 243.551 461.197 243.525 461.328C243.499 461.458 243.434 461.576 243.356 461.68C243.277 461.785 243.16 461.863 243.042 461.915C242.925 461.967 242.794 461.994 242.664 461.994H206.479C206.283 461.994 206.087 461.941 205.931 461.811C205.774 461.693 205.67 461.524 205.617 461.328L173.74 330.621C173.714 330.491 173.714 330.36 173.74 330.23C173.766 330.099 173.832 329.982 173.91 329.877C173.988 329.773 174.106 329.694 174.223 329.629C174.341 329.577 174.471 329.551 174.615 329.551H210.8C210.996 329.551 211.191 329.603 211.348 329.72C211.505 329.838 211.609 330.008 211.661 330.203L243.525 460.936Z" fill="white" fill-opacity="0.05"></path> <path d="M942.159 460.936C942.186 461.067 942.186 461.197 942.159 461.328C942.133 461.458 942.068 461.576 941.99 461.68C941.911 461.785 941.794 461.863 941.676 461.915C941.559 461.967 941.428 461.994 941.285 461.994H905.1C904.904 461.994 904.708 461.941 904.552 461.811C904.395 461.693 904.291 461.524 904.238 461.328L872.374 330.621C872.348 330.491 872.335 330.36 872.374 330.23C872.4 330.099 872.466 329.982 872.544 329.877C872.622 329.773 872.74 329.694 872.857 329.629C872.975 329.577 873.118 329.551 873.249 329.551H909.434C909.63 329.551 909.825 329.603 909.982 329.72C910.139 329.838 910.243 330.008 910.295 330.203L942.159 460.936Z" fill="white" fill-opacity="0.05"></path> <path d="M34.6277 464.238C52.9029 464.238 70.434 457.007 83.3702 444.123C89.7796 437.739 94.8575 430.168 98.3298 421.827C101.802 413.486 103.577 404.544 103.59 395.511C103.59 386.478 101.815 377.536 98.3428 369.195C94.8836 360.853 89.7926 353.269 83.3963 346.886C76.987 340.503 69.3897 335.451 61.0223 331.991C52.6549 328.545 43.687 326.77 34.6408 326.77C25.5815 326.77 16.6136 328.545 8.2462 332.005C-0.13427 335.451 -7.74458 340.516 -14.1539 346.912C-20.5633 353.308 -25.6412 360.892 -29.1004 369.247C-32.5596 377.575 -34.335 386.491 -34.335 395.498C-34.3219 413.734 -27.051 431.226 -14.1148 444.123C-1.17857 457.007 16.3525 464.238 34.6277 464.238ZM34.6277 357.237C39.6534 357.25 44.6268 358.242 49.274 360.161C53.9341 362.08 58.1505 364.9 61.7141 368.464C65.2908 372.027 68.1235 376.244 70.0685 380.904C71.9874 385.538 72.9795 390.498 72.9664 395.511C72.9664 405.653 68.9459 415.365 61.7663 422.545C54.5738 429.698 44.8226 433.719 34.6538 433.719C29.6151 433.719 24.6416 432.74 19.9815 430.821C15.3343 428.902 11.1049 426.096 7.54129 422.545C0.361759 415.365 -3.67183 405.64 -3.65878 395.511C-3.65878 390.498 -2.66669 385.538 -0.747793 380.904C1.1711 376.257 4.00375 372.04 7.55436 368.477C11.118 364.926 15.3474 362.106 20.0076 360.174C24.6416 358.256 29.6151 357.263 34.6277 357.237Z" fill="white" fill-opacity="0.05"></path> <path d="M1082.07 463.468C1100.34 463.468 1117.88 456.237 1130.81 443.353C1137.22 436.969 1142.3 429.385 1145.77 421.057C1149.24 412.716 1151.02 403.774 1151.03 394.741C1151.03 385.708 1149.26 376.766 1145.78 368.425C1142.31 360.083 1137.23 352.499 1130.84 346.116C1124.43 339.732 1116.83 334.681 1108.46 331.221C1100.1 327.762 1091.13 326 1082.08 326C1073.02 326 1064.06 327.775 1055.69 331.235C1047.31 334.681 1039.7 339.759 1033.29 346.142C1026.88 352.538 1021.8 360.122 1018.34 368.477C1014.88 376.805 1013.11 385.721 1013.11 394.728C1013.12 412.964 1020.39 430.456 1033.33 443.353C1046.25 456.237 1063.78 463.468 1082.07 463.468ZM1082.07 356.467C1087.09 356.48 1092.07 357.472 1096.72 359.391C1101.38 361.31 1105.6 364.13 1109.16 367.693C1112.73 371.257 1115.56 375.474 1117.51 380.134C1119.43 384.768 1120.42 389.728 1120.41 394.741C1120.41 404.883 1116.39 414.595 1109.21 421.775C1102.02 428.928 1092.26 432.949 1082.1 432.949C1077.06 432.949 1072.07 431.97 1067.42 430.051C1062.78 428.132 1058.55 425.326 1054.98 421.775C1047.8 414.595 1043.77 404.87 1043.78 394.741C1043.78 389.728 1044.77 384.768 1046.69 380.134C1048.61 375.487 1051.45 371.27 1055 367.707C1058.56 364.156 1062.79 361.336 1067.45 359.404C1072.08 357.486 1077.04 356.48 1082.07 356.467Z" fill="white" fill-opacity="0.05"></path> <path d="M1007.75 460.153C1007.79 460.283 1007.79 460.414 1007.75 460.544C1007.73 460.675 1007.66 460.792 1007.58 460.897C1007.51 461.001 1007.39 461.08 1007.27 461.132C1007.15 461.184 1007.02 461.21 1006.89 461.21H970.707C970.512 461.21 970.316 461.158 970.159 461.027C970.003 460.91 969.885 460.74 969.846 460.544L937.969 329.851C937.943 329.72 937.943 329.59 937.969 329.459C937.995 329.329 938.06 329.211 938.139 329.107C938.217 329.002 938.334 328.924 938.452 328.872C938.569 328.82 938.7 328.793 938.843 328.793H975.028C975.224 328.793 975.42 328.846 975.576 328.963C975.733 329.081 975.851 329.25 975.89 329.446L1007.75 460.153Z" fill="white" fill-opacity="0.05"></path> <path d="M1365.27 463.468C1383.54 463.468 1401.09 456.237 1414.01 443.353C1420.42 436.969 1425.5 429.385 1428.97 421.057C1432.44 412.716 1434.22 403.774 1434.23 394.741C1434.23 385.708 1432.46 376.766 1428.98 368.425C1425.51 360.083 1420.43 352.499 1414.04 346.116C1407.63 339.732 1400.03 334.681 1391.66 331.221C1383.3 327.762 1374.33 326 1365.28 326C1356.22 326 1347.26 327.775 1338.89 331.235C1330.51 334.681 1322.9 339.759 1316.49 346.142C1310.08 352.538 1305 360.122 1301.54 368.477C1298.08 376.805 1296.31 385.721 1296.31 394.728C1296.32 412.964 1303.59 430.456 1316.53 443.353C1329.46 456.237 1346.99 463.468 1365.27 463.468ZM1365.27 356.467C1370.29 356.48 1375.28 357.472 1379.92 359.391C1384.58 361.31 1388.79 364.13 1392.36 367.693C1395.93 371.257 1398.77 375.474 1400.71 380.134C1402.63 384.768 1403.62 389.728 1403.61 394.741C1403.61 404.883 1399.59 414.595 1392.41 421.775C1385.22 428.928 1375.46 432.949 1365.3 432.949C1360.26 432.949 1355.28 431.97 1350.62 430.051C1345.98 428.132 1341.75 425.326 1338.18 421.775C1331 414.595 1326.97 404.87 1326.98 394.741C1326.98 389.728 1327.97 384.768 1329.89 380.134C1331.81 375.487 1334.65 371.27 1338.2 367.707C1341.76 364.156 1345.99 361.336 1350.65 359.404C1355.28 357.486 1360.26 356.48 1365.27 356.467Z" fill="white" fill-opacity="0.05"></path> <path d="M1226.26 460.153C1226.29 460.284 1226.29 460.414 1226.26 460.545C1226.23 460.675 1226.17 460.793 1226.09 460.897C1226.01 461.001 1225.89 461.08 1225.78 461.132C1225.66 461.184 1225.53 461.21 1225.39 461.21H1189.2C1189 461.21 1188.81 461.158 1188.65 461.028C1188.5 460.91 1188.39 460.74 1188.34 460.545L1156.46 329.825C1156.44 329.694 1156.44 329.564 1156.46 329.433C1156.49 329.303 1156.55 329.185 1156.63 329.081C1156.71 328.976 1156.83 328.898 1156.94 328.846C1157.06 328.794 1157.21 328.768 1157.34 328.768H1193.52C1193.72 328.768 1193.91 328.82 1194.07 328.937C1194.23 329.055 1194.33 329.224 1194.38 329.42L1226.26 460.153Z" fill="white" fill-opacity="0.05"></path> <path d="M1290.97 460.153C1290.99 460.284 1290.99 460.414 1290.97 460.545C1290.94 460.675 1290.88 460.793 1290.8 460.897C1290.72 461.001 1290.61 461.08 1290.48 461.132C1290.37 461.184 1290.24 461.21 1290.11 461.21H1253.92C1253.72 461.21 1253.53 461.158 1253.37 461.028C1253.22 460.91 1253.1 460.74 1253.06 460.545L1221.18 329.825C1221.16 329.694 1221.14 329.564 1221.18 329.433C1221.21 329.303 1221.27 329.185 1221.35 329.081C1221.44 328.976 1221.55 328.898 1221.66 328.846C1221.78 328.794 1221.91 328.768 1222.06 328.768H1258.24C1258.44 328.768 1258.63 328.82 1258.79 328.937C1258.95 329.055 1259.06 329.224 1259.1 329.42L1290.97 460.153Z" fill="white" fill-opacity="0.05"></path> </g> </g> <defs> <clipPath id="clip0_653_3927"> <rect width="1670.87" height="300" fill="white" transform="translate(-152.437)"></rect> </clipPath> <clipPath id="clip1_653_3927"> <rect width="1670.87" height="300" fill="white" transform="translate(-232.437 326)"></rect> </clipPath> </defs> </svg> 