<?xml version="1.0" encoding="UTF-8"?> <svg xmlns="http://www.w3.org/2000/svg" width="324" height="390" viewBox="0 0 324 390" fill="none"> <g clip-path="url(#clip0_639_2)"> <path d="M167.393 97.5L191.069 0H218.967L195.255 97.5H167.393Z" fill="white" fill-opacity="0.2"></path> <path d="M223.19 97.5L246.866 0H274.765L251.053 97.5H223.19Z" fill="white" fill-opacity="0.25"></path> <path d="M278.952 97.5L302.664 0H330.563L306.851 97.5H278.952Z" fill="white" fill-opacity="0.3"></path> <path d="M115.817 195L139.53 97.5H167.392L143.716 195H115.817Z" fill="white" fill-opacity="0.2"></path> <path d="M171.615 195L195.327 97.5H223.19L199.514 195H171.615Z" fill="white" fill-opacity="0.25"></path> <path d="M227.412 195L251.088 97.5H278.987L255.311 195H227.412Z" fill="white" fill-opacity="0.3"></path> <path d="M283.21 195L306.886 97.5H334.785L311.073 195H283.21Z" fill="white" fill-opacity="0.35"></path> <path d="M64.207 292.5L87.9192 195H115.818L92.1058 292.5H64.207Z" fill="white" fill-opacity="0.2"></path> <path d="M120.005 292.5L143.717 195H171.616L147.904 292.5H120.005Z" fill="white" fill-opacity="0.25"></path> <path d="M175.802 292.5L199.514 195H227.377L203.701 292.5H175.802Z" fill="white" fill-opacity="0.3"></path> <path d="M231.6 292.5L255.312 195H283.174L259.498 292.5H231.6Z" fill="white" fill-opacity="0.35"></path> <path d="M287.397 292.5L311.074 195H338.972L315.296 292.5H287.397Z" fill="white" fill-opacity="0.4"></path> <path d="M12.668 390L36.344 292.5H64.2428L40.5668 390H12.668Z" fill="white" fill-opacity="0.2"></path> <path d="M68.4658 390L92.1419 292.5H120.041L96.3285 390H68.4658Z" fill="white" fill-opacity="0.25"></path> <path d="M124.263 390L147.939 292.5H175.838L152.125 390H124.263Z" fill="white" fill-opacity="0.3"></path> <path d="M180.024 390L203.737 292.5H231.635L207.923 390H180.024Z" fill="white" fill-opacity="0.35"></path> <path d="M235.822 390L259.534 292.5H287.433L263.721 390H235.822Z" fill="white" fill-opacity="0.4"></path> <path d="M291.62 390L315.332 292.5H343.231L319.519 390H291.62Z" fill="white" fill-opacity="0.45"></path> </g> <defs> <clipPath id="clip0_639_2"> <rect width="324" height="390" rx="20" fill="white"></rect> </clipPath> </defs> </svg> 