<svg width="360" height="379" viewBox="0 0 360 379" fill="none" xmlns="http://www.w3.org/2000/svg">
<path d="M0 24H360" stroke="url(#paint0_linear_589_11145)"/>
<path d="M0 83H360" stroke="url(#paint1_linear_589_11145)"/>
<path d="M0 142H360" stroke="url(#paint2_linear_589_11145)"/>
<path d="M0 201H360" stroke="url(#paint3_linear_589_11145)"/>
<path d="M0 260H360" stroke="url(#paint4_linear_589_11145)"/>
<path d="M0 319H360" stroke="url(#paint5_linear_589_11145)"/>
<path d="M0 378H360" stroke="url(#paint6_linear_589_11145)"/>
<path d="M60.96 11V2.6H67.62V11H66.54V3.62H62.04V11H60.96ZM69.4181 13.28V5H70.3781V5.96H70.3901L70.5101 5.78C70.6461 5.572 70.8901 5.372 71.2421 5.18C71.5941 4.98 72.0261 4.88 72.5381 4.88C73.3381 4.88 74.0181 5.18 74.5781 5.78C75.1381 6.372 75.4181 7.112 75.4181 8C75.4181 8.888 75.1381 9.632 74.5781 10.232C74.0181 10.824 73.3381 11.12 72.5381 11.12C72.0261 11.12 71.5901 11.024 71.2301 10.832C70.8781 10.632 70.6381 10.424 70.5101 10.208L70.3901 10.04H70.3781V13.28H69.4181ZM70.9541 6.404C70.5701 6.82 70.3781 7.352 70.3781 8C70.3781 8.648 70.5701 9.18 70.9541 9.596C71.3461 10.012 71.8341 10.22 72.4181 10.22C73.0021 10.22 73.4861 10.012 73.8701 9.596C74.2621 9.18 74.4581 8.648 74.4581 8C74.4581 7.352 74.2621 6.82 73.8701 6.404C73.4861 5.988 73.0021 5.78 72.4181 5.78C71.8341 5.78 71.3461 5.988 70.9541 6.404ZM76.7423 11V5H77.7023V9.5L77.6903 9.62H77.7143L80.9423 5H82.0223V11H81.0623V6.5L81.0743 6.38H81.0503L77.8223 11H76.7423ZM83.5233 7.16V5H84.4833V7.1C84.4833 7.5 84.5993 7.812 84.8313 8.036C85.0713 8.252 85.4153 8.36 85.8633 8.36C86.3353 8.36 86.7513 8.292 87.1113 8.156C87.2793 8.1 87.4233 8.028 87.5433 7.94V5H88.5033V11H87.5433V8.78C87.3833 8.884 87.2353 8.964 87.0993 9.02C86.7473 9.18 86.3153 9.26 85.8033 9.26C85.0833 9.26 84.5233 9.072 84.1233 8.696C83.7233 8.32 83.5233 7.808 83.5233 7.16ZM90.1838 11V5H91.1438V9.5L91.1318 9.62H91.1558L94.3838 5H95.4638V11H94.5038V6.5L94.5158 6.38H94.4918L91.2638 11H90.1838ZM97.1447 11V5H98.1047V7.46H101.465V5H102.425V11H101.465V8.36H98.1047V11H97.1447ZM104.586 10.232C104.026 9.632 103.746 8.888 103.746 8C103.746 7.112 104.026 6.372 104.586 5.78C105.146 5.18 105.826 4.88 106.626 4.88C107.13 4.88 107.554 4.976 107.898 5.168C108.25 5.36 108.506 5.568 108.666 5.792L108.774 5.972H108.786V5H109.746V11H108.786V10.04H108.774L108.666 10.208C108.522 10.424 108.274 10.632 107.922 10.832C107.57 11.024 107.138 11.12 106.626 11.12C105.826 11.12 105.146 10.824 104.586 10.232ZM105.282 6.404C104.898 6.82 104.706 7.352 104.706 8C104.706 8.648 104.898 9.18 105.282 9.596C105.674 10.012 106.162 10.22 106.746 10.22C107.33 10.22 107.814 10.012 108.198 9.596C108.59 9.18 108.786 8.648 108.786 8C108.786 7.352 108.59 6.82 108.198 6.404C107.814 5.988 107.33 5.78 106.746 5.78C106.162 5.78 105.674 5.988 105.282 6.404Z" fill="#15141D"/>
<path d="M62.368 56.656C61.2693 55.536 60.72 54.1173 60.72 52.4C60.72 50.6827 61.2693 49.2693 62.368 48.16C63.4773 47.04 64.8747 46.48 66.56 46.48C68.2453 46.48 69.6373 47.04 70.736 48.16C71.8453 49.2693 72.4 50.6827 72.4 52.4C72.4 54.1173 71.8453 55.536 70.736 56.656C69.6373 57.7653 68.2453 58.32 66.56 58.32C64.8747 58.32 63.4773 57.7653 62.368 56.656ZM63.392 49.104C62.5707 49.9467 62.16 51.0453 62.16 52.4C62.16 53.7547 62.5707 54.8533 63.392 55.696C64.2133 56.5387 65.2693 56.96 66.56 56.96C67.8507 56.96 68.9067 56.5387 69.728 55.696C70.5493 54.8533 70.96 53.7547 70.96 52.4C70.96 51.0453 70.5493 49.9467 69.728 49.104C68.9067 48.2613 67.8507 47.84 66.56 47.84C65.2693 47.84 64.2133 48.2613 63.392 49.104ZM74.245 58V50H75.525V56.8H78.725V50H80.005V56.8H83.205V50H84.485V58H74.245ZM86.7294 58V50H88.0094V56L87.9934 56.16H88.0254L92.3294 50H93.7694V58H92.4894V52L92.5054 51.84H92.4734L88.1694 58H86.7294ZM95.5306 53.68C95.5306 51.2693 95.9733 49.52 96.8586 48.432C97.744 47.344 99.0613 46.8 100.811 46.8H102.731V48.16H100.811C99.5413 48.16 98.592 48.4587 97.9626 49.056C97.344 49.6427 96.96 50.5973 96.8106 51.92H96.8266C96.9866 51.6853 97.2 51.472 97.4666 51.28C98.064 50.8533 98.7786 50.64 99.6106 50.64C100.699 50.64 101.595 50.9973 102.299 51.712C103.013 52.416 103.371 53.312 103.371 54.4C103.371 55.4987 103.003 56.4 102.267 57.104C101.541 57.808 100.603 58.16 99.4506 58.16C98.2666 58.16 97.3173 57.7653 96.6026 56.976C95.888 56.1867 95.5306 55.088 95.5306 53.68ZM97.5626 52.576C97.0613 53.0667 96.8106 53.6747 96.8106 54.4C96.8106 55.1253 97.0613 55.7333 97.5626 56.224C98.064 56.7147 98.6933 56.96 99.4506 56.96C100.208 56.96 100.837 56.7147 101.339 56.224C101.84 55.7333 102.091 55.1253 102.091 54.4C102.091 53.6747 101.84 53.0667 101.339 52.576C100.837 52.0853 100.208 51.84 99.4506 51.84C98.6933 51.84 98.064 52.0853 97.5626 52.576ZM104.964 58V50H106.244V53.2H107.844L110.404 50H111.924L108.964 53.76L112.164 58H110.564L107.844 54.4H106.244V58H104.964ZM113.37 58V50H114.65V56L114.634 56.16H114.666L118.97 50H120.41V58H119.13V52L119.146 51.84H119.114L114.81 58H113.37ZM126.656 53.68C126.656 51.2693 127.098 49.52 127.984 48.432C128.869 47.344 130.186 46.8 131.936 46.8H133.856V48.16H131.936C130.666 48.16 129.717 48.4587 129.088 49.056C128.469 49.6427 128.085 50.5973 127.936 51.92H127.952C128.112 51.6853 128.325 51.472 128.592 51.28C129.189 50.8533 129.904 50.64 130.736 50.64C131.824 50.64 132.72 50.9973 133.424 51.712C134.138 52.416 134.496 53.312 134.496 54.4C134.496 55.4987 134.128 56.4 133.392 57.104C132.666 57.808 131.728 58.16 130.576 58.16C129.392 58.16 128.442 57.7653 127.728 56.976C127.013 56.1867 126.656 55.088 126.656 53.68ZM128.688 52.576C128.186 53.0667 127.936 53.6747 127.936 54.4C127.936 55.1253 128.186 55.7333 128.688 56.224C129.189 56.7147 129.818 56.96 130.576 56.96C131.333 56.96 131.962 56.7147 132.464 56.224C132.965 55.7333 133.216 55.1253 133.216 54.4C133.216 53.6747 132.965 53.0667 132.464 52.576C131.962 52.0853 131.333 51.84 130.576 51.84C129.818 51.84 129.189 52.0853 128.688 52.576ZM135.054 50H136.414L138.174 56.8H139.374L141.454 50H142.814L139.454 61.04H138.094L139.054 58H137.214L135.054 50ZM142.973 58L145.373 53.92L143.053 50H144.493L146.413 53.28H147.133L149.053 50H150.493L148.173 53.92L150.573 58H149.133L147.133 54.48H146.413L144.413 58H142.973ZM151.854 58V50H157.374V51.2H153.134V58H151.854ZM159.291 56.976C158.545 56.176 158.171 55.184 158.171 54C158.171 52.816 158.545 51.8293 159.291 51.04C160.038 50.24 160.945 49.84 162.011 49.84C162.683 49.84 163.249 49.968 163.707 50.224C164.177 50.48 164.518 50.7573 164.731 51.056L164.875 51.296H164.891V50H166.171V58H164.891V56.72H164.875L164.731 56.944C164.539 57.232 164.209 57.5093 163.739 57.776C163.27 58.032 162.694 58.16 162.011 58.16C160.945 58.16 160.038 57.7653 159.291 56.976ZM160.219 51.872C159.707 52.4267 159.451 53.136 159.451 54C159.451 54.864 159.707 55.5733 160.219 56.128C160.742 56.6827 161.393 56.96 162.171 56.96C162.95 56.96 163.595 56.6827 164.107 56.128C164.63 55.5733 164.891 54.864 164.891 54C164.891 53.136 164.63 52.4267 164.107 51.872C163.595 51.3173 162.95 51.04 162.171 51.04C161.393 51.04 160.742 51.3173 160.219 51.872ZM167.457 58L169.697 50H173.057L175.297 58H173.937L172.097 51.2H170.657L168.817 58H167.457ZM175.221 51.2V50H182.101V51.2H179.301V58H178.021V51.2H175.221ZM183.996 56.976C183.217 56.1867 182.828 55.1947 182.828 54C182.828 52.8053 183.217 51.8133 183.996 51.024C184.774 50.2347 185.745 49.84 186.908 49.84C188.07 49.84 189.041 50.2293 189.82 51.008C190.598 51.7867 190.988 52.7573 190.988 53.92V54.4H184.108C184.193 55.1467 184.497 55.76 185.02 56.24C185.542 56.72 186.172 56.96 186.908 56.96C187.697 56.96 188.374 56.72 188.94 56.24C189.196 56.0267 189.398 55.7867 189.548 55.52H190.828C190.636 56.0213 190.364 56.464 190.012 56.848C189.18 57.7227 188.145 58.16 186.908 58.16C185.745 58.16 184.774 57.7653 183.996 56.976ZM184.14 53.28H189.628C189.532 52.6507 189.238 52.1227 188.748 51.696C188.257 51.2587 187.644 51.04 186.908 51.04C186.172 51.04 185.553 51.2587 185.052 51.696C184.55 52.1227 184.246 52.6507 184.14 53.28ZM192.745 61.04V50H194.025V51.28H194.041L194.201 51.04C194.382 50.7627 194.708 50.496 195.177 50.24C195.646 49.9733 196.222 49.84 196.905 49.84C197.972 49.84 198.878 50.24 199.625 51.04C200.372 51.8293 200.745 52.816 200.745 54C200.745 55.184 200.372 56.176 199.625 56.976C198.878 57.7653 197.972 58.16 196.905 58.16C196.222 58.16 195.641 58.032 195.161 57.776C194.692 57.5093 194.372 57.232 194.201 56.944L194.041 56.72H194.025V61.04H192.745ZM194.793 51.872C194.281 52.4267 194.025 53.136 194.025 54C194.025 54.864 194.281 55.5733 194.793 56.128C195.316 56.6827 195.966 56.96 196.745 56.96C197.524 56.96 198.169 56.6827 198.681 56.128C199.204 55.5733 199.465 54.864 199.465 54C199.465 53.136 199.204 52.4267 198.681 51.872C198.169 51.3173 197.524 51.04 196.745 51.04C195.966 51.04 195.316 51.3173 194.793 51.872ZM202.511 58V50H203.791V56L203.775 56.16H203.807L208.111 50H209.551V58H208.271V52L208.287 51.84H208.255L203.951 58H202.511ZM211.792 58V50H213.072V56L213.056 56.16H213.088L217.392 50H218.832V58H217.552V52L217.568 51.84H217.536L213.232 58H211.792Z" fill="#15141D"/>
<path d="M61.28 117V105.8H70.16V117H68.72V107.16H62.72V117H61.28ZM73.2615 115.976C72.4722 115.187 72.0775 114.195 72.0775 113C72.0775 111.805 72.4722 110.813 73.2615 110.024C74.0508 109.235 75.0428 108.84 76.2375 108.84C77.4322 108.84 78.4242 109.235 79.2135 110.024C80.0028 110.813 80.3975 111.805 80.3975 113C80.3975 114.195 80.0028 115.187 79.2135 115.976C78.4242 116.765 77.4322 117.16 76.2375 117.16C75.0428 117.16 74.0508 116.765 73.2615 115.976ZM74.1735 110.872C73.6295 111.427 73.3575 112.136 73.3575 113C73.3575 113.864 73.6295 114.573 74.1735 115.128C74.7175 115.683 75.4055 115.96 76.2375 115.96C77.0695 115.96 77.7575 115.683 78.3015 115.128C78.8455 114.573 79.1175 113.864 79.1175 113C79.1175 112.136 78.8455 111.427 78.3015 110.872C77.7575 110.317 77.0695 110.04 76.2375 110.04C75.4055 110.04 74.7175 110.317 74.1735 110.872ZM82.1513 117V109H86.0713C86.8179 109 87.4046 109.187 87.8313 109.56C88.2579 109.933 88.4713 110.413 88.4713 111C88.4713 111.267 88.4339 111.512 88.3593 111.736C88.2846 111.949 88.1939 112.12 88.0873 112.248C87.9806 112.365 87.8633 112.467 87.7353 112.552C87.6179 112.627 87.5166 112.68 87.4313 112.712C87.3566 112.733 87.3033 112.744 87.2713 112.744V112.76C87.3033 112.76 87.3673 112.776 87.4633 112.808C87.5593 112.829 87.6819 112.888 87.8313 112.984C87.9913 113.069 88.1406 113.176 88.2793 113.304C88.4179 113.432 88.5353 113.619 88.6313 113.864C88.7379 114.109 88.7913 114.381 88.7913 114.68C88.7913 115.373 88.5513 115.933 88.0713 116.36C87.6019 116.787 86.9406 117 86.0873 117H82.1513ZM83.4313 112.28H85.9913C86.7913 112.28 87.1913 111.933 87.1913 111.24C87.1913 110.547 86.7913 110.2 85.9913 110.2H83.4313V112.28ZM83.4313 115.8H86.0713C86.5406 115.8 86.8979 115.693 87.1433 115.48C87.3886 115.267 87.5113 114.973 87.5113 114.6C87.5113 114.227 87.3886 113.933 87.1433 113.72C86.8979 113.507 86.5406 113.4 86.0713 113.4H83.4313V115.8ZM90.5575 120.04V109H91.8375V110.28H91.8535L92.0135 110.04C92.1948 109.763 92.5202 109.496 92.9895 109.24C93.4588 108.973 94.0348 108.84 94.7175 108.84C95.7842 108.84 96.6908 109.24 97.4375 110.04C98.1842 110.829 98.5575 111.816 98.5575 113C98.5575 114.184 98.1842 115.176 97.4375 115.976C96.6908 116.765 95.7842 117.16 94.7175 117.16C94.0348 117.16 93.4535 117.032 92.9735 116.776C92.5042 116.509 92.1842 116.232 92.0135 115.944L91.8535 115.72H91.8375V120.04H90.5575ZM92.6055 110.872C92.0935 111.427 91.8375 112.136 91.8375 113C91.8375 113.864 92.0935 114.573 92.6055 115.128C93.1282 115.683 93.7788 115.96 94.5575 115.96C95.3362 115.96 95.9815 115.683 96.4935 115.128C97.0162 114.573 97.2775 113.864 97.2775 113C97.2775 112.136 97.0162 111.427 96.4935 110.872C95.9815 110.317 95.3362 110.04 94.5575 110.04C93.7788 110.04 93.1282 110.317 92.6055 110.872ZM101.011 115.976C100.232 115.187 99.8431 114.195 99.8431 113C99.8431 111.805 100.232 110.813 101.011 110.024C101.79 109.235 102.76 108.84 103.923 108.84C105.086 108.84 106.056 109.229 106.835 110.008C107.614 110.787 108.003 111.757 108.003 112.92V113.4H101.123C101.208 114.147 101.512 114.76 102.035 115.24C102.558 115.72 103.187 115.96 103.923 115.96C104.712 115.96 105.39 115.72 105.955 115.24C106.211 115.027 106.414 114.787 106.563 114.52H107.843C107.651 115.021 107.379 115.464 107.027 115.848C106.195 116.723 105.16 117.16 103.923 117.16C102.76 117.16 101.79 116.765 101.011 115.976ZM101.155 112.28H106.643C106.547 111.651 106.254 111.123 105.763 110.696C105.272 110.259 104.659 110.04 103.923 110.04C103.187 110.04 102.568 110.259 102.067 110.696C101.566 111.123 101.262 111.651 101.155 112.28ZM108.408 117L111.448 112.76L108.648 109H110.168L112.568 112.2H113.928V109H115.208V112.2H116.568L118.968 109H120.488L117.688 112.76L120.728 117H119.128L116.568 113.4H115.208V117H113.928V113.4H112.568L110.008 117H108.408ZM120.893 118.84V115.8H121.773L123.613 109H126.973L128.812 115.8H129.693V118.84H128.413V117H122.173V118.84H120.893ZM123.053 115.8H127.533L126.013 110.2H124.573L123.053 115.8ZM131.574 115.976C130.795 115.187 130.406 114.195 130.406 113C130.406 111.805 130.795 110.813 131.574 110.024C132.352 109.235 133.323 108.84 134.486 108.84C135.648 108.84 136.619 109.229 137.398 110.008C138.176 110.787 138.566 111.757 138.566 112.92V113.4H131.686C131.771 114.147 132.075 114.76 132.598 115.24C133.12 115.72 133.75 115.96 134.486 115.96C135.275 115.96 135.952 115.72 136.518 115.24C136.774 115.027 136.976 114.787 137.126 114.52H138.406C138.214 115.021 137.942 115.464 137.59 115.848C136.758 116.723 135.723 117.16 134.486 117.16C133.323 117.16 132.352 116.765 131.574 115.976ZM131.718 112.28H137.206C137.11 111.651 136.816 111.123 136.326 110.696C135.835 110.259 135.222 110.04 134.486 110.04C133.75 110.04 133.131 110.259 132.63 110.696C132.128 111.123 131.824 111.651 131.718 112.28ZM140.323 117V109H141.603V112.28H146.083V109H147.363V117H146.083V113.48H141.603V117H140.323ZM149.604 117V109H150.884V112.28H155.364V109H156.644V117H155.364V113.48H150.884V117H149.604ZM166.166 117V109H167.446V117H166.166ZM158.886 117V109H160.166V111.72H162.086C162.982 111.72 163.712 111.976 164.278 112.488C164.843 112.989 165.126 113.613 165.126 114.36C165.126 115.107 164.843 115.736 164.278 116.248C163.712 116.749 162.982 117 162.086 117H158.886ZM160.166 115.8H162.086C162.64 115.8 163.072 115.667 163.382 115.4C163.691 115.133 163.846 114.787 163.846 114.36C163.846 113.933 163.691 113.587 163.382 113.32C163.072 113.053 162.64 112.92 162.086 112.92H160.166V115.8ZM170.371 115.976C169.592 115.187 169.203 114.195 169.203 113C169.203 111.805 169.592 110.813 170.371 110.024C171.149 109.235 172.12 108.84 173.283 108.84C174.445 108.84 175.416 109.229 176.195 110.008C176.973 110.787 177.363 111.757 177.363 112.92V113.4H170.483C170.568 114.147 170.872 114.76 171.395 115.24C171.917 115.72 172.547 115.96 173.283 115.96C174.072 115.96 174.749 115.72 175.315 115.24C175.571 115.027 175.773 114.787 175.923 114.52H177.203C177.011 115.021 176.739 115.464 176.387 115.848C175.555 116.723 174.52 117.16 173.283 117.16C172.12 117.16 171.149 116.765 170.371 115.976ZM170.515 112.28H176.003C175.907 111.651 175.613 111.123 175.123 110.696C174.632 110.259 174.019 110.04 173.283 110.04C172.547 110.04 171.928 110.259 171.427 110.696C170.925 111.123 170.621 111.651 170.515 112.28ZM182.08 110.2V109H188.96V110.2H186.16V117H184.88V110.2H182.08ZM190.871 115.976C190.082 115.187 189.687 114.195 189.687 113C189.687 111.805 190.082 110.813 190.871 110.024C191.66 109.235 192.652 108.84 193.847 108.84C195.042 108.84 196.034 109.235 196.823 110.024C197.612 110.813 198.007 111.805 198.007 113C198.007 114.195 197.612 115.187 196.823 115.976C196.034 116.765 195.042 117.16 193.847 117.16C192.652 117.16 191.66 116.765 190.871 115.976ZM191.783 110.872C191.239 111.427 190.967 112.136 190.967 113C190.967 113.864 191.239 114.573 191.783 115.128C192.327 115.683 193.015 115.96 193.847 115.96C194.679 115.96 195.367 115.683 195.911 115.128C196.455 114.573 196.727 113.864 196.727 113C196.727 112.136 196.455 111.427 195.911 110.872C195.367 110.317 194.679 110.04 193.847 110.04C193.015 110.04 192.327 110.317 191.783 110.872ZM199.761 117V109H203.681C204.427 109 205.014 109.187 205.441 109.56C205.867 109.933 206.081 110.413 206.081 111C206.081 111.267 206.043 111.512 205.969 111.736C205.894 111.949 205.803 112.12 205.697 112.248C205.59 112.365 205.473 112.467 205.345 112.552C205.227 112.627 205.126 112.68 205.041 112.712C204.966 112.733 204.913 112.744 204.881 112.744V112.76C204.913 112.76 204.977 112.776 205.073 112.808C205.169 112.829 205.291 112.888 205.441 112.984C205.601 113.069 205.75 113.176 205.889 113.304C206.027 113.432 206.145 113.619 206.241 113.864C206.347 114.109 206.401 114.381 206.401 114.68C206.401 115.373 206.161 115.933 205.681 116.36C205.211 116.787 204.55 117 203.697 117H199.761ZM201.041 112.28H203.601C204.401 112.28 204.801 111.933 204.801 111.24C204.801 110.547 204.401 110.2 203.601 110.2H201.041V112.28ZM201.041 115.8H203.681C204.15 115.8 204.507 115.693 204.753 115.48C204.998 115.267 205.121 114.973 205.121 114.6C205.121 114.227 204.998 113.933 204.753 113.72C204.507 113.507 204.15 113.4 203.681 113.4H201.041V115.8ZM208.807 115.976C208.06 115.176 207.687 114.184 207.687 113C207.687 111.816 208.06 110.829 208.807 110.04C209.554 109.24 210.46 108.84 211.527 108.84C212.199 108.84 212.764 108.968 213.223 109.224C213.692 109.48 214.034 109.757 214.247 110.056L214.391 110.296H214.407V109H215.687V117H214.407V115.72H214.391L214.247 115.944C214.055 116.232 213.724 116.509 213.255 116.776C212.786 117.032 212.21 117.16 211.527 117.16C210.46 117.16 209.554 116.765 208.807 115.976ZM209.735 110.872C209.223 111.427 208.967 112.136 208.967 113C208.967 113.864 209.223 114.573 209.735 115.128C210.258 115.683 210.908 115.96 211.687 115.96C212.466 115.96 213.111 115.683 213.623 115.128C214.146 114.573 214.407 113.864 214.407 113C214.407 112.136 214.146 111.427 213.623 110.872C213.111 110.317 212.466 110.04 211.687 110.04C210.908 110.04 210.258 110.317 209.735 110.872ZM217.933 120.04V109H219.213V110.28H219.229L219.389 110.04C219.57 109.763 219.895 109.496 220.365 109.24C220.834 108.973 221.41 108.84 222.093 108.84C223.159 108.84 224.066 109.24 224.812 110.04C225.559 110.829 225.933 111.816 225.933 113C225.933 114.184 225.559 115.176 224.812 115.976C224.066 116.765 223.159 117.16 222.093 117.16C221.41 117.16 220.829 117.032 220.349 116.776C219.879 116.509 219.559 116.232 219.389 115.944L219.229 115.72H219.213V120.04H217.933ZM219.981 110.872C219.469 111.427 219.213 112.136 219.213 113C219.213 113.864 219.469 114.573 219.981 115.128C220.503 115.683 221.154 115.96 221.933 115.96C222.711 115.96 223.357 115.683 223.869 115.128C224.391 114.573 224.653 113.864 224.653 113C224.653 112.136 224.391 111.427 223.869 110.872C223.357 110.317 222.711 110.04 221.933 110.04C221.154 110.04 220.503 110.317 219.981 110.872ZM234.978 117V109H236.258V117H234.978ZM227.698 117V109H228.978V111.72H230.898C231.794 111.72 232.525 111.976 233.09 112.488C233.655 112.989 233.938 113.613 233.938 114.36C233.938 115.107 233.655 115.736 233.09 116.248C232.525 116.749 231.794 117 230.898 117H227.698ZM228.978 115.8H230.898C231.453 115.8 231.885 115.667 232.194 115.4C232.503 115.133 232.658 114.787 232.658 114.36C232.658 113.933 232.503 113.587 232.194 113.32C231.885 113.053 231.453 112.92 230.898 112.92H228.978V115.8Z" fill="#15141D"/>
<path d="M61.28 176V164.8H62.72V169.68H68.72V164.8H70.16V176H68.72V171.04H62.72V176H61.28ZM73.2455 174.976C72.4668 174.187 72.0775 173.195 72.0775 172C72.0775 170.805 72.4668 169.813 73.2455 169.024C74.0242 168.235 74.9948 167.84 76.1575 167.84C77.3202 167.84 78.2908 168.229 79.0695 169.008C79.8482 169.787 80.2375 170.757 80.2375 171.92V172.4H73.3575C73.4428 173.147 73.7468 173.76 74.2695 174.24C74.7922 174.72 75.4215 174.96 76.1575 174.96C76.9468 174.96 77.6242 174.72 78.1895 174.24C78.4455 174.027 78.6482 173.787 78.7975 173.52H80.0775C79.8855 174.021 79.6135 174.464 79.2615 174.848C78.4295 175.723 77.3948 176.16 76.1575 176.16C74.9948 176.16 74.0242 175.765 73.2455 174.976ZM73.3895 171.28H78.8775C78.7815 170.651 78.4882 170.123 77.9975 169.696C77.5068 169.259 76.8935 169.04 76.1575 169.04C75.4215 169.04 74.8028 169.259 74.3015 169.696C73.8002 170.123 73.4962 170.651 73.3895 171.28ZM81.995 176V168H88.955V176H87.675V169.2H83.275V176H81.995ZM91.1981 179.04V168H92.4781V169.28H92.4941L92.6541 169.04C92.8355 168.763 93.1608 168.496 93.6301 168.24C94.0995 167.973 94.6755 167.84 95.3581 167.84C96.4248 167.84 97.3315 168.24 98.0781 169.04C98.8248 169.829 99.1981 170.816 99.1981 172C99.1981 173.184 98.8248 174.176 98.0781 174.976C97.3315 175.765 96.4248 176.16 95.3581 176.16C94.6755 176.16 94.0941 176.032 93.6141 175.776C93.1448 175.509 92.8248 175.232 92.6541 174.944L92.4941 174.72H92.4781V179.04H91.1981ZM93.2461 169.872C92.7341 170.427 92.4781 171.136 92.4781 172C92.4781 172.864 92.7341 173.573 93.2461 174.128C93.7688 174.683 94.4195 174.96 95.1981 174.96C95.9768 174.96 96.6221 174.683 97.1341 174.128C97.6568 173.573 97.9181 172.864 97.9181 172C97.9181 171.136 97.6568 170.427 97.1341 169.872C96.6221 169.317 95.9768 169.04 95.1981 169.04C94.4195 169.04 93.7688 169.317 93.2461 169.872ZM101.604 174.976C100.857 174.176 100.484 173.184 100.484 172C100.484 170.816 100.857 169.829 101.604 169.04C102.35 168.24 103.257 167.84 104.324 167.84C104.996 167.84 105.561 167.968 106.02 168.224C106.489 168.48 106.83 168.757 107.044 169.056L107.188 169.296H107.204V168H108.484V176H107.204V174.72H107.188L107.044 174.944C106.852 175.232 106.521 175.509 106.052 175.776C105.582 176.032 105.006 176.16 104.324 176.16C103.257 176.16 102.35 175.765 101.604 174.976ZM102.532 169.872C102.02 170.427 101.764 171.136 101.764 172C101.764 172.864 102.02 173.573 102.532 174.128C103.054 174.683 103.705 174.96 104.484 174.96C105.262 174.96 105.908 174.683 106.42 174.128C106.942 173.573 107.204 172.864 107.204 172C107.204 171.136 106.942 170.427 106.42 169.872C105.908 169.317 105.262 169.04 104.484 169.04C103.705 169.04 103.054 169.317 102.532 169.872ZM110.729 176V168H114.649C115.396 168 115.983 168.187 116.409 168.56C116.836 168.933 117.049 169.413 117.049 170C117.049 170.267 117.012 170.512 116.937 170.736C116.863 170.949 116.772 171.12 116.665 171.248C116.559 171.365 116.441 171.467 116.313 171.552C116.196 171.627 116.095 171.68 116.009 171.712C115.935 171.733 115.881 171.744 115.849 171.744V171.76C115.881 171.76 115.945 171.776 116.041 171.808C116.137 171.829 116.26 171.888 116.409 171.984C116.569 172.069 116.719 172.176 116.857 172.304C116.996 172.432 117.113 172.619 117.209 172.864C117.316 173.109 117.369 173.381 117.369 173.68C117.369 174.373 117.129 174.933 116.649 175.36C116.18 175.787 115.519 176 114.665 176H110.729ZM112.009 171.28H114.569C115.369 171.28 115.769 170.933 115.769 170.24C115.769 169.547 115.369 169.2 114.569 169.2H112.009V171.28ZM112.009 174.8H114.649C115.119 174.8 115.476 174.693 115.721 174.48C115.967 174.267 116.089 173.973 116.089 173.6C116.089 173.227 115.967 172.933 115.721 172.72C115.476 172.507 115.119 172.4 114.649 172.4H112.009V174.8ZM119.136 176V168H120.416V174L120.4 174.16H120.432L124.736 168H126.176V176H124.896V170L124.912 169.84H124.88L120.576 176H119.136ZM127.457 176L129.697 168H133.057L135.297 176H133.937L132.097 169.2H130.657L128.817 176H127.457ZM136.573 176V168H137.853V170.72H140.093C140.989 170.72 141.72 170.976 142.285 171.488C142.85 171.989 143.133 172.613 143.133 173.36C143.133 174.107 142.85 174.736 142.285 175.248C141.72 175.749 140.989 176 140.093 176H136.573ZM137.853 174.8H140.093C140.648 174.8 141.08 174.667 141.389 174.4C141.698 174.133 141.853 173.787 141.853 173.36C141.853 172.933 141.698 172.587 141.389 172.32C141.08 172.053 140.648 171.92 140.093 171.92H137.853V174.8ZM144.651 176V168H145.931V171.28H150.411V168H151.691V176H150.411V172.48H145.931V176H144.651ZM161.213 176V168H162.493V176H161.213ZM153.933 176V168H155.213V170.72H157.133C158.029 170.72 158.759 170.976 159.325 171.488C159.89 171.989 160.173 172.613 160.173 173.36C160.173 174.107 159.89 174.736 159.325 175.248C158.759 175.749 158.029 176 157.133 176H153.933ZM155.213 174.8H157.133C157.687 174.8 158.119 174.667 158.429 174.4C158.738 174.133 158.893 173.787 158.893 173.36C158.893 172.933 158.738 172.587 158.429 172.32C158.119 172.053 157.687 171.92 157.133 171.92H155.213V174.8ZM165.417 174.976C164.639 174.187 164.249 173.195 164.249 172C164.249 170.805 164.639 169.813 165.417 169.024C166.196 168.235 167.167 167.84 168.329 167.84C169.492 167.84 170.463 168.229 171.241 169.008C172.02 169.787 172.409 170.757 172.409 171.92V172.4H165.529C165.615 173.147 165.919 173.76 166.441 174.24C166.964 174.72 167.593 174.96 168.329 174.96C169.119 174.96 169.796 174.72 170.361 174.24C170.617 174.027 170.82 173.787 170.969 173.52H172.249C172.057 174.021 171.785 174.464 171.433 174.848C170.601 175.723 169.567 176.16 168.329 176.16C167.167 176.16 166.196 175.765 165.417 174.976ZM165.561 171.28H171.049C170.953 170.651 170.66 170.123 170.169 169.696C169.679 169.259 169.065 169.04 168.329 169.04C167.593 169.04 166.975 169.259 166.473 169.696C165.972 170.123 165.668 170.651 165.561 171.28ZM178.651 176V168H179.931V174.8H184.091V168H185.371V174.8H186.491V177.84H185.211V176H178.651ZM188.542 174.976C187.764 174.187 187.374 173.195 187.374 172C187.374 170.805 187.764 169.813 188.542 169.024C189.321 168.235 190.292 167.84 191.454 167.84C192.617 167.84 193.588 168.229 194.366 169.008C195.145 169.787 195.534 170.757 195.534 171.92V172.4H188.654C188.74 173.147 189.044 173.76 189.566 174.24C190.089 174.72 190.718 174.96 191.454 174.96C192.244 174.96 192.921 174.72 193.486 174.24C193.742 174.027 193.945 173.787 194.094 173.52H195.374C195.182 174.021 194.91 174.464 194.558 174.848C193.726 175.723 192.692 176.16 191.454 176.16C190.292 176.16 189.321 175.765 188.542 174.976ZM188.686 171.28H194.174C194.078 170.651 193.785 170.123 193.294 169.696C192.804 169.259 192.19 169.04 191.454 169.04C190.718 169.04 190.1 169.259 189.598 169.696C189.097 170.123 188.793 170.651 188.686 171.28ZM197.292 176V168H198.572V171.28H203.052V168H204.332V176H203.052V172.48H198.572V176H197.292ZM213.853 176V168H215.133V176H213.853ZM206.573 176V168H207.853V170.72H209.773C210.669 170.72 211.4 170.976 211.965 171.488C212.53 171.989 212.813 172.613 212.813 173.36C212.813 174.107 212.53 174.736 211.965 175.248C211.4 175.749 210.669 176 209.773 176H206.573ZM207.853 174.8H209.773C210.328 174.8 210.76 174.667 211.069 174.4C211.378 174.133 211.533 173.787 211.533 173.36C211.533 172.933 211.378 172.587 211.069 172.32C210.76 172.053 210.328 171.92 209.773 171.92H207.853V174.8Z" fill="#15141D"/>
<path d="M61.28 235V223.8H70.16V235H68.72V225.16H62.72V235H61.28ZM72.5575 238.04V227H73.8375V228.28H73.8535L74.0135 228.04C74.1948 227.763 74.5202 227.496 74.9895 227.24C75.4588 226.973 76.0348 226.84 76.7175 226.84C77.7842 226.84 78.6908 227.24 79.4375 228.04C80.1842 228.829 80.5575 229.816 80.5575 231C80.5575 232.184 80.1842 233.176 79.4375 233.976C78.6908 234.765 77.7842 235.16 76.7175 235.16C76.0348 235.16 75.4535 235.032 74.9735 234.776C74.5042 234.509 74.1842 234.232 74.0135 233.944L73.8535 233.72H73.8375V238.04H72.5575ZM74.6055 228.872C74.0935 229.427 73.8375 230.136 73.8375 231C73.8375 231.864 74.0935 232.573 74.6055 233.128C75.1282 233.683 75.7788 233.96 76.5575 233.96C77.3362 233.96 77.9815 233.683 78.4935 233.128C79.0162 232.573 79.2775 231.864 79.2775 231C79.2775 230.136 79.0162 229.427 78.4935 228.872C77.9815 228.317 77.3362 228.04 76.5575 228.04C75.7788 228.04 75.1282 228.317 74.6055 228.872ZM82.3231 235V227H83.6031V233L83.5871 233.16H83.6191L87.9231 227H89.3631V235H88.0831V229L88.0991 228.84H88.0671L83.7631 235H82.3231ZM96.0888 235V227H103.049V235H101.769V228.2H97.3688V235H96.0888ZM105.996 233.976C105.207 233.187 104.812 232.195 104.812 231C104.812 229.805 105.207 228.813 105.996 228.024C106.785 227.235 107.777 226.84 108.972 226.84C110.167 226.84 111.159 227.235 111.948 228.024C112.737 228.813 113.132 229.805 113.132 231C113.132 232.195 112.737 233.187 111.948 233.976C111.159 234.765 110.167 235.16 108.972 235.16C107.777 235.16 106.785 234.765 105.996 233.976ZM106.908 228.872C106.364 229.427 106.092 230.136 106.092 231C106.092 231.864 106.364 232.573 106.908 233.128C107.452 233.683 108.14 233.96 108.972 233.96C109.804 233.96 110.492 233.683 111.036 233.128C111.58 232.573 111.852 231.864 111.852 231C111.852 230.136 111.58 229.427 111.036 228.872C110.492 228.317 109.804 228.04 108.972 228.04C108.14 228.04 107.452 228.317 106.908 228.872ZM113.926 235L116.166 227H119.526L121.766 235H120.406L118.566 228.2H117.126L115.286 235H113.926ZM122.008 227H123.368L125.128 233.8H126.328L128.408 227H129.767L126.408 238.04H125.048L126.008 235H124.168L122.008 227ZM130.646 229.88V227H131.926V229.8C131.926 230.333 132.08 230.749 132.39 231.048C132.71 231.336 133.168 231.48 133.766 231.48C134.395 231.48 134.95 231.389 135.43 231.208C135.654 231.133 135.846 231.037 136.006 230.92V227H137.286V235H136.006V232.04C135.792 232.179 135.595 232.285 135.414 232.36C134.944 232.573 134.368 232.68 133.686 232.68C132.726 232.68 131.979 232.429 131.446 231.928C130.912 231.427 130.646 230.744 130.646 229.88ZM140.214 233.976C139.436 233.187 139.046 232.195 139.046 231C139.046 229.805 139.436 228.813 140.214 228.024C140.993 227.235 141.964 226.84 143.126 226.84C144.289 226.84 145.26 227.229 146.038 228.008C146.817 228.787 147.206 229.757 147.206 230.92V231.4H140.326C140.412 232.147 140.716 232.76 141.238 233.24C141.761 233.72 142.39 233.96 143.126 233.96C143.916 233.96 144.593 233.72 145.158 233.24C145.414 233.027 145.617 232.787 145.766 232.52H147.046C146.854 233.021 146.582 233.464 146.23 233.848C145.398 234.723 144.364 235.16 143.126 235.16C141.964 235.16 140.993 234.765 140.214 233.976ZM140.358 230.28H145.846C145.75 229.651 145.457 229.123 144.966 228.696C144.476 228.259 143.862 228.04 143.126 228.04C142.39 228.04 141.772 228.259 141.27 228.696C140.769 229.123 140.465 229.651 140.358 230.28ZM148.964 235V227H150.244V230.28H154.724V227H156.004V235H154.724V231.48H150.244V235H148.964ZM158.245 235V227H159.525V233L159.509 233.16H159.541L163.845 227H165.285V235H164.005V229L164.021 228.84H163.989L159.685 235H158.245ZM167.526 235V227H168.806V233L168.79 233.16H168.822L173.126 227H174.566V235H173.286V229L173.302 228.84H173.27L168.966 235H167.526ZM179.768 228.2V227H186.648V228.2H183.848V235H182.568V228.2H179.768ZM188.558 233.976C187.769 233.187 187.374 232.195 187.374 231C187.374 229.805 187.769 228.813 188.558 228.024C189.348 227.235 190.34 226.84 191.534 226.84C192.729 226.84 193.721 227.235 194.51 228.024C195.3 228.813 195.694 229.805 195.694 231C195.694 232.195 195.3 233.187 194.51 233.976C193.721 234.765 192.729 235.16 191.534 235.16C190.34 235.16 189.348 234.765 188.558 233.976ZM189.47 228.872C188.926 229.427 188.654 230.136 188.654 231C188.654 231.864 188.926 232.573 189.47 233.128C190.014 233.683 190.702 233.96 191.534 233.96C192.366 233.96 193.054 233.683 193.598 233.128C194.142 232.573 194.414 231.864 194.414 231C194.414 230.136 194.142 229.427 193.598 228.872C193.054 228.317 192.366 228.04 191.534 228.04C190.702 228.04 190.014 228.317 189.47 228.872ZM197.448 235V227H201.368C202.115 227 202.701 227.187 203.128 227.56C203.555 227.933 203.768 228.413 203.768 229C203.768 229.267 203.731 229.512 203.656 229.736C203.581 229.949 203.491 230.12 203.384 230.248C203.277 230.365 203.16 230.467 203.032 230.552C202.915 230.627 202.813 230.68 202.728 230.712C202.653 230.733 202.6 230.744 202.568 230.744V230.76C202.6 230.76 202.664 230.776 202.76 230.808C202.856 230.829 202.979 230.888 203.128 230.984C203.288 231.069 203.437 231.176 203.576 231.304C203.715 231.432 203.832 231.619 203.928 231.864C204.035 232.109 204.088 232.381 204.088 232.68C204.088 233.373 203.848 233.933 203.368 234.36C202.899 234.787 202.237 235 201.384 235H197.448ZM198.728 230.28H201.288C202.088 230.28 202.488 229.933 202.488 229.24C202.488 228.547 202.088 228.2 201.288 228.2H198.728V230.28ZM198.728 233.8H201.368C201.837 233.8 202.195 233.693 202.44 233.48C202.685 233.267 202.808 232.973 202.808 232.6C202.808 232.227 202.685 231.933 202.44 231.72C202.195 231.507 201.837 231.4 201.368 231.4H198.728V233.8ZM206.494 233.976C205.748 233.176 205.374 232.184 205.374 231C205.374 229.816 205.748 228.829 206.494 228.04C207.241 227.24 208.148 226.84 209.214 226.84C209.886 226.84 210.452 226.968 210.91 227.224C211.38 227.48 211.721 227.757 211.934 228.056L212.078 228.296H212.094V227H213.374V235H212.094V233.72H212.078L211.934 233.944C211.742 234.232 211.412 234.509 210.942 234.776C210.473 235.032 209.897 235.16 209.214 235.16C208.148 235.16 207.241 234.765 206.494 233.976ZM207.422 228.872C206.91 229.427 206.654 230.136 206.654 231C206.654 231.864 206.91 232.573 207.422 233.128C207.945 233.683 208.596 233.96 209.374 233.96C210.153 233.96 210.798 233.683 211.31 233.128C211.833 232.573 212.094 231.864 212.094 231C212.094 230.136 211.833 229.427 211.31 228.872C210.798 228.317 210.153 228.04 209.374 228.04C208.596 228.04 207.945 228.317 207.422 228.872ZM215.62 238.04V227H216.9V228.28H216.916L217.076 228.04C217.257 227.763 217.583 227.496 218.052 227.24C218.521 226.973 219.097 226.84 219.78 226.84C220.847 226.84 221.753 227.24 222.5 228.04C223.247 228.829 223.62 229.816 223.62 231C223.62 232.184 223.247 233.176 222.5 233.976C221.753 234.765 220.847 235.16 219.78 235.16C219.097 235.16 218.516 235.032 218.036 234.776C217.567 234.509 217.247 234.232 217.076 233.944L216.916 233.72H216.9V238.04H215.62ZM217.668 228.872C217.156 229.427 216.9 230.136 216.9 231C216.9 231.864 217.156 232.573 217.668 233.128C218.191 233.683 218.841 233.96 219.62 233.96C220.399 233.96 221.044 233.683 221.556 233.128C222.079 232.573 222.34 231.864 222.34 231C222.34 230.136 222.079 229.427 221.556 228.872C221.044 228.317 220.399 228.04 219.62 228.04C218.841 228.04 218.191 228.317 217.668 228.872ZM226.026 233.976C225.279 233.176 224.906 232.184 224.906 231C224.906 229.816 225.279 228.829 226.026 228.04C226.772 227.24 227.679 226.84 228.746 226.84C229.418 226.84 229.983 226.968 230.442 227.224C230.911 227.48 231.252 227.757 231.466 228.056L231.61 228.296H231.626V227H232.906V235H231.626V233.72H231.61L231.466 233.944C231.274 234.232 230.943 234.509 230.474 234.776C230.004 235.032 229.428 235.16 228.746 235.16C227.679 235.16 226.772 234.765 226.026 233.976ZM226.954 228.872C226.442 229.427 226.186 230.136 226.186 231C226.186 231.864 226.442 232.573 226.954 233.128C227.476 233.683 228.127 233.96 228.906 233.96C229.684 233.96 230.33 233.683 230.842 233.128C231.364 232.573 231.626 231.864 231.626 231C231.626 230.136 231.364 229.427 230.842 228.872C230.33 228.317 229.684 228.04 228.906 228.04C228.127 228.04 227.476 228.317 226.954 228.872Z" fill="#15141D"/>
<path d="M61.28 294V282.8H62.72V287.68H64.88L68.4 282.8H70.08L66.16 288.24L70.24 294H68.48L64.96 289.04H62.72V294H61.28ZM71.5263 297.04V286H72.8063V287.28H72.8223L72.9823 287.04C73.1636 286.763 73.4889 286.496 73.9583 286.24C74.4276 285.973 75.0036 285.84 75.6863 285.84C76.7529 285.84 77.6596 286.24 78.4062 287.04C79.1529 287.829 79.5263 288.816 79.5263 290C79.5263 291.184 79.1529 292.176 78.4062 292.976C77.6596 293.765 76.7529 294.16 75.6863 294.16C75.0036 294.16 74.4223 294.032 73.9423 293.776C73.4729 293.509 73.1529 293.232 72.9823 292.944L72.8223 292.72H72.8063V297.04H71.5263ZM73.5743 287.872C73.0623 288.427 72.8063 289.136 72.8063 290C72.8063 290.864 73.0623 291.573 73.5743 292.128C74.0969 292.683 74.7476 292.96 75.5263 292.96C76.3049 292.96 76.9503 292.683 77.4623 292.128C77.9849 291.573 78.2463 290.864 78.2463 290C78.2463 289.136 77.9849 288.427 77.4623 287.872C76.9503 287.317 76.3049 287.04 75.5263 287.04C74.7476 287.04 74.0969 287.317 73.5743 287.872ZM81.9319 292.976C81.1852 292.176 80.8119 291.184 80.8119 290C80.8119 288.816 81.1852 287.829 81.9319 287.04C82.6785 286.24 83.5852 285.84 84.6519 285.84C85.3239 285.84 85.8892 285.968 86.3479 286.224C86.8172 286.48 87.1585 286.757 87.3719 287.056L87.5159 287.296H87.5319V286H88.8119V294H87.5319V292.72H87.5159L87.3719 292.944C87.1799 293.232 86.8492 293.509 86.3799 293.776C85.9105 294.032 85.3345 294.16 84.6519 294.16C83.5852 294.16 82.6785 293.765 81.9319 292.976ZM82.8599 287.872C82.3479 288.427 82.0919 289.136 82.0919 290C82.0919 290.864 82.3479 291.573 82.8599 292.128C83.3825 292.683 84.0332 292.96 84.8119 292.96C85.5905 292.96 86.2359 292.683 86.7479 292.128C87.2705 291.573 87.5319 290.864 87.5319 290C87.5319 289.136 87.2705 288.427 86.7479 287.872C86.2359 287.317 85.5905 287.04 84.8119 287.04C84.0332 287.04 83.3825 287.317 82.8599 287.872ZM90.0175 294L93.0575 289.76L90.2575 286H91.7775L94.1775 289.2H95.5375V286H96.8175V289.2H98.1775L100.578 286H102.098L99.2975 289.76L102.338 294H100.738L98.1775 290.4H96.8175V294H95.5375V290.4H94.1775L91.6175 294H90.0175ZM103.542 294V286H104.822V292L104.806 292.16H104.838L109.142 286H110.582V294H109.302V288L109.318 287.84H109.286L104.982 294H103.542ZM117.308 294V286H124.267V294H122.988V287.2H118.588V294H117.308ZM127.215 292.976C126.425 292.187 126.031 291.195 126.031 290C126.031 288.805 126.425 287.813 127.215 287.024C128.004 286.235 128.996 285.84 130.191 285.84C131.385 285.84 132.377 286.235 133.167 287.024C133.956 287.813 134.351 288.805 134.351 290C134.351 291.195 133.956 292.187 133.167 292.976C132.377 293.765 131.385 294.16 130.191 294.16C128.996 294.16 128.004 293.765 127.215 292.976ZM128.127 287.872C127.583 288.427 127.311 289.136 127.311 290C127.311 290.864 127.583 291.573 128.127 292.128C128.671 292.683 129.359 292.96 130.191 292.96C131.023 292.96 131.711 292.683 132.255 292.128C132.799 291.573 133.071 290.864 133.071 290C133.071 289.136 132.799 288.427 132.255 287.872C131.711 287.317 131.023 287.04 130.191 287.04C129.359 287.04 128.671 287.317 128.127 287.872ZM136.104 294V286H137.384V289.2H138.984L141.544 286H143.064L140.104 289.76L143.304 294H141.704L138.984 290.4H137.384V294H136.104ZM143.711 286H145.071L146.831 292.8H148.031L150.111 286H151.471L148.111 297.04H146.751L147.711 294H145.871L143.711 286ZM152.589 294V286H159.549V294H158.269V287.2H153.869V294H152.589ZM162.432 292.976C161.685 292.176 161.312 291.184 161.312 290C161.312 288.816 161.685 287.829 162.432 287.04C163.179 286.24 164.085 285.84 165.152 285.84C165.824 285.84 166.389 285.968 166.848 286.224C167.317 286.48 167.659 286.757 167.872 287.056L168.016 287.296H168.032V286H169.312V294H168.032V292.72H168.016L167.872 292.944C167.68 293.232 167.349 293.509 166.88 293.776C166.411 294.032 165.835 294.16 165.152 294.16C164.085 294.16 163.179 293.765 162.432 292.976ZM163.36 287.872C162.848 288.427 162.592 289.136 162.592 290C162.592 290.864 162.848 291.573 163.36 292.128C163.883 292.683 164.533 292.96 165.312 292.96C166.091 292.96 166.736 292.683 167.248 292.128C167.771 291.573 168.032 290.864 168.032 290C168.032 289.136 167.771 288.427 167.248 287.872C166.736 287.317 166.091 287.04 165.312 287.04C164.533 287.04 163.883 287.317 163.36 287.872ZM170.518 287.2V286H177.398V287.2H174.598V294H173.318V287.2H170.518ZM179.292 292.976C178.514 292.187 178.124 291.195 178.124 290C178.124 288.805 178.514 287.813 179.292 287.024C180.071 286.235 181.042 285.84 182.204 285.84C183.367 285.84 184.338 286.229 185.116 287.008C185.895 287.787 186.284 288.757 186.284 289.92V290.4H179.404C179.49 291.147 179.794 291.76 180.316 292.24C180.839 292.72 181.468 292.96 182.204 292.96C182.994 292.96 183.671 292.72 184.236 292.24C184.492 292.027 184.695 291.787 184.844 291.52H186.124C185.932 292.021 185.66 292.464 185.308 292.848C184.476 293.723 183.442 294.16 182.204 294.16C181.042 294.16 180.071 293.765 179.292 292.976ZM179.436 289.28H184.924C184.828 288.651 184.535 288.123 184.044 287.696C183.554 287.259 182.94 287.04 182.204 287.04C181.468 287.04 180.85 287.259 180.348 287.696C179.847 288.123 179.543 288.651 179.436 289.28ZM187.082 294L189.322 286H192.682L194.922 294H193.562L191.722 287.2H190.282L188.442 294H187.082ZM195.878 294L197.478 291.12C197.211 291.003 196.945 290.832 196.678 290.608C196.145 290.117 195.878 289.488 195.878 288.72C195.878 287.941 196.161 287.296 196.726 286.784C197.291 286.261 198.043 286 198.982 286H202.598V294H201.318V291.44H198.758L197.35 294H195.878ZM197.622 287.616C197.313 287.893 197.158 288.261 197.158 288.72C197.158 289.179 197.313 289.547 197.622 289.824C197.942 290.101 198.401 290.24 198.998 290.24H201.318V287.2H198.998C198.401 287.2 197.942 287.339 197.622 287.616ZM204.839 294V286H206.759L209.159 290.96H209.559L211.959 286H213.879V294H212.599V287.6L212.615 287.44H212.583L210.199 292.4H208.519L206.135 287.44H206.103L206.119 287.6V294H204.839ZM216.12 294V286H217.4V292L217.384 292.16H217.416L221.72 286H223.16V294H221.88V288L221.896 287.84H221.864L217.56 294H216.12Z" fill="#15141D"/>
<path d="M61.28 353V341.8H62.72V346.68H64.88L68.4 341.8H70.08L66.16 347.24L70.24 353H68.48L64.96 348.04H62.72V353H61.28ZM71.5263 356.04V345H72.8063V346.28H72.8223L72.9823 346.04C73.1636 345.763 73.4889 345.496 73.9583 345.24C74.4276 344.973 75.0036 344.84 75.6863 344.84C76.7529 344.84 77.6596 345.24 78.4062 346.04C79.1529 346.829 79.5263 347.816 79.5263 349C79.5263 350.184 79.1529 351.176 78.4062 351.976C77.6596 352.765 76.7529 353.16 75.6863 353.16C75.0036 353.16 74.4223 353.032 73.9423 352.776C73.4729 352.509 73.1529 352.232 72.9823 351.944L72.8223 351.72H72.8063V356.04H71.5263ZM73.5743 346.872C73.0623 347.427 72.8063 348.136 72.8063 349C72.8063 349.864 73.0623 350.573 73.5743 351.128C74.0969 351.683 74.7476 351.96 75.5263 351.96C76.3049 351.96 76.9503 351.683 77.4623 351.128C77.9849 350.573 78.2463 349.864 78.2463 349C78.2463 348.136 77.9849 347.427 77.4623 346.872C76.9503 346.317 76.3049 346.04 75.5263 346.04C74.7476 346.04 74.0969 346.317 73.5743 346.872ZM81.9319 351.976C81.1852 351.176 80.8119 350.184 80.8119 349C80.8119 347.816 81.1852 346.829 81.9319 346.04C82.6785 345.24 83.5852 344.84 84.6519 344.84C85.3239 344.84 85.8892 344.968 86.3479 345.224C86.8172 345.48 87.1585 345.757 87.3719 346.056L87.5159 346.296H87.5319V345H88.8119V353H87.5319V351.72H87.5159L87.3719 351.944C87.1799 352.232 86.8492 352.509 86.3799 352.776C85.9105 353.032 85.3345 353.16 84.6519 353.16C83.5852 353.16 82.6785 352.765 81.9319 351.976ZM82.8599 346.872C82.3479 347.427 82.0919 348.136 82.0919 349C82.0919 349.864 82.3479 350.573 82.8599 351.128C83.3825 351.683 84.0332 351.96 84.8119 351.96C85.5905 351.96 86.2359 351.683 86.7479 351.128C87.2705 350.573 87.5319 349.864 87.5319 349C87.5319 348.136 87.2705 347.427 86.7479 346.872C86.2359 346.317 85.5905 346.04 84.8119 346.04C84.0332 346.04 83.3825 346.317 82.8599 346.872ZM90.0175 353L93.0575 348.76L90.2575 345H91.7775L94.1775 348.2H95.5375V345H96.8175V348.2H98.1775L100.578 345H102.098L99.2975 348.76L102.338 353H100.738L98.1775 349.4H96.8175V353H95.5375V349.4H94.1775L91.6175 353H90.0175ZM103.542 353V345H104.822V351L104.806 351.16H104.838L109.142 345H110.582V353H109.302V347L109.318 346.84H109.286L104.982 353H103.542ZM117.308 353V345H124.267V353H122.988V346.2H118.588V353H117.308ZM127.199 351.976C126.42 351.187 126.031 350.195 126.031 349C126.031 347.805 126.42 346.813 127.199 346.024C127.977 345.235 128.948 344.84 130.111 344.84C131.273 344.84 132.244 345.229 133.023 346.008C133.801 346.787 134.191 347.757 134.191 348.92V349.4H127.311C127.396 350.147 127.7 350.76 128.223 351.24C128.745 351.72 129.375 351.96 130.111 351.96C130.9 351.96 131.577 351.72 132.143 351.24C132.399 351.027 132.601 350.787 132.751 350.52H134.031C133.839 351.021 133.567 351.464 133.215 351.848C132.383 352.723 131.348 353.16 130.111 353.16C128.948 353.16 127.977 352.765 127.199 351.976ZM127.343 348.28H132.831C132.735 347.651 132.441 347.123 131.951 346.696C131.46 346.259 130.847 346.04 130.111 346.04C129.375 346.04 128.756 346.259 128.255 346.696C127.753 347.123 127.449 347.651 127.343 348.28ZM135.948 356.04V345H137.228V346.28H137.244L137.404 346.04C137.585 345.763 137.911 345.496 138.38 345.24C138.849 344.973 139.425 344.84 140.108 344.84C141.175 344.84 142.081 345.24 142.828 346.04C143.575 346.829 143.948 347.816 143.948 349C143.948 350.184 143.575 351.176 142.828 351.976C142.081 352.765 141.175 353.16 140.108 353.16C139.425 353.16 138.844 353.032 138.364 352.776C137.895 352.509 137.575 352.232 137.404 351.944L137.244 351.72H137.228V356.04H135.948ZM137.996 346.872C137.484 347.427 137.228 348.136 137.228 349C137.228 349.864 137.484 350.573 137.996 351.128C138.519 351.683 139.169 351.96 139.948 351.96C140.727 351.96 141.372 351.683 141.884 351.128C142.407 350.573 142.668 349.864 142.668 349C142.668 348.136 142.407 347.427 141.884 346.872C141.372 346.317 140.727 346.04 139.948 346.04C139.169 346.04 138.519 346.317 137.996 346.872ZM146.386 351.976C145.618 351.187 145.234 350.195 145.234 349C145.234 347.805 145.618 346.813 146.386 346.024C147.154 345.235 148.103 344.84 149.234 344.84C150.546 344.84 151.586 345.309 152.354 346.248C152.684 346.664 152.924 347.128 153.074 347.64H151.794C151.676 347.352 151.5 347.085 151.266 346.84C150.754 346.307 150.076 346.04 149.234 346.04C148.455 346.04 147.804 346.317 147.282 346.872C146.77 347.427 146.514 348.136 146.514 349C146.514 349.864 146.78 350.573 147.314 351.128C147.847 351.683 148.487 351.96 149.234 351.96C150.108 351.96 150.807 351.667 151.33 351.08C151.564 350.835 151.746 350.541 151.874 350.2H153.154C153.015 350.744 152.77 351.24 152.418 351.688C151.607 352.669 150.546 353.16 149.234 353.16C148.103 353.16 147.154 352.765 146.386 351.976ZM155.465 351.976C154.675 351.187 154.281 350.195 154.281 349C154.281 347.805 154.675 346.813 155.465 346.024C156.254 345.235 157.246 344.84 158.441 344.84C159.635 344.84 160.627 345.235 161.417 346.024C162.206 346.813 162.601 347.805 162.601 349C162.601 350.195 162.206 351.187 161.417 351.976C160.627 352.765 159.635 353.16 158.441 353.16C157.246 353.16 156.254 352.765 155.465 351.976ZM156.377 346.872C155.833 347.427 155.561 348.136 155.561 349C155.561 349.864 155.833 350.573 156.377 351.128C156.921 351.683 157.609 351.96 158.441 351.96C159.273 351.96 159.961 351.683 160.505 351.128C161.049 350.573 161.321 349.864 161.321 349C161.321 348.136 161.049 347.427 160.505 346.872C159.961 346.317 159.273 346.04 158.441 346.04C157.609 346.04 156.921 346.317 156.377 346.872ZM164.354 353V345H165.634V348.28H170.114V345H171.394V353H170.114V349.48H165.634V353H164.354ZM174.276 351.976C173.529 351.176 173.156 350.184 173.156 349C173.156 347.816 173.529 346.829 174.276 346.04C175.022 345.24 175.929 344.84 176.996 344.84C177.668 344.84 178.233 344.968 178.692 345.224C179.161 345.48 179.502 345.757 179.716 346.056L179.86 346.296H179.876V345H181.156V353H179.876V351.72H179.86L179.716 351.944C179.524 352.232 179.193 352.509 178.724 352.776C178.254 353.032 177.678 353.16 176.996 353.16C175.929 353.16 175.022 352.765 174.276 351.976ZM175.204 346.872C174.692 347.427 174.436 348.136 174.436 349C174.436 349.864 174.692 350.573 175.204 351.128C175.726 351.683 176.377 351.96 177.156 351.96C177.934 351.96 178.58 351.683 179.092 351.128C179.614 350.573 179.876 349.864 179.876 349C179.876 348.136 179.614 347.427 179.092 346.872C178.58 346.317 177.934 346.04 177.156 346.04C176.377 346.04 175.726 346.317 175.204 346.872ZM182.441 353L184.681 345H188.041L190.281 353H188.921L187.081 346.2H185.641L183.801 353H182.441ZM192.198 351.976C191.451 351.176 191.078 350.184 191.078 349C191.078 347.816 191.451 346.829 192.198 346.04C192.944 345.24 193.851 344.84 194.918 344.84C195.59 344.84 196.155 344.968 196.614 345.224C197.083 345.48 197.424 345.757 197.638 346.056L197.782 346.296H197.798V345H199.078V353H197.798V351.72H197.782L197.638 351.944C197.446 352.232 197.115 352.509 196.646 352.776C196.176 353.032 195.6 353.16 194.918 353.16C193.851 353.16 192.944 352.765 192.198 351.976ZM193.126 346.872C192.614 347.427 192.358 348.136 192.358 349C192.358 349.864 192.614 350.573 193.126 351.128C193.648 351.683 194.299 351.96 195.078 351.96C195.856 351.96 196.502 351.683 197.014 351.128C197.536 350.573 197.798 349.864 197.798 349C197.798 348.136 197.536 347.427 197.014 346.872C196.502 346.317 195.856 346.04 195.078 346.04C194.299 346.04 193.648 346.317 193.126 346.872Z" fill="#15141D"/>
<path d="M301.056 5.864C300.672 5.472 300.48 5.004 300.48 4.46C300.48 3.916 300.672 3.452 301.056 3.068C301.448 2.676 301.916 2.48 302.46 2.48C303.004 2.48 303.468 2.676 303.852 3.068C304.244 3.452 304.44 3.916 304.44 4.46C304.44 5.004 304.244 5.472 303.852 5.864C303.468 6.248 303.004 6.44 302.46 6.44C301.916 6.44 301.448 6.248 301.056 5.864ZM301.56 11L306.6 2.6H307.62L302.58 11H301.56ZM301.68 3.644C301.48 3.852 301.38 4.124 301.38 4.46C301.38 4.796 301.48 5.072 301.68 5.288C301.888 5.496 302.148 5.6 302.46 5.6C302.772 5.6 303.028 5.496 303.228 5.288C303.436 5.072 303.54 4.796 303.54 4.46C303.54 4.124 303.436 3.852 303.228 3.644C303.028 3.428 302.772 3.32 302.46 3.32C302.148 3.32 301.888 3.428 301.68 3.644ZM305.316 10.544C304.932 10.152 304.74 9.684 304.74 9.14C304.74 8.596 304.932 8.132 305.316 7.748C305.708 7.356 306.176 7.16 306.72 7.16C307.264 7.16 307.728 7.356 308.112 7.748C308.504 8.132 308.7 8.596 308.7 9.14C308.7 9.684 308.504 10.152 308.112 10.544C307.728 10.928 307.264 11.12 306.72 11.12C306.176 11.12 305.708 10.928 305.316 10.544ZM305.94 8.324C305.74 8.532 305.64 8.804 305.64 9.14C305.64 9.476 305.74 9.752 305.94 9.968C306.148 10.176 306.408 10.28 306.72 10.28C307.032 10.28 307.288 10.176 307.488 9.968C307.696 9.752 307.8 9.476 307.8 9.14C307.8 8.804 307.696 8.532 307.488 8.324C307.288 8.108 307.032 8 306.72 8C306.408 8 306.148 8.108 305.94 8.324ZM313.379 11V5H314.339V7.4H315.539L317.459 5H318.599L316.379 7.82L318.779 11H317.579L315.539 8.3H314.339V11H313.379ZM319.684 13.28V5H320.644V5.96H320.656L320.776 5.78C320.912 5.572 321.156 5.372 321.508 5.18C321.86 4.98 322.292 4.88 322.804 4.88C323.604 4.88 324.284 5.18 324.844 5.78C325.404 6.372 325.684 7.112 325.684 8C325.684 8.888 325.404 9.632 324.844 10.232C324.284 10.824 323.604 11.12 322.804 11.12C322.292 11.12 321.856 11.024 321.496 10.832C321.144 10.632 320.904 10.424 320.776 10.208L320.656 10.04H320.644V13.28H319.684ZM321.22 6.404C320.836 6.82 320.644 7.352 320.644 8C320.644 8.648 320.836 9.18 321.22 9.596C321.612 10.012 322.1 10.22 322.684 10.22C323.268 10.22 323.752 10.012 324.136 9.596C324.528 9.18 324.724 8.648 324.724 8C324.724 7.352 324.528 6.82 324.136 6.404C323.752 5.988 323.268 5.78 322.684 5.78C322.1 5.78 321.612 5.988 321.22 6.404ZM327.488 10.232C326.928 9.632 326.648 8.888 326.648 8C326.648 7.112 326.928 6.372 327.488 5.78C328.048 5.18 328.728 4.88 329.528 4.88C330.032 4.88 330.456 4.976 330.8 5.168C331.152 5.36 331.408 5.568 331.568 5.792L331.676 5.972H331.688V5H332.648V11H331.688V10.04H331.676L331.568 10.208C331.424 10.424 331.176 10.632 330.824 10.832C330.472 11.024 330.04 11.12 329.528 11.12C328.728 11.12 328.048 10.824 327.488 10.232ZM328.184 6.404C327.8 6.82 327.608 7.352 327.608 8C327.608 8.648 327.8 9.18 328.184 9.596C328.576 10.012 329.064 10.22 329.648 10.22C330.232 10.22 330.716 10.012 331.1 9.596C331.492 9.18 331.688 8.648 331.688 8C331.688 7.352 331.492 6.82 331.1 6.404C330.716 5.988 330.232 5.78 329.648 5.78C329.064 5.78 328.576 5.988 328.184 6.404ZM333.552 11L335.832 7.82L333.732 5H334.872L336.672 7.4H337.692V5H338.652V7.4H339.672L341.472 5H342.612L340.512 7.82L342.792 11H341.592L339.672 8.3H338.652V11H337.692V8.3H336.672L334.752 11H333.552Z" fill="#15141D"/>
<path d="M300.32 55.6V54.24L304.24 46.8H305.84L301.92 54.24H306.16V51.36H306.24H307.6V54.24H309.28V55.6H307.6V58H306.16V55.6H300.32ZM310.767 51.152C310.255 50.6293 309.999 50.0053 309.999 49.28C309.999 48.5547 310.255 47.936 310.767 47.424C311.29 46.9013 311.914 46.64 312.639 46.64C313.365 46.64 313.983 46.9013 314.495 47.424C315.018 47.936 315.279 48.5547 315.279 49.28C315.279 50.0053 315.018 50.6293 314.495 51.152C313.983 51.664 313.365 51.92 312.639 51.92C311.914 51.92 311.29 51.664 310.767 51.152ZM311.439 58L318.159 46.8H319.519L312.799 58H311.439ZM311.599 48.192C311.333 48.4693 311.199 48.832 311.199 49.28C311.199 49.728 311.333 50.096 311.599 50.384C311.877 50.6613 312.223 50.8 312.639 50.8C313.055 50.8 313.397 50.6613 313.663 50.384C313.941 50.096 314.079 49.728 314.079 49.28C314.079 48.832 313.941 48.4693 313.663 48.192C313.397 47.904 313.055 47.76 312.639 47.76C312.223 47.76 311.877 47.904 311.599 48.192ZM316.447 57.392C315.935 56.8693 315.679 56.2453 315.679 55.52C315.679 54.7947 315.935 54.176 316.447 53.664C316.97 53.1413 317.594 52.88 318.319 52.88C319.045 52.88 319.663 53.1413 320.175 53.664C320.698 54.176 320.959 54.7947 320.959 55.52C320.959 56.2453 320.698 56.8693 320.175 57.392C319.663 57.904 319.045 58.16 318.319 58.16C317.594 58.16 316.97 57.904 316.447 57.392ZM317.279 54.432C317.013 54.7093 316.879 55.072 316.879 55.52C316.879 55.968 317.013 56.336 317.279 56.624C317.557 56.9013 317.903 57.04 318.319 57.04C318.735 57.04 319.077 56.9013 319.343 56.624C319.621 56.336 319.759 55.968 319.759 55.52C319.759 55.072 319.621 54.7093 319.343 54.432C319.077 54.144 318.735 54 318.319 54C317.903 54 317.557 54.144 317.279 54.432Z" fill="#15141D"/>
<path d="M300.32 114.6V113.24L304.24 105.8H305.84L301.92 113.24H306.16V110.36H306.24H307.6V113.24H309.28V114.6H307.6V117H306.16V114.6H300.32ZM310.767 110.152C310.255 109.629 309.999 109.005 309.999 108.28C309.999 107.555 310.255 106.936 310.767 106.424C311.29 105.901 311.914 105.64 312.639 105.64C313.365 105.64 313.983 105.901 314.495 106.424C315.018 106.936 315.279 107.555 315.279 108.28C315.279 109.005 315.018 109.629 314.495 110.152C313.983 110.664 313.365 110.92 312.639 110.92C311.914 110.92 311.29 110.664 310.767 110.152ZM311.439 117L318.159 105.8H319.519L312.799 117H311.439ZM311.599 107.192C311.333 107.469 311.199 107.832 311.199 108.28C311.199 108.728 311.333 109.096 311.599 109.384C311.877 109.661 312.223 109.8 312.639 109.8C313.055 109.8 313.397 109.661 313.663 109.384C313.941 109.096 314.079 108.728 314.079 108.28C314.079 107.832 313.941 107.469 313.663 107.192C313.397 106.904 313.055 106.76 312.639 106.76C312.223 106.76 311.877 106.904 311.599 107.192ZM316.447 116.392C315.935 115.869 315.679 115.245 315.679 114.52C315.679 113.795 315.935 113.176 316.447 112.664C316.97 112.141 317.594 111.88 318.319 111.88C319.045 111.88 319.663 112.141 320.175 112.664C320.698 113.176 320.959 113.795 320.959 114.52C320.959 115.245 320.698 115.869 320.175 116.392C319.663 116.904 319.045 117.16 318.319 117.16C317.594 117.16 316.97 116.904 316.447 116.392ZM317.279 113.432C317.013 113.709 316.879 114.072 316.879 114.52C316.879 114.968 317.013 115.336 317.279 115.624C317.557 115.901 317.903 116.04 318.319 116.04C318.735 116.04 319.077 115.901 319.343 115.624C319.621 115.336 319.759 114.968 319.759 114.52C319.759 114.072 319.621 113.709 319.343 113.432C319.077 113.144 318.735 113 318.319 113C317.903 113 317.557 113.144 317.279 113.432Z" fill="#15141D"/>
<path d="M300.8 172.96H302.24C302.336 173.355 302.501 173.691 302.736 173.968C303.269 174.629 304.037 174.96 305.04 174.96C305.861 174.96 306.517 174.731 307.008 174.272C307.509 173.813 307.76 173.216 307.76 172.48C307.76 171.744 307.509 171.147 307.008 170.688C306.517 170.229 305.861 170 305.04 170C304.304 170 303.669 170.203 303.136 170.608C302.912 170.768 302.72 170.965 302.56 171.2H301.28L301.76 164.8H308.4V166.16H302.96L302.72 169.424V169.44C302.901 169.28 303.104 169.147 303.328 169.04C303.925 168.773 304.549 168.64 305.2 168.64C306.352 168.64 307.307 169.008 308.064 169.744C308.821 170.48 309.2 171.392 309.2 172.48C309.2 173.579 308.811 174.496 308.032 175.232C307.264 175.957 306.267 176.32 305.04 176.32C303.461 176.32 302.283 175.76 301.504 174.64C301.141 174.139 300.907 173.579 300.8 172.96ZM311.252 169.152C310.74 168.629 310.484 168.005 310.484 167.28C310.484 166.555 310.74 165.936 311.252 165.424C311.774 164.901 312.398 164.64 313.124 164.64C313.849 164.64 314.468 164.901 314.98 165.424C315.502 165.936 315.764 166.555 315.764 167.28C315.764 168.005 315.502 168.629 314.98 169.152C314.468 169.664 313.849 169.92 313.124 169.92C312.398 169.92 311.774 169.664 311.252 169.152ZM311.924 176L318.644 164.8H320.004L313.284 176H311.924ZM312.084 166.192C311.817 166.469 311.684 166.832 311.684 167.28C311.684 167.728 311.817 168.096 312.084 168.384C312.361 168.661 312.708 168.8 313.124 168.8C313.54 168.8 313.881 168.661 314.148 168.384C314.425 168.096 314.564 167.728 314.564 167.28C314.564 166.832 314.425 166.469 314.148 166.192C313.881 165.904 313.54 165.76 313.124 165.76C312.708 165.76 312.361 165.904 312.084 166.192ZM316.932 175.392C316.42 174.869 316.164 174.245 316.164 173.52C316.164 172.795 316.42 172.176 316.932 171.664C317.454 171.141 318.078 170.88 318.804 170.88C319.529 170.88 320.148 171.141 320.66 171.664C321.182 172.176 321.444 172.795 321.444 173.52C321.444 174.245 321.182 174.869 320.66 175.392C320.148 175.904 319.529 176.16 318.804 176.16C318.078 176.16 317.454 175.904 316.932 175.392ZM317.764 172.432C317.497 172.709 317.364 173.072 317.364 173.52C317.364 173.968 317.497 174.336 317.764 174.624C318.041 174.901 318.388 175.04 318.804 175.04C319.22 175.04 319.561 174.901 319.828 174.624C320.105 174.336 320.244 173.968 320.244 173.52C320.244 173.072 320.105 172.709 319.828 172.432C319.561 172.144 319.22 172 318.804 172C318.388 172 318.041 172.144 317.764 172.432Z" fill="#15141D"/>
<path d="M300.4 227.08V225.48L302.56 223.8H303.84V235H302.4V225.56L300.4 227.08ZM307.477 233.672C306.496 232.573 306.005 231.149 306.005 229.4C306.005 227.651 306.496 226.227 307.477 225.128C308.458 224.029 309.648 223.48 311.045 223.48C312.442 223.48 313.632 224.029 314.613 225.128C315.594 226.227 316.085 227.651 316.085 229.4C316.085 231.149 315.594 232.573 314.613 233.672C313.632 234.771 312.442 235.32 311.045 235.32C309.648 235.32 308.458 234.771 307.477 233.672ZM308.453 226.056C307.781 226.856 307.445 227.971 307.445 229.4C307.445 230.829 307.781 231.949 308.453 232.76C309.136 233.56 310 233.96 311.045 233.96C312.09 233.96 312.949 233.56 313.621 232.76C314.304 231.949 314.645 230.829 314.645 229.4C314.645 227.971 314.304 226.856 313.621 226.056C312.949 225.245 312.09 224.84 311.045 224.84C310 224.84 309.136 225.245 308.453 226.056ZM318.377 228.152C317.865 227.629 317.609 227.005 317.609 226.28C317.609 225.555 317.865 224.936 318.377 224.424C318.899 223.901 319.523 223.64 320.249 223.64C320.974 223.64 321.593 223.901 322.105 224.424C322.627 224.936 322.889 225.555 322.889 226.28C322.889 227.005 322.627 227.629 322.105 228.152C321.593 228.664 320.974 228.92 320.249 228.92C319.523 228.92 318.899 228.664 318.377 228.152ZM319.049 235L325.769 223.8H327.129L320.409 235H319.049ZM319.209 225.192C318.942 225.469 318.809 225.832 318.809 226.28C318.809 226.728 318.942 227.096 319.209 227.384C319.486 227.661 319.833 227.8 320.249 227.8C320.665 227.8 321.006 227.661 321.273 227.384C321.55 227.096 321.689 226.728 321.689 226.28C321.689 225.832 321.55 225.469 321.273 225.192C321.006 224.904 320.665 224.76 320.249 224.76C319.833 224.76 319.486 224.904 319.209 225.192ZM324.057 234.392C323.545 233.869 323.289 233.245 323.289 232.52C323.289 231.795 323.545 231.176 324.057 230.664C324.579 230.141 325.203 229.88 325.929 229.88C326.654 229.88 327.273 230.141 327.785 230.664C328.307 231.176 328.569 231.795 328.569 232.52C328.569 233.245 328.307 233.869 327.785 234.392C327.273 234.904 326.654 235.16 325.929 235.16C325.203 235.16 324.579 234.904 324.057 234.392ZM324.889 231.432C324.622 231.709 324.489 232.072 324.489 232.52C324.489 232.968 324.622 233.336 324.889 233.624C325.166 233.901 325.513 234.04 325.929 234.04C326.345 234.04 326.686 233.901 326.953 233.624C327.23 233.336 327.369 232.968 327.369 232.52C327.369 232.072 327.23 231.709 326.953 231.432C326.686 231.144 326.345 231 325.929 231C325.513 231 325.166 231.144 324.889 231.432Z" fill="#15141D"/>
<path d="M300.48 294V292.64L304.16 289.92C305.173 289.163 305.893 288.512 306.32 287.968C306.747 287.424 306.96 286.795 306.96 286.08C306.96 285.429 306.736 284.896 306.288 284.48C305.851 284.053 305.275 283.84 304.56 283.84C303.643 283.84 302.96 284.213 302.512 284.96C302.299 285.301 302.155 285.675 302.08 286.08H300.56C300.656 285.419 300.864 284.821 301.184 284.288C301.941 283.083 303.067 282.48 304.56 282.48C305.669 282.48 306.587 282.827 307.312 283.52C308.037 284.213 308.4 285.067 308.4 286.08C308.4 287.051 308.123 287.904 307.568 288.64C307.024 289.365 306.208 290.112 305.12 290.88L302.8 292.528L302.64 292.624V292.656L302.784 292.64H308.4V294H300.48ZM309.525 286.08V284.48L311.685 282.8H312.965V294H311.525V284.56L309.525 286.08ZM315.658 287.152C315.146 286.629 314.89 286.005 314.89 285.28C314.89 284.555 315.146 283.936 315.658 283.424C316.181 282.901 316.805 282.64 317.53 282.64C318.255 282.64 318.874 282.901 319.386 283.424C319.909 283.936 320.17 284.555 320.17 285.28C320.17 286.005 319.909 286.629 319.386 287.152C318.874 287.664 318.255 287.92 317.53 287.92C316.805 287.92 316.181 287.664 315.658 287.152ZM316.33 294L323.05 282.8H324.41L317.69 294H316.33ZM316.49 284.192C316.223 284.469 316.09 284.832 316.09 285.28C316.09 285.728 316.223 286.096 316.49 286.384C316.767 286.661 317.114 286.8 317.53 286.8C317.946 286.8 318.287 286.661 318.554 286.384C318.831 286.096 318.97 285.728 318.97 285.28C318.97 284.832 318.831 284.469 318.554 284.192C318.287 283.904 317.946 283.76 317.53 283.76C317.114 283.76 316.767 283.904 316.49 284.192ZM321.338 293.392C320.826 292.869 320.57 292.245 320.57 291.52C320.57 290.795 320.826 290.176 321.338 289.664C321.861 289.141 322.485 288.88 323.21 288.88C323.935 288.88 324.554 289.141 325.066 289.664C325.589 290.176 325.85 290.795 325.85 291.52C325.85 292.245 325.589 292.869 325.066 293.392C324.554 293.904 323.935 294.16 323.21 294.16C322.485 294.16 321.861 293.904 321.338 293.392ZM322.17 290.432C321.903 290.709 321.77 291.072 321.77 291.52C321.77 291.968 321.903 292.336 322.17 292.624C322.447 292.901 322.794 293.04 323.21 293.04C323.626 293.04 323.967 292.901 324.234 292.624C324.511 292.336 324.65 291.968 324.65 291.52C324.65 291.072 324.511 290.709 324.234 290.432C323.967 290.144 323.626 290 323.21 290C322.794 290 322.447 290.144 322.17 290.432Z" fill="#15141D"/>
<path d="M300.8 349.96H302.24C302.336 350.355 302.501 350.691 302.736 350.968C303.269 351.629 304.037 351.96 305.04 351.96C305.861 351.96 306.517 351.731 307.008 351.272C307.509 350.813 307.76 350.216 307.76 349.48C307.76 348.744 307.509 348.147 307.008 347.688C306.517 347.229 305.861 347 305.04 347C304.304 347 303.669 347.203 303.136 347.608C302.912 347.768 302.72 347.965 302.56 348.2H301.28L301.76 341.8H308.4V343.16H302.96L302.72 346.424V346.44C302.901 346.28 303.104 346.147 303.328 346.04C303.925 345.773 304.549 345.64 305.2 345.64C306.352 345.64 307.307 346.008 308.064 346.744C308.821 347.48 309.2 348.392 309.2 349.48C309.2 350.579 308.811 351.496 308.032 352.232C307.264 352.957 306.267 353.32 305.04 353.32C303.461 353.32 302.283 352.76 301.504 351.64C301.141 351.139 300.907 350.579 300.8 349.96ZM310.484 349.4C310.484 348.877 310.58 348.36 310.772 347.848C310.964 347.336 311.161 346.931 311.364 346.632C311.577 346.323 311.897 345.885 312.324 345.32L315.044 341.8H316.724L313.764 345.544L313.7 345.624L313.684 345.64C314.004 345.533 314.377 345.48 314.804 345.48C315.988 345.48 316.974 345.864 317.764 346.632C318.564 347.389 318.964 348.312 318.964 349.4C318.964 350.499 318.564 351.427 317.764 352.184C316.964 352.941 315.95 353.32 314.724 353.32C313.497 353.32 312.484 352.941 311.684 352.184C310.884 351.427 310.484 350.499 310.484 349.4ZM312.692 347.576C312.18 348.056 311.924 348.664 311.924 349.4C311.924 350.136 312.18 350.749 312.692 351.24C313.214 351.72 313.892 351.96 314.724 351.96C315.556 351.96 316.228 351.72 316.74 351.24C317.262 350.749 317.524 350.136 317.524 349.4C317.524 348.664 317.262 348.056 316.74 347.576C316.228 347.085 315.556 346.84 314.724 346.84C313.892 346.84 313.214 347.085 312.692 347.576ZM321.017 346.152C320.505 345.629 320.249 345.005 320.249 344.28C320.249 343.555 320.505 342.936 321.017 342.424C321.54 341.901 322.164 341.64 322.889 341.64C323.615 341.64 324.233 341.901 324.745 342.424C325.268 342.936 325.529 343.555 325.529 344.28C325.529 345.005 325.268 345.629 324.745 346.152C324.233 346.664 323.615 346.92 322.889 346.92C322.164 346.92 321.54 346.664 321.017 346.152ZM321.689 353L328.409 341.8H329.769L323.049 353H321.689ZM321.849 343.192C321.583 343.469 321.449 343.832 321.449 344.28C321.449 344.728 321.583 345.096 321.849 345.384C322.127 345.661 322.473 345.8 322.889 345.8C323.305 345.8 323.647 345.661 323.913 345.384C324.191 345.096 324.329 344.728 324.329 344.28C324.329 343.832 324.191 343.469 323.913 343.192C323.647 342.904 323.305 342.76 322.889 342.76C322.473 342.76 322.127 342.904 321.849 343.192ZM326.697 352.392C326.185 351.869 325.929 351.245 325.929 350.52C325.929 349.795 326.185 349.176 326.697 348.664C327.22 348.141 327.844 347.88 328.569 347.88C329.295 347.88 329.913 348.141 330.425 348.664C330.948 349.176 331.209 349.795 331.209 350.52C331.209 351.245 330.948 351.869 330.425 352.392C329.913 352.904 329.295 353.16 328.569 353.16C327.844 353.16 327.22 352.904 326.697 352.392ZM327.529 349.432C327.263 349.709 327.129 350.072 327.129 350.52C327.129 350.968 327.263 351.336 327.529 351.624C327.807 351.901 328.153 352.04 328.569 352.04C328.985 352.04 329.327 351.901 329.593 351.624C329.871 351.336 330.009 350.968 330.009 350.52C330.009 350.072 329.871 349.709 329.593 349.432C329.327 349.144 328.985 349 328.569 349C328.153 349 327.807 349.144 327.529 349.432Z" fill="#15141D"/>
<rect x="20" y="43" width="20" height="20" rx="2" fill="#F6F7FA"/>
<rect x="20" y="102" width="20" height="20" rx="2" fill="#E2E5EE"/>
<rect x="20" y="161" width="20" height="20" rx="2" fill="#C1C1C1"/>
<rect x="20" y="220" width="20" height="20" rx="2" fill="#15141D"/>
<rect x="20" y="279" width="20" height="20" rx="2" fill="#F9B3BA"/>
<rect x="20" y="338" width="20" height="20" rx="2" fill="#DF192C"/>
<defs>
<linearGradient id="paint0_linear_589_11145" x1="180" y1="23.9996" x2="389.5" y2="-1.50038" gradientUnits="userSpaceOnUse">
<stop stop-color="#15141D"/>
<stop offset="1" stop-color="#15141D" stop-opacity="0"/>
</linearGradient>
<linearGradient id="paint1_linear_589_11145" x1="180" y1="82.9996" x2="389.5" y2="57.4996" gradientUnits="userSpaceOnUse">
<stop stop-color="#15141D"/>
<stop offset="1" stop-color="#15141D" stop-opacity="0"/>
</linearGradient>
<linearGradient id="paint2_linear_589_11145" x1="180" y1="142" x2="389.5" y2="116.5" gradientUnits="userSpaceOnUse">
<stop stop-color="#15141D"/>
<stop offset="1" stop-color="#15141D" stop-opacity="0"/>
</linearGradient>
<linearGradient id="paint3_linear_589_11145" x1="180" y1="201" x2="389.5" y2="175.5" gradientUnits="userSpaceOnUse">
<stop stop-color="#15141D"/>
<stop offset="1" stop-color="#15141D" stop-opacity="0"/>
</linearGradient>
<linearGradient id="paint4_linear_589_11145" x1="180" y1="260" x2="389.5" y2="234.5" gradientUnits="userSpaceOnUse">
<stop stop-color="#15141D"/>
<stop offset="1" stop-color="#15141D" stop-opacity="0"/>
</linearGradient>
<linearGradient id="paint5_linear_589_11145" x1="180" y1="319" x2="389.5" y2="293.5" gradientUnits="userSpaceOnUse">
<stop stop-color="#15141D"/>
<stop offset="1" stop-color="#15141D" stop-opacity="0"/>
</linearGradient>
<linearGradient id="paint6_linear_589_11145" x1="180" y1="378" x2="389.5" y2="352.5" gradientUnits="userSpaceOnUse">
<stop stop-color="#15141D"/>
<stop offset="1" stop-color="#15141D" stop-opacity="0"/>
</linearGradient>
</defs>
</svg>
