<svg width="760" height="444" viewBox="0 0 760 444" fill="none" xmlns="http://www.w3.org/2000/svg">
<mask id="mask0_8_4106" style="mask-type:alpha" maskUnits="userSpaceOnUse" x="0" y="0" width="760" height="442">
<rect width="760" height="442" rx="20" fill="white"/>
</mask>
<g mask="url(#mask0_8_4106)">
<mask id="mask1_8_4106" style="mask-type:alpha" maskUnits="userSpaceOnUse" x="-6" y="-34" width="762" height="171">
<rect x="-6" y="-34" width="762" height="170.139" fill="#DF192C"/>
</mask>
<g mask="url(#mask1_8_4106)">
<mask id="mask2_8_4106" style="mask-type:alpha" maskUnits="userSpaceOnUse" x="-6" y="-32" width="762" height="171">
<rect x="-6" y="-31.7686" width="762" height="170.139" fill="#C1C1C1"/>
</mask>
<g mask="url(#mask2_8_4106)">
<g clip-path="url(#clip0_8_4106)">
<path d="M385.742 -29.4676C385.742 -29.5987 385.684 -29.7152 385.585 -29.8099C385.485 -29.8973 385.344 -29.9482 385.195 -29.9482H311.497C311.356 -29.9482 311.215 -29.8973 311.107 -29.8099C311.008 -29.7225 310.941 -29.5987 310.941 -29.4676V-11.9622C310.941 -11.8384 310.999 -11.7147 311.107 -11.62C311.207 -11.5326 311.348 -11.4816 311.497 -11.4816H336.455C336.596 -11.4816 336.737 -11.4307 336.845 -11.3433C336.944 -11.2559 337.002 -11.1321 337.002 -11.001V43.4303C337.002 43.5541 337.06 43.6779 337.16 43.7652C337.259 43.8526 337.4 43.9036 337.549 43.9036H359.126C359.267 43.9036 359.408 43.8526 359.516 43.7652C359.615 43.6779 359.673 43.5541 359.673 43.4303V-11.0083C359.673 -11.1321 359.731 -11.2559 359.831 -11.3506C359.93 -11.438 360.071 -11.4889 360.22 -11.4889H385.187C385.328 -11.4889 385.469 -11.5399 385.576 -11.6273C385.676 -11.7147 385.734 -11.8384 385.734 -11.9695V-29.4676H385.742Z" fill="#FAFAFA" fill-opacity="0.4"/>
<path d="M319.047 43.3361C319.064 43.4089 319.064 43.4817 319.047 43.5545C319.031 43.6273 318.989 43.6929 318.94 43.7511C318.89 43.8094 318.824 43.8531 318.741 43.8822C318.666 43.9113 318.583 43.9259 318.5 43.9259H295.523C295.399 43.9259 295.274 43.8968 295.175 43.8239C295.075 43.7584 295.001 43.6637 294.976 43.5545L274.726 -29.358C274.709 -29.4308 274.701 -29.5036 274.726 -29.5764C274.742 -29.6492 274.784 -29.7148 274.833 -29.773C274.891 -29.8313 274.958 -29.875 275.032 -29.9114C275.107 -29.9405 275.19 -29.9551 275.281 -29.9551H298.258C298.383 -29.9551 298.507 -29.926 298.607 -29.8604C298.706 -29.7949 298.772 -29.7002 298.805 -29.591L319.047 43.3361Z" fill="#FAFAFA" fill-opacity="0.4"/>
<path d="M251.824 7.00675C251.699 7.00675 251.575 7.03588 251.476 7.1087C251.376 7.17423 251.31 7.26889 251.277 7.37812L241.313 43.3428C241.297 43.4157 241.297 43.4885 241.313 43.5613C241.33 43.6341 241.371 43.6997 241.421 43.7579C241.471 43.8162 241.545 43.8599 241.62 43.889C241.695 43.9181 241.777 43.9327 241.86 43.9327H264.838C264.962 43.9327 265.086 43.9035 265.186 43.8307C265.285 43.7652 265.36 43.6705 265.385 43.5613L275.357 7.58929C275.373 7.51648 275.373 7.44366 275.357 7.37084C275.34 7.29802 275.298 7.23249 275.249 7.17423C275.199 7.11598 275.124 7.07229 275.05 7.03588C274.975 6.99947 274.892 6.99219 274.801 6.99219L251.824 7.00675Z" fill="#FAFAFA" fill-opacity="0.4"/>
<path d="M471.659 43.3355C471.634 43.4083 471.634 43.4812 471.659 43.554C471.676 43.6268 471.717 43.6923 471.767 43.7506C471.825 43.8088 471.891 43.8525 471.966 43.8817C472.041 43.9108 472.123 43.9254 472.206 43.9254H495.184C495.308 43.9254 495.432 43.8962 495.532 43.8234C495.631 43.7579 495.698 43.6632 495.731 43.554L515.973 -29.3658C515.989 -29.4386 515.989 -29.5114 515.973 -29.5842C515.956 -29.6571 515.915 -29.7226 515.865 -29.7808C515.815 -29.8391 515.741 -29.8828 515.666 -29.9192C515.592 -29.9483 515.509 -29.9629 515.426 -29.9629H492.448C492.324 -29.9629 492.2 -29.9338 492.1 -29.8682C492.001 -29.8027 491.934 -29.708 491.901 -29.5988L471.659 43.3355Z" fill="#FAFAFA" fill-opacity="0.4"/>
<path d="M538.882 7.00684C539.007 7.00684 539.131 7.03596 539.231 7.10878C539.33 7.17432 539.396 7.26898 539.429 7.37821L549.401 43.3575C549.418 43.4303 549.418 43.5031 549.401 43.5759C549.385 43.6488 549.343 43.7143 549.294 43.7726C549.236 43.8308 549.169 43.8745 549.095 43.9036C549.02 43.9328 548.937 43.9473 548.854 43.9473H525.877C525.753 43.9473 525.628 43.9182 525.529 43.8527C525.429 43.7871 525.363 43.6925 525.33 43.5832L515.35 7.61122C515.333 7.5384 515.325 7.46559 515.35 7.39277C515.366 7.31995 515.408 7.25442 515.457 7.19616C515.515 7.13791 515.582 7.09422 515.656 7.06509C515.731 7.03596 515.814 7.0214 515.905 7.0214H538.882V7.00684Z" fill="#FAFAFA" fill-opacity="0.4"/>
<path d="M430.072 45.3456C441.677 45.3456 452.809 41.3115 461.024 34.1244C465.094 30.5636 468.318 26.3401 470.523 21.6871C472.728 17.034 473.855 12.046 473.863 7.007C473.863 1.96801 472.736 -3.02001 470.531 -7.67307C468.326 -12.3261 465.102 -16.5568 461.032 -20.1176C456.962 -23.6784 452.138 -26.4965 446.824 -28.4262C441.511 -30.3485 435.816 -31.3389 430.072 -31.3389C424.319 -31.3389 418.625 -30.3485 413.311 -28.4189C407.99 -26.4965 403.157 -23.6711 399.087 -20.1031C395.017 -16.535 391.793 -12.3043 389.596 -7.64395C387.4 -2.99817 386.272 1.97529 386.272 6.99972C386.281 17.1724 390.898 26.93 399.112 34.1244C407.335 41.3115 418.467 45.3456 430.072 45.3456ZM430.072 -14.3432C433.263 -14.3359 436.421 -13.7825 439.372 -12.7121C442.332 -11.6416 445.009 -10.0688 447.272 -8.08085C449.543 -6.09293 451.342 -3.74091 452.577 -1.14131C453.795 1.44372 454.425 4.2108 454.417 7.007C454.417 12.6649 451.864 18.0826 447.305 22.0876C442.738 26.078 436.546 28.3208 430.089 28.3208C426.897 28.3208 423.731 27.7747 420.772 26.7042C417.812 25.6338 415.135 24.0682 412.872 22.0876C408.313 18.0826 405.752 12.6577 405.76 7.007C405.76 4.2108 406.39 1.44372 407.609 -1.14131C408.827 -3.73363 410.618 -6.08564 412.88 -8.07357C415.143 -10.0542 417.829 -11.6271 420.788 -12.7048C423.731 -13.7752 426.889 -14.3286 430.072 -14.3432Z" fill="#FAFAFA" fill-opacity="0.4"/>
<path d="M193.924 45.3456C205.529 45.3456 216.661 41.3115 224.876 34.1244C228.946 30.5636 232.17 26.3401 234.375 21.6871C236.58 17.034 237.707 12.046 237.715 7.007C237.715 1.96801 236.588 -3.02001 234.383 -7.67307C232.178 -12.3261 228.954 -16.5568 224.892 -20.1176C220.822 -23.6784 215.998 -26.4965 210.685 -28.4262C205.371 -30.3485 199.677 -31.3389 193.932 -31.3389C188.18 -31.3389 182.485 -30.3485 177.172 -28.4189C171.85 -26.4965 167.018 -23.6711 162.948 -20.1031C158.878 -16.535 155.653 -12.3043 153.457 -7.64395C151.26 -2.99817 150.133 1.97529 150.133 6.99972C150.141 17.1724 154.758 26.93 162.973 34.1244C171.179 41.3115 182.311 45.3456 193.924 45.3456ZM193.924 -14.3432C197.115 -14.3359 200.274 -13.7825 203.224 -12.7121C206.184 -11.6416 208.861 -10.0688 211.124 -8.08085C213.395 -6.09293 215.194 -3.74091 216.429 -1.14131C217.648 1.44372 218.277 4.2108 218.269 7.007C218.269 12.6649 215.716 18.0826 211.157 22.0876C206.59 26.078 200.398 28.3208 193.941 28.3208C190.749 28.3208 187.583 27.7747 184.624 26.7042C181.665 25.6338 178.987 24.0682 176.724 22.0876C172.165 18.0826 169.604 12.6577 169.612 7.007C169.612 4.2108 170.242 1.44372 171.461 -1.14131C172.679 -3.73363 174.47 -6.08564 176.733 -8.07357C178.995 -10.0542 181.681 -11.6271 184.64 -12.7048C187.583 -13.7752 190.733 -14.3286 193.924 -14.3432Z" fill="#FAFAFA" fill-opacity="0.4"/>
<path d="M105.646 43.5031C105.662 43.5759 105.662 43.6487 105.646 43.7215C105.629 43.7943 105.588 43.8599 105.538 43.9181C105.488 43.9764 105.414 44.0201 105.339 44.0492C105.264 44.0783 105.182 44.0929 105.099 44.0929H82.1213C81.997 44.0929 81.8726 44.0638 81.7732 43.9909C81.6737 43.9254 81.5991 43.8307 81.5742 43.7215L61.324 -29.191C61.3074 -29.2638 61.3074 -29.3366 61.324 -29.4094C61.3405 -29.4823 61.382 -29.5478 61.4317 -29.606C61.4815 -29.6643 61.5561 -29.708 61.6307 -29.7444C61.7053 -29.7735 61.7882 -29.7881 61.8793 -29.7881H84.8567C84.9811 -29.7881 85.1054 -29.759 85.2049 -29.6934C85.3043 -29.6279 85.3789 -29.5332 85.4038 -29.424L105.646 43.5031Z" fill="#FAFAFA" fill-opacity="0.4"/>
<path d="M146.734 43.5031C146.751 43.5759 146.751 43.6487 146.734 43.7215C146.718 43.7943 146.676 43.8599 146.626 43.9181C146.577 43.9764 146.502 44.0201 146.427 44.0492C146.353 44.0783 146.27 44.0929 146.187 44.0929H123.21C123.085 44.0929 122.961 44.0638 122.862 43.9909C122.762 43.9254 122.696 43.8307 122.663 43.7215L102.421 -29.191C102.404 -29.2638 102.404 -29.3366 102.421 -29.4094C102.437 -29.4823 102.479 -29.5478 102.528 -29.606C102.578 -29.6643 102.653 -29.708 102.727 -29.7444C102.802 -29.7735 102.885 -29.7881 102.976 -29.7881H125.953C126.078 -29.7881 126.202 -29.759 126.302 -29.6934C126.401 -29.6279 126.467 -29.5332 126.5 -29.424L146.734 43.5031Z" fill="#FAFAFA" fill-opacity="0.4"/>
<path d="M590.366 43.5031C590.383 43.5759 590.383 43.6487 590.366 43.7215C590.35 43.7943 590.308 43.8599 590.259 43.9181C590.209 43.9764 590.134 44.0201 590.06 44.0492C589.985 44.0783 589.902 44.0929 589.811 44.0929H566.834C566.709 44.0929 566.585 44.0638 566.485 43.9909C566.386 43.9254 566.32 43.8307 566.287 43.7215L546.053 -29.191C546.036 -29.2638 546.028 -29.3366 546.053 -29.4094C546.069 -29.4823 546.111 -29.5478 546.161 -29.606C546.21 -29.6643 546.285 -29.708 546.359 -29.7444C546.434 -29.7735 546.525 -29.7881 546.608 -29.7881H569.586C569.71 -29.7881 569.834 -29.759 569.934 -29.6934C570.033 -29.6279 570.099 -29.5332 570.133 -29.424L590.366 43.5031Z" fill="#FAFAFA" fill-opacity="0.4"/>
<path d="M14.0843 45.3456C25.689 45.3456 36.8213 41.3115 45.0357 34.1244C49.1057 30.5636 52.3302 26.3401 54.5351 21.6871C56.74 17.034 57.8673 12.046 57.8756 7.007C57.8756 1.96801 56.7482 -3.02001 54.5433 -7.67307C52.3467 -12.3261 49.114 -16.5568 45.0523 -20.1176C40.9824 -23.6784 36.1581 -26.4965 30.8448 -28.4262C25.5315 -30.3485 19.8369 -31.3389 14.0926 -31.3389C8.33993 -31.3389 2.64532 -30.3485 -2.66799 -28.4189C-7.98959 -26.4965 -12.8221 -23.6711 -16.8921 -20.1031C-20.962 -16.535 -24.1865 -12.3043 -26.3831 -7.64395C-28.5797 -2.99817 -29.707 1.97529 -29.707 6.99972C-29.6987 17.1724 -25.0817 26.93 -16.8672 34.1244C-8.65272 41.3115 2.47953 45.3456 14.0843 45.3456ZM14.0843 -14.3432C17.2756 -14.3359 20.4337 -13.7825 23.3846 -12.7121C26.3438 -11.6416 29.0212 -10.0688 31.2841 -8.08085C33.5553 -6.09293 35.3541 -3.74091 36.5892 -1.14131C37.8077 1.44372 38.4376 4.2108 38.4293 7.007C38.4293 12.6649 35.8763 18.0826 31.3173 22.0876C26.75 26.078 20.5581 28.3208 14.1008 28.3208C10.9013 28.3208 7.7431 27.7747 4.7839 26.7042C1.83298 25.6338 -0.852688 24.0682 -3.11561 22.0876C-7.67461 18.0826 -10.2359 12.6577 -10.2277 7.007C-10.2277 4.2108 -9.59768 1.44372 -8.37918 -1.14131C-7.16068 -3.73363 -5.36195 -6.08564 -3.10731 -8.07357C-0.844391 -10.0542 1.84127 -11.6271 4.80048 -12.7048C7.74311 -13.7752 10.9012 -14.3286 14.0843 -14.3432Z" fill="#FAFAFA" fill-opacity="0.4"/>
<path d="M679.209 44.9159C690.814 44.9159 701.946 40.8818 710.161 33.6947C714.231 30.1339 717.455 25.9032 719.66 21.2574C721.865 16.6043 722.992 11.6163 723.001 6.57731C723.001 1.53832 721.873 -3.4497 719.668 -8.10276C717.464 -12.7558 714.239 -16.9865 710.177 -20.5473C706.107 -24.1081 701.283 -26.9262 695.97 -28.8558C690.656 -30.7855 684.962 -31.7686 679.218 -31.7686C673.465 -31.7686 667.77 -30.7782 662.457 -28.8486C657.135 -26.9262 652.303 -24.0936 648.233 -20.5328C644.163 -16.9647 640.939 -12.734 638.742 -8.07363C636.545 -3.42786 635.418 1.5456 635.418 6.57003C635.426 16.7427 640.043 26.5003 648.258 33.6947C656.464 40.8818 667.596 44.9159 679.209 44.9159ZM679.209 -14.7729C682.401 -14.7656 685.559 -14.2122 688.51 -13.1418C691.469 -12.0713 694.155 -10.4985 696.409 -8.51054C698.68 -6.52262 700.479 -4.1706 701.714 -1.571C702.933 1.01403 703.563 3.78111 703.554 6.57731C703.554 12.2353 701.001 17.6529 696.442 21.6579C691.875 25.6483 685.683 27.8911 679.226 27.8911C676.026 27.8911 672.86 27.345 669.909 26.2745C666.958 25.2041 664.272 23.6385 662.009 21.6579C657.45 17.6529 654.889 12.228 654.897 6.57731C654.897 3.78111 655.527 1.01403 656.746 -1.571C657.964 -4.16332 659.763 -6.51533 662.018 -8.50326C664.281 -10.4839 666.966 -12.0568 669.925 -13.1345C672.868 -14.2049 676.018 -14.7656 679.209 -14.7729Z" fill="#FAFAFA" fill-opacity="0.4"/>
<path d="M632.019 43.0666C632.044 43.1394 632.044 43.2122 632.019 43.2851C632.003 43.3579 631.961 43.4234 631.912 43.4817C631.862 43.5399 631.787 43.5836 631.713 43.6127C631.638 43.6419 631.555 43.6564 631.472 43.6564H608.495C608.371 43.6564 608.246 43.6273 608.147 43.5545C608.047 43.489 607.973 43.3943 607.948 43.2851L587.706 -29.6201C587.689 -29.693 587.689 -29.7658 587.706 -29.8386C587.722 -29.9114 587.764 -29.9769 587.814 -30.0352C587.863 -30.0935 587.938 -30.1371 588.012 -30.1663C588.087 -30.1954 588.17 -30.21 588.261 -30.21H611.239C611.363 -30.21 611.487 -30.1808 611.587 -30.1153C611.686 -30.0498 611.761 -29.9551 611.786 -29.8459L632.019 43.0666Z" fill="#FAFAFA" fill-opacity="0.4"/>
<path d="M770.77 43.0665C770.786 43.1393 770.786 43.2122 770.77 43.285C770.753 43.3578 770.712 43.4233 770.662 43.4816C770.612 43.5398 770.538 43.5835 770.463 43.6127C770.388 43.6418 770.306 43.6564 770.214 43.6564H747.237C747.113 43.6564 746.988 43.6272 746.889 43.5544C746.789 43.4889 746.723 43.3942 746.69 43.285L726.448 -29.6348C726.431 -29.7076 726.431 -29.7804 726.448 -29.8532C726.465 -29.9261 726.506 -29.9916 726.556 -30.0498C726.605 -30.1081 726.68 -30.1518 726.755 -30.1809C726.829 -30.21 726.92 -30.2246 727.003 -30.2246H749.981C750.105 -30.2246 750.229 -30.1955 750.329 -30.1299C750.428 -30.0644 750.495 -29.9697 750.528 -29.8605L770.77 43.0665Z" fill="#FAFAFA" fill-opacity="0.4"/>
<path d="M110.9 60.7687C110.9 60.6376 110.842 60.5211 110.743 60.4264C110.643 60.339 110.503 60.2881 110.353 60.2881H36.655C36.5141 60.2881 36.3732 60.339 36.2654 60.4264C36.1659 60.5138 36.0996 60.6376 36.0996 60.7687V78.2741C36.0996 78.3979 36.1576 78.5217 36.2654 78.6163C36.3649 78.7037 36.5058 78.7547 36.655 78.7547H61.6134C61.7544 78.7547 61.8953 78.8057 62.003 78.893C62.1025 78.9804 62.1605 79.1042 62.1605 79.2353V133.667C62.1605 133.79 62.2186 133.914 62.318 134.002C62.4175 134.089 62.5584 134.14 62.7076 134.14H84.2841C84.425 134.14 84.566 134.089 84.6737 134.002C84.7732 133.914 84.8312 133.79 84.8312 133.667V79.2353C84.8312 79.1115 84.8892 78.9877 84.9887 78.893C85.0882 78.8057 85.2291 78.7547 85.3783 78.7547H110.345C110.494 78.7547 110.627 78.7037 110.735 78.6163C110.834 78.5289 110.892 78.4052 110.892 78.2741V60.7687H110.9Z" fill="#FAFAFA" fill-opacity="0.4"/>
<path d="M44.2061 133.572C44.2227 133.645 44.2227 133.717 44.2061 133.79C44.1896 133.863 44.1481 133.929 44.0984 133.987C44.0486 134.045 43.9823 134.089 43.8995 134.118C43.8249 134.147 43.742 134.162 43.6591 134.162H20.6817C20.5574 134.162 20.433 134.133 20.3336 134.06C20.2341 133.994 20.1595 133.9 20.1346 133.79L-0.107352 60.8705C-0.123931 60.7977 -0.13222 60.7249 -0.107352 60.6521C-0.0907742 60.5793 -0.0493247 60.5137 0.000409916 60.4555C0.0501445 60.3972 0.124738 60.3535 0.19934 60.3171C0.273942 60.288 0.356835 60.2734 0.448016 60.2734H23.4254C23.5497 60.2734 23.6741 60.3026 23.7735 60.3681C23.873 60.4336 23.9393 60.5283 23.9725 60.6375L44.2061 133.572Z" fill="#FAFAFA" fill-opacity="0.4"/>
<path d="M-23.0102 97.2431C-23.1345 97.2431 -23.2589 97.2722 -23.3583 97.345C-23.4578 97.4106 -23.5324 97.5052 -23.5573 97.6144L-33.5208 133.579C-33.5373 133.652 -33.5373 133.725 -33.5208 133.798C-33.5042 133.87 -33.4628 133.936 -33.413 133.994C-33.3633 134.052 -33.297 134.096 -33.2141 134.125C-33.1395 134.154 -33.0566 134.169 -32.9737 134.169H-9.99633C-9.87199 134.169 -9.74764 134.14 -9.64817 134.067C-9.5487 134.002 -9.47411 133.907 -9.44924 133.798L0.522537 97.8256C0.539116 97.7528 0.547405 97.68 0.522537 97.6072C0.505959 97.5344 0.464523 97.4688 0.414787 97.4106C0.365051 97.3523 0.290447 97.3086 0.215843 97.2722C0.141243 97.2431 0.0583496 97.2285 -0.0328293 97.2285L-23.0102 97.2431Z" fill="#FAFAFA" fill-opacity="0.4"/>
<path d="M196.817 133.572C196.801 133.645 196.801 133.717 196.817 133.79C196.834 133.863 196.875 133.929 196.925 133.987C196.983 134.045 197.049 134.089 197.124 134.118C197.198 134.147 197.281 134.162 197.364 134.162H220.342C220.466 134.162 220.59 134.133 220.69 134.06C220.789 133.994 220.855 133.9 220.889 133.79L241.131 60.8705C241.147 60.7977 241.147 60.7249 241.131 60.6521C241.114 60.5793 241.073 60.5137 241.023 60.4555C240.965 60.3972 240.899 60.3535 240.824 60.3171C240.749 60.288 240.666 60.2734 240.584 60.2734H217.606C217.482 60.2734 217.358 60.3026 217.258 60.3681C217.159 60.4336 217.092 60.5283 217.059 60.6375L196.817 133.572Z" fill="#FAFAFA" fill-opacity="0.4"/>
<path d="M264.042 97.2432C264.166 97.2432 264.29 97.2723 264.39 97.3451C264.489 97.4106 264.556 97.5053 264.589 97.6145L274.56 133.594C274.577 133.667 274.577 133.739 274.56 133.812C274.544 133.885 274.502 133.951 274.453 134.009C274.395 134.067 274.328 134.111 274.254 134.14C274.179 134.169 274.096 134.184 274.013 134.184H251.036C250.912 134.184 250.787 134.155 250.688 134.089C250.588 134.023 250.522 133.929 250.489 133.82L240.509 97.8475C240.492 97.7747 240.484 97.7019 240.509 97.6291C240.525 97.5563 240.567 97.4907 240.617 97.4325C240.666 97.3742 240.741 97.3305 240.816 97.3014C240.89 97.2723 240.973 97.2577 241.064 97.2577H264.042V97.2432Z" fill="#FAFAFA" fill-opacity="0.4"/>
<path d="M155.239 135.581C166.843 135.581 177.976 131.547 186.19 124.36C190.26 120.799 193.484 116.575 195.689 111.922C197.894 107.269 199.022 102.281 199.03 97.2424C199.03 92.2034 197.894 87.2153 195.698 82.5623C193.493 77.9092 190.268 73.6785 186.207 70.1177C182.137 66.5569 177.312 63.7389 171.999 61.8092C166.686 59.8868 160.991 58.8965 155.247 58.8965C149.494 58.8965 143.8 59.8868 138.486 61.8165C133.165 63.7389 128.332 66.5642 124.262 70.1323C120.192 73.7003 116.968 77.9311 114.771 82.5914C112.575 87.2372 111.447 92.2106 111.447 97.2351C111.456 107.408 116.073 117.165 124.287 124.36C132.493 131.547 143.626 135.581 155.239 135.581ZM155.239 75.8922C158.43 75.8994 161.588 76.4529 164.539 77.5233C167.498 78.5937 170.176 80.1666 172.438 82.1545C174.71 84.1424 176.508 86.4944 177.743 89.094C178.962 91.6791 179.592 94.4462 179.584 97.2424C179.584 102.9 177.031 108.318 172.472 112.323C167.904 116.313 161.712 118.556 155.255 118.556C152.064 118.556 148.897 118.01 145.938 116.94C142.979 115.869 140.302 114.304 138.039 112.323C133.48 108.318 130.918 102.893 130.927 97.2424C130.927 94.4462 131.557 91.6791 132.775 89.094C133.994 86.5017 135.784 84.1497 138.047 82.1618C140.31 80.1811 142.996 78.6083 145.955 77.5306C148.889 76.4601 152.047 75.8994 155.239 75.8922Z" fill="#FAFAFA" fill-opacity="0.4"/>
<path d="M403.804 135.581C415.409 135.581 426.541 131.547 434.756 124.36C438.825 120.799 442.05 116.575 444.255 111.922C446.46 107.269 447.587 102.281 447.595 97.2424C447.595 92.2034 446.468 87.2153 444.263 82.5623C442.058 77.9092 438.834 73.6785 434.772 70.1177C430.702 66.5569 425.878 63.7389 420.565 61.8092C415.251 59.8868 409.557 58.8965 403.812 58.8965C398.06 58.8965 392.365 59.8868 387.052 61.8165C381.73 63.7389 376.898 66.5642 372.828 70.1323C368.758 73.7003 365.533 77.9311 363.337 82.5914C361.14 87.2372 360.013 92.2106 360.013 97.2351C360.021 107.408 364.638 117.165 372.852 124.36C381.067 131.547 392.199 135.581 403.804 135.581ZM403.804 75.8922C406.995 75.8994 410.153 76.4529 413.104 77.5233C416.064 78.5937 418.749 80.1666 421.004 82.1545C423.275 84.1424 425.074 86.4944 426.309 89.094C427.527 91.6791 428.157 94.4462 428.149 97.2424C428.149 102.9 425.596 108.318 421.037 112.323C416.47 116.313 410.278 118.556 403.821 118.556C400.621 118.556 397.455 118.01 394.504 116.94C391.553 115.869 388.867 114.304 386.604 112.323C382.045 108.318 379.484 102.893 379.492 97.2424C379.492 94.4462 380.122 91.6791 381.341 89.094C382.559 86.5017 384.358 84.1497 386.612 82.1618C388.875 80.1811 391.561 78.6083 394.52 77.5306C397.463 76.4601 400.621 75.8994 403.804 75.8922Z" fill="#FAFAFA" fill-opacity="0.4"/>
<path d="M315.526 133.739C315.542 133.812 315.542 133.884 315.526 133.957C315.509 134.03 315.467 134.096 315.418 134.154C315.36 134.212 315.293 134.256 315.219 134.285C315.144 134.314 315.061 134.329 314.978 134.329H292.001C291.877 134.329 291.752 134.3 291.653 134.227C291.553 134.161 291.487 134.067 291.454 133.957L271.212 61.0375C271.195 60.9647 271.187 60.8919 271.212 60.8191C271.229 60.7463 271.27 60.6807 271.32 60.6225C271.369 60.5642 271.444 60.5205 271.519 60.4841C271.593 60.455 271.684 60.4404 271.767 60.4404H294.745C294.869 60.4404 294.993 60.4696 295.093 60.5351C295.192 60.6006 295.259 60.6953 295.292 60.8045L315.526 133.739Z" fill="#FAFAFA" fill-opacity="0.4"/>
<path d="M356.623 133.739C356.648 133.812 356.648 133.884 356.623 133.957C356.606 134.03 356.565 134.096 356.515 134.154C356.465 134.212 356.391 134.256 356.316 134.285C356.242 134.314 356.159 134.329 356.076 134.329H333.098C332.974 134.329 332.85 134.3 332.75 134.227C332.651 134.161 332.576 134.067 332.551 133.957L312.309 61.0375C312.293 60.9647 312.293 60.8919 312.309 60.8191C312.326 60.7463 312.367 60.6807 312.417 60.6225C312.467 60.5642 312.541 60.5205 312.616 60.4841C312.691 60.455 312.773 60.4404 312.865 60.4404H335.842C335.966 60.4404 336.091 60.4696 336.19 60.5351C336.29 60.6006 336.364 60.6953 336.389 60.8045L356.623 133.739Z" fill="#FAFAFA" fill-opacity="0.4"/>
<path d="M583.645 135.581C595.25 135.581 606.39 131.547 614.596 124.36C618.666 120.799 621.891 116.575 624.096 111.922C626.301 107.269 627.428 102.281 627.436 97.2424C627.436 92.2034 626.309 87.2153 624.104 82.5623C621.899 77.9092 618.675 73.6785 614.613 70.1177C610.543 66.5569 605.719 63.7389 600.405 61.8092C595.092 59.8868 589.397 58.8965 583.653 58.8965C577.9 58.8965 572.206 59.8868 566.893 61.8165C561.571 63.7389 556.738 66.5642 552.668 70.1323C548.599 73.7003 545.374 77.9311 543.177 82.5914C540.981 87.2372 539.854 92.2106 539.854 97.2351C539.862 107.408 544.479 117.165 552.693 124.36C560.9 131.547 572.04 135.581 583.645 135.581ZM583.645 75.8922C586.836 75.8994 590.003 76.4529 592.945 77.5233C595.904 78.5937 598.582 80.1666 600.845 82.1545C603.116 84.1424 604.915 86.4944 606.15 89.094C607.368 91.6791 607.998 94.4462 607.99 97.2424C607.99 102.9 605.437 108.318 600.878 112.323C596.311 116.313 590.119 118.556 583.661 118.556C580.462 118.556 577.304 118.01 574.344 116.94C571.394 115.869 568.708 114.304 566.445 112.323C561.886 108.318 559.325 102.893 559.333 97.2424C559.333 94.4462 559.963 91.6791 561.181 89.094C562.4 86.5017 564.199 84.1497 566.453 82.1618C568.716 80.1811 571.402 78.6083 574.361 77.5306C577.304 76.4601 580.454 75.8994 583.645 75.8922Z" fill="#FAFAFA" fill-opacity="0.4"/>
<path d="M495.366 133.739C495.382 133.812 495.382 133.884 495.366 133.957C495.349 134.03 495.307 134.096 495.258 134.154C495.208 134.212 495.133 134.256 495.059 134.285C494.984 134.314 494.901 134.329 494.81 134.329H471.833C471.708 134.329 471.584 134.3 471.485 134.227C471.385 134.161 471.319 134.067 471.286 133.957L451.044 61.0375C451.027 60.9647 451.027 60.8919 451.044 60.8191C451.06 60.7463 451.102 60.6807 451.151 60.6225C451.201 60.5642 451.276 60.5205 451.35 60.4841C451.425 60.455 451.516 60.4404 451.599 60.4404H474.576C474.701 60.4404 474.825 60.4696 474.925 60.5351C475.024 60.6006 475.09 60.6953 475.123 60.8045L495.366 133.739Z" fill="#FAFAFA" fill-opacity="0.4"/>
<path d="M536.462 133.739C536.479 133.812 536.479 133.884 536.462 133.957C536.446 134.03 536.404 134.096 536.355 134.154C536.305 134.212 536.239 134.256 536.156 134.285C536.081 134.314 535.998 134.329 535.915 134.329H512.93C512.805 134.329 512.681 134.3 512.582 134.227C512.482 134.161 512.408 134.067 512.383 133.957L492.141 61.0375C492.124 60.9647 492.116 60.8919 492.141 60.8191C492.157 60.7463 492.199 60.6807 492.248 60.6225C492.306 60.5642 492.373 60.5205 492.447 60.4841C492.522 60.455 492.605 60.4404 492.696 60.4404H515.673C515.798 60.4404 515.922 60.4696 516.022 60.5351C516.121 60.6006 516.196 60.6953 516.221 60.8045L536.462 133.739Z" fill="#FAFAFA" fill-opacity="0.4"/>
<path d="M775.463 60.7687C775.463 60.6376 775.405 60.5211 775.305 60.4264C775.206 60.339 775.065 60.2881 774.916 60.2881H701.218C701.077 60.2881 700.936 60.339 700.828 60.4264C700.728 60.5138 700.662 60.6376 700.662 60.7687V78.2741C700.662 78.3979 700.72 78.5217 700.828 78.6163C700.927 78.7037 701.068 78.7547 701.218 78.7547H726.176C726.317 78.7547 726.458 78.8057 726.566 78.893C726.665 78.9804 726.723 79.1042 726.723 79.2353V133.667C726.723 133.79 726.781 133.914 726.881 134.002C726.98 134.089 727.121 134.14 727.27 134.14H748.847C748.988 134.14 749.128 134.089 749.236 134.002C749.336 133.914 749.394 133.79 749.394 133.667V79.2353C749.394 79.1115 749.452 78.9877 749.551 78.893C749.651 78.8057 749.792 78.7547 749.941 78.7547H774.908C775.048 78.7547 775.189 78.7037 775.297 78.6163C775.397 78.5289 775.455 78.4052 775.455 78.2741V60.7687H775.463Z" fill="#FAFAFA" fill-opacity="0.4"/>
<path d="M708.769 133.572C708.785 133.645 708.785 133.717 708.769 133.79C708.752 133.863 708.711 133.929 708.661 133.987C708.611 134.045 708.545 134.089 708.462 134.118C708.387 134.147 708.304 134.162 708.222 134.162H685.244C685.12 134.162 684.996 134.133 684.896 134.06C684.797 133.994 684.722 133.9 684.697 133.79L664.455 60.8705C664.439 60.7977 664.43 60.7249 664.455 60.6521C664.472 60.5793 664.513 60.5137 664.563 60.4555C664.621 60.3972 664.687 60.3535 664.762 60.3171C664.836 60.288 664.919 60.2734 665.011 60.2734H687.988C688.112 60.2734 688.237 60.3026 688.336 60.3681C688.435 60.4336 688.502 60.5283 688.535 60.6375L708.769 133.572Z" fill="#FAFAFA" fill-opacity="0.4"/>
<path d="M641.552 97.2431C641.428 97.2431 641.304 97.2722 641.204 97.3377C641.105 97.4033 641.038 97.4979 641.005 97.6072L631.042 133.572C631.025 133.645 631.025 133.718 631.042 133.79C631.058 133.863 631.1 133.929 631.149 133.987C631.199 134.045 631.274 134.089 631.348 134.118C631.423 134.147 631.506 134.162 631.589 134.162H654.566C654.691 134.162 654.815 134.133 654.914 134.06C655.014 133.994 655.088 133.9 655.113 133.79L665.085 97.8183C665.102 97.7455 665.11 97.6727 665.085 97.5999C665.068 97.5271 665.027 97.4615 664.977 97.4033C664.928 97.345 664.853 97.3013 664.778 97.2722C664.704 97.2431 664.621 97.2285 664.53 97.2285L641.552 97.2431Z" fill="#FAFAFA" fill-opacity="0.4"/>
</g>
</g>
</g>
<mask id="mask3_8_4106" style="mask-type:alpha" maskUnits="userSpaceOnUse" x="-6" y="136" width="762" height="171">
<rect x="-6" y="136.069" width="762" height="170.139" fill="#DF192C"/>
</mask>
<g mask="url(#mask3_8_4106)">
<mask id="mask4_8_4106" style="mask-type:alpha" maskUnits="userSpaceOnUse" x="-6" y="138" width="762" height="171">
<rect x="-6" y="138.301" width="762" height="170.139" fill="#C1C1C1"/>
</mask>
<g mask="url(#mask4_8_4106)">
<g clip-path="url(#clip1_8_4106)">
<path d="M385.742 140.602C385.742 140.471 385.684 140.354 385.585 140.259C385.485 140.172 385.344 140.121 385.195 140.121H311.497C311.356 140.121 311.215 140.172 311.107 140.259C311.008 140.347 310.941 140.471 310.941 140.602V158.107C310.941 158.231 310.999 158.355 311.107 158.449C311.207 158.537 311.348 158.588 311.497 158.588H336.455C336.596 158.588 336.737 158.639 336.845 158.726C336.944 158.813 337.002 158.937 337.002 159.068V213.5C337.002 213.623 337.06 213.747 337.16 213.835C337.259 213.922 337.4 213.973 337.549 213.973H359.126C359.267 213.973 359.408 213.922 359.516 213.835C359.615 213.747 359.673 213.623 359.673 213.5V159.061C359.673 158.937 359.731 158.813 359.831 158.719C359.93 158.631 360.071 158.58 360.22 158.58H385.187C385.328 158.58 385.469 158.529 385.576 158.442C385.676 158.355 385.734 158.231 385.734 158.1V140.602H385.742Z" fill="#FAFAFA" fill-opacity="0.4"/>
<path d="M319.047 213.405C319.064 213.478 319.064 213.551 319.047 213.624C319.031 213.697 318.989 213.762 318.94 213.82C318.89 213.879 318.824 213.922 318.741 213.952C318.666 213.981 318.583 213.995 318.5 213.995H295.523C295.399 213.995 295.274 213.966 295.175 213.893C295.075 213.828 295.001 213.733 294.976 213.624L274.726 140.711C274.709 140.639 274.701 140.566 274.726 140.493C274.742 140.42 274.784 140.355 274.833 140.296C274.891 140.238 274.958 140.194 275.032 140.158C275.107 140.129 275.19 140.114 275.281 140.114H298.258C298.383 140.114 298.507 140.143 298.607 140.209C298.706 140.274 298.772 140.369 298.805 140.478L319.047 213.405Z" fill="#FAFAFA" fill-opacity="0.4"/>
<path d="M251.824 177.076C251.699 177.076 251.575 177.105 251.476 177.178C251.376 177.244 251.31 177.338 251.277 177.447L241.313 213.412C241.297 213.485 241.297 213.558 241.313 213.631C241.33 213.703 241.371 213.769 241.421 213.827C241.471 213.885 241.545 213.929 241.62 213.958C241.695 213.987 241.777 214.002 241.86 214.002H264.838C264.962 214.002 265.086 213.973 265.186 213.9C265.285 213.835 265.36 213.74 265.385 213.631L275.357 177.659C275.373 177.586 275.373 177.513 275.357 177.44C275.34 177.367 275.298 177.302 275.249 177.244C275.199 177.185 275.124 177.142 275.05 177.105C274.975 177.069 274.892 177.062 274.801 177.062L251.824 177.076Z" fill="#FAFAFA" fill-opacity="0.4"/>
<path d="M471.659 213.405C471.634 213.478 471.634 213.551 471.659 213.623C471.676 213.696 471.717 213.762 471.767 213.82C471.825 213.878 471.891 213.922 471.966 213.951C472.041 213.98 472.123 213.995 472.206 213.995H495.184C495.308 213.995 495.432 213.966 495.532 213.893C495.631 213.827 495.698 213.733 495.731 213.623L515.973 140.704C515.989 140.631 515.989 140.558 515.973 140.485C515.956 140.412 515.915 140.347 515.865 140.288C515.815 140.23 515.741 140.187 515.666 140.15C515.592 140.121 515.509 140.106 515.426 140.106H492.448C492.324 140.106 492.2 140.136 492.1 140.201C492.001 140.267 491.934 140.361 491.901 140.471L471.659 213.405Z" fill="#FAFAFA" fill-opacity="0.4"/>
<path d="M538.882 177.076C539.007 177.076 539.131 177.105 539.231 177.178C539.33 177.244 539.396 177.338 539.429 177.448L549.401 213.427C549.418 213.5 549.418 213.572 549.401 213.645C549.385 213.718 549.343 213.784 549.294 213.842C549.236 213.9 549.169 213.944 549.095 213.973C549.02 214.002 548.937 214.017 548.854 214.017H525.877C525.753 214.017 525.628 213.988 525.529 213.922C525.429 213.856 525.363 213.762 525.33 213.653L515.35 177.681C515.333 177.608 515.325 177.535 515.35 177.462C515.366 177.389 515.408 177.324 515.457 177.265C515.515 177.207 515.582 177.164 515.656 177.134C515.731 177.105 515.814 177.091 515.905 177.091H538.882V177.076Z" fill="#FAFAFA" fill-opacity="0.4"/>
<path d="M430.072 215.415C441.677 215.415 452.809 211.381 461.024 204.194C465.094 200.633 468.318 196.409 470.523 191.756C472.728 187.103 473.855 182.115 473.863 177.076C473.863 172.037 472.736 167.049 470.531 162.396C468.326 157.743 465.102 153.512 461.032 149.952C456.962 146.391 452.138 143.573 446.824 141.643C441.511 139.721 435.816 138.73 430.072 138.73C424.319 138.73 418.625 139.721 413.311 141.65C407.99 143.573 403.157 146.398 399.087 149.966C395.017 153.534 391.793 157.765 389.596 162.425C387.4 167.071 386.272 172.045 386.272 177.069C386.281 187.242 390.898 196.999 399.112 204.194C407.335 211.381 418.467 215.415 430.072 215.415ZM430.072 155.726C433.263 155.733 436.421 156.287 439.372 157.357C442.332 158.428 445.009 160.001 447.272 161.988C449.543 163.976 451.342 166.328 452.577 168.928C453.795 171.513 454.425 174.28 454.417 177.076C454.417 182.734 451.864 188.152 447.305 192.157C442.738 196.147 436.546 198.39 430.089 198.39C426.897 198.39 423.731 197.844 420.772 196.774C417.812 195.703 415.135 194.138 412.872 192.157C408.313 188.152 405.752 182.727 405.76 177.076C405.76 174.28 406.39 171.513 407.609 168.928C408.827 166.336 410.618 163.984 412.88 161.996C415.143 160.015 417.829 158.442 420.788 157.365C423.731 156.294 426.889 155.741 430.072 155.726Z" fill="#FAFAFA" fill-opacity="0.4"/>
<path d="M193.924 215.415C205.529 215.415 216.661 211.381 224.876 204.194C228.946 200.633 232.17 196.409 234.375 191.756C236.58 187.103 237.707 182.115 237.715 177.076C237.715 172.037 236.588 167.049 234.383 162.396C232.178 157.743 228.954 153.512 224.892 149.952C220.822 146.391 215.998 143.573 210.685 141.643C205.371 139.721 199.677 138.73 193.932 138.73C188.18 138.73 182.485 139.721 177.172 141.65C171.85 143.573 167.018 146.398 162.948 149.966C158.878 153.534 155.653 157.765 153.457 162.425C151.26 167.071 150.133 172.045 150.133 177.069C150.141 187.242 154.758 196.999 162.973 204.194C171.179 211.381 182.311 215.415 193.924 215.415ZM193.924 155.726C197.115 155.733 200.274 156.287 203.224 157.357C206.184 158.428 208.861 160.001 211.124 161.988C213.395 163.976 215.194 166.328 216.429 168.928C217.648 171.513 218.277 174.28 218.269 177.076C218.269 182.734 215.716 188.152 211.157 192.157C206.59 196.147 200.398 198.39 193.941 198.39C190.749 198.39 187.583 197.844 184.624 196.774C181.665 195.703 178.987 194.138 176.724 192.157C172.165 188.152 169.604 182.727 169.612 177.076C169.612 174.28 170.242 171.513 171.461 168.928C172.679 166.336 174.47 163.984 176.733 161.996C178.995 160.015 181.681 158.442 184.64 157.365C187.583 156.294 190.733 155.741 193.924 155.726Z" fill="#FAFAFA" fill-opacity="0.4"/>
<path d="M105.646 213.572C105.662 213.645 105.662 213.718 105.646 213.791C105.629 213.864 105.588 213.929 105.538 213.987C105.488 214.046 105.414 214.089 105.339 214.119C105.264 214.148 105.182 214.162 105.099 214.162H82.1213C81.997 214.162 81.8726 214.133 81.7732 214.06C81.6737 213.995 81.5991 213.9 81.5742 213.791L61.324 140.878C61.3074 140.806 61.3074 140.733 61.324 140.66C61.3405 140.587 61.382 140.522 61.4317 140.463C61.4815 140.405 61.5561 140.361 61.6307 140.325C61.7053 140.296 61.7882 140.281 61.8793 140.281H84.8567C84.9811 140.281 85.1054 140.31 85.2049 140.376C85.3043 140.441 85.3789 140.536 85.4038 140.645L105.646 213.572Z" fill="#FAFAFA" fill-opacity="0.4"/>
<path d="M146.734 213.572C146.751 213.645 146.751 213.718 146.734 213.791C146.718 213.864 146.676 213.929 146.626 213.987C146.577 214.046 146.502 214.089 146.427 214.119C146.353 214.148 146.27 214.162 146.187 214.162H123.21C123.085 214.162 122.961 214.133 122.862 214.06C122.762 213.995 122.696 213.9 122.663 213.791L102.421 140.878C102.404 140.806 102.404 140.733 102.421 140.66C102.437 140.587 102.479 140.522 102.528 140.463C102.578 140.405 102.653 140.361 102.727 140.325C102.802 140.296 102.885 140.281 102.976 140.281H125.953C126.078 140.281 126.202 140.31 126.302 140.376C126.401 140.441 126.467 140.536 126.5 140.645L146.734 213.572Z" fill="#FAFAFA" fill-opacity="0.4"/>
<path d="M590.366 213.572C590.383 213.645 590.383 213.718 590.366 213.791C590.35 213.864 590.308 213.929 590.259 213.987C590.209 214.046 590.134 214.089 590.06 214.119C589.985 214.148 589.902 214.162 589.811 214.162H566.834C566.709 214.162 566.585 214.133 566.485 214.06C566.386 213.995 566.32 213.9 566.287 213.791L546.053 140.878C546.036 140.806 546.028 140.733 546.053 140.66C546.069 140.587 546.111 140.522 546.161 140.463C546.21 140.405 546.285 140.361 546.359 140.325C546.434 140.296 546.525 140.281 546.608 140.281H569.586C569.71 140.281 569.834 140.31 569.934 140.376C570.033 140.441 570.099 140.536 570.133 140.645L590.366 213.572Z" fill="#FAFAFA" fill-opacity="0.4"/>
<path d="M14.0843 215.415C25.689 215.415 36.8213 211.381 45.0357 204.194C49.1057 200.633 52.3302 196.409 54.5351 191.756C56.74 187.103 57.8673 182.115 57.8756 177.076C57.8756 172.037 56.7482 167.049 54.5433 162.396C52.3467 157.743 49.114 153.512 45.0523 149.952C40.9824 146.391 36.1581 143.573 30.8448 141.643C25.5315 139.721 19.8369 138.73 14.0926 138.73C8.33993 138.73 2.64532 139.721 -2.66799 141.65C-7.98959 143.573 -12.8221 146.398 -16.8921 149.966C-20.962 153.534 -24.1865 157.765 -26.3831 162.425C-28.5797 167.071 -29.707 172.045 -29.707 177.069C-29.6987 187.242 -25.0817 196.999 -16.8672 204.194C-8.65272 211.381 2.47953 215.415 14.0843 215.415ZM14.0843 155.726C17.2756 155.733 20.4337 156.287 23.3846 157.357C26.3438 158.428 29.0212 160.001 31.2841 161.988C33.5553 163.976 35.3541 166.328 36.5892 168.928C37.8077 171.513 38.4376 174.28 38.4293 177.076C38.4293 182.734 35.8763 188.152 31.3173 192.157C26.75 196.147 20.5581 198.39 14.1008 198.39C10.9013 198.39 7.7431 197.844 4.7839 196.774C1.83298 195.703 -0.852688 194.138 -3.11561 192.157C-7.67461 188.152 -10.2359 182.727 -10.2277 177.076C-10.2277 174.28 -9.59768 171.513 -8.37918 168.928C-7.16068 166.336 -5.36195 163.984 -3.10731 161.996C-0.844391 160.015 1.84127 158.442 4.80048 157.365C7.74311 156.294 10.9012 155.741 14.0843 155.726Z" fill="#FAFAFA" fill-opacity="0.4"/>
<path d="M679.209 214.985C690.814 214.985 701.946 210.951 710.161 203.764C714.231 200.203 717.455 195.972 719.66 191.327C721.865 186.674 722.992 181.686 723.001 176.647C723.001 171.608 721.873 166.62 719.668 161.967C717.464 157.314 714.239 153.083 710.177 149.522C706.107 145.961 701.283 143.143 695.97 141.213C690.656 139.284 684.962 138.301 679.218 138.301C673.465 138.301 667.77 139.291 662.457 141.221C657.135 143.143 652.303 145.976 648.233 149.537C644.163 153.105 640.939 157.335 638.742 161.996C636.545 166.641 635.418 171.615 635.418 176.639C635.426 186.812 640.043 196.57 648.258 203.764C656.464 210.951 667.596 214.985 679.209 214.985ZM679.209 155.296C682.401 155.304 685.559 155.857 688.51 156.928C691.469 157.998 694.155 159.571 696.409 161.559C698.68 163.547 700.479 165.899 701.714 168.498C702.933 171.083 703.563 173.85 703.554 176.647C703.554 182.305 701.001 187.722 696.442 191.727C691.875 195.718 685.683 197.96 679.226 197.96C676.026 197.96 672.86 197.414 669.909 196.344C666.958 195.273 664.272 193.708 662.009 191.727C657.45 187.722 654.889 182.297 654.897 176.647C654.897 173.85 655.527 171.083 656.746 168.498C657.964 165.906 659.763 163.554 662.018 161.566C664.281 159.585 666.966 158.013 669.925 156.935C672.868 155.864 676.018 155.304 679.209 155.296Z" fill="#FAFAFA" fill-opacity="0.4"/>
<path d="M632.019 213.136C632.044 213.209 632.044 213.282 632.019 213.354C632.003 213.427 631.961 213.493 631.912 213.551C631.862 213.609 631.787 213.653 631.713 213.682C631.638 213.711 631.555 213.726 631.472 213.726H608.495C608.371 213.726 608.246 213.697 608.147 213.624C608.047 213.558 607.973 213.464 607.948 213.354L587.706 140.449C587.689 140.376 587.689 140.304 587.706 140.231C587.722 140.158 587.764 140.092 587.814 140.034C587.863 139.976 587.938 139.932 588.012 139.903C588.087 139.874 588.17 139.859 588.261 139.859H611.239C611.363 139.859 611.487 139.889 611.587 139.954C611.686 140.02 611.761 140.114 611.786 140.223L632.019 213.136Z" fill="#FAFAFA" fill-opacity="0.4"/>
<path d="M770.77 213.136C770.786 213.209 770.786 213.282 770.77 213.354C770.753 213.427 770.712 213.493 770.662 213.551C770.612 213.609 770.538 213.653 770.463 213.682C770.388 213.711 770.306 213.726 770.214 213.726H747.237C747.113 213.726 746.988 213.697 746.889 213.624C746.789 213.558 746.723 213.464 746.69 213.354L726.448 140.435C726.431 140.362 726.431 140.289 726.448 140.216C726.465 140.143 726.506 140.078 726.556 140.019C726.605 139.961 726.68 139.918 726.755 139.888C726.829 139.859 726.92 139.845 727.003 139.845H749.981C750.105 139.845 750.229 139.874 750.329 139.939C750.428 140.005 750.495 140.1 750.528 140.209L770.77 213.136Z" fill="#FAFAFA" fill-opacity="0.4"/>
<path d="M110.9 230.838C110.9 230.707 110.842 230.59 110.743 230.496C110.643 230.408 110.503 230.357 110.353 230.357H36.655C36.5141 230.357 36.3732 230.408 36.2654 230.496C36.1659 230.583 36.0996 230.707 36.0996 230.838V248.343C36.0996 248.467 36.1576 248.591 36.2654 248.686C36.3649 248.773 36.5058 248.824 36.655 248.824H61.6134C61.7544 248.824 61.8953 248.875 62.003 248.962C62.1025 249.05 62.1605 249.174 62.1605 249.305V303.736C62.1605 303.86 62.2186 303.984 62.318 304.071C62.4175 304.158 62.5584 304.209 62.7076 304.209H84.2841C84.425 304.209 84.566 304.158 84.6737 304.071C84.7732 303.984 84.8312 303.86 84.8312 303.736V249.305C84.8312 249.181 84.8892 249.057 84.9887 248.962C85.0882 248.875 85.2291 248.824 85.3783 248.824H110.345C110.494 248.824 110.627 248.773 110.735 248.686C110.834 248.598 110.892 248.474 110.892 248.343V230.838H110.9Z" fill="#FAFAFA" fill-opacity="0.4"/>
<path d="M44.2061 303.641C44.2227 303.714 44.2227 303.787 44.2061 303.86C44.1896 303.932 44.1481 303.998 44.0984 304.056C44.0486 304.115 43.9823 304.158 43.8995 304.187C43.8249 304.216 43.742 304.231 43.6591 304.231H20.6817C20.5574 304.231 20.433 304.202 20.3336 304.129C20.2341 304.064 20.1595 303.969 20.1346 303.86L-0.107352 230.94C-0.123931 230.867 -0.13222 230.794 -0.107352 230.721C-0.0907742 230.649 -0.0493247 230.583 0.000409916 230.525C0.0501445 230.467 0.124738 230.423 0.19934 230.386C0.273942 230.357 0.356835 230.343 0.448016 230.343H23.4254C23.5497 230.343 23.6741 230.372 23.7735 230.437C23.873 230.503 23.9393 230.598 23.9725 230.707L44.2061 303.641Z" fill="#FAFAFA" fill-opacity="0.4"/>
<path d="M-23.0102 267.312C-23.1345 267.312 -23.2589 267.342 -23.3583 267.414C-23.4578 267.48 -23.5324 267.575 -23.5573 267.684L-33.5208 303.649C-33.5373 303.721 -33.5373 303.794 -33.5208 303.867C-33.5042 303.94 -33.4628 304.005 -33.413 304.064C-33.3633 304.122 -33.297 304.166 -33.2141 304.195C-33.1395 304.224 -33.0566 304.238 -32.9737 304.238H-9.99633C-9.87199 304.238 -9.74764 304.209 -9.64817 304.136C-9.5487 304.071 -9.47411 303.976 -9.44924 303.867L0.522537 267.895C0.539116 267.822 0.547405 267.749 0.522537 267.677C0.505959 267.604 0.464523 267.538 0.414787 267.48C0.365051 267.422 0.290447 267.378 0.215843 267.342C0.141243 267.312 0.0583496 267.298 -0.0328293 267.298L-23.0102 267.312Z" fill="#FAFAFA" fill-opacity="0.4"/>
<path d="M196.817 303.641C196.801 303.714 196.801 303.787 196.817 303.86C196.834 303.932 196.875 303.998 196.925 304.056C196.983 304.115 197.049 304.158 197.124 304.187C197.198 304.216 197.281 304.231 197.364 304.231H220.342C220.466 304.231 220.59 304.202 220.69 304.129C220.789 304.064 220.855 303.969 220.889 303.86L241.131 230.94C241.147 230.867 241.147 230.794 241.131 230.721C241.114 230.649 241.073 230.583 241.023 230.525C240.965 230.467 240.899 230.423 240.824 230.386C240.749 230.357 240.666 230.343 240.584 230.343H217.606C217.482 230.343 217.358 230.372 217.258 230.437C217.159 230.503 217.092 230.598 217.059 230.707L196.817 303.641Z" fill="#FAFAFA" fill-opacity="0.4"/>
<path d="M264.042 267.312C264.166 267.312 264.29 267.342 264.39 267.414C264.489 267.48 264.556 267.575 264.589 267.684L274.56 303.663C274.577 303.736 274.577 303.809 274.56 303.882C274.544 303.954 274.502 304.02 274.453 304.078C274.395 304.136 274.328 304.18 274.254 304.209C274.179 304.238 274.096 304.253 274.013 304.253H251.036C250.912 304.253 250.787 304.224 250.688 304.158C250.588 304.093 250.522 303.998 250.489 303.889L240.509 267.917C240.492 267.844 240.484 267.771 240.509 267.698C240.525 267.626 240.567 267.56 240.617 267.502C240.666 267.444 240.741 267.4 240.816 267.371C240.89 267.342 240.973 267.327 241.064 267.327H264.042V267.312Z" fill="#FAFAFA" fill-opacity="0.4"/>
<path d="M155.239 305.65C166.843 305.65 177.976 301.616 186.19 294.429C190.26 290.868 193.484 286.645 195.689 281.992C197.894 277.339 199.022 272.351 199.03 267.312C199.03 262.273 197.894 257.285 195.698 252.632C193.493 247.979 190.268 243.748 186.207 240.187C182.137 236.626 177.312 233.808 171.999 231.879C166.686 229.956 160.991 228.966 155.247 228.966C149.494 228.966 143.8 229.956 138.486 231.886C133.165 233.808 128.332 236.634 124.262 240.202C120.192 243.77 116.968 248 114.771 252.661C112.575 257.307 111.447 262.28 111.447 267.304C111.456 277.477 116.073 287.235 124.287 294.429C132.493 301.616 143.626 305.65 155.239 305.65ZM155.239 245.961C158.43 245.969 161.588 246.522 164.539 247.593C167.498 248.663 170.176 250.236 172.438 252.224C174.71 254.212 176.508 256.564 177.743 259.163C178.962 261.748 179.592 264.515 179.584 267.312C179.584 272.97 177.031 278.387 172.472 282.392C167.904 286.383 161.712 288.625 155.255 288.625C152.064 288.625 148.897 288.079 145.938 287.009C142.979 285.938 140.302 284.373 138.039 282.392C133.48 278.387 130.918 272.962 130.927 267.312C130.927 264.515 131.557 261.748 132.775 259.163C133.994 256.571 135.784 254.219 138.047 252.231C140.31 250.25 142.996 248.678 145.955 247.6C148.889 246.529 152.047 245.969 155.239 245.961Z" fill="#FAFAFA" fill-opacity="0.4"/>
<path d="M403.804 305.65C415.409 305.65 426.541 301.616 434.756 294.429C438.825 290.868 442.05 286.645 444.255 281.992C446.46 277.339 447.587 272.351 447.595 267.312C447.595 262.273 446.468 257.285 444.263 252.632C442.058 247.979 438.834 243.748 434.772 240.187C430.702 236.626 425.878 233.808 420.565 231.879C415.251 229.956 409.557 228.966 403.812 228.966C398.06 228.966 392.365 229.956 387.052 231.886C381.73 233.808 376.898 236.634 372.828 240.202C368.758 243.77 365.533 248 363.337 252.661C361.14 257.307 360.013 262.28 360.013 267.304C360.021 277.477 364.638 287.235 372.852 294.429C381.067 301.616 392.199 305.65 403.804 305.65ZM403.804 245.961C406.995 245.969 410.153 246.522 413.104 247.593C416.064 248.663 418.749 250.236 421.004 252.224C423.275 254.212 425.074 256.564 426.309 259.163C427.527 261.748 428.157 264.515 428.149 267.312C428.149 272.97 425.596 278.387 421.037 282.392C416.47 286.383 410.278 288.625 403.821 288.625C400.621 288.625 397.455 288.079 394.504 287.009C391.553 285.938 388.867 284.373 386.604 282.392C382.045 278.387 379.484 272.962 379.492 267.312C379.492 264.515 380.122 261.748 381.341 259.163C382.559 256.571 384.358 254.219 386.612 252.231C388.875 250.25 391.561 248.678 394.52 247.6C397.463 246.529 400.621 245.969 403.804 245.961Z" fill="#FAFAFA" fill-opacity="0.4"/>
<path d="M315.526 303.808C315.542 303.881 315.542 303.954 315.526 304.027C315.509 304.099 315.467 304.165 315.418 304.223C315.36 304.281 315.293 304.325 315.219 304.354C315.144 304.383 315.061 304.398 314.978 304.398H292.001C291.877 304.398 291.752 304.369 291.653 304.296C291.553 304.231 291.487 304.136 291.454 304.027L271.212 231.107C271.195 231.034 271.187 230.961 271.212 230.888C271.229 230.816 271.27 230.75 271.32 230.692C271.369 230.634 271.444 230.59 271.519 230.553C271.593 230.524 271.684 230.51 271.767 230.51H294.745C294.869 230.51 294.993 230.539 295.093 230.604C295.192 230.67 295.259 230.765 295.292 230.874L315.526 303.808Z" fill="#FAFAFA" fill-opacity="0.4"/>
<path d="M356.623 303.808C356.648 303.881 356.648 303.954 356.623 304.027C356.606 304.099 356.565 304.165 356.515 304.223C356.465 304.281 356.391 304.325 356.316 304.354C356.242 304.383 356.159 304.398 356.076 304.398H333.098C332.974 304.398 332.85 304.369 332.75 304.296C332.651 304.231 332.576 304.136 332.551 304.027L312.309 231.107C312.293 231.034 312.293 230.961 312.309 230.888C312.326 230.816 312.367 230.75 312.417 230.692C312.467 230.634 312.541 230.59 312.616 230.553C312.691 230.524 312.773 230.51 312.865 230.51H335.842C335.966 230.51 336.091 230.539 336.19 230.604C336.29 230.67 336.364 230.765 336.389 230.874L356.623 303.808Z" fill="#FAFAFA" fill-opacity="0.4"/>
<path d="M583.645 305.65C595.25 305.65 606.39 301.616 614.596 294.429C618.666 290.868 621.891 286.645 624.096 281.992C626.301 277.339 627.428 272.351 627.436 267.312C627.436 262.273 626.309 257.285 624.104 252.632C621.899 247.979 618.675 243.748 614.613 240.187C610.543 236.626 605.719 233.808 600.405 231.879C595.092 229.956 589.397 228.966 583.653 228.966C577.9 228.966 572.206 229.956 566.893 231.886C561.571 233.808 556.738 236.634 552.668 240.202C548.599 243.77 545.374 248 543.177 252.661C540.981 257.307 539.854 262.28 539.854 267.304C539.862 277.477 544.479 287.235 552.693 294.429C560.9 301.616 572.04 305.65 583.645 305.65ZM583.645 245.961C586.836 245.969 590.003 246.522 592.945 247.593C595.904 248.663 598.582 250.236 600.845 252.224C603.116 254.212 604.915 256.564 606.15 259.163C607.368 261.748 607.998 264.515 607.99 267.312C607.99 272.97 605.437 278.387 600.878 282.392C596.311 286.383 590.119 288.625 583.661 288.625C580.462 288.625 577.304 288.079 574.344 287.009C571.394 285.938 568.708 284.373 566.445 282.392C561.886 278.387 559.325 272.962 559.333 267.312C559.333 264.515 559.963 261.748 561.181 259.163C562.4 256.571 564.199 254.219 566.453 252.231C568.716 250.25 571.402 248.678 574.361 247.6C577.304 246.529 580.454 245.969 583.645 245.961Z" fill="#FAFAFA" fill-opacity="0.4"/>
<path d="M495.366 303.808C495.382 303.881 495.382 303.954 495.366 304.027C495.349 304.099 495.307 304.165 495.258 304.223C495.208 304.281 495.133 304.325 495.059 304.354C494.984 304.383 494.901 304.398 494.81 304.398H471.833C471.708 304.398 471.584 304.369 471.485 304.296C471.385 304.231 471.319 304.136 471.286 304.027L451.044 231.107C451.027 231.034 451.027 230.961 451.044 230.888C451.06 230.816 451.102 230.75 451.151 230.692C451.201 230.634 451.276 230.59 451.35 230.553C451.425 230.524 451.516 230.51 451.599 230.51H474.576C474.701 230.51 474.825 230.539 474.925 230.604C475.024 230.67 475.09 230.765 475.123 230.874L495.366 303.808Z" fill="#FAFAFA" fill-opacity="0.4"/>
<path d="M536.462 303.808C536.479 303.881 536.479 303.954 536.462 304.027C536.446 304.099 536.404 304.165 536.355 304.223C536.305 304.281 536.239 304.325 536.156 304.354C536.081 304.383 535.998 304.398 535.915 304.398H512.93C512.805 304.398 512.681 304.369 512.582 304.296C512.482 304.231 512.408 304.136 512.383 304.027L492.141 231.107C492.124 231.034 492.116 230.961 492.141 230.888C492.157 230.816 492.199 230.75 492.248 230.692C492.306 230.634 492.373 230.59 492.447 230.553C492.522 230.524 492.605 230.51 492.696 230.51H515.673C515.798 230.51 515.922 230.539 516.022 230.604C516.121 230.67 516.196 230.765 516.221 230.874L536.462 303.808Z" fill="#FAFAFA" fill-opacity="0.4"/>
<path d="M775.463 230.838C775.463 230.707 775.405 230.59 775.305 230.496C775.206 230.408 775.065 230.357 774.916 230.357H701.218C701.077 230.357 700.936 230.408 700.828 230.496C700.728 230.583 700.662 230.707 700.662 230.838V248.343C700.662 248.467 700.72 248.591 700.828 248.686C700.927 248.773 701.068 248.824 701.218 248.824H726.176C726.317 248.824 726.458 248.875 726.566 248.962C726.665 249.05 726.723 249.174 726.723 249.305V303.736C726.723 303.86 726.781 303.984 726.881 304.071C726.98 304.158 727.121 304.209 727.27 304.209H748.847C748.988 304.209 749.128 304.158 749.236 304.071C749.336 303.984 749.394 303.86 749.394 303.736V249.305C749.394 249.181 749.452 249.057 749.551 248.962C749.651 248.875 749.792 248.824 749.941 248.824H774.908C775.048 248.824 775.189 248.773 775.297 248.686C775.397 248.598 775.455 248.474 775.455 248.343V230.838H775.463Z" fill="#FAFAFA" fill-opacity="0.4"/>
<path d="M708.769 303.641C708.785 303.714 708.785 303.787 708.769 303.86C708.752 303.932 708.711 303.998 708.661 304.056C708.611 304.115 708.545 304.158 708.462 304.187C708.387 304.216 708.304 304.231 708.222 304.231H685.244C685.12 304.231 684.996 304.202 684.896 304.129C684.797 304.064 684.722 303.969 684.697 303.86L664.455 230.94C664.439 230.867 664.43 230.794 664.455 230.721C664.472 230.649 664.513 230.583 664.563 230.525C664.621 230.467 664.687 230.423 664.762 230.386C664.836 230.357 664.919 230.343 665.011 230.343H687.988C688.112 230.343 688.237 230.372 688.336 230.437C688.435 230.503 688.502 230.598 688.535 230.707L708.769 303.641Z" fill="#FAFAFA" fill-opacity="0.4"/>
<path d="M641.552 267.312C641.428 267.312 641.304 267.342 641.204 267.407C641.105 267.473 641.038 267.567 641.005 267.677L631.042 303.641C631.025 303.714 631.025 303.787 631.042 303.86C631.058 303.932 631.1 303.998 631.149 304.056C631.199 304.115 631.274 304.158 631.348 304.187C631.423 304.216 631.506 304.231 631.589 304.231H654.566C654.691 304.231 654.815 304.202 654.914 304.129C655.014 304.064 655.088 303.969 655.113 303.86L665.085 267.888C665.102 267.815 665.11 267.742 665.085 267.669C665.068 267.596 665.027 267.531 664.977 267.473C664.928 267.414 664.853 267.371 664.778 267.342C664.704 267.312 664.621 267.298 664.53 267.298L641.552 267.312Z" fill="#FAFAFA" fill-opacity="0.4"/>
</g>
</g>
</g>
<mask id="mask5_8_4106" style="mask-type:alpha" maskUnits="userSpaceOnUse" x="-6" y="306" width="762" height="171">
<rect x="-6" y="306.139" width="762" height="170.139" fill="#DF192C"/>
</mask>
<g mask="url(#mask5_8_4106)">
<mask id="mask6_8_4106" style="mask-type:alpha" maskUnits="userSpaceOnUse" x="-6" y="308" width="762" height="171">
<rect x="-6" y="308.37" width="762" height="170.139" fill="#C1C1C1"/>
</mask>
<g mask="url(#mask6_8_4106)">
<g clip-path="url(#clip2_8_4106)">
<path d="M385.742 310.671C385.742 310.54 385.684 310.423 385.585 310.329C385.485 310.241 385.344 310.19 385.195 310.19H311.497C311.356 310.19 311.215 310.241 311.107 310.329C311.008 310.416 310.941 310.54 310.941 310.671V328.176C310.941 328.3 310.999 328.424 311.107 328.519C311.207 328.606 311.348 328.657 311.497 328.657H336.455C336.596 328.657 336.737 328.708 336.845 328.795C336.944 328.883 337.002 329.007 337.002 329.138V383.569C337.002 383.693 337.06 383.817 337.16 383.904C337.259 383.991 337.4 384.042 337.549 384.042H359.126C359.267 384.042 359.408 383.991 359.516 383.904C359.615 383.817 359.673 383.693 359.673 383.569V329.13C359.673 329.007 359.731 328.883 359.831 328.788C359.93 328.701 360.071 328.65 360.22 328.65H385.187C385.328 328.65 385.469 328.599 385.576 328.511C385.676 328.424 385.734 328.3 385.734 328.169V310.671H385.742Z" fill="#FAFAFA" fill-opacity="0.4"/>
<path d="M319.047 383.475C319.064 383.548 319.064 383.62 319.047 383.693C319.031 383.766 318.989 383.832 318.94 383.89C318.89 383.948 318.824 383.992 318.741 384.021C318.666 384.05 318.583 384.065 318.5 384.065H295.523C295.399 384.065 295.274 384.035 295.175 383.963C295.075 383.897 295.001 383.802 294.976 383.693L274.726 310.781C274.709 310.708 274.701 310.635 274.726 310.562C274.742 310.489 274.784 310.424 274.833 310.366C274.891 310.307 274.958 310.264 275.032 310.227C275.107 310.198 275.19 310.184 275.281 310.184H298.258C298.383 310.184 298.507 310.213 298.607 310.278C298.706 310.344 298.772 310.438 298.805 310.548L319.047 383.475Z" fill="#FAFAFA" fill-opacity="0.4"/>
<path d="M251.824 347.145C251.699 347.145 251.575 347.175 251.476 347.247C251.376 347.313 251.31 347.408 251.277 347.517L241.313 383.482C241.297 383.554 241.297 383.627 241.313 383.7C241.33 383.773 241.371 383.838 241.421 383.897C241.471 383.955 241.545 383.999 241.62 384.028C241.695 384.057 241.777 384.071 241.86 384.071H264.838C264.962 384.071 265.086 384.042 265.186 383.969C265.285 383.904 265.36 383.809 265.385 383.7L275.357 347.728C275.373 347.655 275.373 347.582 275.357 347.51C275.34 347.437 275.298 347.371 275.249 347.313C275.199 347.255 275.124 347.211 275.05 347.175C274.975 347.138 274.892 347.131 274.801 347.131L251.824 347.145Z" fill="#FAFAFA" fill-opacity="0.4"/>
<path d="M471.659 383.474C471.634 383.547 471.634 383.62 471.659 383.693C471.676 383.765 471.717 383.831 471.767 383.889C471.825 383.948 471.891 383.991 471.966 384.02C472.041 384.049 472.123 384.064 472.206 384.064H495.184C495.308 384.064 495.432 384.035 495.532 383.962C495.631 383.897 495.698 383.802 495.731 383.693L515.973 310.773C515.989 310.7 515.989 310.627 515.973 310.554C515.956 310.482 515.915 310.416 515.865 310.358C515.815 310.3 515.741 310.256 515.666 310.219C515.592 310.19 515.509 310.176 515.426 310.176H492.448C492.324 310.176 492.2 310.205 492.1 310.27C492.001 310.336 491.934 310.431 491.901 310.54L471.659 383.474Z" fill="#FAFAFA" fill-opacity="0.4"/>
<path d="M538.882 347.146C539.007 347.146 539.131 347.175 539.231 347.247C539.33 347.313 539.396 347.408 539.429 347.517L549.401 383.496C549.418 383.569 549.418 383.642 549.401 383.715C549.385 383.787 549.343 383.853 549.294 383.911C549.236 383.969 549.169 384.013 549.095 384.042C549.02 384.071 548.937 384.086 548.854 384.086H525.877C525.753 384.086 525.628 384.057 525.529 383.991C525.429 383.926 525.363 383.831 525.33 383.722L515.35 347.75C515.333 347.677 515.325 347.604 515.35 347.531C515.366 347.459 515.408 347.393 515.457 347.335C515.515 347.277 515.582 347.233 515.656 347.204C515.731 347.175 515.814 347.16 515.905 347.16H538.882V347.146Z" fill="#FAFAFA" fill-opacity="0.4"/>
<path d="M430.072 385.484C441.677 385.484 452.809 381.45 461.024 374.263C465.094 370.702 468.318 366.479 470.523 361.826C472.728 357.173 473.855 352.185 473.863 347.146C473.863 342.107 472.736 337.119 470.531 332.466C468.326 327.813 465.102 323.582 461.032 320.021C456.962 316.46 452.138 313.642 446.824 311.713C441.511 309.79 435.816 308.8 430.072 308.8C424.319 308.8 418.625 309.79 413.311 311.72C407.99 313.642 403.157 316.468 399.087 320.036C395.017 323.604 391.793 327.834 389.596 332.495C387.4 337.141 386.272 342.114 386.272 347.138C386.281 357.311 390.898 367.069 399.112 374.263C407.335 381.45 418.467 385.484 430.072 385.484ZM430.072 325.795C433.263 325.803 436.421 326.356 439.372 327.427C442.332 328.497 445.009 330.07 447.272 332.058C449.543 334.046 451.342 336.398 452.577 338.997C453.795 341.582 454.425 344.349 454.417 347.146C454.417 352.804 451.864 358.221 447.305 362.226C442.738 366.217 436.546 368.459 430.089 368.459C426.897 368.459 423.731 367.913 420.772 366.843C417.812 365.772 415.135 364.207 412.872 362.226C408.313 358.221 405.752 352.796 405.76 347.146C405.76 344.349 406.39 341.582 407.609 338.997C408.827 336.405 410.618 334.053 412.88 332.065C415.143 330.084 417.829 328.512 420.788 327.434C423.731 326.363 426.889 325.81 430.072 325.795Z" fill="#FAFAFA" fill-opacity="0.4"/>
<path d="M193.924 385.484C205.529 385.484 216.661 381.45 224.876 374.263C228.946 370.702 232.17 366.479 234.375 361.826C236.58 357.173 237.707 352.185 237.715 347.146C237.715 342.107 236.588 337.119 234.383 332.466C232.178 327.813 228.954 323.582 224.892 320.021C220.822 316.46 215.998 313.642 210.685 311.713C205.371 309.79 199.677 308.8 193.932 308.8C188.18 308.8 182.485 309.79 177.172 311.72C171.85 313.642 167.018 316.468 162.948 320.036C158.878 323.604 155.653 327.834 153.457 332.495C151.26 337.141 150.133 342.114 150.133 347.138C150.141 357.311 154.758 367.069 162.973 374.263C171.179 381.45 182.311 385.484 193.924 385.484ZM193.924 325.795C197.115 325.803 200.274 326.356 203.224 327.427C206.184 328.497 208.861 330.07 211.124 332.058C213.395 334.046 215.194 336.398 216.429 338.997C217.648 341.582 218.277 344.349 218.269 347.146C218.269 352.804 215.716 358.221 211.157 362.226C206.59 366.217 200.398 368.459 193.941 368.459C190.749 368.459 187.583 367.913 184.624 366.843C181.665 365.772 178.987 364.207 176.724 362.226C172.165 358.221 169.604 352.796 169.612 347.146C169.612 344.349 170.242 341.582 171.461 338.997C172.679 336.405 174.47 334.053 176.733 332.065C178.995 330.084 181.681 328.512 184.64 327.434C187.583 326.363 190.733 325.81 193.924 325.795Z" fill="#FAFAFA" fill-opacity="0.4"/>
<path d="M105.646 383.642C105.662 383.715 105.662 383.787 105.646 383.86C105.629 383.933 105.588 383.999 105.538 384.057C105.488 384.115 105.414 384.159 105.339 384.188C105.264 384.217 105.182 384.232 105.099 384.232H82.1213C81.997 384.232 81.8726 384.202 81.7732 384.13C81.6737 384.064 81.5991 383.969 81.5742 383.86L61.324 310.948C61.3074 310.875 61.3074 310.802 61.324 310.729C61.3405 310.656 61.382 310.591 61.4317 310.533C61.4815 310.474 61.5561 310.431 61.6307 310.394C61.7053 310.365 61.7882 310.351 61.8793 310.351H84.8567C84.9811 310.351 85.1054 310.38 85.2049 310.445C85.3043 310.511 85.3789 310.605 85.4038 310.715L105.646 383.642Z" fill="#FAFAFA" fill-opacity="0.4"/>
<path d="M146.734 383.642C146.751 383.715 146.751 383.787 146.734 383.86C146.718 383.933 146.676 383.999 146.626 384.057C146.577 384.115 146.502 384.159 146.427 384.188C146.353 384.217 146.27 384.232 146.187 384.232H123.21C123.085 384.232 122.961 384.202 122.862 384.13C122.762 384.064 122.696 383.969 122.663 383.86L102.421 310.948C102.404 310.875 102.404 310.802 102.421 310.729C102.437 310.656 102.479 310.591 102.528 310.533C102.578 310.474 102.653 310.431 102.727 310.394C102.802 310.365 102.885 310.351 102.976 310.351H125.953C126.078 310.351 126.202 310.38 126.302 310.445C126.401 310.511 126.467 310.605 126.5 310.715L146.734 383.642Z" fill="#FAFAFA" fill-opacity="0.4"/>
<path d="M590.366 383.642C590.383 383.715 590.383 383.787 590.366 383.86C590.35 383.933 590.308 383.999 590.259 384.057C590.209 384.115 590.134 384.159 590.06 384.188C589.985 384.217 589.902 384.232 589.811 384.232H566.834C566.709 384.232 566.585 384.202 566.485 384.13C566.386 384.064 566.32 383.969 566.287 383.86L546.053 310.948C546.036 310.875 546.028 310.802 546.053 310.729C546.069 310.656 546.111 310.591 546.161 310.533C546.21 310.474 546.285 310.431 546.359 310.394C546.434 310.365 546.525 310.351 546.608 310.351H569.586C569.71 310.351 569.834 310.38 569.934 310.445C570.033 310.511 570.099 310.605 570.133 310.715L590.366 383.642Z" fill="#FAFAFA" fill-opacity="0.4"/>
<path d="M14.0843 385.484C25.689 385.484 36.8213 381.45 45.0357 374.263C49.1057 370.702 52.3302 366.479 54.5351 361.826C56.74 357.173 57.8673 352.185 57.8756 347.146C57.8756 342.107 56.7482 337.119 54.5433 332.466C52.3467 327.813 49.114 323.582 45.0523 320.021C40.9824 316.46 36.1581 313.642 30.8448 311.713C25.5315 309.79 19.8369 308.8 14.0926 308.8C8.33993 308.8 2.64532 309.79 -2.66799 311.72C-7.98959 313.642 -12.8221 316.468 -16.8921 320.036C-20.962 323.604 -24.1865 327.834 -26.3831 332.495C-28.5797 337.141 -29.707 342.114 -29.707 347.138C-29.6987 357.311 -25.0817 367.069 -16.8672 374.263C-8.65272 381.45 2.47953 385.484 14.0843 385.484ZM14.0843 325.795C17.2756 325.803 20.4337 326.356 23.3846 327.427C26.3438 328.497 29.0212 330.07 31.2841 332.058C33.5553 334.046 35.3541 336.398 36.5892 338.997C37.8077 341.582 38.4376 344.349 38.4293 347.146C38.4293 352.804 35.8763 358.221 31.3173 362.226C26.75 366.217 20.5581 368.459 14.1008 368.459C10.9013 368.459 7.7431 367.913 4.7839 366.843C1.83298 365.772 -0.852688 364.207 -3.11561 362.226C-7.67461 358.221 -10.2359 352.796 -10.2277 347.146C-10.2277 344.349 -9.59768 341.582 -8.37918 338.997C-7.16068 336.405 -5.36195 334.053 -3.10731 332.065C-0.844391 330.084 1.84127 328.512 4.80048 327.434C7.74311 326.363 10.9012 325.81 14.0843 325.795Z" fill="#FAFAFA" fill-opacity="0.4"/>
<path d="M679.209 385.055C690.814 385.055 701.946 381.02 710.161 373.833C714.231 370.273 717.455 366.042 719.66 361.396C721.865 356.743 722.992 351.755 723.001 346.716C723.001 341.677 721.873 336.689 719.668 332.036C717.464 327.383 714.239 323.152 710.177 319.591C706.107 316.031 701.283 313.213 695.97 311.283C690.656 309.353 684.962 308.37 679.218 308.37C673.465 308.37 667.77 309.36 662.457 311.29C657.135 313.213 652.303 316.045 648.233 319.606C644.163 323.174 640.939 327.405 638.742 332.065C636.545 336.711 635.418 341.684 635.418 346.709C635.426 356.881 640.043 366.639 648.258 373.833C656.464 381.02 667.596 385.055 679.209 385.055ZM679.209 325.366C682.401 325.373 685.559 325.926 688.51 326.997C691.469 328.067 694.155 329.64 696.409 331.628C698.68 333.616 700.479 335.968 701.714 338.568C702.933 341.153 703.563 343.92 703.554 346.716C703.554 352.374 701.001 357.792 696.442 361.797C691.875 365.787 685.683 368.03 679.226 368.03C676.026 368.03 672.86 367.484 669.909 366.413C666.958 365.343 664.272 363.777 662.009 361.797C657.45 357.792 654.889 352.367 654.897 346.716C654.897 343.92 655.527 341.153 656.746 338.568C657.964 335.975 659.763 333.623 662.018 331.635C664.281 329.655 666.966 328.082 669.925 327.004C672.868 325.934 676.018 325.373 679.209 325.366Z" fill="#FAFAFA" fill-opacity="0.4"/>
<path d="M632.019 383.205C632.044 383.278 632.044 383.351 632.019 383.424C632.003 383.497 631.961 383.562 631.912 383.62C631.862 383.679 631.787 383.722 631.713 383.751C631.638 383.781 631.555 383.795 631.472 383.795H608.495C608.371 383.795 608.246 383.766 608.147 383.693C608.047 383.628 607.973 383.533 607.948 383.424L587.706 310.519C587.689 310.446 587.689 310.373 587.706 310.3C587.722 310.227 587.764 310.162 587.814 310.103C587.863 310.045 587.938 310.002 588.012 309.972C588.087 309.943 588.17 309.929 588.261 309.929H611.239C611.363 309.929 611.487 309.958 611.587 310.023C611.686 310.089 611.761 310.184 611.786 310.293L632.019 383.205Z" fill="#FAFAFA" fill-opacity="0.4"/>
<path d="M770.77 383.205C770.786 383.278 770.786 383.351 770.77 383.424C770.753 383.496 770.712 383.562 770.662 383.62C770.612 383.679 770.538 383.722 770.463 383.751C770.388 383.78 770.306 383.795 770.214 383.795H747.237C747.113 383.795 746.988 383.766 746.889 383.693C746.789 383.628 746.723 383.533 746.69 383.424L726.448 310.504C726.431 310.431 726.431 310.358 726.448 310.285C726.465 310.213 726.506 310.147 726.556 310.089C726.605 310.031 726.68 309.987 726.755 309.958C726.829 309.929 726.92 309.914 727.003 309.914H749.981C750.105 309.914 750.229 309.943 750.329 310.009C750.428 310.074 750.495 310.169 750.528 310.278L770.77 383.205Z" fill="#FAFAFA" fill-opacity="0.4"/>
<path d="M110.9 400.907C110.9 400.776 110.842 400.66 110.743 400.565C110.643 400.478 110.503 400.427 110.353 400.427H36.655C36.5141 400.427 36.3732 400.478 36.2654 400.565C36.1659 400.652 36.0996 400.776 36.0996 400.907V418.413C36.0996 418.537 36.1576 418.66 36.2654 418.755C36.3649 418.842 36.5058 418.893 36.655 418.893H61.6134C61.7544 418.893 61.8953 418.944 62.003 419.032C62.1025 419.119 62.1605 419.243 62.1605 419.374V473.805C62.1605 473.929 62.2186 474.053 62.318 474.14C62.4175 474.228 62.5584 474.279 62.7076 474.279H84.2841C84.425 474.279 84.566 474.228 84.6737 474.14C84.7732 474.053 84.8312 473.929 84.8312 473.805V419.374C84.8312 419.25 84.8892 419.126 84.9887 419.032C85.0882 418.944 85.2291 418.893 85.3783 418.893H110.345C110.494 418.893 110.627 418.842 110.735 418.755C110.834 418.668 110.892 418.544 110.892 418.413V400.907H110.9Z" fill="#FAFAFA" fill-opacity="0.4"/>
<path d="M44.2061 473.711C44.2227 473.783 44.2227 473.856 44.2061 473.929C44.1896 474.002 44.1481 474.067 44.0984 474.126C44.0486 474.184 43.9823 474.228 43.8995 474.257C43.8249 474.286 43.742 474.3 43.6591 474.3H20.6817C20.5574 474.3 20.433 474.271 20.3336 474.198C20.2341 474.133 20.1595 474.038 20.1346 473.929L-0.107352 401.009C-0.123931 400.936 -0.13222 400.864 -0.107352 400.791C-0.0907742 400.718 -0.0493247 400.652 0.000409916 400.594C0.0501445 400.536 0.124738 400.492 0.19934 400.456C0.273942 400.427 0.356835 400.412 0.448016 400.412H23.4254C23.5497 400.412 23.6741 400.441 23.7735 400.507C23.873 400.572 23.9393 400.667 23.9725 400.776L44.2061 473.711Z" fill="#FAFAFA" fill-opacity="0.4"/>
<path d="M-23.0102 437.382C-23.1345 437.382 -23.2589 437.411 -23.3583 437.484C-23.4578 437.549 -23.5324 437.644 -23.5573 437.753L-33.5208 473.718C-33.5373 473.791 -33.5373 473.863 -33.5208 473.936C-33.5042 474.009 -33.4628 474.075 -33.413 474.133C-33.3633 474.191 -33.297 474.235 -33.2141 474.264C-33.1395 474.293 -33.0566 474.308 -32.9737 474.308H-9.99633C-9.87199 474.308 -9.74764 474.279 -9.64817 474.206C-9.5487 474.14 -9.47411 474.046 -9.44924 473.936L0.522537 437.964C0.539116 437.891 0.547405 437.819 0.522537 437.746C0.505959 437.673 0.464523 437.607 0.414787 437.549C0.365051 437.491 0.290447 437.447 0.215843 437.411C0.141243 437.382 0.0583496 437.367 -0.0328293 437.367L-23.0102 437.382Z" fill="#FAFAFA" fill-opacity="0.4"/>
<path d="M196.817 473.711C196.801 473.783 196.801 473.856 196.817 473.929C196.834 474.002 196.875 474.067 196.925 474.126C196.983 474.184 197.049 474.228 197.124 474.257C197.198 474.286 197.281 474.3 197.364 474.3H220.342C220.466 474.3 220.59 474.271 220.69 474.198C220.789 474.133 220.855 474.038 220.889 473.929L241.131 401.009C241.147 400.936 241.147 400.864 241.131 400.791C241.114 400.718 241.073 400.652 241.023 400.594C240.965 400.536 240.899 400.492 240.824 400.456C240.749 400.427 240.666 400.412 240.584 400.412H217.606C217.482 400.412 217.358 400.441 217.258 400.507C217.159 400.572 217.092 400.667 217.059 400.776L196.817 473.711Z" fill="#FAFAFA" fill-opacity="0.4"/>
<path d="M264.042 437.382C264.166 437.382 264.29 437.411 264.39 437.484C264.489 437.549 264.556 437.644 264.589 437.753L274.56 473.732C274.577 473.805 274.577 473.878 274.56 473.951C274.544 474.024 274.502 474.089 274.453 474.148C274.395 474.206 274.328 474.25 274.254 474.279C274.179 474.308 274.096 474.322 274.013 474.322H251.036C250.912 474.322 250.787 474.293 250.688 474.228C250.588 474.162 250.522 474.067 250.489 473.958L240.509 437.986C240.492 437.913 240.484 437.841 240.509 437.768C240.525 437.695 240.567 437.629 240.617 437.571C240.666 437.513 240.741 437.469 240.816 437.44C240.89 437.411 240.973 437.396 241.064 437.396H264.042V437.382Z" fill="#FAFAFA" fill-opacity="0.4"/>
<path d="M155.239 475.72C166.843 475.72 177.976 471.685 186.19 464.498C190.26 460.938 193.484 456.714 195.689 452.061C197.894 447.408 199.022 442.42 199.03 437.381C199.03 432.342 197.894 427.354 195.698 422.701C193.493 418.048 190.268 413.817 186.207 410.256C182.137 406.696 177.312 403.878 171.999 401.948C166.686 400.025 160.991 399.035 155.247 399.035C149.494 399.035 143.8 400.025 138.486 401.955C133.165 403.878 128.332 406.703 124.262 410.271C120.192 413.839 116.968 418.07 114.771 422.73C112.575 427.376 111.447 432.349 111.447 437.374C111.456 447.546 116.073 457.304 124.287 464.498C132.493 471.685 143.626 475.72 155.239 475.72ZM155.239 416.031C158.43 416.038 161.588 416.592 164.539 417.662C167.498 418.732 170.176 420.305 172.438 422.293C174.71 424.281 176.508 426.633 177.743 429.233C178.962 431.818 179.592 434.585 179.584 437.381C179.584 443.039 177.031 448.457 172.472 452.462C167.904 456.452 161.712 458.695 155.255 458.695C152.064 458.695 148.897 458.149 145.938 457.078C142.979 456.008 140.302 454.442 138.039 452.462C133.48 448.457 130.918 443.032 130.927 437.381C130.927 434.585 131.557 431.818 132.775 429.233C133.994 426.64 135.784 424.288 138.047 422.3C140.31 420.32 142.996 418.747 145.955 417.669C148.889 416.599 152.047 416.038 155.239 416.031Z" fill="#FAFAFA" fill-opacity="0.4"/>
<path d="M403.804 475.72C415.409 475.72 426.541 471.685 434.756 464.498C438.825 460.938 442.05 456.714 444.255 452.061C446.46 447.408 447.587 442.42 447.595 437.381C447.595 432.342 446.468 427.354 444.263 422.701C442.058 418.048 438.834 413.817 434.772 410.256C430.702 406.696 425.878 403.878 420.565 401.948C415.251 400.025 409.557 399.035 403.812 399.035C398.06 399.035 392.365 400.025 387.052 401.955C381.73 403.878 376.898 406.703 372.828 410.271C368.758 413.839 365.533 418.07 363.337 422.73C361.14 427.376 360.013 432.349 360.013 437.374C360.021 447.546 364.638 457.304 372.852 464.498C381.067 471.685 392.199 475.72 403.804 475.72ZM403.804 416.031C406.995 416.038 410.153 416.592 413.104 417.662C416.064 418.732 418.749 420.305 421.004 422.293C423.275 424.281 425.074 426.633 426.309 429.233C427.527 431.818 428.157 434.585 428.149 437.381C428.149 443.039 425.596 448.457 421.037 452.462C416.47 456.452 410.278 458.695 403.821 458.695C400.621 458.695 397.455 458.149 394.504 457.078C391.553 456.008 388.867 454.442 386.604 452.462C382.045 448.457 379.484 443.032 379.492 437.381C379.492 434.585 380.122 431.818 381.341 429.233C382.559 426.64 384.358 424.288 386.612 422.3C388.875 420.32 391.561 418.747 394.52 417.669C397.463 416.599 400.621 416.038 403.804 416.031Z" fill="#FAFAFA" fill-opacity="0.4"/>
<path d="M315.526 473.878C315.542 473.95 315.542 474.023 315.526 474.096C315.509 474.169 315.467 474.234 315.418 474.293C315.36 474.351 315.293 474.395 315.219 474.424C315.144 474.453 315.061 474.467 314.978 474.467H292.001C291.877 474.467 291.752 474.438 291.653 474.365C291.553 474.3 291.487 474.205 291.454 474.096L271.212 401.176C271.195 401.103 271.187 401.031 271.212 400.958C271.229 400.885 271.27 400.819 271.32 400.761C271.369 400.703 271.444 400.659 271.519 400.623C271.593 400.594 271.684 400.579 271.767 400.579H294.745C294.869 400.579 294.993 400.608 295.093 400.674C295.192 400.739 295.259 400.834 295.292 400.943L315.526 473.878Z" fill="#FAFAFA" fill-opacity="0.4"/>
<path d="M356.623 473.878C356.648 473.95 356.648 474.023 356.623 474.096C356.606 474.169 356.565 474.234 356.515 474.293C356.465 474.351 356.391 474.395 356.316 474.424C356.242 474.453 356.159 474.467 356.076 474.467H333.098C332.974 474.467 332.85 474.438 332.75 474.365C332.651 474.3 332.576 474.205 332.551 474.096L312.309 401.176C312.293 401.103 312.293 401.031 312.309 400.958C312.326 400.885 312.367 400.819 312.417 400.761C312.467 400.703 312.541 400.659 312.616 400.623C312.691 400.594 312.773 400.579 312.865 400.579H335.842C335.966 400.579 336.091 400.608 336.19 400.674C336.29 400.739 336.364 400.834 336.389 400.943L356.623 473.878Z" fill="#FAFAFA" fill-opacity="0.4"/>
<path d="M583.645 475.72C595.25 475.72 606.39 471.685 614.596 464.498C618.666 460.938 621.891 456.714 624.096 452.061C626.301 447.408 627.428 442.42 627.436 437.381C627.436 432.342 626.309 427.354 624.104 422.701C621.899 418.048 618.675 413.817 614.613 410.256C610.543 406.696 605.719 403.878 600.405 401.948C595.092 400.025 589.397 399.035 583.653 399.035C577.9 399.035 572.206 400.025 566.893 401.955C561.571 403.878 556.738 406.703 552.668 410.271C548.599 413.839 545.374 418.07 543.177 422.73C540.981 427.376 539.854 432.349 539.854 437.374C539.862 447.546 544.479 457.304 552.693 464.498C560.9 471.685 572.04 475.72 583.645 475.72ZM583.645 416.031C586.836 416.038 590.003 416.592 592.945 417.662C595.904 418.732 598.582 420.305 600.845 422.293C603.116 424.281 604.915 426.633 606.15 429.233C607.368 431.818 607.998 434.585 607.99 437.381C607.99 443.039 605.437 448.457 600.878 452.462C596.311 456.452 590.119 458.695 583.661 458.695C580.462 458.695 577.304 458.149 574.344 457.078C571.394 456.008 568.708 454.442 566.445 452.462C561.886 448.457 559.325 443.032 559.333 437.381C559.333 434.585 559.963 431.818 561.181 429.233C562.4 426.64 564.199 424.288 566.453 422.3C568.716 420.32 571.402 418.747 574.361 417.669C577.304 416.599 580.454 416.038 583.645 416.031Z" fill="#FAFAFA" fill-opacity="0.4"/>
<path d="M495.366 473.878C495.382 473.95 495.382 474.023 495.366 474.096C495.349 474.169 495.307 474.234 495.258 474.293C495.208 474.351 495.133 474.395 495.059 474.424C494.984 474.453 494.901 474.467 494.81 474.467H471.833C471.708 474.467 471.584 474.438 471.485 474.365C471.385 474.3 471.319 474.205 471.286 474.096L451.044 401.176C451.027 401.103 451.027 401.031 451.044 400.958C451.06 400.885 451.102 400.819 451.151 400.761C451.201 400.703 451.276 400.659 451.35 400.623C451.425 400.594 451.516 400.579 451.599 400.579H474.576C474.701 400.579 474.825 400.608 474.925 400.674C475.024 400.739 475.09 400.834 475.123 400.943L495.366 473.878Z" fill="#FAFAFA" fill-opacity="0.4"/>
<path d="M536.462 473.878C536.479 473.95 536.479 474.023 536.462 474.096C536.446 474.169 536.404 474.234 536.355 474.293C536.305 474.351 536.239 474.395 536.156 474.424C536.081 474.453 535.998 474.467 535.915 474.467H512.93C512.805 474.467 512.681 474.438 512.582 474.365C512.482 474.3 512.408 474.205 512.383 474.096L492.141 401.176C492.124 401.103 492.116 401.031 492.141 400.958C492.157 400.885 492.199 400.819 492.248 400.761C492.306 400.703 492.373 400.659 492.447 400.623C492.522 400.594 492.605 400.579 492.696 400.579H515.673C515.798 400.579 515.922 400.608 516.022 400.674C516.121 400.739 516.196 400.834 516.221 400.943L536.462 473.878Z" fill="#FAFAFA" fill-opacity="0.4"/>
<path d="M775.463 400.907C775.463 400.776 775.405 400.66 775.305 400.565C775.206 400.478 775.065 400.427 774.916 400.427H701.218C701.077 400.427 700.936 400.478 700.828 400.565C700.728 400.652 700.662 400.776 700.662 400.907V418.413C700.662 418.537 700.72 418.66 700.828 418.755C700.927 418.842 701.068 418.893 701.218 418.893H726.176C726.317 418.893 726.458 418.944 726.566 419.032C726.665 419.119 726.723 419.243 726.723 419.374V473.805C726.723 473.929 726.781 474.053 726.881 474.14C726.98 474.228 727.121 474.279 727.27 474.279H748.847C748.988 474.279 749.128 474.228 749.236 474.14C749.336 474.053 749.394 473.929 749.394 473.805V419.374C749.394 419.25 749.452 419.126 749.551 419.032C749.651 418.944 749.792 418.893 749.941 418.893H774.908C775.048 418.893 775.189 418.842 775.297 418.755C775.397 418.668 775.455 418.544 775.455 418.413V400.907H775.463Z" fill="#FAFAFA" fill-opacity="0.4"/>
<path d="M708.769 473.711C708.785 473.783 708.785 473.856 708.769 473.929C708.752 474.002 708.711 474.067 708.661 474.126C708.611 474.184 708.545 474.228 708.462 474.257C708.387 474.286 708.304 474.3 708.222 474.3H685.244C685.12 474.3 684.996 474.271 684.896 474.198C684.797 474.133 684.722 474.038 684.697 473.929L664.455 401.009C664.439 400.936 664.43 400.864 664.455 400.791C664.472 400.718 664.513 400.652 664.563 400.594C664.621 400.536 664.687 400.492 664.762 400.456C664.836 400.427 664.919 400.412 665.011 400.412H687.988C688.112 400.412 688.237 400.441 688.336 400.507C688.435 400.572 688.502 400.667 688.535 400.776L708.769 473.711Z" fill="#FAFAFA" fill-opacity="0.4"/>
<path d="M641.552 437.382C641.428 437.382 641.304 437.411 641.204 437.476C641.105 437.542 641.038 437.637 641.005 437.746L631.042 473.711C631.025 473.783 631.025 473.856 631.042 473.929C631.058 474.002 631.1 474.067 631.149 474.126C631.199 474.184 631.274 474.228 631.348 474.257C631.423 474.286 631.506 474.3 631.589 474.3H654.566C654.691 474.3 654.815 474.271 654.914 474.198C655.014 474.133 655.088 474.038 655.113 473.929L665.085 437.957C665.102 437.884 665.11 437.811 665.085 437.739C665.068 437.666 665.027 437.6 664.977 437.542C664.928 437.484 664.853 437.44 664.778 437.411C664.704 437.382 664.621 437.367 664.53 437.367L641.552 437.382Z" fill="#FAFAFA" fill-opacity="0.4"/>
</g>
</g>
</g>
</g>
<path d="M562.019 74V46H585.019V74H580.419V50.4H566.619V74H562.019ZM592.053 71.36C590.026 69.3067 589.013 66.7867 589.013 63.8C589.013 60.8133 590.026 58.3067 592.053 56.28C594.106 54.2267 596.626 53.2 599.613 53.2C602.599 53.2 605.106 54.2267 607.133 56.28C609.186 58.3067 610.213 60.8133 610.213 63.8C610.213 66.7867 609.186 69.3067 607.133 71.36C605.106 73.3867 602.599 74.4 599.613 74.4C596.626 74.4 594.106 73.3867 592.053 71.36ZM595.133 58.88C593.986 60.1067 593.413 61.7467 593.413 63.8C593.413 65.8533 593.986 67.5067 595.133 68.76C596.279 69.9867 597.773 70.6 599.613 70.6C601.453 70.6 602.946 69.9867 604.093 68.76C605.239 67.5067 605.813 65.8533 605.813 63.8C605.813 61.7467 605.239 60.1067 604.093 58.88C602.946 57.6267 601.453 57 599.613 57C597.773 57 596.279 57.6267 595.133 58.88ZM611.606 57.4V53.6H629.406V57.4H622.606V74H618.406V57.4H611.606ZM633.809 71.36C631.809 69.3067 630.809 66.7867 630.809 63.8C630.809 60.8133 631.809 58.3067 633.809 56.28C635.836 54.2267 638.303 53.2 641.209 53.2C644.116 53.2 646.569 54.2267 648.569 56.28C650.596 58.3067 651.609 60.8133 651.609 63.8V65.2H635.009C635.329 66.88 636.063 68.2 637.209 69.16C638.356 70.12 639.689 70.6 641.209 70.6C643.076 70.6 644.569 70.1333 645.689 69.2C646.196 68.8267 646.636 68.36 647.009 67.8H651.409C650.849 69.1067 650.143 70.2133 649.289 71.12C647.103 73.3067 644.409 74.4 641.209 74.4C638.303 74.4 635.836 73.3867 633.809 71.36ZM635.209 61.8H647.209C646.969 60.4667 646.329 59.3333 645.289 58.4C644.276 57.4667 642.916 57 641.209 57C639.769 57 638.489 57.44 637.369 58.32C636.249 59.1733 635.529 60.3333 635.209 61.8ZM655.213 81.6V53.6H659.413V56.2H659.613C660.093 55.64 660.639 55.1467 661.253 54.72C662.693 53.7067 664.279 53.2 666.013 53.2C668.759 53.2 671.039 54.1867 672.853 56.16C674.693 58.1067 675.613 60.6533 675.613 63.8C675.613 66.9467 674.693 69.5067 672.853 71.48C671.039 73.4267 668.759 74.4 666.013 74.4C664.253 74.4 662.666 73.9067 661.253 72.92C660.613 72.4667 660.066 71.96 659.613 71.4H659.413V81.6H655.213ZM660.973 58.8C659.933 59.9733 659.413 61.64 659.413 63.8C659.413 65.96 659.933 67.64 660.973 68.84C662.039 70.0133 663.453 70.6 665.213 70.6C667.079 70.6 668.546 70.0133 669.613 68.84C670.679 67.6667 671.213 65.9867 671.213 63.8C671.213 61.6133 670.679 59.9333 669.613 58.76C668.546 57.5867 667.079 57 665.213 57C663.453 57 662.039 57.6 660.973 58.8ZM679.197 74V53.6H683.397V67.2L683.357 67.6H683.757L692.997 53.6H697.597V74H693.397V60.4L693.437 60H693.037L683.797 74H679.197ZM518.845 118V97.6H524.845L530.245 109.8H531.045L536.445 97.6H542.445V118H538.245V103.6L538.285 103.2H538.085L533.045 114.4H528.245L523.205 103.2H523.005L523.045 103.6V118H518.845ZM548.764 115.48C546.95 113.507 546.044 110.947 546.044 107.8C546.044 104.653 546.95 102.107 548.764 100.16C550.604 98.1867 552.897 97.2 555.644 97.2C557.377 97.2 558.964 97.7067 560.404 98.72C561.017 99.1467 561.564 99.64 562.044 100.2H562.244V97.6H566.444V118H562.244V115.2H562.044C561.644 115.76 561.097 116.293 560.404 116.8C558.964 117.867 557.377 118.4 555.644 118.4C552.897 118.4 550.604 117.427 548.764 115.48ZM552.044 102.76C550.977 103.933 550.444 105.613 550.444 107.8C550.444 109.987 550.977 111.667 552.044 112.84C553.11 114.013 554.577 114.6 556.444 114.6C558.204 114.6 559.604 114.013 560.644 112.84C561.71 111.64 562.244 109.96 562.244 107.8C562.244 105.64 561.71 103.973 560.644 102.8C559.604 101.6 558.204 101 556.444 101C554.577 101 553.11 101.587 552.044 102.76ZM571.228 118V97.6H585.628V101.4H575.428V118H571.228ZM589.936 115.48C588.122 113.507 587.216 110.947 587.216 107.8C587.216 104.653 588.122 102.107 589.936 100.16C591.776 98.1867 594.069 97.2 596.816 97.2C598.549 97.2 600.136 97.7067 601.576 98.72C602.189 99.1467 602.736 99.64 603.216 100.2H603.416V97.6H607.616V118H603.416V115.2H603.216C602.816 115.76 602.269 116.293 601.576 116.8C600.136 117.867 598.549 118.4 596.816 118.4C594.069 118.4 591.776 117.427 589.936 115.48ZM593.216 102.76C592.149 103.933 591.616 105.613 591.616 107.8C591.616 109.987 592.149 111.667 593.216 112.84C594.282 114.013 595.749 114.6 597.616 114.6C599.376 114.6 600.776 114.013 601.816 112.84C602.882 111.64 603.416 109.96 603.416 107.8C603.416 105.64 602.882 103.973 601.816 102.8C600.776 101.6 599.376 101 597.616 101C595.749 101 594.282 101.587 593.216 102.76ZM610.8 111.4H615C615.107 111.933 615.36 112.467 615.76 113C616.613 114.067 617.96 114.6 619.8 114.6C621.24 114.6 622.293 114.36 622.96 113.88C623.653 113.4 624 112.773 624 112C624 111.227 623.653 110.6 622.96 110.12C622.293 109.64 621.24 109.4 619.8 109.4H617.6V105.8H619.8C622.333 105.8 623.6 105 623.6 103.4C623.6 102.733 623.267 102.173 622.6 101.72C621.933 101.24 620.933 101 619.6 101C618.187 101 617.067 101.44 616.24 102.32C615.947 102.667 615.733 103.093 615.6 103.6H611.4C611.693 102.373 612.173 101.307 612.84 100.4C614.387 98.2667 616.707 97.2 619.8 97.2C622.36 97.2 624.333 97.7333 625.72 98.8C627.107 99.8667 627.8 101.2 627.8 102.8C627.8 104.32 627.2 105.493 626 106.32C625.52 106.693 624.92 106.987 624.2 107.2V107.36C624.92 107.52 625.587 107.8 626.2 108.2C627.533 109.107 628.2 110.44 628.2 112.2C628.2 113.987 627.467 115.467 626 116.64C624.56 117.813 622.493 118.4 619.8 118.4C616.227 118.4 613.68 117.24 612.16 114.92C611.44 113.827 610.987 112.653 610.8 111.4ZM632.009 118V97.6H636.209V111.2L636.169 111.6H636.569L645.809 97.6H650.409V118H646.209V104.4L646.249 104H645.849L636.609 118H632.009ZM655.213 118V97.6H659.413V105.8H669.413V97.6H673.613V118H669.413V109.6H659.413V118H655.213ZM679.936 115.48C678.122 113.507 677.216 110.947 677.216 107.8C677.216 104.653 678.122 102.107 679.936 100.16C681.776 98.1867 684.069 97.2 686.816 97.2C688.549 97.2 690.136 97.7067 691.576 98.72C692.189 99.1467 692.736 99.64 693.216 100.2H693.416V97.6H697.616V118H693.416V115.2H693.216C692.816 115.76 692.269 116.293 691.576 116.8C690.136 117.867 688.549 118.4 686.816 118.4C684.069 118.4 681.776 117.427 679.936 115.48ZM683.216 102.76C682.149 103.933 681.616 105.613 681.616 107.8C681.616 109.987 682.149 111.667 683.216 112.84C684.282 114.013 685.749 114.6 687.616 114.6C689.376 114.6 690.776 114.013 691.816 112.84C692.882 111.64 693.416 109.96 693.416 107.8C693.416 105.64 692.882 103.973 691.816 102.8C690.776 101.6 689.376 101 687.616 101C685.749 101 684.282 101.587 683.216 102.76Z" fill="black"/>
<rect x="100" y="66" width="60" height="378" fill="#DF192C"/>
<rect x="200" y="302" width="60" height="142" fill="#F9B3BA"/>
<rect x="300" y="376" width="60" height="68" fill="#15141D"/>
<rect x="400" y="410" width="60" height="34" fill="#C1C1C1"/>
<rect x="500" y="416" width="60" height="28" fill="#E2E5EE"/>
<rect x="600" y="416" width="60" height="28" fill="#F6F7FA"/>
<path opacity="0.76" d="M114.8 52.96H116.24C116.336 53.3547 116.501 53.6907 116.736 53.968C117.269 54.6293 118.037 54.96 119.04 54.96C119.861 54.96 120.517 54.7307 121.008 54.272C121.509 53.8133 121.76 53.216 121.76 52.48C121.76 51.744 121.509 51.1467 121.008 50.688C120.517 50.2293 119.861 50 119.04 50C118.304 50 117.669 50.2027 117.136 50.608C116.912 50.768 116.72 50.9653 116.56 51.2H115.28L115.76 44.8H122.4V46.16H116.96L116.72 49.424V49.44C116.901 49.28 117.104 49.1467 117.328 49.04C117.925 48.7733 118.549 48.64 119.2 48.64C120.352 48.64 121.307 49.008 122.064 49.744C122.821 50.48 123.2 51.392 123.2 52.48C123.2 53.5787 122.811 54.496 122.032 55.232C121.264 55.9573 120.267 56.32 119.04 56.32C117.461 56.32 116.283 55.76 115.504 54.64C115.141 54.1387 114.907 53.5787 114.8 52.96ZM124.484 52.4C124.484 51.8773 124.58 51.36 124.772 50.848C124.964 50.336 125.161 49.9307 125.364 49.632C125.577 49.3227 125.897 48.8853 126.324 48.32L129.044 44.8H130.724L127.764 48.544L127.7 48.624L127.684 48.64C128.004 48.5333 128.377 48.48 128.804 48.48C129.988 48.48 130.974 48.864 131.764 49.632C132.564 50.3893 132.964 51.312 132.964 52.4C132.964 53.4987 132.564 54.4267 131.764 55.184C130.964 55.9413 129.95 56.32 128.724 56.32C127.497 56.32 126.484 55.9413 125.684 55.184C124.884 54.4267 124.484 53.4987 124.484 52.4ZM126.692 50.576C126.18 51.056 125.924 51.664 125.924 52.4C125.924 53.136 126.18 53.7493 126.692 54.24C127.214 54.72 127.892 54.96 128.724 54.96C129.556 54.96 130.228 54.72 130.74 54.24C131.262 53.7493 131.524 53.136 131.524 52.4C131.524 51.664 131.262 51.056 130.74 50.576C130.228 50.0853 129.556 49.84 128.724 49.84C127.892 49.84 127.214 50.0853 126.692 50.576ZM135.017 49.152C134.505 48.6293 134.249 48.0053 134.249 47.28C134.249 46.5547 134.505 45.936 135.017 45.424C135.54 44.9013 136.164 44.64 136.889 44.64C137.615 44.64 138.233 44.9013 138.745 45.424C139.268 45.936 139.529 46.5547 139.529 47.28C139.529 48.0053 139.268 48.6293 138.745 49.152C138.233 49.664 137.615 49.92 136.889 49.92C136.164 49.92 135.54 49.664 135.017 49.152ZM135.689 56L142.409 44.8H143.769L137.049 56H135.689ZM135.849 46.192C135.583 46.4693 135.449 46.832 135.449 47.28C135.449 47.728 135.583 48.096 135.849 48.384C136.127 48.6613 136.473 48.8 136.889 48.8C137.305 48.8 137.647 48.6613 137.913 48.384C138.191 48.096 138.329 47.728 138.329 47.28C138.329 46.832 138.191 46.4693 137.913 46.192C137.647 45.904 137.305 45.76 136.889 45.76C136.473 45.76 136.127 45.904 135.849 46.192ZM140.697 55.392C140.185 54.8693 139.929 54.2453 139.929 53.52C139.929 52.7947 140.185 52.176 140.697 51.664C141.22 51.1413 141.844 50.88 142.569 50.88C143.295 50.88 143.913 51.1413 144.425 51.664C144.948 52.176 145.209 52.7947 145.209 53.52C145.209 54.2453 144.948 54.8693 144.425 55.392C143.913 55.904 143.295 56.16 142.569 56.16C141.844 56.16 141.22 55.904 140.697 55.392ZM141.529 52.432C141.263 52.7093 141.129 53.072 141.129 53.52C141.129 53.968 141.263 54.336 141.529 54.624C141.807 54.9013 142.153 55.04 142.569 55.04C142.985 55.04 143.327 54.9013 143.593 54.624C143.871 54.336 144.009 53.968 144.009 53.52C144.009 53.072 143.871 52.7093 143.593 52.432C143.327 52.144 142.985 52 142.569 52C142.153 52 141.807 52.144 141.529 52.432Z" fill="black"/>
<path opacity="0.76" d="M217.48 292V290.64L221.16 287.92C222.173 287.163 222.893 286.512 223.32 285.968C223.747 285.424 223.96 284.795 223.96 284.08C223.96 283.429 223.736 282.896 223.288 282.48C222.851 282.053 222.275 281.84 221.56 281.84C220.643 281.84 219.96 282.213 219.512 282.96C219.299 283.301 219.155 283.675 219.08 284.08H217.56C217.656 283.419 217.864 282.821 218.184 282.288C218.941 281.083 220.067 280.48 221.56 280.48C222.669 280.48 223.587 280.827 224.312 281.52C225.037 282.213 225.4 283.067 225.4 284.08C225.4 285.051 225.123 285.904 224.568 286.64C224.024 287.365 223.208 288.112 222.12 288.88L219.8 290.528L219.64 290.624V290.656L219.784 290.64H225.4V292H217.48ZM226.525 284.08V282.48L228.685 280.8H229.965V292H228.525V282.56L226.525 284.08ZM232.658 285.152C232.146 284.629 231.89 284.005 231.89 283.28C231.89 282.555 232.146 281.936 232.658 281.424C233.181 280.901 233.805 280.64 234.53 280.64C235.255 280.64 235.874 280.901 236.386 281.424C236.909 281.936 237.17 282.555 237.17 283.28C237.17 284.005 236.909 284.629 236.386 285.152C235.874 285.664 235.255 285.92 234.53 285.92C233.805 285.92 233.181 285.664 232.658 285.152ZM233.33 292L240.05 280.8H241.41L234.69 292H233.33ZM233.49 282.192C233.223 282.469 233.09 282.832 233.09 283.28C233.09 283.728 233.223 284.096 233.49 284.384C233.767 284.661 234.114 284.8 234.53 284.8C234.946 284.8 235.287 284.661 235.554 284.384C235.831 284.096 235.97 283.728 235.97 283.28C235.97 282.832 235.831 282.469 235.554 282.192C235.287 281.904 234.946 281.76 234.53 281.76C234.114 281.76 233.767 281.904 233.49 282.192ZM238.338 291.392C237.826 290.869 237.57 290.245 237.57 289.52C237.57 288.795 237.826 288.176 238.338 287.664C238.861 287.141 239.485 286.88 240.21 286.88C240.935 286.88 241.554 287.141 242.066 287.664C242.589 288.176 242.85 288.795 242.85 289.52C242.85 290.245 242.589 290.869 242.066 291.392C241.554 291.904 240.935 292.16 240.21 292.16C239.485 292.16 238.861 291.904 238.338 291.392ZM239.17 288.432C238.903 288.709 238.77 289.072 238.77 289.52C238.77 289.968 238.903 290.336 239.17 290.624C239.447 290.901 239.794 291.04 240.21 291.04C240.626 291.04 240.967 290.901 241.234 290.624C241.511 290.336 241.65 289.968 241.65 289.52C241.65 289.072 241.511 288.709 241.234 288.432C240.967 288.144 240.626 288 240.21 288C239.794 288 239.447 288.144 239.17 288.432Z" fill="black"/>
<path opacity="0.76" d="M315.798 358.08V356.48L317.958 354.8H319.238V366H317.798V356.56L315.798 358.08ZM322.875 364.672C321.894 363.573 321.403 362.149 321.403 360.4C321.403 358.651 321.894 357.227 322.875 356.128C323.857 355.029 325.046 354.48 326.443 354.48C327.841 354.48 329.03 355.029 330.011 356.128C330.993 357.227 331.483 358.651 331.483 360.4C331.483 362.149 330.993 363.573 330.011 364.672C329.03 365.771 327.841 366.32 326.443 366.32C325.046 366.32 323.857 365.771 322.875 364.672ZM323.851 357.056C323.179 357.856 322.843 358.971 322.843 360.4C322.843 361.829 323.179 362.949 323.851 363.76C324.534 364.56 325.398 364.96 326.443 364.96C327.489 364.96 328.347 364.56 329.019 363.76C329.702 362.949 330.043 361.829 330.043 360.4C330.043 358.971 329.702 357.856 329.019 357.056C328.347 356.245 327.489 355.84 326.443 355.84C325.398 355.84 324.534 356.245 323.851 357.056ZM333.775 359.152C333.263 358.629 333.007 358.005 333.007 357.28C333.007 356.555 333.263 355.936 333.775 355.424C334.298 354.901 334.922 354.64 335.647 354.64C336.373 354.64 336.991 354.901 337.503 355.424C338.026 355.936 338.287 356.555 338.287 357.28C338.287 358.005 338.026 358.629 337.503 359.152C336.991 359.664 336.373 359.92 335.647 359.92C334.922 359.92 334.298 359.664 333.775 359.152ZM334.447 366L341.167 354.8H342.527L335.807 366H334.447ZM334.607 356.192C334.341 356.469 334.207 356.832 334.207 357.28C334.207 357.728 334.341 358.096 334.607 358.384C334.885 358.661 335.231 358.8 335.647 358.8C336.063 358.8 336.405 358.661 336.671 358.384C336.949 358.096 337.087 357.728 337.087 357.28C337.087 356.832 336.949 356.469 336.671 356.192C336.405 355.904 336.063 355.76 335.647 355.76C335.231 355.76 334.885 355.904 334.607 356.192ZM339.455 365.392C338.943 364.869 338.687 364.245 338.687 363.52C338.687 362.795 338.943 362.176 339.455 361.664C339.978 361.141 340.602 360.88 341.327 360.88C342.053 360.88 342.671 361.141 343.183 361.664C343.706 362.176 343.967 362.795 343.967 363.52C343.967 364.245 343.706 364.869 343.183 365.392C342.671 365.904 342.053 366.16 341.327 366.16C340.602 366.16 339.978 365.904 339.455 365.392ZM340.287 362.432C340.021 362.709 339.887 363.072 339.887 363.52C339.887 363.968 340.021 364.336 340.287 364.624C340.565 364.901 340.911 365.04 341.327 365.04C341.743 365.04 342.085 364.901 342.351 364.624C342.629 364.336 342.767 363.968 342.767 363.52C342.767 363.072 342.629 362.709 342.351 362.432C342.085 362.144 341.743 362 341.327 362C340.911 362 340.565 362.144 340.287 362.432Z" fill="black"/>
<path opacity="0.76" d="M420.261 396.96H421.701C421.797 397.355 421.962 397.691 422.197 397.968C422.73 398.629 423.498 398.96 424.501 398.96C425.322 398.96 425.978 398.731 426.469 398.272C426.97 397.813 427.221 397.216 427.221 396.48C427.221 395.744 426.97 395.147 426.469 394.688C425.978 394.229 425.322 394 424.501 394C423.765 394 423.13 394.203 422.597 394.608C422.373 394.768 422.181 394.965 422.021 395.2H420.741L421.221 388.8H427.861V390.16H422.421L422.181 393.424V393.44C422.362 393.28 422.565 393.147 422.789 393.04C423.386 392.773 424.01 392.64 424.661 392.64C425.813 392.64 426.768 393.008 427.525 393.744C428.282 394.48 428.661 395.392 428.661 396.48C428.661 397.579 428.272 398.496 427.493 399.232C426.725 399.957 425.728 400.32 424.501 400.32C422.922 400.32 421.744 399.76 420.965 398.64C420.602 398.139 420.368 397.579 420.261 396.96ZM430.713 393.152C430.201 392.629 429.945 392.005 429.945 391.28C429.945 390.555 430.201 389.936 430.713 389.424C431.235 388.901 431.859 388.64 432.585 388.64C433.31 388.64 433.929 388.901 434.441 389.424C434.963 389.936 435.225 390.555 435.225 391.28C435.225 392.005 434.963 392.629 434.441 393.152C433.929 393.664 433.31 393.92 432.585 393.92C431.859 393.92 431.235 393.664 430.713 393.152ZM431.385 400L438.105 388.8H439.465L432.745 400H431.385ZM431.545 390.192C431.278 390.469 431.145 390.832 431.145 391.28C431.145 391.728 431.278 392.096 431.545 392.384C431.822 392.661 432.169 392.8 432.585 392.8C433.001 392.8 433.342 392.661 433.609 392.384C433.886 392.096 434.025 391.728 434.025 391.28C434.025 390.832 433.886 390.469 433.609 390.192C433.342 389.904 433.001 389.76 432.585 389.76C432.169 389.76 431.822 389.904 431.545 390.192ZM436.393 399.392C435.881 398.869 435.625 398.245 435.625 397.52C435.625 396.795 435.881 396.176 436.393 395.664C436.915 395.141 437.539 394.88 438.265 394.88C438.99 394.88 439.609 395.141 440.121 395.664C440.643 396.176 440.905 396.795 440.905 397.52C440.905 398.245 440.643 398.869 440.121 399.392C439.609 399.904 438.99 400.16 438.265 400.16C437.539 400.16 436.915 399.904 436.393 399.392ZM437.225 396.432C436.958 396.709 436.825 397.072 436.825 397.52C436.825 397.968 436.958 398.336 437.225 398.624C437.502 398.901 437.849 399.04 438.265 399.04C438.681 399.04 439.022 398.901 439.289 398.624C439.566 398.336 439.705 397.968 439.705 397.52C439.705 397.072 439.566 396.709 439.289 396.432C439.022 396.144 438.681 396 438.265 396C437.849 396 437.502 396.144 437.225 396.432Z" fill="black"/>
<path opacity="0.76" d="M518.523 403.6V402.24L522.443 394.8H524.043L520.123 402.24H524.363V399.36H524.443H525.803V402.24H527.483V403.6H525.803V406H524.363V403.6H518.523ZM528.971 399.152C528.459 398.629 528.203 398.005 528.203 397.28C528.203 396.555 528.459 395.936 528.971 395.424C529.493 394.901 530.117 394.64 530.843 394.64C531.568 394.64 532.187 394.901 532.699 395.424C533.221 395.936 533.483 396.555 533.483 397.28C533.483 398.005 533.221 398.629 532.699 399.152C532.187 399.664 531.568 399.92 530.843 399.92C530.117 399.92 529.493 399.664 528.971 399.152ZM529.643 406L536.363 394.8H537.723L531.003 406H529.643ZM529.803 396.192C529.536 396.469 529.403 396.832 529.403 397.28C529.403 397.728 529.536 398.096 529.803 398.384C530.08 398.661 530.427 398.8 530.843 398.8C531.259 398.8 531.6 398.661 531.867 398.384C532.144 398.096 532.283 397.728 532.283 397.28C532.283 396.832 532.144 396.469 531.867 396.192C531.6 395.904 531.259 395.76 530.843 395.76C530.427 395.76 530.08 395.904 529.803 396.192ZM534.651 405.392C534.139 404.869 533.883 404.245 533.883 403.52C533.883 402.795 534.139 402.176 534.651 401.664C535.173 401.141 535.797 400.88 536.523 400.88C537.248 400.88 537.867 401.141 538.379 401.664C538.901 402.176 539.163 402.795 539.163 403.52C539.163 404.245 538.901 404.869 538.379 405.392C537.867 405.904 537.248 406.16 536.523 406.16C535.797 406.16 535.173 405.904 534.651 405.392ZM535.483 402.432C535.216 402.709 535.083 403.072 535.083 403.52C535.083 403.968 535.216 404.336 535.483 404.624C535.76 404.901 536.107 405.04 536.523 405.04C536.939 405.04 537.28 404.901 537.547 404.624C537.824 404.336 537.963 403.968 537.963 403.52C537.963 403.072 537.824 402.709 537.547 402.432C537.28 402.144 536.939 402 536.523 402C536.107 402 535.76 402.144 535.483 402.432Z" fill="black"/>
<path opacity="0.76" d="M619.523 403.6V402.24L623.443 394.8H625.043L621.123 402.24H625.363V399.36H625.443H626.803V402.24H628.483V403.6H626.803V406H625.363V403.6H619.523ZM629.971 399.152C629.459 398.629 629.203 398.005 629.203 397.28C629.203 396.555 629.459 395.936 629.971 395.424C630.493 394.901 631.117 394.64 631.843 394.64C632.568 394.64 633.187 394.901 633.699 395.424C634.221 395.936 634.483 396.555 634.483 397.28C634.483 398.005 634.221 398.629 633.699 399.152C633.187 399.664 632.568 399.92 631.843 399.92C631.117 399.92 630.493 399.664 629.971 399.152ZM630.643 406L637.363 394.8H638.723L632.003 406H630.643ZM630.803 396.192C630.536 396.469 630.403 396.832 630.403 397.28C630.403 397.728 630.536 398.096 630.803 398.384C631.08 398.661 631.427 398.8 631.843 398.8C632.259 398.8 632.6 398.661 632.867 398.384C633.144 398.096 633.283 397.728 633.283 397.28C633.283 396.832 633.144 396.469 632.867 396.192C632.6 395.904 632.259 395.76 631.843 395.76C631.427 395.76 631.08 395.904 630.803 396.192ZM635.651 405.392C635.139 404.869 634.883 404.245 634.883 403.52C634.883 402.795 635.139 402.176 635.651 401.664C636.173 401.141 636.797 400.88 637.523 400.88C638.248 400.88 638.867 401.141 639.379 401.664C639.901 402.176 640.163 402.795 640.163 403.52C640.163 404.245 639.901 404.869 639.379 405.392C638.867 405.904 638.248 406.16 637.523 406.16C636.797 406.16 636.173 405.904 635.651 405.392ZM636.483 402.432C636.216 402.709 636.083 403.072 636.083 403.52C636.083 403.968 636.216 404.336 636.483 404.624C636.76 404.901 637.107 405.04 637.523 405.04C637.939 405.04 638.28 404.901 638.547 404.624C638.824 404.336 638.963 403.968 638.963 403.52C638.963 403.072 638.824 402.709 638.547 402.432C638.28 402.144 637.939 402 637.523 402C637.107 402 636.76 402.144 636.483 402.432Z" fill="black"/>
<defs>
<clipPath id="clip0_8_4106">
<rect width="1061" height="167.35" fill="white" transform="translate(-155.502 -31.7686)"/>
</clipPath>
<clipPath id="clip1_8_4106">
<rect width="1061" height="167.35" fill="white" transform="translate(-155.502 138.301)"/>
</clipPath>
<clipPath id="clip2_8_4106">
<rect width="1061" height="167.35" fill="white" transform="translate(-155.502 308.37)"/>
</clipPath>
</defs>
</svg>
