<?xml version="1.0" encoding="UTF-8"?> <svg xmlns="http://www.w3.org/2000/svg" width="60" height="60" viewBox="0 0 60 60" fill="none"> <circle cx="30" cy="30" r="30" fill="#DF192C"></circle> <path d="M30.1682 28.7944C22.3551 28.7944 16 35.1495 16 42.9626C16 43.2617 16.2617 43.5233 16.5607 43.5233H24C25.2336 45.5794 27.4766 47 30.0187 47C32.5607 47 34.8411 45.6168 36.0374 43.5233H43.7383C44.0374 43.5233 44.2991 43.2617 44.2991 42.9626C44.3365 35.1495 37.9813 28.7944 30.1682 28.7944ZM17.1589 42.4018C17.3458 38.0654 19.6262 34.2897 23.028 32.0467V39.9719C23.028 40.8318 23.1776 41.6168 23.4766 42.4018H17.1589ZM30.0187 45.8411C26.7664 45.8411 24.1495 43.1869 24.1495 39.9719V31.3738C25.9439 30.4392 28 29.8785 30.1682 29.8785C32.2243 29.8785 34.1682 30.3645 35.9252 31.2243V39.9346C35.9252 40.9065 35.7009 41.8037 35.2897 42.5888C35.2523 42.6261 35.2523 42.6635 35.215 42.7009C34.2056 44.6075 32.2617 45.8411 30.0187 45.8411ZM36.5981 42.4018C36.8598 41.6542 37.0467 40.8318 37.0467 39.9719V31.8598C40.5981 34.0654 43.028 37.9533 43.215 42.3645H36.5981V42.4018Z" fill="white"></path> <path d="M29.9439 27.2617C34.4299 27.2617 38.0934 23.5981 38.0934 19.1122C38.0934 18.9252 38.0934 18.7383 38.0561 18.5514H41.2336C41.5327 18.5514 41.7944 18.2897 41.7944 17.9907C41.7944 17.6916 41.5327 17.4299 41.2336 17.4299H37.9065C37.1215 13.7664 33.8318 11 29.9439 11C25.4579 11 21.7944 14.6636 21.7944 19.1495C21.7944 23.5981 25.4579 27.2617 29.9439 27.2617ZM29.9439 12.1215C33.2336 12.1215 36 14.4019 36.7476 17.4673H23.1402C23.8878 14.4019 26.6542 12.1215 29.9439 12.1215ZM22.9533 18.5888H36.8972C36.8972 18.7757 36.9346 18.9626 36.9346 19.1495C36.9346 23 33.7944 26.1776 29.9065 26.1776C26.0187 26.1776 22.9159 23 22.9159 19.1122C22.9159 18.9252 22.9159 18.7383 22.9533 18.5888Z" fill="white"></path> <path d="M29.5 46C23.9 46.4 23.5 36.5 24 31.5C26.4 29.1 33 30.1666 36 31C37 36.5 36.5 45.5 29.5 46Z" fill="white" stroke="white"></path> </svg> 