<?xml version="1.0" encoding="UTF-8"?> <svg xmlns="http://www.w3.org/2000/svg" width="60" height="60" viewBox="0 0 60 60" fill="none"> <circle cx="30" cy="30" r="30" fill="#DF192C"></circle> <path d="M35.8549 14.0908C35.7698 14.0374 35.6726 14.0064 35.5722 14.0009C35.4719 13.9954 35.3718 14.0154 35.2813 14.0591L22.9938 19.9615H12.5934C12.436 19.9615 12.2851 20.0241 12.1738 20.1353C12.0625 20.2466 12 20.3976 12 20.5549V31.6319C12 31.6319 12 31.6556 12 31.6675C12.0009 31.7091 12.0075 31.7504 12.0198 31.7901C12.0198 31.7901 12.0198 31.8257 12.0198 31.8455C12.0277 31.8671 12.037 31.8883 12.0475 31.9088V31.9404L20.3235 45.7866C20.3763 45.8748 20.4511 45.9478 20.5405 45.9984C20.63 46.0491 20.7311 46.0756 20.8338 46.0754H26.4396C26.5446 46.0756 26.6478 46.0479 26.7386 45.9951C26.8295 45.9424 26.9047 45.8665 26.9566 45.7752C27.0084 45.6838 27.0352 45.5804 27.034 45.4754C27.0328 45.3703 27.0038 45.2675 26.9499 45.1774L19.2119 32.2253H23.0255L35.2892 38.1C35.3793 38.1417 35.4784 38.1601 35.5774 38.1536C35.6765 38.1471 35.7723 38.1158 35.8562 38.0627C35.94 38.0096 36.0092 37.9362 36.0573 37.8495C36.1055 37.7627 36.1311 37.6652 36.1319 37.5659V14.5932C36.1319 14.4929 36.1066 14.3942 36.0582 14.3063C36.0097 14.2184 35.9398 14.1443 35.8549 14.0908ZM13.1868 21.1484H22.6813V31.0385H13.1868V21.1484ZM25.3952 44.8846H21.2057L13.6378 32.2253H17.8273L25.3952 44.8846ZM34.9451 36.6204L23.8681 31.3154V20.8596L34.9451 15.5347V36.6204Z" fill="white"></path> <path d="M42.2612 18.3812C42.3865 18.3809 42.5084 18.3407 42.6093 18.2665L46.961 15.1016C47.0884 15.0093 47.174 14.8701 47.1989 14.7147C47.2237 14.5592 47.1858 14.4003 47.0935 14.2728C47.0012 14.1453 46.862 14.0598 46.7065 14.0349C46.5511 14.0101 46.3922 14.048 46.2647 14.1403L41.9131 17.3051C41.8123 17.3789 41.7374 17.4827 41.699 17.6015C41.6607 17.7204 41.6608 17.8483 41.6994 17.9671C41.7379 18.0859 41.813 18.1895 41.9139 18.2631C42.0148 18.3367 42.1363 18.3767 42.2612 18.3772V18.3812Z" fill="white"></path> <path d="M47.4066 21.5439H41.4726C41.3152 21.5439 41.1642 21.6065 41.053 21.7177C40.9417 21.829 40.8792 21.98 40.8792 22.1374C40.8792 22.2947 40.9417 22.4457 41.053 22.557C41.1642 22.6682 41.3152 22.7308 41.4726 22.7308H47.4066C47.564 22.7308 47.7149 22.6682 47.8262 22.557C47.9375 22.4457 48 22.2947 48 22.1374C48 21.98 47.9375 21.829 47.8262 21.7177C47.7149 21.6065 47.564 21.5439 47.4066 21.5439Z" fill="white"></path> <path d="M46.1723 32.9334L41.8206 29.7686C41.7575 29.7229 41.686 29.69 41.6102 29.672C41.5344 29.6539 41.4558 29.6509 41.3788 29.6632C41.3018 29.6755 41.2281 29.7029 41.1617 29.7437C41.0953 29.7845 41.0376 29.838 40.9919 29.9011C40.9461 29.9642 40.9133 30.0357 40.8952 30.1116C40.8771 30.1874 40.8742 30.266 40.8865 30.343C40.8988 30.4199 40.9261 30.4937 40.9669 30.5601C41.0078 30.6265 41.0613 30.6842 41.1244 30.7299L45.476 33.8947C45.5392 33.9405 45.6107 33.9733 45.6865 33.9914C45.7623 34.0095 45.8409 34.0124 45.9179 34.0001C45.9948 33.9878 46.0686 33.9605 46.135 33.9197C46.2014 33.8788 46.2591 33.8253 46.3048 33.7622C46.3505 33.6991 46.3834 33.6276 46.4015 33.5518C46.4195 33.476 46.4225 33.3973 46.4102 33.3204C46.3979 33.2434 46.3706 33.1696 46.3297 33.1032C46.2889 33.0368 46.2354 32.9791 46.1723 32.9334Z" fill="white"></path> <rect x="13.1868" y="20.7253" width="9.49451" height="10.2857" fill="white"></rect> </svg> 