<?xml version="1.0" encoding="UTF-8"?> <svg xmlns="http://www.w3.org/2000/svg" width="100" height="28" viewBox="0 0 100 28" fill="none"> <path fill-rule="evenodd" clip-rule="evenodd" d="M61.2707 2.53375e-07C65.0399 2.53375e-07 68.6552 1.47561 71.3205 4.10219C73.9857 6.72877 75.483 10.2913 75.483 14.0058C75.48 17.7184 73.9812 21.2778 71.3162 23.9019C68.6511 26.526 65.0382 28 61.2707 28C57.5027 28.0005 53.889 26.5269 51.2235 23.9028C48.5579 21.2786 47.059 17.7188 47.0558 14.0058C47.0558 12.1664 47.4234 10.345 48.1378 8.64553C48.8524 6.94612 49.8996 5.40191 51.2194 4.10131C52.5396 2.80088 54.1064 1.76925 55.831 1.0654C57.5557 0.361728 59.404 -0.00034966 61.2707 2.53375e-07ZM61.2707 6.2064C60.2317 6.2064 59.2029 6.40818 58.2433 6.80018C57.2837 7.19235 56.4119 7.76688 55.6776 8.49139C54.9433 9.21572 54.3614 10.0756 53.9645 11.0217C53.5679 11.9681 53.3642 12.9821 53.3655 14.0059C53.366 16.0716 54.1994 18.0523 55.6817 19.5129C57.1642 20.9733 59.1744 21.7937 61.2707 21.7937C63.3667 21.7937 65.3768 20.9733 66.8589 19.5127C68.3408 18.0522 69.1736 16.0714 69.1736 14.0059C69.1751 12.9823 68.9716 11.9683 68.5754 11.0219C68.1787 10.0758 67.5971 9.21589 66.8628 8.49139C66.1289 7.76706 65.2571 7.19235 64.2978 6.80035C63.338 6.40818 62.3094 6.2064 61.2707 6.2064Z" fill="#DF192C"></path> <path d="M18.6522 0.595429C18.6214 0.541131 18.5629 0.505737 18.4974 0.505737H11.0326L10.9854 0.511939C10.8956 0.536162 10.8367 0.627682 10.8599 0.722036L17.4254 27.3493L17.4429 27.3933C17.4737 27.4477 17.5324 27.4829 17.5979 27.4829H25.0605L25.1076 27.4767C25.1973 27.4526 25.2562 27.3612 25.2328 27.2666L18.6696 0.639439L18.6522 0.595429Z" fill="#DF192C"></path> <path d="M46.874 0.634234C46.8534 0.560184 46.7844 0.505737 46.7028 0.505737H22.7828L22.7357 0.511992C22.6606 0.532374 22.6052 0.60024 22.6052 0.680738V7.07368L22.6116 7.12018C22.6323 7.19423 22.7013 7.24868 22.7828 7.24868H30.8843L30.9316 7.25493C31.0068 7.27532 31.0619 7.34317 31.0619 7.42368V27.3079L31.0683 27.3545C31.089 27.4286 31.1578 27.4829 31.2395 27.4829H38.2437L38.291 27.4767C38.3662 27.4563 38.4213 27.3885 38.4213 27.3079V7.42368L38.4277 7.37717C38.4484 7.30312 38.5173 7.24868 38.5988 7.24868H46.7028L46.7499 7.24243C46.825 7.22203 46.8804 7.15418 46.8804 7.07368V0.680738L46.874 0.634234Z" fill="#DF192C"></path> <path d="M10.8805 13.9965C10.9791 13.9965 11.0555 14.0746 11.0581 14.1663L11.0532 14.213L7.81476 27.3492C7.79927 27.412 7.75059 27.4599 7.68983 27.4765L7.64232 27.4829H0.177643C0.0790082 27.4829 0.00268393 27.4049 0 27.3133L0.00503237 27.2666L3.24343 14.1302C3.25892 14.0675 3.30759 14.0196 3.36835 14.0028L3.41586 13.9965H10.8805Z" fill="#DF192C"></path> <path d="M89.1459 0.67534C89.1433 0.583654 89.0669 0.505737 88.9684 0.505737H81.5035L81.456 0.512114C81.3951 0.528779 81.3463 0.576717 81.3309 0.639439L74.7678 27.2666L74.7627 27.3133C74.7654 27.405 74.8416 27.4829 74.9404 27.4829H82.4051L82.4527 27.4765C82.5135 27.4599 82.5621 27.4121 82.5775 27.3493L89.1406 0.722036L89.1459 0.67534Z" fill="#DF192C"></path> <path d="M96.5843 13.9965C96.65 13.9965 96.7086 14.0319 96.7388 14.0862L96.7565 14.1302L99.9948 27.2666C100.019 27.361 99.9593 27.4525 99.8697 27.4767L99.8226 27.4829H92.3598C92.295 27.4829 92.2364 27.4475 92.2054 27.3932L92.1876 27.3492L88.9493 14.213C88.9262 14.1185 88.9848 14.0269 89.0745 14.0027L89.1215 13.9965H96.5843Z" fill="#DF192C"></path> </svg> 