<?xml version="1.0" encoding="UTF-8"?> <svg xmlns="http://www.w3.org/2000/svg" width="60" height="60" viewBox="0 0 60 60" fill="none"> <circle cx="30" cy="30" r="30" fill="#DF192C"></circle> <path d="M33.4624 28.9098C33.4891 28.9098 33.4891 28.9098 33.5157 28.9098C33.5424 28.9098 33.5691 28.9098 33.5958 28.9098C34.6361 30.4036 36.3432 31.3372 38.2371 31.3372C40.2377 31.3372 41.9982 30.2969 43.0118 28.7231C43.732 28.563 44.4789 27.4694 44.6123 27.2293C45.039 26.5091 45.2258 25.8689 45.2258 25.042C45.2258 21.1476 42.0515 18 38.1837 18H38.1571C34.2626 18 31.0884 21.1476 31.0884 25.042V26.5358C31.0884 27.176 31.3551 27.7895 31.8086 28.2429C32.262 28.6697 32.8489 28.9098 33.4624 28.9098ZM38.2371 30.5369C36.3432 30.5369 34.6361 29.4433 33.8358 27.7094L34.2626 27.4427C35.5963 26.5891 37.1434 25.6289 38.0504 24.6686C39.4908 23.1748 40.5578 22.0278 40.9312 21.6277C42.2916 22.508 43.1185 24.0284 43.1185 25.6822C43.0918 28.3496 40.9045 30.5369 38.2371 30.5369ZM31.8886 25.042C31.8886 21.601 34.6894 18.8002 38.1304 18.8002H38.1571C41.5981 18.8002 44.3989 21.601 44.3989 25.042C44.3989 25.6022 44.3188 26.109 43.9187 26.8025C43.8387 26.9092 43.7587 27.0159 43.6787 27.1493C43.812 26.6958 43.8654 26.2157 43.8654 25.7089C43.8654 23.7883 42.8784 22.0011 41.278 20.9608C41.0912 20.8275 40.9045 20.8008 40.7445 20.8008C40.5578 20.8275 40.4511 20.9608 40.2643 21.1476C39.8642 21.5744 38.8239 22.668 37.4369 24.1351C36.5833 25.0153 35.0362 26.0023 33.8092 26.7758L33.3557 27.0693C33.1956 27.176 33.089 27.336 33.0356 27.5227C32.9823 27.6028 32.9556 27.7361 33.0089 27.8428C33.0089 27.9228 33.0089 27.9762 33.0089 28.0562C32.7689 27.9762 32.5288 27.8428 32.3421 27.6561C32.0487 27.3627 31.8619 26.9626 31.8619 26.5358L31.8886 25.042Z" fill="white"></path> <path d="M38.1571 32.2174C32.7422 32.2174 28.3409 36.6187 28.3409 42.0336C28.3409 42.2469 28.5277 42.4337 28.7411 42.4337H47.5998C47.8132 42.4337 47.9999 42.2469 47.9999 42.0336C47.9732 36.6187 43.572 32.2174 38.1571 32.2174ZM43.0918 34.4847C42.3716 36.592 40.3977 38.0057 38.1571 38.0057C35.9164 38.0057 33.9425 36.592 33.2223 34.4847C34.6361 33.5511 36.3432 33.0176 38.1571 33.0176C39.9709 33.0176 41.6781 33.5511 43.0918 34.4847ZM29.1412 41.6334C29.2479 38.9393 30.5549 36.5386 32.5555 34.9649C33.4624 37.2855 35.6497 38.806 38.1571 38.806C40.6645 38.806 42.8784 37.2855 43.7587 34.9649C45.7326 36.5386 47.0396 38.9393 47.173 41.6334H29.1412Z" fill="white"></path> <path d="M37.8161 32C32.4013 32 28 36.4013 28 41.8161C28 42.0295 28.1867 42.2163 28.4001 42.2163H47.2589C47.4722 42.2163 47.659 42.0295 47.659 41.8161C47.6323 36.4013 43.231 32 37.8161 32ZM42.7509 34.2673C42.0307 36.3746 40.0568 37.7883 37.8161 37.7883C35.5755 37.7883 33.6016 36.3746 32.8814 34.2673C34.2951 33.3337 36.0023 32.8002 37.8161 32.8002C39.63 32.8002 41.3372 33.3337 42.7509 34.2673ZM28.8002 41.416C28.9069 38.7219 27.4994 43.0738 29.5 41.5C32 41.7369 35.3088 41.416 37.8161 41.416C40.3235 41.416 44.5268 42.053 47.2589 41.8161C47.2589 42.8161 46.6987 38.7219 46.8321 41.416H28.8002Z" fill="white"></path> <path d="M22.6347 31.3846C16.7702 31.3846 12 36.1547 12 42.0192C12 42.2437 12.1964 42.4401 12.4209 42.4401H32.8204C33.0449 42.4401 33.2413 42.2437 33.2413 42.0192C33.2694 36.1547 28.4992 31.3846 22.6347 31.3846ZM22.6347 32.2263C23.9254 32.2263 25.1881 32.4789 26.3105 32.9559L22.775 35.5655L18.9869 32.9559C20.1093 32.4789 21.3439 32.2263 22.6347 32.2263ZM12.8699 41.5983C13.0102 38.0347 15.1146 34.9482 18.089 33.3487L22.5505 36.4073C22.6347 36.4634 22.7189 36.4914 22.775 36.4914C22.8592 36.4914 22.9433 36.4634 23.0275 36.4073L27.1804 33.3487C30.1828 34.9201 32.2592 38.0067 32.3995 41.5983H12.8699Z" fill="white"></path> <path d="M22.4663 30.2341C25.8335 30.2341 28.5833 27.4842 28.5833 24.117C28.5833 20.7499 25.8335 18 22.4663 18C19.0991 18 16.3492 20.7499 16.3492 24.117C16.3492 27.5123 19.0991 30.2341 22.4663 30.2341ZM22.4663 18.8699C24.7111 18.8699 26.6191 20.2728 27.3768 22.237C27.1242 22.0967 26.8156 21.9284 26.535 21.76C25.3565 21.0585 24.5427 20.6096 24.0096 20.6657C22.9433 20.7499 22.326 21.1708 21.6526 21.5917C21.2878 21.8161 20.8949 22.0687 20.4179 22.2651L20.2776 22.3212C19.2394 22.7421 18.594 23.0227 17.3313 23.163C17.7522 20.7218 19.8848 18.8699 22.4663 18.8699ZM17.191 24.0048C18.7063 23.8645 19.4639 23.5558 20.5582 23.0788L20.6985 23.0227C21.2597 22.7982 21.6806 22.5176 22.0735 22.2651C22.6908 21.8723 23.2239 21.5355 24.0657 21.4794C24.3744 21.4514 25.4406 22.0967 26.086 22.4615C26.7314 22.8544 27.2645 23.163 27.6574 23.2753C27.7135 23.5558 27.7415 23.8364 27.7415 24.117C27.7415 27.0072 25.3845 29.3923 22.4663 29.3923C19.5481 29.3923 17.191 27.0353 17.191 24.117C17.191 24.089 17.191 24.0609 17.191 24.0048Z" fill="white"></path> </svg> 