<?xml version="1.0" encoding="UTF-8"?> <svg xmlns="http://www.w3.org/2000/svg" width="60" height="60" viewBox="0 0 60 60" fill="none"> <circle cx="30" cy="30" r="30" fill="#DF192C"></circle> <ellipse cx="23.4163" cy="31.3879" rx="6.62878" ry="6.81292" fill="white"></ellipse> <path d="M44.6967 15H25.1097C23.2894 15 21.8082 16.4804 21.8082 18.3V21.8821C21.8082 22.1874 22.0553 22.4345 22.3606 22.4345C22.6659 22.4345 22.913 22.1874 22.913 21.8821V18.3C22.913 17.0895 23.8985 16.1048 25.1097 16.1048H44.6967C45.909 16.1048 46.8952 17.0895 46.8952 18.3V31.7819C46.8952 32.9924 45.909 33.9771 44.6967 33.9771H37.3575C37.3483 33.9771 37.3395 33.9793 37.3303 33.9797C37.3211 33.9793 37.3126 33.9771 37.303 33.9771H32.5008C32.1959 33.9771 31.9484 34.2246 31.9484 34.5295V40.2358H26.6756C26.3703 40.2358 26.1232 40.4833 26.1232 40.7882C26.1232 41.0931 26.3703 41.3406 26.6756 41.3406H32.5012H37.3034H43.1338C43.4387 41.3406 43.6862 41.0931 43.6862 40.7882C43.6862 40.4833 43.4387 40.2358 43.1338 40.2358H37.8558V35.0819H44.6967C46.5181 35.0819 48 33.6015 48 31.7819V18.3C48 16.4804 46.5181 15 44.6967 15ZM33.0536 40.2358V35.0819H36.751V40.2358H33.0536Z" fill="white"></path> <path d="M23.4577 38.8187C25.5148 38.8187 27.5635 37.9732 29.0325 36.3171C31.7573 33.2439 31.4752 28.5275 28.4031 25.8031C25.3303 23.0794 20.6143 23.3618 17.8899 26.4324C15.2895 29.3657 15.435 33.7919 18.1241 36.5583L17.2185 37.5802L17.0093 37.395C16.7814 37.1932 16.4341 37.2138 16.2319 37.4399L12.1409 42.0082C12.0429 42.1176 11.9924 42.2612 12.0009 42.4074C12.009 42.5536 12.0749 42.6914 12.1843 42.7886L13.4707 43.938C13.576 44.0322 13.7075 44.0786 13.8386 44.0786C13.9903 44.0786 14.1413 44.0164 14.2503 43.8945L18.3454 39.3188C18.4434 39.2094 18.4938 39.0654 18.4853 38.9185C18.4769 38.7719 18.4098 38.6346 18.3001 38.537L18.0464 38.3123L18.9497 37.293C20.2847 38.3123 21.8727 38.8187 23.4577 38.8187ZM13.7951 42.7466L13.3326 42.3334L16.6495 38.6301C16.6786 38.7222 16.7302 38.8087 16.8079 38.8772C16.9036 38.9619 17.0211 39.0025 17.1397 39.0098L13.7951 42.7466ZM18.7166 27.1657C19.968 25.7552 21.7121 25.0356 23.4647 25.0356C24.9617 25.0356 26.4646 25.5611 27.6703 26.6295C30.2864 28.9495 30.5269 32.9666 28.2061 35.5838C25.886 38.1996 21.8686 38.4401 19.2521 36.1193C16.6366 33.7996 16.3965 29.7829 18.7166 27.1657Z" fill="white"></path> <path d="M34.945 20.1543C35.309 20.1543 35.6042 19.8591 35.6042 19.4951C35.6042 19.131 35.309 18.8359 34.945 18.8359C34.5809 18.8359 34.2858 19.131 34.2858 19.4951C34.2858 19.8591 34.5809 20.1543 34.945 20.1543Z" fill="white"></path> </svg> 