<?xml version="1.0" encoding="UTF-8"?> <svg xmlns="http://www.w3.org/2000/svg" width="60" height="60" viewBox="0 0 60 60" fill="none"> <circle cx="30" cy="30" r="30" fill="#DF192C"></circle> <path d="M45.2102 18H14.7902C13.2518 18 12 19.2518 12 20.7902V22.6549V26.6733V38.7552C12 40.2936 13.2518 41.545 14.7902 41.545H45.2102C46.7486 41.545 48 40.2936 48 38.7552V26.6733V22.6549V20.7902C48 19.2518 46.7486 18 45.2102 18ZM13.1583 20.7902C13.1587 19.8902 13.8902 19.1587 14.7898 19.1587H45.2098C46.1094 19.1587 46.8409 19.8906 46.8409 20.7902V22.0756H13.1583V20.7902ZM46.8413 38.7548C46.8413 39.654 46.1094 40.3859 45.2102 40.3859H14.7902C13.8906 40.3859 13.1587 39.654 13.1587 38.7548V27.2523H46.8413V38.7548ZM46.8413 26.0936H13.1587V23.2339H46.8413V26.0936Z" fill="white"></path> <path d="M17.5993 38.1021C18.7136 38.1021 19.6198 37.1964 19.6198 36.0832C19.6198 34.9693 18.7136 34.0628 17.5993 34.0628C16.4858 34.0628 15.5797 34.9693 15.5797 36.0832C15.5797 37.1964 16.4858 38.1021 17.5993 38.1021ZM17.5993 35.2215C18.0744 35.2215 18.461 35.6082 18.461 36.0832C18.461 36.5575 18.0744 36.9434 17.5993 36.9434C17.1247 36.9434 16.7384 36.5575 16.7384 36.0832C16.7384 35.6082 17.1247 35.2215 17.5993 35.2215Z" fill="white"></path> <path d="M21.9197 36.7305H38.2436C38.5638 36.7305 38.823 36.4714 38.823 36.1512C38.823 35.831 38.5638 35.5718 38.2436 35.5718H21.9197C21.5995 35.5718 21.3403 35.831 21.3403 36.1512C21.3403 36.4714 21.5995 36.7305 21.9197 36.7305Z" fill="white"></path> <rect x="13" y="22" width="35" height="5" fill="white"></rect> </svg> 