<?xml version="1.0" encoding="UTF-8"?> <svg xmlns="http://www.w3.org/2000/svg" width="60" height="60" viewBox="0 0 60 60" fill="none"> <circle cx="30" cy="30" r="30" fill="#DF192C"></circle> <path d="M26.8295 28.0955C23.8706 28.0955 21.463 30.5031 21.463 33.462C21.463 36.4209 23.8702 38.8281 26.8295 38.8281C29.7888 38.8281 32.196 36.4209 32.196 33.462C32.196 30.5031 29.7884 28.0955 26.8295 28.0955ZM26.8295 37.6743C24.5069 37.6743 22.6172 35.785 22.6172 33.4624C22.6172 31.1398 24.5069 29.2501 26.8295 29.2501C29.1525 29.2501 31.0418 31.1398 31.0418 33.4624C31.0418 35.785 29.1521 37.6743 26.8295 37.6743Z" fill="white"></path> <path d="M15.5337 28.0959C15.2148 28.0959 14.9566 28.354 14.9566 28.673V38.251C14.9566 38.5696 15.2148 38.8281 15.5337 38.8281C15.8526 38.8281 16.1108 38.5696 16.1108 38.251V28.673C16.1108 28.354 15.8526 28.0959 15.5337 28.0959Z" fill="white"></path> <path d="M37.9434 28.0959C37.6248 28.0959 37.3663 28.354 37.3663 28.673V38.251C37.3663 38.5696 37.6248 38.8281 37.9434 38.8281C38.2619 38.8281 38.5204 38.5696 38.5204 38.251V28.673C38.5204 28.354 38.2623 28.0959 37.9434 28.0959Z" fill="white"></path> <path d="M47.4225 18H19.177C18.8581 18 18.5999 18.2581 18.5999 18.5771V21.4313H16.0146C15.6956 21.4313 15.4375 21.6895 15.4375 22.0084V25.1816H12.5771C12.2581 25.1816 12 25.4398 12 25.7587V41.1657C12 41.4842 12.2581 41.7428 12.5771 41.7428H40.823C41.1416 41.7428 41.4001 41.4842 41.4001 41.1657V37.9925H44.2609C44.5794 37.9925 44.838 37.7339 44.838 37.4154V34.5611H47.4229C47.7415 34.5611 48 34.3026 48 33.9841V18.5771C47.9996 18.2581 47.7411 18 47.4225 18ZM13.1542 40.5886V26.3358H40.2459V37.4115C40.2459 37.4127 40.2455 37.4139 40.2455 37.4154C40.2455 37.4169 40.2459 37.4177 40.2459 37.4192V40.5886H13.1542ZM43.6834 36.8383H41.3997V25.7587C41.3997 25.4398 41.1412 25.1816 40.8226 25.1816H16.5917V22.5855H43.6834V36.8383ZM46.8454 33.407H44.8376V22.0084C44.8376 21.6895 44.579 21.4313 44.2605 21.4313H19.7541V19.1542H46.8454V33.407Z" fill="white"></path> <ellipse cx="26.8118" cy="33.3889" rx="4.42431" ry="4.61667" fill="white"></ellipse> </svg> 