<?xml version="1.0" encoding="UTF-8"?> <svg xmlns="http://www.w3.org/2000/svg" width="60" height="60" viewBox="0 0 60 60" fill="none"> <circle cx="30" cy="30" r="30" fill="#DF192C"></circle> <path d="M15 28.2838V19.4918C15 19.2412 15.1855 19.0293 15.4339 18.9962L26.5961 17.5079C26.8958 17.4679 27.1622 17.7011 27.1622 18.0035V28.2838C27.1622 28.5599 26.9383 28.7838 26.6622 28.7838H15.5C15.2239 28.7838 15 28.5599 15 28.2838Z" fill="white" stroke="white" stroke-width="0.7"></path> <path d="M15 40.5082V30.9054C15 30.6293 15.2239 30.4054 15.5 30.4054H26.6622C26.9383 30.4054 27.1622 30.6293 27.1622 30.9054V41.9965C27.1622 42.2989 26.8958 42.532 26.5961 42.4921L15.4339 41.0038C15.1855 40.9707 15 40.7588 15 40.5082Z" stroke="white" stroke-width="0.7"></path> <path d="M28.7838 42.6105V30.9054C28.7838 30.6293 29.0076 30.4054 29.2838 30.4054H44.5C44.7761 30.4054 45 30.6293 45 30.9054V44.4364C45 44.7362 44.738 44.9686 44.4404 44.9328L29.2242 43.1069C28.9729 43.0767 28.7838 42.8636 28.7838 42.6105Z" fill="white" stroke="white" stroke-width="0.7"></path> <path d="M28.7838 28.2838V17.863C28.7838 17.6155 28.9648 17.4053 29.2096 17.3686L44.4258 15.0861C44.7281 15.0408 45 15.2749 45 15.5806V28.2838C45 28.5599 44.7761 28.7838 44.5 28.7838H29.2838C29.0076 28.7838 28.7838 28.5599 28.7838 28.2838Z" stroke="white" stroke-width="0.7"></path> </svg> 