<?xml version="1.0" encoding="UTF-8"?> <svg xmlns="http://www.w3.org/2000/svg" width="60" height="60" viewBox="0 0 60 60" fill="none"> <circle cx="30" cy="30" r="30" fill="#DF192C"></circle> <path d="M44.7632 12H15.6384C15.2856 12 15 12.2856 15 12.6384V47.3616C15 47.714 15.2856 48 15.6384 48H44.7636C45.116 48 45.402 47.714 45.402 47.3616V12.6384C45.4015 12.2856 45.1155 12 44.7632 12ZM44.1248 46.7228H16.2767V13.2767H44.1252L44.1248 46.7228Z" fill="white"></path> <path d="M19.5941 25.7436H41.0006C41.3535 25.7436 41.639 25.4576 41.639 25.1052V16.3983C41.639 16.0455 41.3535 15.76 41.0006 15.76H19.5941C19.2413 15.76 18.9557 16.0455 18.9557 16.3983V25.1048C18.9557 25.4576 19.2413 25.7436 19.5941 25.7436ZM20.2325 17.0371H40.3623V24.4669H20.2325V17.0371Z" fill="white"></path> <path d="M24.1537 28.8507H19.8188C19.466 28.8507 19.1804 29.1367 19.1804 29.4891V33.8245C19.1804 34.1768 19.466 34.4628 19.8188 34.4628H24.1537C24.5065 34.4628 24.7921 34.1768 24.7921 33.8245V29.4891C24.7921 29.1367 24.5061 28.8507 24.1537 28.8507ZM23.5153 33.1861H20.4572V30.1275H23.5153V33.1861Z" fill="white"></path> <path d="M24.1537 37.2508H19.8188C19.466 37.2508 19.1804 37.5368 19.1804 37.8891V42.2241C19.1804 42.5764 19.466 42.8624 19.8188 42.8624H24.1537C24.5065 42.8624 24.7921 42.5764 24.7921 42.2241V37.8891C24.7921 37.5363 24.5061 37.2508 24.1537 37.2508ZM23.5153 41.5857H20.4572V38.5271H23.5153V41.5857Z" fill="white"></path> <path d="M40.7755 28.8507H36.441C36.0882 28.8507 35.8026 29.1367 35.8026 29.4891V33.8245C35.8026 34.1768 36.0882 34.4628 36.441 34.4628H40.7759C41.1287 34.4628 41.4143 34.1768 41.4143 33.8245V29.4891C41.4138 29.1367 41.1283 28.8507 40.7755 28.8507ZM40.1371 33.1861H37.0793V30.1275H40.1375L40.1371 33.1861Z" fill="white"></path> <path d="M40.7755 37.2508H36.441C36.0882 37.2508 35.8026 37.5368 35.8026 37.8891V42.2241C35.8026 42.5764 36.0882 42.8624 36.441 42.8624H40.7759C41.1287 42.8624 41.4143 42.5764 41.4143 42.2241V37.8891C41.4138 37.5363 41.1283 37.2508 40.7755 37.2508ZM40.1371 41.5857H37.0793V38.5271H40.1375L40.1371 41.5857Z" fill="white"></path> <path d="M32.607 28.7082H28.2733C27.9205 28.7082 27.6349 28.9941 27.6349 29.3465V33.6819C27.6349 34.0343 27.9205 34.3202 28.2733 34.3202H32.607C32.9598 34.3202 33.2453 34.0343 33.2453 33.6819V29.3465C33.2453 28.9941 32.9593 28.7082 32.607 28.7082ZM31.9686 33.0435H28.9117V29.9849H31.9686V33.0435Z" fill="white"></path> <path d="M32.607 37.1078H28.2733C27.9205 37.1078 27.6349 37.3938 27.6349 37.7462V42.0819C27.6349 42.4343 27.9205 42.7203 28.2733 42.7203H32.607C32.9598 42.7203 33.2453 42.4343 33.2453 42.0819V37.7462C33.2453 37.3938 32.9593 37.1078 32.607 37.1078ZM31.9686 41.4431H28.9117V38.3841H31.9686V41.4431Z" fill="white"></path> <rect x="19" y="17" width="22" height="8" fill="white"></rect> </svg> 