<svg width="78" height="78" viewBox="0 0 78 78" fill="none" xmlns="http://www.w3.org/2000/svg">
<g filter="url(#filter0_d_591_21673)">
<rect x="18" y="18" width="38" height="38" rx="19" fill="white"/>
</g>
<path d="M24 36C23.4477 36 23 36.4477 23 37C23 37.5523 23.4477 38 24 38V36ZM50.7071 37.7071C51.0976 37.3166 51.0976 36.6834 50.7071 36.2929L44.3431 29.9289C43.9526 29.5384 43.3195 29.5384 42.9289 29.9289C42.5384 30.3195 42.5384 30.9526 42.9289 31.3431L48.5858 37L42.9289 42.6569C42.5384 43.0474 42.5384 43.6805 42.9289 44.0711C43.3195 44.4616 43.9526 44.4616 44.3431 44.0711L50.7071 37.7071ZM24 38H50V36H24V38Z" fill="#C1C1C1"/>
<defs>
<filter id="filter0_d_591_21673" x="0" y="0" width="78" height="78" filterUnits="userSpaceOnUse" color-interpolation-filters="sRGB">
<feFlood flood-opacity="0" result="BackgroundImageFix"/>
<feColorMatrix in="SourceAlpha" type="matrix" values="0 0 0 0 0 0 0 0 0 0 0 0 0 0 0 0 0 0 127 0" result="hardAlpha"/>
<feOffset dx="2" dy="2"/>
<feGaussianBlur stdDeviation="10"/>
<feComposite in2="hardAlpha" operator="out"/>
<feColorMatrix type="matrix" values="0 0 0 0 0 0 0 0 0 0 0 0 0 0 0 0 0 0 0.1 0"/>
<feBlend mode="normal" in2="BackgroundImageFix" result="effect1_dropShadow_591_21673"/>
<feBlend mode="normal" in="SourceGraphic" in2="effect1_dropShadow_591_21673" result="shape"/>
</filter>
</defs>
</svg>