<?xml version="1.0" encoding="UTF-8"?> <svg xmlns="http://www.w3.org/2000/svg" width="60" height="60" viewBox="0 0 60 60" fill="none"> <circle cx="30" cy="30" r="30" fill="#DF192C"></circle> <path d="M45.3546 14H15.6458C15.4746 14 15.3103 14.068 15.1892 14.1892C15.068 14.3103 15 14.4746 15 14.6458V44.3546C15.0001 44.4812 15.0374 44.605 15.1073 44.7106C15.1772 44.8162 15.2766 44.8989 15.3931 44.9485C15.5097 44.9981 15.6382 45.0123 15.7628 44.9893C15.8873 44.9664 16.0024 44.9074 16.0936 44.8196C16.2344 44.8174 16.3706 44.769 16.4811 44.6818L19.5984 42.1888L22.7889 44.7378C22.9032 44.8289 23.0452 44.8786 23.1914 44.8786C23.3377 44.8786 23.4796 44.8289 23.594 44.7378L26.7156 42.2405L29.8888 44.7765C30.0032 44.8677 30.1451 44.9173 30.2914 44.9173C30.4376 44.9173 30.5796 44.8677 30.694 44.7765L33.9404 42.1931L37.1351 44.7464C37.2495 44.8375 37.3915 44.8872 37.5377 44.8872C37.684 44.8872 37.8259 44.8375 37.9403 44.7464L41.1523 42.163L44.5193 44.854C44.6042 44.923 44.7058 44.9685 44.8139 44.9859C44.9219 45.0033 45.0327 44.9919 45.135 44.953C45.2322 44.9885 45.3366 44.9998 45.4392 44.9862C45.5418 44.9725 45.6396 44.9342 45.7242 44.8746C45.8088 44.8149 45.8777 44.7357 45.9251 44.6437C45.9724 44.5516 45.9968 44.4495 45.9961 44.3459V14.6372C45.9938 14.4682 45.9254 14.3068 45.8054 14.1876C45.6855 14.0685 45.5236 14.0011 45.3546 14ZM44.7087 25.6251H19.4089L44.7087 15.4295V25.6251ZM41.5958 15.2917L16.2917 25.4874V15.2917H41.5958ZM41.557 40.8369C41.4426 40.7457 41.3007 40.6961 41.1544 40.6961C41.0082 40.6961 40.8662 40.7457 40.7519 40.8369L37.5399 43.4202L34.3451 40.867C34.2307 40.7758 34.0888 40.7262 33.9425 40.7262C33.7963 40.7262 33.6543 40.7758 33.54 40.867L30.2935 43.4504L27.1203 40.9101C27.0059 40.8189 26.864 40.7692 26.7177 40.7692C26.5715 40.7692 26.4295 40.8189 26.3151 40.9101L23.1807 43.4073L19.9902 40.8584C19.8758 40.7672 19.7339 40.7176 19.5876 40.7176C19.4414 40.7176 19.2994 40.7672 19.1851 40.8584L16.2917 43.1748V26.9168H44.7087V43.3557L41.557 40.8369Z" fill="white"></path> <path d="M38.4657 29.9308H22.5349C22.3637 29.9308 22.1994 29.9988 22.0783 30.1199C21.9571 30.2411 21.8891 30.4053 21.8891 30.5766C21.8891 30.7479 21.9571 30.9122 22.0783 31.0333C22.1994 31.1544 22.3637 31.2225 22.5349 31.2225H38.4657C38.637 31.2225 38.8013 31.1544 38.9224 31.0333C39.0435 30.9122 39.1115 30.7479 39.1115 30.5766C39.1115 30.4053 39.0435 30.2411 38.9224 30.1199C38.8013 29.9988 38.637 29.9308 38.4657 29.9308Z" fill="white"></path> <path d="M38.4657 32.9449H22.5349C22.3637 32.9449 22.1994 33.0129 22.0783 33.134C21.9571 33.2552 21.8891 33.4194 21.8891 33.5907C21.8891 33.762 21.9571 33.9263 22.0783 34.0474C22.1994 34.1685 22.3637 34.2366 22.5349 34.2366H38.4657C38.637 34.2366 38.8013 34.1685 38.9224 34.0474C39.0435 33.9263 39.1115 33.762 39.1115 33.5907C39.1115 33.4194 39.0435 33.2552 38.9224 33.134C38.8013 33.0129 38.637 32.9449 38.4657 32.9449Z" fill="white"></path> <path d="M30.7156 35.9583H22.5349C22.3637 35.9583 22.1994 36.0264 22.0783 36.1475C21.9571 36.2686 21.8891 36.4329 21.8891 36.6042C21.8891 36.7754 21.9571 36.9397 22.0783 37.0608C22.1994 37.182 22.3637 37.25 22.5349 37.25H30.7156C30.8869 37.25 31.0512 37.182 31.1723 37.0608C31.2934 36.9397 31.3614 36.7754 31.3614 36.6042C31.3614 36.4329 31.2934 36.2686 31.1723 36.1475C31.0512 36.0264 30.8869 35.9583 30.7156 35.9583Z" fill="white"></path> <path d="M16.2917 24.6771V15.7917C16.2917 15.5155 16.5155 15.2917 16.7917 15.2917H39.4777C40.0303 15.2917 40.1746 16.0557 39.6601 16.2573L16.974 25.1426C16.6461 25.2711 16.2917 25.0293 16.2917 24.6771Z" fill="white" stroke="white"></path> </svg> 