<?xml version="1.0" encoding="UTF-8"?> <svg xmlns="http://www.w3.org/2000/svg" width="44" height="44" viewBox="0 0 44 44" fill="none"> <circle cx="22" cy="22" r="21.65" stroke="#DF192C" stroke-width="0.7"></circle> <path d="M31.1242 13.8066C31.0534 13.7239 30.9498 13.6763 30.8407 13.6763H13.2084L12.4894 11.2668C12.4419 11.1084 12.2964 11 12.1312 11H9.37368C9.16716 11 9 11.1672 9 11.3737C9 11.5802 9.16716 11.7474 9.37368 11.7474H11.8527L16.3951 26.9696C16.3956 26.9714 16.3971 26.9729 16.3976 26.9746L16.9619 28.8938C16.6057 29.2478 16.3849 29.7379 16.3849 30.2782C16.3849 31.3569 17.2621 32.2345 18.34 32.2345C19.3833 32.2345 20.2356 31.4105 20.2882 30.3783H25.1856C25.1854 30.392 25.1836 30.4055 25.1836 30.4194C25.1836 31.4971 26.0603 32.374 27.1377 32.374C28.2152 32.374 29.0921 31.4971 29.0921 30.4194C29.0921 29.3418 28.2152 28.4648 27.1377 28.4648C26.3408 28.4648 25.655 28.9452 25.3513 29.631H20.1815C20.0859 29.3582 19.9317 29.1073 19.7212 28.8968C19.3522 28.5279 18.8619 28.3243 18.3408 28.3243C18.3405 28.3243 18.3403 28.3243 18.3403 28.3243C18.0839 28.3243 17.8395 28.3752 17.6151 28.4653L17.2539 27.2364H28.8811C29.0657 27.2364 29.2226 27.1017 29.2503 26.9193L31.2101 14.1063C31.2265 13.9987 31.1952 13.8893 31.1242 13.8066ZM27.1377 29.2125C27.8031 29.2125 28.3447 29.754 28.3447 30.4197C28.3447 31.0853 27.8031 31.6269 27.1377 31.6269C26.4723 31.6269 25.931 31.0853 25.931 30.4197C25.931 29.754 26.4723 29.2125 27.1377 29.2125ZM18.3403 29.072C18.6619 29.072 18.9646 29.1975 19.1923 29.4255C19.4202 29.6534 19.5455 29.9566 19.5455 30.2787C19.5455 30.9453 19.0047 31.4877 18.3398 31.4877C17.6739 31.4877 17.132 30.9453 17.132 30.2787C17.1323 29.6133 17.6741 29.072 18.3403 29.072ZM28.56 26.4893H17.0339L16.3274 24.0858C16.3184 24.0554 16.305 24.0278 16.2895 24.0016L13.4314 14.4237H30.4054L28.56 26.4893Z" fill="#DF192C"></path> <circle cx="18.5" cy="30.5" r="1.5" fill="#DF192C"></circle> <circle cx="27" cy="30.5" r="1.5" fill="#DF192C"></circle> </svg> 