<?xml version="1.0" encoding="UTF-8"?> <svg xmlns="http://www.w3.org/2000/svg" width="38" height="38" viewBox="0 0 38 38" fill="none"> <rect width="38" height="38" rx="6" fill="#DF192C"></rect> <path d="M18 32C18 32.5523 18.4477 33 19 33C19.5523 33 20 32.5523 20 32H18ZM19.7071 5.29289C19.3166 4.90237 18.6834 4.90237 18.2929 5.29289L11.9289 11.6569C11.5384 12.0474 11.5384 12.6805 11.9289 13.0711C12.3195 13.4616 12.9526 13.4616 13.3431 13.0711L19 7.41421L24.6569 13.0711C25.0474 13.4616 25.6805 13.4616 26.0711 13.0711C26.4616 12.6805 26.4616 12.0474 26.0711 11.6569L19.7071 5.29289ZM20 32V6H18V32H20Z" fill="white"></path> </svg> 