<?xml version="1.0" encoding="UTF-8"?> <svg xmlns="http://www.w3.org/2000/svg" width="60" height="60" viewBox="0 0 60 60" fill="none"> <circle cx="30" cy="30" r="30" fill="#DF192C"></circle> <path d="M35.5916 25.3172L23.6575 34.8013C23.4204 34.9989 23.3414 35.3941 23.5785 35.6312C23.697 35.7893 23.8551 35.8683 24.0527 35.8683C24.1712 35.8683 24.3293 35.8288 24.4083 35.7497L36.3425 26.2657C36.5796 26.0681 36.6586 25.6729 36.4215 25.4358C36.2239 25.1592 35.8683 25.1197 35.5916 25.3172Z" fill="white"></path> <path d="M26.8584 29.5456C27.0165 29.5456 27.1745 29.5456 27.3326 29.506C28.9528 29.2689 30.0988 27.7278 29.8222 26.0681C29.7036 25.2777 29.2689 24.5664 28.6367 24.0922C28.0044 23.618 27.2141 23.4204 26.4237 23.539C25.6334 23.6575 24.9221 24.0922 24.4479 24.7245C23.9737 25.3568 23.7761 26.1471 23.8946 26.9374C24.1317 28.4786 25.4358 29.5456 26.8584 29.5456ZM26.5818 24.764C26.6608 24.764 26.7794 24.7245 26.8584 24.7245C27.7278 24.7245 28.5181 25.3568 28.6367 26.2657C28.7947 27.2536 28.123 28.1625 27.135 28.3205C26.1471 28.4786 25.2382 27.8068 25.0801 26.8189C24.9221 25.831 25.6334 24.9221 26.5818 24.764Z" fill="white"></path> <path d="M33.1811 31.5214C31.5214 31.5214 30.1779 32.865 30.1779 34.5247C30.1779 36.1844 31.5214 37.528 33.1811 37.528C34.8409 37.528 36.1844 36.1844 36.1844 34.5247C36.1449 32.865 34.8013 31.5214 33.1811 31.5214ZM33.1811 36.303C32.1932 36.303 31.3634 35.4731 31.3634 34.4852C31.3634 33.4972 32.1932 32.6674 33.1811 32.6674C34.1691 32.6674 34.9989 33.4972 34.9989 34.4852C34.9594 35.5126 34.1691 36.303 33.1811 36.303Z" fill="white"></path> <path d="M47.9605 30.1383C47.9605 30.0988 48 30.0198 48 29.9802C48 28.281 46.2217 27.4116 44.6806 26.6608C43.5741 26.1076 42.3886 25.5148 42.0724 24.8035C41.7563 24.0527 42.191 22.8277 42.6257 21.6817C43.2184 20.0615 43.8112 18.4018 42.7047 17.2953C41.5982 16.1888 40.0176 16.584 38.4369 16.9396C37.3304 17.1767 36.1844 17.4533 35.4336 17.1372C34.6828 16.8211 34.0505 15.8332 33.4577 14.8847C32.5884 13.5412 31.64 12 29.9802 12C28.3205 12 27.3721 13.5412 26.5423 14.9243C25.9495 15.9122 25.3568 16.9001 24.6059 17.2162C23.8551 17.5324 22.6696 17.2558 21.5631 16.9791C19.9824 16.584 18.3622 16.1888 17.2953 17.2558C16.1888 18.3622 16.742 20.022 17.2558 21.6422C17.6509 22.8277 18.0066 24.0132 17.6905 24.8035C17.3743 25.5543 16.2678 26.1076 15.2009 26.6608C13.6992 27.4512 12 28.3205 12 29.9802C12 30.0198 12 30.0988 12.0395 30.1383C12.0395 30.1778 12 30.2569 12 30.2964C12 31.9561 13.6992 32.865 15.2009 33.6158C16.2678 34.169 17.3743 34.7223 17.6905 35.4731C18.0066 36.2239 17.6114 37.449 17.2558 38.6345C16.742 40.2547 16.1888 41.9144 17.2953 43.0209C18.4018 44.1273 20.022 43.6926 21.5631 43.2975C22.6696 43.0209 23.8551 42.7442 24.6059 43.0604C25.3568 43.3765 25.9495 44.3644 26.5423 45.3524C27.3721 46.7355 28.3205 48.2766 29.9802 48.2766C31.64 48.2766 32.6279 46.7355 33.4577 45.3919C34.0505 44.4435 34.6828 43.4555 35.4336 43.1394C36.2239 42.8233 37.3304 43.0604 38.4369 43.337C39.978 43.6926 41.5982 44.0878 42.7047 42.9813C43.8112 41.8749 43.2184 40.2151 42.6257 38.5949C42.191 37.4094 41.7563 36.2239 42.0724 35.4731C42.3886 34.7223 43.5346 34.169 44.6806 33.6158C46.2217 32.8255 48 31.9561 48 30.2964C48 30.2173 47.9605 30.1778 47.9605 30.1383ZM44.1273 32.5488C42.8233 33.2206 41.4402 33.8924 40.966 35.0384C40.4522 36.2239 41.0055 37.6465 41.4797 39.0296C41.9539 40.3337 42.4281 41.5982 41.8353 42.1515C41.2031 42.7838 39.978 42.5071 38.674 42.191C37.3699 41.8749 36.0659 41.5982 34.9199 42.0724C33.8134 42.5467 33.1021 43.6531 32.4303 44.7596C31.6795 45.9451 30.9682 47.0911 29.9407 47.0911C28.9528 47.0911 28.2415 45.9451 27.4907 44.7201C26.8189 43.5741 26.1076 42.4281 25.0011 41.9539C23.8551 41.4797 22.5115 41.7958 21.2075 42.1515C19.9034 42.4676 18.6784 42.7838 18.0461 42.191C17.4533 41.5982 17.8485 40.3337 18.2832 39.0296C18.7179 37.6465 19.1921 36.2239 18.6784 35.0779C18.2042 33.9319 16.9001 33.2602 15.6356 32.6279C14.3315 31.9561 13.1065 31.3238 13.1065 30.3359C13.1065 30.2964 13.1065 30.2173 13.067 30.1778C13.067 30.1383 13.1065 30.0593 13.1065 30.0198C13.1065 29.0713 14.3315 28.4391 15.6356 27.7278C16.9001 27.0955 18.2042 26.4237 18.6784 25.2777C19.1526 24.0922 18.7179 22.6696 18.2832 21.326C17.8485 19.9824 17.4533 18.7179 18.0461 18.1647C18.6784 17.5324 19.9034 17.8485 21.2075 18.2042C22.5115 18.5203 23.8551 18.876 25.0011 18.4018C26.1076 17.9276 26.8189 16.7816 27.4907 15.6356C28.2415 14.4105 28.9133 13.2645 29.9407 13.2645C30.9682 13.2645 31.6795 14.4105 32.4303 15.596C33.1416 16.7025 33.8529 17.809 34.9199 18.2832C36.0659 18.7574 37.3699 18.4413 38.674 18.1647C39.978 17.8485 41.2031 17.5719 41.8353 18.2042C42.4281 18.7574 41.9539 20.022 41.4797 21.326C40.966 22.7091 40.4522 24.1317 40.966 25.3172C41.4402 26.4632 42.8233 27.135 44.1273 27.8068C45.5104 28.4786 46.775 29.1504 46.775 30.0988C46.775 30.1383 46.775 30.2173 46.8145 30.2569C46.8145 30.2964 46.775 30.3754 46.775 30.4149C46.8145 31.2053 45.5104 31.8771 44.1273 32.5488Z" fill="white"></path> <ellipse cx="27.25" cy="26.5" rx="2.25" ry="2.5" fill="white"></ellipse> <ellipse cx="27.25" cy="26.5" rx="2.25" ry="2.5" fill="white"></ellipse> <ellipse cx="27.25" cy="26.5" rx="2.25" ry="2.5" fill="white"></ellipse> <ellipse cx="33.25" cy="34.5" rx="2.25" ry="2.5" fill="white"></ellipse> <ellipse cx="33.25" cy="34.5" rx="2.25" ry="2.5" fill="white"></ellipse> <ellipse cx="33.25" cy="34.5" rx="2.25" ry="2.5" fill="white"></ellipse> </svg> 