<?xml version="1.0" encoding="UTF-8"?> <svg xmlns="http://www.w3.org/2000/svg" width="81" height="110" viewBox="0 0 81 110" fill="none"> <path d="M81 80.316L52.1426 96.9946V61.2548L81 44.5762V80.316Z" fill="#E2E5EE"></path> <path d="M32.8375 12.0137L30.6483 12.5101L30.5488 35.6417L42.7884 42.6904L39.5046 13.5028L32.8375 12.0137Z" fill="#8D97CD"></path> <path d="M52.1419 61.2544V96.9942L22.5879 79.9185V44.1787L52.1419 61.2544Z" fill="#E2E5EE"></path> <path d="M52.1419 61.2544V96.9942L22.5879 79.9185V44.1787L52.1419 61.2544Z" fill="black" fill-opacity="0.1"></path> <path d="M81.0008 44.576L52.1433 61.2546L29.7539 48.3485L58.6114 31.6699L81.0008 44.576Z" fill="white"></path> <path d="M81 44.5775L52.1426 61.2561V57.1858L81 40.6064V44.5775Z" fill="#A8B0DB"></path> <path d="M52.1419 57.1834V61.2538L22.5879 44.1781V40.207L52.1419 57.1834Z" fill="#8D97CD"></path> <path d="M81.0008 40.6053L52.1433 57.1846L29.7539 44.2785L58.6114 27.6992L81.0008 40.6053Z" fill="#E2E5EE"></path> <path d="M52.1425 79.9178L29.554 92.9232L0 75.9467L22.5884 62.9414L52.1425 79.9178Z" fill="white"></path> <path d="M53.8339 0L32.8376 12.0126L30.6484 12.5089L51.6447 0.496386L53.8339 0Z" fill="#E2E5EE"></path> <path d="M42.7896 42.689L63.7859 30.5772L60.5022 1.38965L39.5059 13.5015L42.7896 42.689Z" fill="#BABFE3"></path> <path d="M34.8277 47.2561L42.7883 42.6893L40.4001 21.3447L32.4395 26.0108L34.8277 47.2561Z" fill="#BABFE3"></path> <path d="M55.4266 28.0957L56.1232 34.3502L45.3762 40.6046L44.6797 34.3502L55.4266 28.0957Z" fill="#15141D"></path> <path d="M60.5013 1.38988L39.505 13.5017L32.8379 12.0126L53.8342 0L60.5013 1.38988Z" fill="#E2E5EE"></path> <path d="M33.7339 19.9551L25.7732 24.5218L23.584 25.0182L31.5447 20.4515L33.7339 19.9551Z" fill="#E2E5EE"></path> <path d="M40.4012 21.345L32.4405 26.011L25.7734 24.5218L33.7341 19.9551L40.4012 21.345Z" fill="#E2E5EE"></path> <path d="M25.7722 24.5225L23.583 25.0188L22.5879 40.2083L34.8274 47.257L32.4392 26.0116L25.7722 24.5225Z" fill="#8D97CD"></path> <path d="M60.8992 5.06279L59.7051 4.56641L61.3967 21.0464L62.5908 21.5428L60.8992 5.06279Z" fill="#19161C"></path> <path d="M62.5906 21.5433L61.3965 21.0469L44.082 30.9746L45.2761 31.5703L62.5906 21.5433Z" fill="#1B1723"></path> <path d="M43.584 15.0905L45.2756 31.5705L62.5901 21.5435L60.8985 5.06348L43.584 15.0905Z" fill="#E2E5EE"></path> <path d="M43.5847 15.0901L42.3906 14.5938L44.0823 30.9745L45.2764 31.5702L43.5847 15.0901Z" fill="#007F95"></path> <path d="M60.8992 5.06279L59.7051 4.56641L42.3906 14.5934L43.5847 15.0898L60.8992 5.06279Z" fill="#009BB8"></path> <path d="M42.6881 14.2962L41.3945 13.7998L43.3847 32.6625L44.5788 33.1589L42.6881 14.2962Z" fill="#261F34"></path> <path d="M61.5948 3.47457L60.3011 2.87891L41.3945 13.7994L42.6881 14.2958L61.5948 3.47457Z" fill="#2B233B"></path> <path d="M45.2767 31.5711L62.5912 21.5441L60.8995 5.06402L43.585 15.091L45.2767 31.5711ZM63.4867 22.3383L44.5801 33.2588L42.6895 14.3961L61.5961 3.47559L63.4867 22.3383Z" fill="#15141D"></path> <path d="M37.1172 38.2217L41.4956 35.6405L41.5951 35.5412C42.0926 35.0448 42.2916 34.2506 42.1921 33.2578L37.8137 35.839C37.9133 36.8318 37.7142 37.626 37.2167 38.1224L37.1172 38.2217Z" fill="#15141D"></path> <path d="M37.8133 35.8401L42.1917 33.2589L41.1966 24.8203L36.7188 27.4015L37.8133 35.8401Z" fill="#15141D"></path> <path d="M41.2961 26.1109L36.9178 28.6921L36.7188 27.4015L41.1966 24.8203L41.2961 26.1109Z" fill="#15141D"></path> <path d="M38.6088 22.9329C38.8079 22.8336 39.0069 22.8336 39.2059 22.9329L39.9025 23.2307C40.4995 23.4292 40.997 24.2235 41.0966 24.9184L36.7182 27.4996C36.6187 26.8047 36.1211 26.0105 35.5241 25.8119L34.8275 25.5141C34.6285 25.4148 34.4295 25.4148 34.2305 25.5141L38.6088 22.9329Z" fill="#15141D"></path> <path d="M36.7194 27.4003C36.6199 26.7053 36.1224 25.9111 35.5253 25.7126L34.8288 25.514C34.2317 25.3154 33.8337 25.7126 33.9332 26.4075L35.3263 37.8244L36.5204 38.2215C36.819 38.3208 37.018 38.3208 37.217 38.1222C37.7145 37.6258 37.9135 36.8316 37.814 35.8388L36.7194 27.4003Z" fill="#261F34"></path> <path d="M54.0335 31.3721L54.4315 34.4497L46.9683 38.7186L46.5703 35.641L54.0335 31.3721Z" fill="#97111F"></path> <path d="M51.3471 34.3506L54.4319 34.4499L46.9688 38.7188L47.2673 36.8325L51.3471 34.3506Z" fill="#C21E38"></path> <path d="M52.1431 96.9946L29.5547 110V92.9243L52.1431 79.9189V96.9946Z" fill="#E2E5EE"></path> <path d="M29.554 92.9227V109.998L0 92.9227V75.9463L29.554 92.9227Z" fill="#E2E5EE"></path> <path d="M29.554 92.9227V109.998L0 92.9227V75.9463L29.554 92.9227Z" fill="black" fill-opacity="0.1"></path> <path d="M52.1431 79.9193L29.5547 92.9246V87.7622L52.1431 74.7568V79.9193Z" fill="#A8B0DB"></path> <path d="M29.554 87.7606V92.923L0 75.9466V70.7842L29.554 87.7606Z" fill="#8D97CD"></path> <path d="M52.1425 74.7567L29.554 87.762L0 70.7856L22.5884 57.7803L52.1425 74.7567Z" fill="#E2E5EE"></path> <path d="M58.9086 35.541L41.9922 45.3695L56.5204 53.7088L73.4369 43.8803L58.9086 35.541Z" fill="#4D437C"></path> <path d="M43.0879 45.3708L56.5215 53.0152L72.2439 43.8817L58.9097 36.2373L43.0879 45.3708Z" fill="#BEC2E4"></path> <path d="M25.2758 62.1494L8.35938 71.8786L29.6542 84.189L46.5706 74.3605L25.2758 62.1494Z" fill="#BEC2E4"></path> <path d="M9.55273 71.8776L29.6535 83.4931L45.4753 74.3596L25.2751 62.7441L9.55273 71.8776Z" fill="#E2E5EE"></path> <path d="M49.2559 45.2708L58.7092 50.6318L68.1625 45.1715L58.7092 39.8105L49.2559 45.2708Z" fill="#4D437C"></path> <path d="M65.0793 45.0734L61.1984 42.79L54.6309 46.6619L58.5117 48.9452L65.0793 45.0734Z" fill="#981C2A"></path> <path d="M62.6896 46.065L60.9979 45.0723L57.0176 47.4549L58.7092 48.4477L62.6896 46.065Z" fill="#AE2237"></path> <path d="M81.0006 80.3155L29.5547 109.999V101.859L81.0006 72.1748V80.3155Z" fill="#A8B0DB"></path> <path d="M0 92.9243L29.554 110V101.859L0 84.8828V92.9243Z" fill="#8D97CD"></path> <path d="M45.9727 15.8843L47.2663 28.1947L60.2024 20.7489L58.9088 8.43848L45.9727 15.8843Z" fill="#E2E5EE"></path> <path d="M37.6133 29.0894L38.0113 32.2663L41.2951 30.38L40.9966 27.2031L37.6133 29.0894Z" fill="#E2E5EE"></path> <path d="M37.4158 25.8122L37.2168 25.7129C37.9134 23.7274 39.804 24.323 39.804 24.323L39.7045 24.5216C39.605 24.5216 38.0129 24.0252 37.4158 25.8122Z" fill="white"></path> <path d="M37.8123 26.0118L37.6133 25.9126C38.1108 24.4234 39.6035 24.8205 39.6035 24.8205L39.5039 25.0191C39.5039 25.0191 38.3098 24.7212 37.8123 26.0118Z" fill="white"></path> <path d="M38.41 26.2095L38.2109 26.1102C38.5095 25.2167 39.5046 25.4153 39.5046 25.4153V25.6138C39.405 25.6138 38.609 25.4153 38.41 26.2095Z" fill="white"></path> <path d="M30.7487 82.104C29.9526 82.104 29.2561 81.9054 28.7585 81.6076L13.0362 72.5733C12.4392 72.2755 12.1406 71.7791 12.1406 71.1835C12.1406 70.5878 12.5387 69.9921 13.3347 69.4957L21.6934 64.7304C22.39 64.3333 23.2856 64.1348 24.1812 64.1348C24.9772 64.1348 25.6738 64.3333 26.1713 64.6312L41.8937 73.6654C42.4907 73.9632 42.7892 74.4596 42.7892 75.0553C42.7892 75.6509 42.3912 76.2466 41.5951 76.743L33.2364 81.5083C32.5399 81.9054 31.6443 82.104 30.7487 82.104Z" fill="#8D97CD"></path> <path d="M35.4242 58.2762C35.4242 57.2834 34.7276 55.9928 33.8321 55.4964C33.3345 55.1986 32.9365 55.1986 32.638 55.3972L31.9414 55.7943L32.2399 56.1914V56.3899C32.2399 57.3827 32.9365 58.6733 33.8321 59.1697L34.0311 59.269L34.3296 59.6661L35.0262 59.269H35.1257C35.3247 59.0704 35.4242 58.6733 35.4242 58.2762Z" fill="#4D437C"></path> <path d="M31.5449 56.7869C31.5449 57.7797 32.2415 59.0703 33.1371 59.5667C34.0326 60.063 34.7292 59.6659 34.7292 58.6732C34.7292 57.6804 34.0326 56.3898 33.1371 55.8934C32.2415 55.397 31.5449 55.7941 31.5449 56.7869Z" fill="#5C4245"></path> <path d="M31.5449 56.7869C31.5449 57.7797 32.2415 58.971 33.1371 59.4674C34.0326 59.9638 34.7292 59.5667 34.7292 58.5739C34.7292 57.5811 34.0326 56.3898 33.1371 55.8934C32.2415 55.397 31.5449 55.7941 31.5449 56.7869Z" fill="#15141D"></path> <path d="M32.3398 57.2831C32.3398 57.7795 32.6384 58.3752 33.1359 58.5737C33.5339 58.7723 33.932 58.5737 33.932 58.1766C33.932 57.6803 33.5339 57.0846 33.1359 56.886C32.6384 56.5882 32.3398 56.7868 32.3398 57.2831Z" fill="#FF2923"></path> <path d="M23.4845 65.3252C23.4845 65.3252 15.5239 70.2891 15.4243 70.8847C15.3248 71.4804 29.6541 79.8197 30.4501 79.8197C31.2462 79.8197 39.2069 75.3522 39.4059 74.558C39.5054 73.6645 23.4845 65.3252 23.4845 65.3252Z" fill="#DF192C"></path> <path d="M39.4055 65.4238L39.306 65.9201C39.306 66.1187 39.0075 66.218 38.8085 66.1187L38.4104 65.9201C38.1119 65.8209 38.0124 65.4238 38.0124 65.2252L38.1119 64.7288C38.1119 64.5303 38.4104 64.431 38.6095 64.5303L39.0075 64.7288C39.2065 64.9274 39.4055 65.2252 39.4055 65.4238ZM39.107 68.005L39.0075 68.5014C39.0075 68.6999 38.709 68.7992 38.51 68.6999L38.1119 68.5014C37.8134 68.4021 37.7139 68.1042 37.7139 67.8064L37.8134 67.31C37.8134 67.1115 38.0124 67.0122 38.3109 67.1115L38.709 67.31C39.0075 67.5086 39.107 67.8064 39.107 68.005ZM38.8085 70.4869L38.709 70.9833C38.709 71.1818 38.51 71.2811 38.2114 71.1818L37.8134 70.9833C37.6144 70.884 37.4154 70.5862 37.4154 70.2883L37.5149 69.792C37.5149 69.5934 37.7139 69.4941 38.0124 69.5934L38.4104 69.792C38.709 69.9905 38.908 70.2884 38.8085 70.4869ZM37.2163 64.8281C37.2163 65.0267 36.9178 65.1259 36.7188 65.0267L36.2213 64.7288C35.9227 64.6295 35.8232 64.2324 35.8232 64.0339V63.5375C35.8232 63.2397 36.1218 63.2397 36.3208 63.3389L36.7188 63.5375C37.0173 63.6368 37.1168 64.0339 37.1168 64.2324L37.2163 64.8281ZM36.9178 67.31C36.9178 67.5086 36.7188 67.6079 36.4203 67.5086L36.0222 67.31C35.8232 67.2108 35.6242 66.9129 35.6242 66.6151V66.1187C35.6242 65.9201 35.8232 65.8209 36.1218 65.9201L36.5198 66.1187C36.8183 66.218 36.9178 66.6151 36.9178 66.8136V67.31ZM36.7188 69.792C36.7188 69.9905 36.5198 70.0898 36.2213 69.9905L35.8232 69.792C35.6242 69.6927 35.4252 69.3949 35.4252 69.097V68.6006C35.4252 68.4021 35.6242 68.3028 35.9227 68.4021L36.3208 68.6006C36.6193 68.6999 36.7188 68.9977 36.7188 69.2956V69.792ZM35.0272 63.6368C35.0272 63.8353 34.8281 63.9346 34.5296 63.8353L34.1316 63.6368C33.8331 63.5375 33.7335 63.1404 33.7335 62.9418V62.4454C33.7335 62.1476 33.9326 62.1476 34.2311 62.2469L34.6291 62.4454C34.9277 62.5447 35.0272 62.9418 35.0272 63.1404V63.6368ZM34.8281 66.1187C34.8281 66.3173 34.6291 66.4165 34.3306 66.3173L33.9326 66.1187C33.634 66.0194 33.5345 65.7216 33.5345 65.4238V64.9274C33.5345 64.7288 33.7336 64.6295 34.0321 64.7288L34.4301 64.9274C34.7286 65.0266 34.8281 65.4238 34.8281 65.6223V66.1187ZM34.6291 68.6999C34.6291 68.8985 34.4301 68.9977 34.1316 68.8985L33.7335 68.6999C33.5345 68.6006 33.3355 68.3028 33.3355 68.005V67.5086C33.3355 67.31 33.5345 67.2108 33.8331 67.31L34.2311 67.5086C34.5296 67.6079 34.6291 67.9057 34.6291 68.2035V68.6999ZM32.9375 62.4454C32.9375 62.644 32.7385 62.7433 32.4399 62.644L32.0419 62.4454C31.7434 62.3462 31.5444 61.9491 31.6439 61.7505V61.2541C31.6439 60.9563 31.8429 60.9563 32.1414 61.0556L32.5394 61.2541C32.838 61.3534 32.9375 61.7505 32.9375 61.9491V62.4454ZM32.7385 65.0267C32.7385 65.2252 32.5394 65.3245 32.2409 65.2252L31.8429 65.0267C31.5444 64.9274 31.4449 64.5303 31.4449 64.3317V63.8353C31.4449 63.6368 31.6439 63.5375 31.9424 63.6368L32.3404 63.8353C32.639 63.9346 32.7385 64.3317 32.7385 64.5303V65.0267ZM32.5394 67.5086C32.5394 67.7071 32.3404 67.8064 32.0419 67.7071L31.6439 67.5086C31.4449 67.4093 31.2458 67.1115 31.2458 66.8136V66.3173C31.2458 66.1187 31.4449 66.0194 31.7434 66.1187L32.1414 66.3173C32.3404 66.4165 32.5394 66.7144 32.5394 67.0122V67.5086ZM30.7483 61.2541C30.7483 61.5519 30.5493 61.5519 30.2508 61.4527L29.8527 61.2541C29.5542 61.1548 29.3552 60.7577 29.4547 60.5592V60.0628C29.4547 59.765 29.6537 59.765 29.9522 59.8642L30.3503 60.0628C30.6488 60.1621 30.8478 60.5592 30.7483 60.7577V61.2541ZM30.5493 63.8353C30.5493 64.0339 30.3503 64.1332 30.0517 64.0339L29.6537 63.8353C29.4547 63.736 29.2557 63.4382 29.2557 63.1404V62.644C29.2557 62.4454 29.4547 62.3462 29.7532 62.4454L30.1512 62.644C30.4498 62.7433 30.5493 63.1404 30.5493 63.3389V63.8353ZM30.4498 66.3173C30.4498 66.5158 30.2508 66.6151 29.9522 66.5158L29.5542 66.3173C29.3552 66.218 29.1562 65.9201 29.1562 65.6223V65.1259C29.1562 64.9274 29.3552 64.8281 29.6537 64.9274L30.0517 65.1259C30.2508 65.2252 30.4498 65.523 30.4498 65.8209V66.3173ZM28.5591 60.0628C28.5591 60.3606 28.3601 60.3606 28.0616 60.2613L27.6635 60.0628C27.4645 59.8642 27.2655 59.5664 27.2655 59.2686V58.7722C27.2655 58.4744 27.4645 58.3751 27.763 58.5736L28.1611 58.7722C28.4596 58.8715 28.6586 59.2686 28.5591 59.4671V60.0628ZM28.4596 62.644C28.4596 62.8426 28.2606 62.9418 27.9621 62.8426L27.564 62.644C27.2655 62.5447 27.166 62.2469 27.166 61.9491V61.4527C27.166 61.2541 27.365 61.1548 27.6635 61.2541L28.0616 61.4527C28.3601 61.5519 28.4596 61.9491 28.4596 62.1476V62.644ZM28.3601 65.2252C28.3601 65.4238 28.1611 65.523 27.8625 65.4238L27.4645 65.2252C27.2655 65.1259 27.0665 64.8281 27.0665 64.5303V64.0339C27.0665 63.8353 27.2655 63.736 27.564 63.8353L27.9621 64.0339C28.1611 64.1332 28.3601 64.431 28.3601 64.7288V65.2252ZM26.4694 58.8715C26.4694 59.1693 26.2704 59.1693 25.9719 59.07L25.5739 58.8715C25.2753 58.7722 25.0763 58.3751 25.0763 58.1765V57.6801C25.0763 57.3823 25.2753 57.283 25.5739 57.4816L25.9719 57.6801C26.2704 57.7794 26.4694 58.1765 26.3699 58.3751L26.4694 58.8715ZM26.3699 61.4527C26.3699 61.6512 26.1709 61.7505 25.8724 61.6512L25.4743 61.4527C25.1758 61.3534 24.9768 60.9563 25.0763 60.7577V60.2613C25.0763 60.0628 25.2753 59.9635 25.5739 60.0628L25.9719 60.2613C26.2704 60.3606 26.4694 60.7577 26.3699 60.9563V61.4527ZM26.2704 64.0339C26.2704 64.2324 26.0714 64.3317 25.7729 64.2324L25.3748 64.0339C25.1758 63.9346 24.9768 63.6368 24.9768 63.3389V62.8426C24.9768 62.644 25.1758 62.5447 25.4743 62.644L25.8724 62.8426C26.0714 62.9418 26.2704 63.2397 26.2704 63.5375V64.0339ZM41.5947 64.2324C41.5947 64.2324 27.2655 55.7939 25.8724 54.9996C25.3748 54.7018 24.9768 54.6025 24.5788 54.6025H24.4793H24.2802H24.1807H23.9817H23.8822C23.7827 54.6025 23.6832 54.6025 23.5837 54.6025H23.4842H23.2852L23.6832 66.6151H23.7827C23.9817 66.5158 24.1807 66.4165 24.4793 66.5158H24.5788H24.6783H24.7778H24.8773L39.107 74.6566C39.2065 74.6566 39.306 74.6566 39.4055 74.6566L39.9031 74.9544C39.9031 74.9544 39.9031 74.8551 40.0026 74.6566H40.1021L40.0026 74.5573C40.3011 72.7703 41.6942 65.6223 41.8932 65.2252C41.8932 64.9274 41.5947 64.2324 41.5947 64.2324Z" fill="#DF192C"></path> <path d="M22.5881 63.5375L22.19 63.736C21.991 63.8353 21.792 63.8353 21.792 63.5375V63.0411C21.792 62.8426 21.991 62.5447 22.19 62.3462L22.5881 62.1476C22.7871 62.0483 22.9861 62.0483 22.9861 62.3462V62.8426C22.9861 63.1404 22.7871 63.3389 22.5881 63.5375ZM21.593 61.1548V60.6585C21.593 60.4599 21.792 60.0628 21.991 59.9635L22.3891 59.765C22.5881 59.6657 22.7871 59.6657 22.8866 59.9635V60.4599C22.8866 60.6584 22.6876 60.9563 22.4886 61.1548L22.0905 61.3534C21.8915 61.4527 21.593 61.3534 21.593 61.1548ZM21.4935 58.4743V57.8787C21.4935 57.5809 21.6925 57.283 21.8915 57.0845L22.2895 56.8859C22.5881 56.7866 22.7871 56.8859 22.7871 57.0845V57.6801C22.7871 57.978 22.5881 58.2758 22.3891 58.3751L21.991 58.5736C21.6925 58.8715 21.4935 58.7722 21.4935 58.4743ZM20.6974 64.6295L20.2994 64.8281C20.1004 64.9274 19.9013 64.9274 19.8018 64.6295V64.1332C19.8018 63.9346 19.9013 63.6368 20.1999 63.5375L20.5979 63.3389C20.7969 63.2397 20.9959 63.2397 21.0954 63.5375V64.0339C21.0954 64.2324 20.8964 64.5303 20.6974 64.6295ZM19.6028 62.3462L19.5033 61.8498C19.5033 61.6512 19.7023 61.2541 19.9013 61.1548L20.2994 60.9563C20.4984 60.857 20.7969 60.857 20.7969 61.1548V61.6512C20.7969 61.8498 20.5979 62.1476 20.3989 62.3462L20.0009 62.5447C19.8018 62.644 19.6028 62.5447 19.6028 62.3462ZM19.3043 59.6657V59.1693C19.3043 58.8715 19.5033 58.5736 19.7023 58.3751L20.1004 58.1765C20.3989 58.0772 20.5979 58.1765 20.5979 58.3751V58.9707C20.5979 59.2686 20.3989 59.5664 20.1999 59.6657L19.8018 59.8642C19.6028 60.0628 19.4038 59.9635 19.3043 59.6657ZM18.8068 65.7216L18.4087 65.9201C18.2097 66.0194 18.0107 66.0194 17.9112 65.8209L17.8117 65.3245C17.8117 65.1259 17.9112 64.8281 18.2097 64.7288L18.6077 64.5303C18.8067 64.431 19.0058 64.431 19.1053 64.7288L19.2048 65.2252C19.2048 65.3245 19.0058 65.6223 18.8068 65.7216ZM17.6126 63.4382L17.5131 62.9418C17.5131 62.7433 17.6126 62.4454 17.9112 62.2469L18.3092 62.0483C18.5082 61.9491 18.8068 61.9491 18.8068 62.2469L18.9063 62.7433C18.9063 62.9418 18.8068 63.2397 18.5082 63.4382L18.1102 63.6368C17.8117 63.7361 17.6126 63.736 17.6126 63.4382ZM17.2146 60.857L17.1151 60.3606C17.1151 60.0628 17.2146 59.765 17.5131 59.6657L17.9112 59.4671C18.2097 59.3678 18.4087 59.4671 18.4087 59.6657L18.5082 60.2613C18.5082 60.5592 18.4087 60.857 18.1102 60.9563L17.7122 61.1548C17.5131 61.2541 17.3141 61.1548 17.2146 60.857ZM16.8166 66.8136L16.4185 67.0122C16.2195 67.1115 16.0205 67.1115 15.921 66.9129L15.8215 66.5158C15.8215 66.3173 15.921 66.0194 16.2195 65.9201L16.6176 65.7216C16.8166 65.6223 17.0156 65.6223 17.1151 65.8209L17.2146 66.3173C17.2146 66.4165 17.1151 66.7144 16.8166 66.8136ZM15.6225 64.6295L15.523 64.1332C15.523 63.9346 15.6225 63.6368 15.921 63.4382L16.319 63.2397C16.5181 63.1404 16.8166 63.1404 16.8166 63.4382L16.9161 63.9346C16.9161 64.1332 16.8166 64.431 16.5181 64.6295L16.12 64.8281C15.8215 64.9274 15.6225 64.8281 15.6225 64.6295ZM15.1249 62.1476L15.0254 61.6512C15.0254 61.3534 15.1249 61.0556 15.4235 60.9563L15.8215 60.6585C16.12 60.5592 16.319 60.5592 16.319 60.857L16.4185 61.3534C16.4185 61.6512 16.319 61.9491 16.0205 62.0483L15.6225 62.2469C15.4235 62.4454 15.2244 62.3462 15.1249 62.1476ZM23.1851 54.6025C23.0856 54.6025 14.7269 59.3678 14.0303 59.765C13.3338 60.1621 13.1348 60.857 13.1348 60.857L15.324 71.0826L15.921 70.6855C16.0205 70.6855 16.2195 70.7847 16.319 70.7847L23.5832 66.6151L23.1851 54.6025Z" fill="#DF192C"></path> <path d="M24.5786 54.6025V66.5158H24.4791H24.3795H24.28C24.081 66.5158 23.7825 66.5158 23.5835 66.6151H23.484L23.0859 54.6025H23.285H23.3845C23.484 54.6025 23.5835 54.6025 23.683 54.6025H23.7825H23.9815H24.081H24.28H24.5786Z" fill="#DF192C"></path> <path d="M31.943 62.3456L32.341 62.5442C32.54 62.6434 32.739 62.6434 32.8385 62.3456L32.6395 62.2463L32.2415 62.1471C31.943 62.0478 31.7439 61.6507 31.8434 61.4521V60.9557V60.8564C31.6444 60.8564 31.5449 60.9557 31.5449 61.1543V61.6507C31.5449 61.9485 31.7439 62.2463 31.943 62.3456Z" fill="#15141D"></path> <path d="M33.9317 66.1184L34.3298 66.317C34.5288 66.4162 34.7278 66.4162 34.8273 66.1184L34.6283 66.0191L34.2303 65.9198C33.9317 65.8206 33.8322 65.5227 33.8322 65.2249V64.7285C33.6332 64.7285 33.5337 64.8278 33.5337 64.9271V65.4235C33.4342 65.622 33.6332 66.0191 33.9317 66.1184Z" fill="#15141D"></path> <path d="M31.8419 64.927L32.2399 65.2248C32.4389 65.3241 32.638 65.3241 32.7375 65.0263L32.5384 64.927L32.1404 64.7284C31.8419 64.6292 31.7424 64.3313 31.7424 64.0335V63.5371C31.5434 63.5371 31.4439 63.6364 31.4439 63.7357V64.232C31.3443 64.5299 31.5434 64.8277 31.8419 64.927Z" fill="#15141D"></path> <path d="M34.131 63.5393L34.529 63.7378C34.728 63.8371 34.927 63.8371 35.0265 63.6386L34.8275 63.5393L34.4295 63.3407C34.1309 63.2415 34.0314 62.8444 34.0314 62.6458V62.1494C33.8324 62.1494 33.7329 62.2487 33.7329 62.4472V62.9436C33.6334 63.0429 33.8324 63.44 34.131 63.5393Z" fill="#15141D"></path> <path d="M29.8517 61.1548L30.2497 61.3534C30.4487 61.4527 30.6477 61.4527 30.7472 61.1548L30.5482 61.0556L30.1502 60.857C29.8517 60.7577 29.6526 60.3606 29.7521 60.1621V59.6657V59.5664C29.5531 59.5664 29.4536 59.6657 29.4536 59.8642V60.3606C29.3541 60.7577 29.5531 61.0556 29.8517 61.1548Z" fill="#15141D"></path> <path d="M36.2203 64.7288L36.6183 64.9273C36.8174 65.0266 37.1159 65.0266 37.1159 64.828L36.9169 64.7288L36.5188 64.5302C36.2203 64.4309 36.1208 64.0338 36.1208 63.8353V63.3389C35.9218 63.3389 35.8223 63.4381 35.8223 63.6367V64.1331C35.8223 64.2324 36.0213 64.6295 36.2203 64.7288Z" fill="#15141D"></path> <path d="M36.023 67.3108L36.4211 67.5093C36.6201 67.6086 36.9186 67.6086 36.9186 67.4101L36.7196 67.3108L36.3216 67.1122C36.1225 67.013 35.9235 66.7151 35.9235 66.4173V65.9209C35.7245 65.9209 35.625 66.0202 35.625 66.1195V66.6158C35.625 66.8144 35.824 67.1122 36.023 67.3108Z" fill="#15141D"></path> <path d="M38.1109 68.4026L38.509 68.6011C38.708 68.7004 39.0065 68.7004 39.0065 68.5019L38.8075 68.4026L38.4094 68.204C38.1109 68.1047 38.0114 67.8069 38.0114 67.5091L38.1109 67.0127C37.9119 67.0127 37.8124 67.112 37.8124 67.2112L37.7129 67.7076C37.7129 68.0055 37.9119 68.3033 38.1109 68.4026Z" fill="#15141D"></path> <path d="M38.4097 65.9192L38.8078 66.1177C39.0068 66.217 39.3053 66.217 39.3053 66.0185L39.1063 65.9192L38.7083 65.7206C38.4097 65.6213 38.3102 65.2242 38.3102 65.0257L38.4097 64.5293C38.2107 64.5293 38.1112 64.6286 38.1112 64.8271L38.0117 65.2242C38.0117 65.4228 38.1112 65.8199 38.4097 65.9192Z" fill="#15141D"></path> <path d="M29.6539 63.7353L30.0519 63.9338C30.2509 64.0331 30.45 64.0331 30.5495 63.7353L30.3505 63.636L29.9524 63.4374C29.7534 63.3381 29.5544 63.0403 29.5544 62.7425V62.2461C29.3554 62.2461 29.2559 62.3454 29.2559 62.5439V63.0403C29.2559 63.3381 29.4549 63.636 29.6539 63.7353Z" fill="#15141D"></path> <path d="M34.4305 68.6008L34.0325 68.4023C33.8335 68.303 33.6345 68.0052 33.6345 67.7073V67.2109C33.4354 67.2109 33.3359 67.3102 33.3359 67.4095V67.9059C33.3359 68.1044 33.535 68.4023 33.734 68.6008L34.132 68.7994C34.331 68.8986 34.53 68.8987 34.6296 68.6008H34.4305Z" fill="#15141D"></path> <path d="M28.2606 65.2248L27.8626 65.0263C27.6636 64.927 27.4645 64.6292 27.4645 64.3313V63.835C27.2655 63.835 27.166 63.9342 27.166 64.0335V64.5299C27.166 64.7285 27.365 65.0263 27.564 65.2248L27.9621 65.4234C28.1611 65.5227 28.3601 65.5227 28.4596 65.2248H28.2606Z" fill="#15141D"></path> <path d="M30.2508 66.3176L29.8528 66.1191C29.6538 66.0198 29.4548 65.722 29.4548 65.4241V64.9277C29.2558 64.9277 29.1562 65.027 29.1562 65.1263V65.6227C29.1562 65.8212 29.3553 66.1191 29.5543 66.3176L29.9523 66.5162C30.1513 66.6155 30.3504 66.6155 30.4499 66.3176H30.2508Z" fill="#15141D"></path> <path d="M32.3407 67.5087L31.9427 67.2109C31.7436 67.1116 31.5446 66.8137 31.5446 66.5159V66.0195C31.3456 66.0195 31.2461 66.1188 31.2461 66.2181V66.7145C31.2461 66.913 31.4451 67.2109 31.6441 67.4094L32.0422 67.608C32.2412 67.7072 32.4402 67.7072 32.5397 67.4094L32.3407 67.5087Z" fill="#15141D"></path> <path d="M36.5204 69.7922L36.1223 69.5937C35.9233 69.4944 35.7243 69.1966 35.7243 68.8987V68.4023C35.5253 68.4023 35.4258 68.5016 35.4258 68.6009V69.0973C35.4258 69.2958 35.6248 69.5937 35.8238 69.7922L36.2219 69.9908C36.4209 70.0901 36.6199 70.0901 36.7194 69.7922H36.5204Z" fill="#15141D"></path> <path d="M38.6102 70.884L38.2122 70.6855C38.0132 70.5862 37.8141 70.2884 37.8141 69.9905L37.9137 69.4941C37.7146 69.4941 37.6151 69.5934 37.6151 69.6927L37.5156 70.1891C37.5156 70.3876 37.7146 70.6855 37.9137 70.884L38.3117 71.0826C38.5107 71.1819 38.8092 71.1819 38.8092 70.9833L38.6102 70.884Z" fill="#15141D"></path> <path d="M27.6637 59.9625L28.0617 60.161C28.2607 60.2603 28.4597 60.2603 28.5592 59.9625L28.3602 59.8632L27.9622 59.6646C27.6637 59.5654 27.4646 59.1682 27.5641 58.9697V58.4733V58.374C27.3651 58.374 27.2656 58.4733 27.2656 58.6719V59.1682C27.2656 59.5654 27.4646 59.8632 27.6637 59.9625Z" fill="#15141D"></path> <path d="M25.5737 58.7717L25.9717 58.9703C26.1708 59.0695 26.3698 59.0696 26.4693 58.7717L26.2703 58.871L25.8722 58.6724C25.5737 58.5732 25.3747 58.1761 25.3747 57.9775V57.4811V57.3818C25.1757 57.3818 25.0762 57.4811 25.0762 57.6797V58.1761C25.0762 58.3746 25.2752 58.6724 25.5737 58.7717Z" fill="#15141D"></path> <path d="M27.564 62.6444L27.9621 62.843C28.1611 62.9423 28.3601 62.9423 28.4596 62.6444L28.2606 62.5452L27.8626 62.3466C27.564 62.2473 27.4645 61.8502 27.4645 61.6517V61.1553C27.2655 61.1553 27.166 61.2545 27.166 61.4531V61.9495C27.166 62.148 27.365 62.4459 27.564 62.6444Z" fill="#15141D"></path> <path d="M26.1708 64.0354L25.7727 63.8368C25.5737 63.7376 25.3747 63.4397 25.3747 63.1419V62.6455C25.1757 62.6455 25.0762 62.7448 25.0762 62.8441V63.3404C25.0762 63.539 25.2752 63.8368 25.4742 64.0354L25.8722 64.2339C26.0713 64.3332 26.2703 64.3332 26.3698 64.0354H26.1708Z" fill="#15141D"></path> <path d="M25.4747 61.4524L25.8727 61.6509C26.0718 61.7502 26.2708 61.7502 26.3703 61.4524L26.2708 61.3531L25.7732 61.2538C25.4747 61.1545 25.2757 60.7574 25.3752 60.5589V60.0625C25.1762 60.0625 25.0767 60.1618 25.0767 60.3603V60.8567C24.9772 60.956 25.1762 61.3531 25.4747 61.4524Z" fill="#15141D"></path> <path d="M18.1105 59.368L18.21 59.9637C18.21 60.2615 18.1105 60.5594 17.812 60.6587L17.414 60.8572L17.3145 60.9565C17.414 61.155 17.613 61.2543 17.812 61.0558L18.21 60.8572C18.409 60.7579 18.6081 60.3608 18.6081 60.1623L18.5086 59.5666C18.5086 59.3681 18.3095 59.2688 18.1105 59.368Z" fill="#15141D"></path> <path d="M20.2999 58.1757V58.7713C20.2999 59.0692 20.1009 59.367 19.9018 59.4663L19.5038 59.6648L19.4043 59.7641C19.5038 59.9627 19.7028 60.0619 19.9018 59.8634L20.2999 59.6648C20.4989 59.5655 20.6979 59.1684 20.6979 58.9699V58.3742C20.5984 58.1757 20.4989 58.0764 20.2999 58.1757Z" fill="#15141D"></path> <path d="M18.4093 62.0477L18.5089 62.5441C18.5089 62.7427 18.4093 63.0405 18.1108 63.2391L17.7128 63.4376L17.6133 63.5369C17.7128 63.7355 17.9118 63.8347 18.1108 63.6362L18.5089 63.4376C18.7079 63.3383 18.9069 63.0405 18.9069 62.7427L18.8074 62.2463C18.8074 62.0477 18.6084 61.9485 18.4093 62.0477Z" fill="#15141D"></path> <path d="M20.4992 60.8573L20.5987 61.453C20.5987 61.6515 20.3997 61.9494 20.2007 62.1479L19.8026 62.3465H19.7031C19.7031 62.545 19.9021 62.6443 20.2007 62.4457L20.5987 62.2472C20.7977 62.1479 20.9967 61.8501 20.9967 61.5523V61.0559C20.7977 60.8573 20.6982 60.758 20.4992 60.8573Z" fill="#15141D"></path> <path d="M22.4893 59.6649V60.2606C22.4893 60.4591 22.2903 60.8562 22.0913 60.9555L21.6933 61.1541H21.5938C21.5938 61.3526 21.7928 61.4519 21.9918 61.2534L22.3898 61.0548C22.5888 60.9555 22.7879 60.6577 22.7879 60.3599V59.8635C22.8874 59.6649 22.6883 59.5656 22.4893 59.6649Z" fill="#15141D"></path> <path d="M22.3897 56.9847V57.5804C22.3897 57.8782 22.1907 58.176 21.9917 58.2753L21.5936 58.4738H21.4941C21.5936 58.6724 21.6932 58.7717 21.9917 58.5731L22.3897 58.3746C22.5887 58.2753 22.7878 57.8782 22.7878 57.6796V57.084C22.7878 56.8854 22.5887 56.7861 22.3897 56.7861V56.9847Z" fill="#15141D"></path> <path d="M19.1062 64.6311C19.1062 64.4325 18.9072 64.3332 18.7082 64.4325L18.8077 64.9289C18.8077 65.1274 18.7082 65.4253 18.4097 65.5246L18.0116 65.7231H17.9121C17.9121 65.9217 18.1111 66.0209 18.4097 65.8224L18.8077 65.6238C19.0067 65.5246 19.2057 65.2267 19.2057 65.0282L19.1062 64.6311Z" fill="#15141D"></path> <path d="M16.4191 63.2401L16.5186 63.7365C16.5186 63.9351 16.4191 64.2329 16.1206 64.4314L15.7226 64.63L15.623 64.7293C15.7226 64.9278 15.9216 65.0271 16.1206 64.8286L16.5186 64.63C16.7176 64.5307 16.9167 64.2329 16.9167 63.9351L16.8171 63.4387C16.7176 63.2401 16.6181 63.1408 16.4191 63.2401Z" fill="#15141D"></path> <path d="M20.6983 63.339V63.8354C20.6983 64.0339 20.4993 64.3317 20.3003 64.431L19.9022 64.6296H19.8027C19.8027 64.8281 20.0018 64.9274 20.2008 64.7289L20.5988 64.5303C20.7978 64.431 20.9968 64.1332 20.9968 63.9346V63.4382C20.9968 63.339 20.8973 63.2397 20.6983 63.339Z" fill="#15141D"></path> <path d="M22.987 62.4455C22.987 62.247 22.788 62.1477 22.5889 62.247V62.7433C22.5889 62.9419 22.3899 63.2397 22.1909 63.339L21.7929 63.5376H21.6934C21.6934 63.7361 21.8924 63.8354 22.0914 63.6368L22.4894 63.4383C22.6884 63.339 22.8875 63.0412 22.8875 62.8426L22.987 62.4455Z" fill="#15141D"></path> <path d="M16.0206 60.6583L16.1201 61.1547C16.1201 61.3533 16.0206 61.7504 15.7221 61.8496L15.324 62.1475L15.125 62.2468C15.2245 62.4453 15.4235 62.4453 15.6225 62.346L16.0206 62.1475C16.2196 62.0482 16.4186 61.6511 16.4186 61.4525L16.3191 60.9562C16.3191 60.6583 16.2196 60.559 16.0206 60.6583Z" fill="#15141D"></path> <path d="M17.116 65.7229C17.116 65.5243 16.917 65.425 16.7179 65.5243L16.8175 66.0207C16.8175 66.2192 16.7179 66.5171 16.4194 66.6163L16.0214 66.8149L15.9219 66.9142C15.9219 67.1127 16.2204 67.212 16.4194 67.0135L16.8175 66.8149C17.0165 66.7156 17.2155 66.4178 17.2155 66.2192L17.116 65.7229Z" fill="#15141D"></path> <path d="M39.1062 72.3726L38.7081 72.5712C38.5091 72.6704 38.3101 72.6704 38.3101 72.3726V71.8762C38.3101 71.6777 38.5091 71.3798 38.8077 71.1813L39.2057 70.9827C39.4047 70.8835 39.6037 70.8835 39.6037 71.1813L39.5042 71.6777C39.5042 71.9755 39.3052 72.2733 39.1062 72.3726ZM39.3052 73.5639L39.2057 73.9611C39.2057 74.1596 39.0067 74.4574 38.8077 74.5567L38.4096 74.7553C38.2106 74.8545 38.0116 74.8545 38.0116 74.656V74.2589C38.0116 74.0603 38.2106 73.7625 38.5091 73.6632L38.9072 73.4647C39.2057 73.2661 39.4047 73.3654 39.3052 73.5639ZM37.8126 70.3871C37.8126 70.5856 37.6136 70.8835 37.315 71.082L36.917 71.2806C36.718 71.3798 36.519 71.3798 36.519 71.082V70.5856C36.519 70.3871 36.718 69.99 37.0165 69.8907L37.4145 69.6921C37.7131 69.5929 37.8126 69.5928 37.8126 69.8907V70.3871ZM37.6136 72.869C37.6136 73.0676 37.4145 73.3654 37.116 73.4647L36.718 73.6632C36.519 73.7625 36.3199 73.7625 36.3199 73.5639V73.0676C36.3199 72.869 36.519 72.5712 36.8175 72.3726L37.2155 72.1741C37.4145 72.0748 37.6136 72.0748 37.6136 72.3726V72.869ZM37.4145 75.0531C37.4145 75.2517 37.2155 75.5495 37.0165 75.6488L36.6185 75.8473C36.4195 75.9466 36.2204 75.9466 36.2204 75.748V75.3509C36.2204 75.1524 36.4195 74.8545 36.6185 74.7553L37.0165 74.5567C37.2155 74.4574 37.4145 74.4574 37.4145 74.656V75.0531ZM35.7229 71.5784C35.7229 71.777 35.5239 72.0748 35.2253 72.2733L34.8273 72.4719C34.6283 72.5712 34.4293 72.5712 34.4293 72.2733V71.7769C34.4293 71.5784 34.6283 71.1813 34.9268 71.082L35.3249 70.8835C35.6234 70.7842 35.7229 70.7842 35.7229 71.082V71.5784ZM35.6234 73.9611C35.6234 74.1596 35.4244 74.4574 35.2253 74.5567L34.8273 74.7553C34.6283 74.8545 34.4293 74.8545 34.4293 74.656V74.1596C34.4293 73.9611 34.6283 73.6632 34.8273 73.5639L35.2253 73.3654C35.4244 73.2661 35.6234 73.2661 35.6234 73.5639V73.9611ZM35.5239 76.1452C35.5239 76.3437 35.3249 76.6415 35.1258 76.7408L34.7278 76.9394C34.5288 77.0387 34.3298 77.0386 34.3298 76.8401V76.443C34.3298 76.2444 34.5288 75.9466 34.7278 75.8473L35.1258 75.6488C35.3249 75.5495 35.5239 75.5495 35.5239 75.748V76.1452ZM33.6332 72.7697C33.6332 72.9683 33.4342 73.2661 33.2352 73.4647L32.8371 73.6632C32.6381 73.7625 32.4391 73.7625 32.3396 73.4647V72.9683C32.3396 72.7697 32.5386 72.4719 32.7376 72.2733L33.2352 72.1741C33.5337 72.0748 33.7327 72.0748 33.7327 72.3726L33.6332 72.7697ZM33.6332 75.1524C33.6332 75.3509 33.4342 75.6488 33.2352 75.748L32.8371 75.9466C32.6381 76.0459 32.4391 76.0459 32.4391 75.8473V75.4502C32.4391 75.2517 32.6381 74.9538 32.8371 74.8545L33.2352 74.656C33.4342 74.5567 33.6332 74.5567 33.6332 74.7553V75.1524ZM33.6332 77.3365C33.6332 77.535 33.4342 77.8329 33.2352 77.9321L32.8371 78.1307C32.6381 78.23 32.4391 78.23 32.4391 78.0314V77.6343C32.4391 77.4358 32.6381 77.1379 32.8371 77.0387L33.2352 76.8401C33.4342 76.7408 33.6332 76.7408 33.6332 76.9394V77.3365ZM39.9022 68.6994V69.1957C39.9022 69.3943 39.6037 69.7914 39.4047 69.8907L39.0067 70.1885C38.8077 70.2878 38.6086 70.2878 38.6086 69.99L38.7081 69.4936C38.7081 69.1957 38.9072 68.8979 39.2057 68.7986L39.6037 68.6001C39.8027 68.3022 40.0018 68.4015 39.9022 68.6994ZM40.8973 65.8203L31.8421 70.9827L30.0509 70.8835L12.8359 60.8564L15.0251 71.1813V71.2806V71.3798C15.0251 71.4791 15.1246 71.6777 15.3236 71.7769L13.433 61.5514L29.4539 71.7769L30.1504 80.2155C30.3494 80.3148 30.648 80.4141 30.847 80.4141C31.1455 80.4141 31.444 80.3148 31.7426 80.2155L39.5042 75.748H39.6037C39.9023 75.5495 40.1013 75.3509 40.1013 75.0531L42.2905 64.7283L40.8973 65.8203Z" fill="#DF192C"></path> <path d="M28.9569 78.3296L28.5589 78.1311C28.3599 78.0318 28.0613 77.734 28.0613 77.5354V77.1383C28.0613 76.9397 28.2604 76.8405 28.4594 77.039L28.8574 77.2376C29.0564 77.3368 29.355 77.6347 29.355 77.8332V78.2303C29.4545 78.3296 29.2554 78.4289 28.9569 78.3296ZM27.8623 74.7556C27.8623 74.5571 28.0613 74.4578 28.2604 74.6564L28.6584 74.8549C28.9569 74.9542 29.1559 75.252 29.1559 75.4506V75.8477C29.1559 76.0462 28.9569 76.1455 28.7579 75.947L28.3599 75.7484C28.0613 75.6491 27.8623 75.3513 27.8623 75.1527V74.7556ZM27.6633 72.4723C27.6633 72.2737 27.8623 72.1744 28.0613 72.373L28.4594 72.5715C28.7579 72.6708 28.9569 72.9686 28.9569 73.2665V73.7629C28.9569 73.9614 28.7579 74.0607 28.5589 73.8621L28.2604 73.6636C27.9618 73.5643 27.7628 73.2665 27.7628 72.9686L27.6633 72.4723ZM26.8672 77.1383L26.4692 76.9397C26.2702 76.8405 25.9717 76.5426 25.9717 76.3441V75.947C25.9717 75.7484 26.1707 75.6491 26.3697 75.8477L26.7677 76.0462C27.0663 76.1455 27.2653 76.4433 27.2653 76.6419V77.039C27.3648 77.2376 27.1658 77.2376 26.8672 77.1383ZM25.7726 73.6636C25.7726 73.465 25.9717 73.3658 26.1707 73.5643L26.5687 73.7629C26.8672 73.8621 27.0663 74.16 27.0663 74.3585V74.8549C27.0663 75.0535 26.8672 75.1527 26.6682 74.9542L26.2702 74.7556C25.9717 74.6564 25.7726 74.3585 25.7726 74.16V73.6636ZM25.5736 71.2809C25.5736 71.0824 25.7726 70.9831 25.9717 71.1817L26.3697 71.3802C26.6682 71.4795 26.8672 71.7773 26.8672 72.0752V72.5715C26.8672 72.7701 26.6682 72.8694 26.4692 72.6708L26.0712 72.4723C25.7726 72.373 25.5736 72.0751 25.5736 71.7773V71.2809ZM24.8771 75.947L24.479 75.7484C24.28 75.6491 23.9815 75.3513 23.9815 75.1527V74.7556C23.9815 74.5571 24.1805 74.4578 24.3795 74.6564L24.7776 74.8549C24.9766 74.9542 25.2751 75.252 25.2751 75.4506V75.8477C25.2751 76.0462 25.0761 76.1455 24.8771 75.947ZM23.683 72.4723C23.683 72.2737 23.882 72.1744 24.081 72.373L24.479 72.5715C24.7776 72.6708 24.9766 72.9686 24.9766 73.1672V73.6636C24.9766 73.8621 24.7776 73.9614 24.5785 73.7629L24.1805 73.5643C23.882 73.465 23.683 73.1672 23.683 72.9686V72.4723ZM23.3844 70.0896C23.3844 69.891 23.5835 69.7918 23.7825 69.9903L24.28 70.1889C24.5785 70.2882 24.7776 70.586 24.7776 70.8838V71.3802C24.7776 71.5788 24.5785 71.678 24.3795 71.4795L23.9815 71.2809C23.683 71.1817 23.484 70.8838 23.484 70.586L23.3844 70.0896ZM22.7874 74.8549L22.3894 74.6564C22.1903 74.5571 21.8918 74.2593 21.8918 74.0607L21.7923 73.6636C21.7923 73.465 21.9913 73.3658 22.1903 73.5643L22.5884 73.7629C22.7874 73.8621 23.0859 74.16 23.0859 74.3585L23.1854 74.7556C23.1854 74.9542 22.9864 74.9542 22.7874 74.8549ZM21.4938 71.2809C21.4938 71.0824 21.6928 70.9831 21.8918 71.1817L22.2899 71.3802C22.5884 71.4795 22.7874 71.7773 22.7874 72.0752L22.8869 72.5715C22.8869 72.7701 22.6879 72.8694 22.4889 72.6708L22.0908 72.4723C21.7923 72.373 21.5933 72.0751 21.5933 71.8766L21.4938 71.2809ZM21.1953 68.8983C21.1953 68.6997 21.3943 68.6004 21.5933 68.6997L21.9913 68.8983C22.2899 68.9975 22.4889 69.2954 22.4889 69.5932L22.5884 70.0896C22.5884 70.2882 22.3894 70.3874 22.1903 70.1889L21.7923 69.9903C21.4938 69.8911 21.2948 69.5932 21.2948 69.2954L21.1953 68.8983ZM20.6977 73.6636L20.2997 73.465C20.1007 73.3658 19.8021 73.0679 19.8021 72.8694L19.7026 72.373C19.7026 72.1744 19.9016 72.0751 20.1007 72.2737L20.4987 72.4723C20.6977 72.5715 20.9962 72.8694 20.9962 73.0679L21.0957 73.465C21.0957 73.7629 20.8967 73.8621 20.6977 73.6636ZM19.5036 70.586L19.4041 70.0896C19.4041 69.891 19.6031 69.7918 19.8021 69.9903L20.2002 70.1889C20.4987 70.2882 20.6977 70.586 20.6977 70.8838L20.7972 71.3802C20.7972 71.5788 20.5982 71.678 20.3992 71.4795L20.0012 71.1817C19.7026 71.0824 19.5036 70.7845 19.5036 70.586ZM19.1056 68.2033L19.0061 67.7069C19.0061 67.5084 19.2051 67.4091 19.4041 67.5084L19.8021 67.7069C20.1007 67.8062 20.2997 68.1041 20.2997 68.4019L20.3992 68.8983C20.3992 69.0968 20.2002 69.1961 20.0012 68.9976L19.6031 68.799C19.4041 68.6997 19.2051 68.4019 19.1056 68.2033ZM18.608 72.5715L18.21 72.373C18.011 72.2737 17.7125 71.9759 17.7125 71.7773L17.613 71.1817C17.613 70.9831 17.7125 70.8838 18.011 71.0824L18.409 71.2809C18.608 71.3802 18.9066 71.678 18.9066 71.8766L19.0061 72.373C19.0061 72.5715 18.8071 72.6708 18.608 72.5715ZM17.3144 69.3947V68.8983C17.3144 68.6997 17.4139 68.6004 17.7125 68.6997L18.1105 68.8983C18.409 68.9975 18.608 69.2954 18.608 69.5932L18.7075 70.0896C18.7075 70.2882 18.608 70.3874 18.3095 70.1889L17.9115 69.9903C17.613 69.8911 17.4139 69.5932 17.3144 69.3947ZM17.0159 67.012L16.9164 66.5156C16.9164 66.3171 17.0159 66.2178 17.3144 66.3171L17.7125 66.5156C18.011 66.6149 18.21 66.9127 18.21 67.2106L18.3095 67.7069C18.3095 67.9055 18.1105 68.0048 17.9115 67.9055L17.5134 67.7069C17.2149 67.5084 17.0159 67.2106 17.0159 67.012ZM16.5184 71.3802L16.1203 71.1817C15.9213 71.0824 15.6228 70.7845 15.6228 70.586L15.5233 70.0896C15.5233 69.891 15.6228 69.7918 15.9213 69.9903L16.3193 70.1889C16.6179 70.2882 16.8169 70.586 16.8169 70.7845L16.9164 71.2809C16.9164 71.4795 16.7174 71.4795 16.5184 71.3802ZM15.2247 68.2033L15.1252 67.7069C15.1252 67.5084 15.2247 67.4091 15.5233 67.5084L15.9213 67.7069C16.2198 67.8062 16.4188 68.1041 16.4188 68.4019L16.5184 68.8983C16.5184 69.0968 16.4188 69.1961 16.1203 68.9976L15.7223 68.799C15.5233 68.6997 15.2247 68.4019 15.2247 68.2033ZM14.8267 65.8207L14.7272 65.3243C14.7272 65.1257 14.8267 65.0265 15.1252 65.1257L15.5233 65.3243C15.8218 65.4236 16.0208 65.7214 16.0208 66.0192L16.1203 66.5156C16.1203 66.7142 16.0208 66.8135 15.7223 66.7142L15.3243 66.5156C15.1252 66.4163 14.8267 66.0192 14.8267 65.8207ZM29.4545 71.7773L13.4336 61.5518L15.3243 71.7773C15.2247 71.678 15.1252 71.5788 15.0257 71.3802C15.0257 71.5788 15.2247 71.678 15.4238 71.7773L30.0515 80.2159L29.4545 71.7773Z" fill="#DF192C"></path> <path d="M40.8978 65.8201L31.8425 70.9825L30.0514 70.8832L15.2246 62.2461C15.2246 62.3454 15.2246 62.5439 15.2246 62.6432L29.4543 71.7767L30.1509 80.2153C30.3499 80.3146 30.6484 80.4138 30.8474 80.4138C31.146 80.4138 31.4445 80.3146 31.743 80.2153L31.942 71.3796L41.2958 66.7136L39.6042 75.7478H39.7037C40.0022 75.5492 40.2012 75.3507 40.2012 75.0529L42.3904 64.728L40.8978 65.8201Z" fill="#DF192C"></path> <path d="M14.9255 62.5442C14.9255 62.4449 14.9255 62.2463 14.9255 62.1471L12.7363 60.8564L14.9255 71.1813V71.2806V71.3798C14.9255 71.4791 15.025 71.6777 15.224 71.7769L13.3334 61.5514L14.9255 62.5442Z" fill="#15141D"></path> <path d="M39.7035 75.4499L31.7428 80.0167C31.4443 80.116 31.1458 80.2152 30.8472 80.2152C30.5487 80.2152 30.3497 80.116 30.1507 80.0167L15.3239 71.5781C15.2244 71.4788 15.1249 71.3796 15.0254 71.2803C15.0254 71.4788 15.1249 71.6774 15.4234 71.8759L30.0512 80.3145C30.2502 80.4138 30.5487 80.5131 30.7477 80.5131C31.0463 80.5131 31.3448 80.4138 31.6433 80.3145L39.5045 75.847C39.7035 75.7478 39.803 75.6485 39.9025 75.5492L39.7035 75.4499Z" fill="#DF192C"></path> <path d="M40.8973 65.8203L31.8421 70.9827L30.0509 70.8835L12.8359 60.8564L13.3335 63.1398C13.433 63.2391 13.5325 63.2391 13.632 63.3384L28.7573 72.0748C29.2548 72.3726 29.9514 72.5712 30.7475 72.5712C31.643 72.5712 32.5386 72.3726 33.2352 71.9755L41.1959 67.4087C41.3949 67.3095 41.5939 67.1109 41.7929 67.0116L42.1909 64.9268L40.8973 65.8203Z" fill="#DF192C"></path> <path d="M16.9165 71.1805L16.4189 70.9819C16.2199 70.8826 15.9214 70.5848 15.9214 70.3862L15.8219 69.9891C15.6228 69.8899 15.4238 69.9891 15.4238 70.1877L15.5233 70.6841C15.5233 70.8826 15.8219 71.1805 16.0209 71.2797L16.4189 71.4783C16.7174 71.4783 16.9165 71.4783 16.9165 71.1805Z" fill="#15141D"></path> <path d="M18.3095 70.2892C18.6081 70.3885 18.7076 70.3885 18.7076 70.1899V70.0906L18.3095 69.8921C18.011 69.7928 17.812 69.495 17.812 69.2964L17.7125 68.8993C17.5135 68.8 17.3145 68.8993 17.3145 69.0979L17.414 69.5942C17.414 69.7928 17.7125 70.0906 17.9115 70.1899L18.3095 70.2892Z" fill="#15141D"></path> <path d="M16.1201 69.0965C16.4186 69.1957 16.5181 69.1957 16.5181 68.9972V68.8979L16.1201 68.6994C15.8216 68.6001 15.6225 68.3022 15.6225 68.0044L15.523 67.6073C15.324 67.508 15.125 67.6073 15.125 67.8059L15.2245 68.3022C15.2245 68.5008 15.523 68.7986 15.7221 68.9972L16.1201 69.0965Z" fill="#15141D"></path> <path d="M19.0063 72.2742L18.5088 72.0757C18.3097 71.9764 18.0112 71.6786 18.0112 71.48L17.9117 71.0829C17.7127 70.9836 17.5137 71.0829 17.5137 71.2814L17.6132 71.7778C17.6132 71.9764 17.9117 72.2742 18.1107 72.3735L18.5088 72.5721C18.8073 72.6713 19.0063 72.572 19.0063 72.2742Z" fill="#15141D"></path> <path d="M20.1016 69.0965C20.4002 69.1957 20.4997 69.1957 20.4997 68.9972V68.8979H20.4002L20.0021 68.6994C19.7036 68.6001 19.5046 68.3022 19.5046 68.0044L19.4051 67.6073C19.2061 67.508 19.007 67.6073 19.1065 67.8059L19.2061 68.3022C19.2061 68.5008 19.5046 68.7986 19.7036 68.9972L20.1016 69.0965Z" fill="#15141D"></path> <path d="M21.2939 69.3963C21.2939 69.5949 21.5925 69.8927 21.7915 70.0913L22.1895 70.2898C22.488 70.3891 22.5876 70.3891 22.5876 70.1905V70.0913H22.488L22.09 69.8927C21.7915 69.7934 21.5925 69.4956 21.5925 69.1978L21.493 68.8007C21.2939 68.7014 21.0949 68.8007 21.1944 68.9992L21.2939 69.3963Z" fill="#15141D"></path> <path d="M20.3985 71.4783C20.697 71.5776 20.7965 71.5776 20.7965 71.379V71.2797H20.697L20.299 70.9819C20.0005 70.8826 19.8015 70.5848 19.8015 70.3862L19.7019 69.9891C19.5029 69.8899 19.3039 69.9891 19.4034 70.1877L19.5029 70.6841C19.5029 70.8826 19.8015 71.1805 20.0005 71.2797L20.3985 71.4783Z" fill="#15141D"></path> <path d="M15.8223 66.7133C16.1209 66.8126 16.2204 66.8126 16.2204 66.5148V66.4155L15.7228 66.2169C15.4243 66.1177 15.2253 65.8198 15.2253 65.522L15.1258 65.1249C14.9268 65.0256 14.7277 65.1249 14.8272 65.3234L14.9268 65.8198C14.9268 66.0184 15.2253 66.3162 15.4243 66.5148L15.8223 66.7133Z" fill="#15141D"></path> <path d="M23.981 71.2823L24.3791 71.4809C24.6776 71.5802 24.7771 71.5802 24.7771 71.3816V71.2823H24.6776L24.2796 70.9845C23.981 70.8852 23.782 70.5874 23.782 70.2896V69.8925C23.583 69.7932 23.384 69.8925 23.4835 70.091L23.583 70.5874C23.4835 70.786 23.6825 71.0838 23.981 71.2823Z" fill="#15141D"></path> <path d="M17.0166 67.0122C17.0166 67.2108 17.3151 67.5086 17.5141 67.7072L17.9122 67.9057C18.2107 68.005 18.3102 68.005 18.3102 67.7072V67.6079H18.2107L17.8127 67.4093C17.5141 67.31 17.3151 67.0122 17.3151 66.7144L17.2156 66.3173C17.0166 66.218 16.8176 66.3173 16.9171 66.5158L17.0166 67.0122Z" fill="#15141D"></path> <path d="M27.2655 76.9393L26.8675 76.7407C26.6684 76.6414 26.3699 76.3436 26.3699 76.145V75.7479C26.1709 75.6487 25.9719 75.7479 26.0714 75.9465V76.3436C26.0714 76.5421 26.2704 76.84 26.5689 76.9393L26.967 77.1378C27.166 77.2371 27.365 77.2371 27.365 77.0385L27.2655 76.9393Z" fill="#15141D"></path> <path d="M29.3553 78.032L28.9573 77.8335C28.7583 77.7342 28.4598 77.4364 28.4598 77.2378V76.8407C28.2607 76.7414 28.0617 76.8407 28.1612 77.0393V77.4364C28.1612 77.6349 28.3603 77.9328 28.6588 78.032L29.0568 78.2306C29.2558 78.3299 29.4548 78.3299 29.4548 78.1313L29.3553 78.032Z" fill="#15141D"></path> <path d="M26.2701 74.657L26.6681 74.8556C26.8672 74.9549 27.0662 74.9549 27.0662 74.7563V74.657H26.9667L26.5686 74.4585C26.2701 74.3592 26.0711 74.0614 26.0711 73.8628V73.4657C25.8721 73.3664 25.6731 73.4657 25.7726 73.6643V74.1606C25.8721 74.2599 26.0711 74.5578 26.2701 74.657Z" fill="#15141D"></path> <path d="M28.3599 75.8475L28.758 76.046C29.0565 76.1453 29.156 76.1453 29.156 75.9467V75.8475H29.0565L28.6585 75.6489C28.36 75.5496 28.1609 75.2518 28.1609 75.0532V74.6561C27.9619 74.5569 27.7629 74.6561 27.8624 74.8547V75.2518C27.9619 75.4504 28.1609 75.7482 28.3599 75.8475Z" fill="#15141D"></path> <path d="M26.071 72.4728L26.469 72.6713C26.7675 72.7706 26.8671 72.7706 26.8671 72.5721V72.4728H26.7675L26.469 72.1749C26.1705 72.0757 25.9715 71.7778 25.9715 71.48V71.0829C25.7725 70.9836 25.5734 71.0829 25.673 71.2814V71.7778C25.5734 71.9764 25.872 72.2742 26.071 72.4728Z" fill="#15141D"></path> <path d="M28.2603 73.6629L28.6584 73.8614C28.9569 73.9607 29.1559 73.9607 29.0564 73.7622V73.6629H28.9569L28.5589 73.4643C28.2603 73.3651 28.0613 73.0672 28.0613 72.8687V72.4716C27.8623 72.3723 27.6633 72.4716 27.7628 72.6701V73.1665C27.7628 73.1665 27.9618 73.4643 28.2603 73.6629Z" fill="#15141D"></path> <path d="M24.1803 73.5652L24.5783 73.7638C24.8768 73.8631 24.9763 73.8631 24.9763 73.6645V73.5652H24.8768L24.4788 73.3667C24.1803 73.2674 23.9812 72.9696 23.9812 72.771V72.3739C23.7822 72.2746 23.5832 72.3739 23.6827 72.5725V73.0689C23.6827 73.0689 23.9812 73.3667 24.1803 73.5652Z" fill="#15141D"></path> <path d="M23.0858 74.5584L22.6878 74.3598C22.4888 74.2606 22.1902 73.9627 22.1902 73.7642V73.3671C21.9912 73.2678 21.7922 73.3671 21.8917 73.5656L21.9912 73.9627C21.9912 74.1613 22.1902 74.4591 22.4888 74.5584L22.8868 74.757C23.0858 74.8562 23.2848 74.8562 23.2848 74.6577L23.0858 74.5584Z" fill="#15141D"></path> <path d="M25.1756 75.7479L24.7776 75.5493C24.5786 75.45 24.2801 75.1522 24.2801 74.9536V74.5565C24.0811 74.4572 23.882 74.5565 23.9815 74.7551V75.1522C23.9815 75.3507 24.1806 75.6486 24.4791 75.7479L24.8771 75.9464C25.0761 76.0457 25.2752 76.0457 25.2752 75.8471L25.1756 75.7479Z" fill="#15141D"></path> <path d="M22.0904 72.3738L22.4885 72.5724C22.787 72.6717 22.8865 72.6717 22.8865 72.4731V72.3738H22.787L22.3889 72.1753C22.0904 72.076 21.8914 71.7782 21.8914 71.5796V71.1825C21.6924 71.0832 21.4934 71.1825 21.5929 71.3811L21.6924 71.8774C21.5929 71.9767 21.7919 72.2745 22.0904 72.3738Z" fill="#15141D"></path> <path d="M21.0962 73.4653L20.5987 73.1675C20.3997 73.0682 20.1012 72.7704 20.1012 72.5718V72.1747C19.9021 72.0754 19.7031 72.1747 19.7031 72.3732L19.8026 72.8696C19.8026 73.0682 20.1012 73.366 20.3002 73.4653L20.6982 73.6638C20.8972 73.8624 21.0962 73.7631 21.0962 73.4653Z" fill="#15141D"></path> <path d="M35.3253 73.3663V73.8627C35.3253 74.0613 35.1262 74.3591 34.9272 74.4584L34.5292 74.6569H34.4297C34.4297 74.8555 34.6287 74.9548 34.8277 74.7562L35.2258 74.5576C35.4248 74.4584 35.6238 74.1605 35.6238 73.962V73.4656C35.6238 73.3663 35.5243 73.267 35.3253 73.3663Z" fill="#15141D"></path> <path d="M35.4248 70.8839V71.4796C35.4248 71.6781 35.2258 71.976 34.9272 72.1745L34.5292 72.3731L34.4297 72.4724C34.4297 72.6709 34.6287 72.7702 34.8277 72.5716L35.2258 72.3731C35.4248 72.2738 35.7233 71.976 35.7233 71.6781V71.1817C35.7233 70.8839 35.6238 70.7846 35.4248 70.8839Z" fill="#15141D"></path> <path d="M35.2257 75.5508V75.9479C35.2257 76.1464 35.0266 76.4443 34.8276 76.5436L34.4296 76.7421H34.3301C34.3301 76.9407 34.5291 76.9407 34.7281 76.8414L35.1261 76.6428C35.3252 76.5436 35.5242 76.2457 35.5242 76.0472V75.6501C35.5242 75.5508 35.4247 75.5508 35.2257 75.5508Z" fill="#15141D"></path> <path d="M33.335 74.459V74.9554C33.335 75.1539 33.136 75.4518 32.937 75.551L32.539 75.7496L32.4395 75.8489C32.4395 76.0474 32.6385 76.1467 32.8375 75.9481L33.2355 75.7496C33.4345 75.6503 33.6336 75.3525 33.6336 75.1539V74.6575C33.6336 74.5583 33.534 74.459 33.335 74.459Z" fill="#15141D"></path> <path d="M33.335 72.0762V72.5726C33.335 72.7711 33.136 73.0689 32.937 73.2675L32.539 73.4661L32.4395 73.5653C32.4395 73.7639 32.6385 73.8632 32.8375 73.6646L33.2355 73.4661C33.4345 73.3668 33.6336 73.0689 33.6336 72.7711V72.2747C33.6336 72.0762 33.534 72.0762 33.335 72.0762Z" fill="#15141D"></path> <path d="M33.335 76.7413V77.1384C33.335 77.337 33.136 77.6348 32.937 77.7341L32.539 77.9326H32.4395C32.4395 78.1312 32.6385 78.1312 32.8375 78.0319L33.2355 77.8334C33.4345 77.7341 33.6336 77.4363 33.6336 77.2377V76.8406C33.6336 76.7413 33.4345 76.642 33.335 76.7413Z" fill="#15141D"></path> <path d="M39.0067 73.3663L38.9072 73.7634C38.9072 73.962 38.7082 74.2598 38.4097 74.3591L38.0116 74.5576H37.9121C37.9121 74.7562 38.0116 74.8555 38.3101 74.6569L38.7082 74.4584C38.9072 74.3591 39.1062 74.0613 39.2057 73.8627L39.3052 73.4656C39.4047 73.3663 39.2057 73.267 39.0067 73.3663Z" fill="#15141D"></path> <path d="M39.3055 70.9834L39.206 71.4798C39.206 71.6783 39.007 71.9762 38.7085 72.1747L38.3104 72.3733H38.2109C38.2109 72.5718 38.41 72.6711 38.609 72.4726L39.007 72.274C39.206 72.1747 39.405 71.8769 39.5046 71.5791L39.6041 71.0827C39.7036 70.9834 39.5045 70.9834 39.3055 70.9834Z" fill="#15141D"></path> <path d="M39.6044 68.4023L39.5049 68.998C39.5049 69.1966 39.2063 69.5937 39.0073 69.693L38.6093 69.8915H38.5098C38.5098 70.0901 38.7088 70.1893 38.9078 69.9908L39.3058 69.7922C39.5048 69.693 39.8034 69.2958 39.8034 69.0973L39.9029 68.6009C40.0024 68.5016 39.8034 68.4023 39.6044 68.4023Z" fill="#15141D"></path> <path d="M37.1163 74.459V74.8561C37.1163 75.0546 36.9173 75.3525 36.7182 75.4518L36.3202 75.6503H36.2207C36.2207 75.8489 36.4197 75.9481 36.6187 75.7496L37.0168 75.551C37.2158 75.4518 37.4148 75.1539 37.4148 74.9554V74.5583C37.4148 74.459 37.3153 74.459 37.1163 74.459Z" fill="#15141D"></path> <path d="M37.5146 69.6923V70.2879C37.5146 70.4865 37.3156 70.8836 37.0171 70.9829L36.619 71.1814H36.5195C36.5195 71.38 36.7185 71.4793 36.9176 71.2807L37.3156 71.0822C37.5146 70.9829 37.8131 70.5858 37.8131 70.3872V69.8908C37.8131 69.6923 37.7136 69.593 37.5146 69.6923Z" fill="#15141D"></path> <path d="M37.3154 72.1749V72.6713C37.3154 72.8699 37.1164 73.1677 36.8179 73.267L36.4198 73.4655H36.3203C36.3203 73.6641 36.5193 73.7633 36.7183 73.5648L37.1164 73.3662C37.3154 73.267 37.5144 72.9691 37.6139 72.7706V72.2742C37.6139 72.1749 37.5144 72.0756 37.3154 72.1749Z" fill="#15141D"></path> <path d="M42.6899 65.2264L42.0929 61.9502L25.2759 52.5189C25.2759 52.5189 22.9873 52.4196 21.9922 53.0153C20.9971 53.7102 13.1359 57.8799 13.1359 57.8799C13.1359 57.8799 12.3398 57.8799 12.4394 59.1705C12.4394 59.7661 12.5389 59.6669 12.6384 60.1633C12.5389 60.2625 12.4394 60.3618 12.3398 60.4611C12.4394 60.5604 12.5389 60.5604 12.7379 60.6596C12.8374 60.9575 12.8374 61.0568 12.8374 61.0568L13.1359 60.7589L13.3349 60.8582C13.4344 60.6596 13.6335 60.5604 13.8325 60.4611L22.1912 55.6958C23.2858 55.1001 24.9774 55.0008 25.873 55.4972L41.5953 64.5315H41.6949C41.7944 64.4322 41.8939 64.3329 41.9934 64.3329L42.6899 65.2264Z" fill="#15141D"></path> <path d="M42.8886 65.3251V63.2403L41.396 64.6302L33.4353 69.5941L29.256 69.8919L12.041 59.4678V61.5526C12.041 62.1483 12.3395 62.6447 13.0361 63.0418L28.7584 72.076C29.3555 72.3738 30.0521 72.5724 30.7486 72.5724C31.6442 72.5724 32.5398 72.3738 33.3358 71.8774L41.6945 67.1121C42.4906 66.6157 42.8886 66.0201 42.8886 65.3251Z" fill="#15141D"></path> <path d="M29.256 69.1967C30.1516 69.6931 31.8432 69.5938 32.9378 68.9982L41.2965 64.2329C41.7941 63.935 42.0926 63.6372 42.0926 63.3394C42.0926 63.0415 41.7941 62.843 41.595 62.7437L25.8727 53.7095C24.9771 53.2131 23.2855 53.3123 22.1909 53.908L13.8322 58.6733C13.3346 58.9712 13.0361 59.269 13.0361 59.5668C13.0361 59.8647 13.3346 60.0632 13.5336 60.1625L29.256 69.1967ZM30.7486 70.4873C29.9525 70.4873 29.256 70.2888 28.7584 69.9909L13.0361 60.9567C12.439 60.5596 12.041 60.0632 12.041 59.4675C12.041 58.7726 12.5386 58.1769 13.3346 57.6805L21.6933 52.9152C23.0865 52.121 25.0766 52.0217 26.2707 52.7167L41.9931 61.7509C42.5901 62.148 42.9882 62.6444 42.9882 63.2401C42.9882 63.935 42.4906 64.5307 41.6945 65.0271L33.3358 69.7924C32.6393 70.1895 31.6442 70.4873 30.7486 70.4873Z" fill="#4D437C"></path> <path d="M24.1812 53.0139C23.3851 53.0139 22.589 53.2125 21.992 53.5103L13.6333 58.2756C13.1357 58.5735 12.8372 58.9706 12.8372 59.2684C12.8372 59.5662 13.0362 59.7648 13.3347 59.9634L29.0571 68.9976C29.4551 69.1961 30.0522 69.3947 30.6492 69.3947C31.4453 69.3947 32.2413 69.1961 32.8384 68.8983L41.1971 64.133C41.6947 63.8352 41.9932 63.4381 41.9932 63.1402C41.9932 62.8424 41.7942 62.6438 41.4956 62.4453L25.7733 53.4111C25.3753 53.1132 24.8777 53.0139 24.1812 53.0139ZM30.7487 70.1889C29.9526 70.1889 29.2561 69.9904 28.7585 69.6925L13.0362 60.6583C12.4392 60.3605 12.1406 59.8641 12.1406 59.2684C12.1406 58.6727 12.5387 58.0771 13.3347 57.5807L21.6934 52.8154C22.39 52.4183 23.2856 52.2197 24.1812 52.2197C24.9772 52.2197 25.6738 52.4183 26.1713 52.7161L41.8937 61.7503C42.4907 62.0482 42.7892 62.5446 42.7892 63.1402C42.7892 63.7359 42.3912 64.3316 41.5951 64.8279L33.2364 69.5933C32.5399 69.9904 31.6443 70.1889 30.7487 70.1889Z" fill="#4D437C"></path> <path d="M32.5397 56.3911L31.2461 55.5968L31.3456 48.151L31.4451 48.0518L31.8431 48.151L32.7387 48.4489L32.5397 56.3911Z" fill="#15141D"></path> <path d="M32.7385 48.4472L31.4449 48.0501C31.4449 47.8515 31.2459 47.653 31.0469 47.5537L32.3405 47.9508C32.5395 48.0501 32.7385 48.2487 32.7385 48.4472Z" fill="#15141D"></path> <path d="M31.7428 46.859L30.4492 46.0648C30.6482 45.9655 30.9468 45.8662 31.1458 45.8662L32.4394 46.6604C32.2404 46.6604 32.0414 46.7597 31.7428 46.859Z" fill="#15141D"></path> <path d="M21.8913 52.3183L20.5977 51.5241L30.449 46.1631L31.7426 46.858L21.8913 52.3183Z" fill="#15141D"></path> <path d="M21.4941 67.0131L20.2005 66.616L19.5039 54.0078L20.7975 54.802L21.4941 67.0131Z" fill="#15141D"></path> <path d="M20.7977 54.8006L19.5041 54.0064C19.4046 53.51 19.5041 52.8151 19.8026 52.418L21.0962 53.2122C20.8972 53.6093 20.7977 54.3042 20.7977 54.8006Z" fill="#15141D"></path> <path d="M21.0963 53.2131L19.8027 52.4189C20.0018 52.0218 20.3003 51.7239 20.5988 51.5254L21.8924 52.3196C21.5939 52.5182 21.2954 52.816 21.0963 53.2131Z" fill="#15141D"></path> <path d="M33.4355 56.886L32.6395 56.3896L32.8385 48.4474C32.739 48.0503 32.4404 47.8518 32.0424 48.0503L31.8434 48.1496L31.5449 48.3482L22.0915 53.5106C21.8925 53.6099 21.793 53.7091 21.6935 54.007C21.6935 54.1062 21.6935 54.5034 21.6935 54.6026L21.8925 64.9275L22.0915 66.1188L22.1911 66.6152L21.4945 67.0123L21.2955 65.6224L20.8974 54.8012V54.7019C20.7979 53.5106 21.2955 52.7164 21.992 52.3193L31.8434 46.859C32.5399 46.4619 33.2365 46.859 33.4355 47.7525V56.886Z" fill="#292139"></path> <path d="M22.7875 67.0125C22.7875 66.0198 22.0909 64.7292 21.1954 64.2328C20.6978 63.9349 20.2998 63.9349 20.0012 64.1335L19.3047 64.5306L19.6032 64.9277V65.1263C19.6032 66.119 20.2998 67.4096 21.1954 67.906L21.3944 68.0053L21.6929 68.4024L22.3894 68.0053H22.489C22.5885 67.906 22.7875 67.5089 22.7875 67.0125Z" fill="#4D437C"></path> <path d="M18.8066 65.6223C18.8066 66.6151 19.5032 67.9057 20.3988 68.4021C21.2944 68.8985 21.9909 68.5014 21.9909 67.5086C21.9909 66.5158 21.2944 65.2252 20.3988 64.7288C19.5032 64.1332 18.8066 64.5303 18.8066 65.6223Z" fill="#78573F"></path> <path d="M18.8066 65.6228C18.8066 66.6156 19.5032 67.8069 20.3988 68.3033C21.2944 68.7997 21.9909 68.4026 21.9909 67.4098C21.9909 66.417 21.2944 65.2257 20.3988 64.7293C19.5032 64.2329 18.8066 64.63 18.8066 65.6228Z" fill="#15141D"></path> <path d="M19.6035 66.1191C19.6035 66.6155 19.902 67.2111 20.3996 67.4097C20.7976 67.6082 21.1957 67.4097 21.1957 67.0126C21.1957 66.5162 20.7976 65.9205 20.3996 65.722C20.0015 65.4241 19.6035 65.6227 19.6035 66.1191Z" fill="#292139"></path> </svg> 