<?xml version="1.0" encoding="UTF-8"?> <svg xmlns="http://www.w3.org/2000/svg" width="503" height="526" viewBox="0 0 503 526" fill="none"> <g clip-path="url(#clip0_687_438)"> <rect width="503" height="526" fill="black"></rect> <path d="M405.68 -50.025C405.68 -50.1375 405.636 -50.2375 405.562 -50.3188C405.487 -50.3938 405.382 -50.4375 405.27 -50.4375H350.03C349.925 -50.4375 349.819 -50.3938 349.738 -50.3188C349.664 -50.2438 349.614 -50.1375 349.614 -50.025V-35C349.614 -34.8937 349.658 -34.7875 349.738 -34.7063C349.813 -34.6313 349.919 -34.5875 350.03 -34.5875H368.738C368.843 -34.5875 368.949 -34.5438 369.03 -34.4688C369.104 -34.3938 369.148 -34.2875 369.148 -34.175V12.5437C369.148 12.65 369.191 12.7563 369.266 12.8313C369.34 12.9063 369.446 12.95 369.558 12.95H385.73C385.836 12.95 385.941 12.9063 386.022 12.8313C386.097 12.7563 386.14 12.65 386.14 12.5437V-34.1813C386.14 -34.2875 386.184 -34.3937 386.258 -34.475C386.333 -34.55 386.438 -34.5938 386.55 -34.5938H405.263C405.369 -34.5938 405.475 -34.6375 405.556 -34.7125C405.63 -34.7875 405.674 -34.8938 405.674 -35.0063V-50.025H405.68Z" fill="white" fill-opacity="0.1"></path> <path d="M355.69 12.4626C355.703 12.5251 355.703 12.5876 355.69 12.6501C355.678 12.7126 355.647 12.7689 355.609 12.8189C355.572 12.8689 355.522 12.9064 355.46 12.9314C355.404 12.9564 355.342 12.9689 355.28 12.9689H338.058C337.965 12.9689 337.872 12.9439 337.797 12.8814C337.722 12.8251 337.667 12.7439 337.648 12.6501L322.47 -49.9311C322.457 -49.9936 322.451 -50.0561 322.47 -50.1186C322.482 -50.1811 322.513 -50.2374 322.55 -50.2874C322.594 -50.3374 322.644 -50.3749 322.7 -50.4061C322.755 -50.4311 322.818 -50.4436 322.886 -50.4436H340.108C340.201 -50.4436 340.295 -50.4186 340.369 -50.3624C340.444 -50.3061 340.493 -50.2249 340.518 -50.1311L355.69 12.4626Z" fill="white" fill-opacity="0.1"></path> <path d="M305.303 -18.7185C305.21 -18.7185 305.117 -18.6935 305.042 -18.631C304.968 -18.5747 304.918 -18.4935 304.893 -18.3997L297.425 12.469C297.413 12.5315 297.413 12.594 297.425 12.6565C297.438 12.719 297.469 12.7753 297.506 12.8253C297.543 12.8753 297.599 12.9128 297.655 12.9378C297.711 12.9628 297.773 12.9753 297.835 12.9753H315.058C315.151 12.9753 315.244 12.9503 315.319 12.8878C315.393 12.8315 315.449 12.7503 315.468 12.6565L322.942 -18.2185C322.954 -18.281 322.954 -18.3435 322.942 -18.406C322.93 -18.4685 322.898 -18.5247 322.861 -18.5747C322.824 -18.6247 322.768 -18.6622 322.712 -18.6935C322.656 -18.7247 322.594 -18.731 322.526 -18.731L305.303 -18.7185Z" fill="white" fill-opacity="0.1"></path> <path d="M470.077 12.4628C470.058 12.5253 470.058 12.5878 470.077 12.6503C470.089 12.7128 470.12 12.769 470.158 12.819C470.201 12.869 470.251 12.9065 470.307 12.9315C470.363 12.9565 470.425 12.969 470.487 12.969H487.709C487.803 12.969 487.896 12.944 487.97 12.8815C488.045 12.8253 488.095 12.744 488.119 12.6503L503.291 -49.9372C503.304 -49.9997 503.304 -50.0622 503.291 -50.1247C503.279 -50.1872 503.248 -50.2435 503.211 -50.2935C503.173 -50.3435 503.117 -50.381 503.062 -50.4122C503.006 -50.4372 502.943 -50.4497 502.881 -50.4497H485.659C485.566 -50.4497 485.473 -50.4247 485.398 -50.3685C485.324 -50.3122 485.274 -50.231 485.249 -50.1372L470.077 12.4628Z" fill="white" fill-opacity="0.1"></path> <path d="M520.464 -18.7188C520.557 -18.7188 520.65 -18.6938 520.725 -18.6313C520.799 -18.575 520.849 -18.4938 520.874 -18.4L528.348 12.4812C528.36 12.5437 528.36 12.6063 528.348 12.6688C528.336 12.7313 528.305 12.7875 528.267 12.8375C528.224 12.8875 528.174 12.925 528.118 12.95C528.062 12.975 528 12.9875 527.938 12.9875H510.716C510.622 12.9875 510.529 12.9625 510.455 12.9062C510.38 12.85 510.33 12.7688 510.306 12.675L502.825 -18.2C502.813 -18.2625 502.807 -18.325 502.825 -18.3875C502.838 -18.45 502.869 -18.5063 502.906 -18.5563C502.95 -18.6063 502.999 -18.6438 503.055 -18.6688C503.111 -18.6938 503.173 -18.7062 503.241 -18.7062H520.464V-18.7188Z" fill="white" fill-opacity="0.1"></path> <path d="M438.906 14.1875C447.605 14.1875 455.949 10.725 462.106 4.55628C465.156 1.50003 467.573 -2.12498 469.226 -6.11873C470.878 -10.1125 471.723 -14.3937 471.729 -18.7187C471.729 -23.0437 470.885 -27.325 469.232 -31.3187C467.579 -35.3125 465.162 -38.9437 462.112 -42C459.061 -45.0562 455.445 -47.475 451.463 -49.1312C447.48 -50.7812 443.212 -51.6312 438.906 -51.6312C434.595 -51.6312 430.326 -50.7812 426.344 -49.125C422.355 -47.475 418.733 -45.05 415.682 -41.9875C412.632 -38.925 410.215 -35.2937 408.569 -31.2937C406.922 -27.3062 406.077 -23.0375 406.077 -18.725C406.083 -9.99373 409.544 -1.61872 415.701 4.55628C421.864 10.725 430.208 14.1875 438.906 14.1875ZM438.906 -37.0437C441.298 -37.0375 443.666 -36.5625 445.877 -35.6437C448.095 -34.725 450.102 -33.375 451.798 -31.6687C453.501 -29.9625 454.849 -27.9437 455.775 -25.7125C456.688 -23.4937 457.16 -21.1187 457.154 -18.7187C457.154 -13.8625 455.24 -9.21247 451.823 -5.77497C448.4 -2.34997 443.759 -0.424975 438.919 -0.424975C436.527 -0.424975 434.154 -0.893721 431.936 -1.81247C429.718 -2.73122 427.711 -4.07497 426.015 -5.77497C422.598 -9.21247 420.678 -13.8687 420.684 -18.7187C420.684 -21.1187 421.156 -23.4937 422.069 -25.7125C422.983 -27.9375 424.325 -29.9562 426.021 -31.6625C427.717 -33.3625 429.73 -34.7125 431.948 -35.6375C434.154 -36.5562 436.521 -37.0312 438.906 -37.0437Z" fill="white" fill-opacity="0.1"></path> <path d="M33.1206 12.4628C33.1082 12.5253 33.1082 12.5878 33.1206 12.6503C33.133 12.7128 33.1641 12.769 33.2014 12.819C33.2386 12.869 33.2946 12.9065 33.3505 12.9315C33.4064 12.9565 33.4685 12.969 33.5306 12.969H50.7529C50.8461 12.969 50.9393 12.944 51.0139 12.8815C51.0884 12.8253 51.1381 12.744 51.163 12.6503L66.335 -49.9372C66.3474 -49.9997 66.3474 -50.0622 66.335 -50.1247C66.3226 -50.1872 66.2915 -50.2435 66.2542 -50.2935C66.2169 -50.3435 66.161 -50.381 66.1051 -50.4122C66.0492 -50.4372 65.9871 -50.4497 65.9249 -50.4497H48.7089C48.6157 -50.4497 48.5225 -50.4247 48.4479 -50.3685C48.3734 -50.3122 48.3237 -50.231 48.2988 -50.1372L33.1206 12.4628Z" fill="white" fill-opacity="0.1"></path> <path d="M83.5076 -18.7188C83.6008 -18.7188 83.6939 -18.6938 83.7685 -18.6313C83.8431 -18.575 83.8928 -18.4938 83.9176 -18.4L91.3918 12.4812C91.4042 12.5437 91.4042 12.6063 91.3918 12.6688C91.3794 12.7313 91.3483 12.7875 91.311 12.8375C91.2737 12.8875 91.2178 12.925 91.1619 12.95C91.106 12.975 91.0439 12.9875 90.9817 12.9875H73.7594C73.6662 12.9875 73.5731 12.9625 73.4985 12.9062C73.4239 12.85 73.3742 12.7688 73.3494 12.675L65.869 -18.2C65.8566 -18.2625 65.8504 -18.325 65.8628 -18.3875C65.8752 -18.45 65.9063 -18.5063 65.9436 -18.5563C65.9808 -18.6063 66.0368 -18.6438 66.0927 -18.6688C66.1486 -18.6938 66.2107 -18.7062 66.2791 -18.7062H83.5076V-18.7188Z" fill="white" fill-opacity="0.1"></path> <path d="M1.95019 14.1875C10.6483 14.1875 18.9923 10.725 25.1493 4.55628C28.1999 1.50003 30.6167 -2.12498 32.2694 -6.11873C33.922 -10.1125 34.767 -14.3937 34.7732 -18.7187C34.7732 -23.0437 33.922 -27.325 32.2756 -31.3187C30.6291 -35.3125 28.2061 -38.9437 25.1617 -42C22.1112 -45.0562 18.4953 -47.475 14.5128 -49.1312C10.5303 -50.7812 6.26197 -51.6312 1.9564 -51.6312C-2.35539 -51.6312 -6.62368 -50.7812 -10.6062 -49.125C-14.5949 -47.475 -18.217 -45.05 -21.2676 -41.9875C-24.3181 -38.925 -26.735 -35.2937 -28.3814 -31.2937C-30.0278 -27.3062 -30.8728 -23.0375 -30.8728 -18.725C-30.8666 -9.99373 -27.406 -1.61872 -21.249 4.55628C-15.0919 10.725 -6.74794 14.1875 1.95019 14.1875ZM1.95019 -37.0437C4.34217 -37.0375 6.7093 -36.5625 8.92111 -35.6437C11.1391 -34.725 13.1459 -33.375 14.842 -31.6687C16.5444 -29.9625 17.8926 -27.9437 18.8183 -25.7125C19.7316 -23.4937 20.2038 -21.1187 20.1976 -18.7187C20.1976 -13.8625 18.284 -9.21247 14.8669 -5.77497C11.4436 -2.34997 6.80249 -0.424975 1.96261 -0.424975C-0.435586 -0.424975 -2.80893 -0.893721 -5.02074 -1.81247C-7.23255 -2.73122 -9.24554 -4.07497 -10.9417 -5.77497C-14.3588 -9.21247 -16.2786 -13.8687 -16.2724 -18.7187C-16.2724 -21.1187 -15.8002 -23.4937 -14.8869 -25.7125C-13.9736 -27.9375 -12.6254 -29.9562 -10.9355 -31.6625C-9.23933 -33.3625 -7.22633 -34.7125 -5.00831 -35.6375C-2.80272 -36.5562 -0.435584 -37.0312 1.95019 -37.0437Z" fill="white" fill-opacity="0.1"></path> <path d="M261.906 14.1875C270.604 14.1875 278.948 10.725 285.105 4.55628C288.156 1.50003 290.573 -2.12498 292.225 -6.11873C293.878 -10.1125 294.723 -14.3937 294.729 -18.7187C294.729 -23.0437 293.884 -27.325 292.231 -31.3187C290.579 -35.3125 288.162 -38.9437 285.118 -42C282.067 -45.0562 278.451 -47.475 274.469 -49.1312C270.486 -50.7812 266.218 -51.6312 261.912 -51.6312C257.6 -51.6312 253.332 -50.7812 249.35 -49.125C245.361 -47.475 241.739 -45.05 238.688 -41.9875C235.638 -38.925 233.221 -35.2937 231.574 -31.2937C229.928 -27.3062 229.083 -23.0375 229.083 -18.725C229.089 -9.99373 232.55 -1.61872 238.707 4.55628C244.858 10.725 253.202 14.1875 261.906 14.1875ZM261.906 -37.0437C264.298 -37.0375 266.665 -36.5625 268.877 -35.6437C271.095 -34.725 273.102 -33.375 274.798 -31.6687C276.5 -29.9625 277.848 -27.9437 278.774 -25.7125C279.687 -23.4937 280.16 -21.1187 280.153 -18.7187C280.153 -13.8625 278.24 -9.21247 274.823 -5.77497C271.399 -2.34997 266.758 -0.424975 261.918 -0.424975C259.526 -0.424975 257.153 -0.893721 254.935 -1.81247C252.717 -2.73122 250.71 -4.07497 249.014 -5.77497C245.597 -9.21247 243.677 -13.8687 243.683 -18.7187C243.683 -21.1187 244.156 -23.4937 245.069 -25.7125C245.982 -27.9375 247.324 -29.9562 249.02 -31.6625C250.716 -33.3625 252.729 -34.7125 254.948 -35.6375C257.153 -36.5562 259.514 -37.0312 261.906 -37.0437Z" fill="white" fill-opacity="0.1"></path> <path d="M195.738 12.6067C195.751 12.6692 195.751 12.7317 195.738 12.7942C195.726 12.8567 195.695 12.9129 195.657 12.9629C195.62 13.0129 195.564 13.0504 195.508 13.0754C195.452 13.1004 195.39 13.1129 195.328 13.1129H178.106C178.013 13.1129 177.919 13.0879 177.845 13.0254C177.77 12.9692 177.714 12.8879 177.696 12.7942L162.518 -49.7871C162.505 -49.8496 162.505 -49.9121 162.518 -49.9746C162.53 -50.0371 162.561 -50.0933 162.598 -50.1433C162.636 -50.1933 162.692 -50.2308 162.747 -50.2621C162.803 -50.2871 162.865 -50.2996 162.934 -50.2996H180.156C180.249 -50.2996 180.343 -50.2746 180.417 -50.2183C180.492 -50.1621 180.548 -50.0808 180.566 -49.9871L195.738 12.6067Z" fill="white" fill-opacity="0.1"></path> <path d="M226.536 12.6067C226.548 12.6692 226.548 12.7317 226.536 12.7942C226.523 12.8567 226.492 12.9129 226.455 12.9629C226.418 13.0129 226.362 13.0504 226.306 13.0754C226.25 13.1004 226.188 13.1129 226.126 13.1129H208.903C208.81 13.1129 208.717 13.0879 208.643 13.0254C208.568 12.9692 208.518 12.8879 208.493 12.7942L193.321 -49.7871C193.309 -49.8496 193.309 -49.9121 193.321 -49.9746C193.334 -50.0371 193.365 -50.0933 193.402 -50.1433C193.439 -50.1933 193.495 -50.2308 193.551 -50.2621C193.607 -50.2871 193.669 -50.2996 193.738 -50.2996H210.96C211.053 -50.2996 211.146 -50.2746 211.221 -50.2183C211.295 -50.1621 211.345 -50.0808 211.37 -49.9871L226.536 12.6067Z" fill="white" fill-opacity="0.1"></path> <path d="M127.11 14.1875C135.808 14.1875 144.152 10.725 150.309 4.55628C153.36 1.50003 155.777 -2.12498 157.429 -6.11873C159.082 -10.1125 159.927 -14.3937 159.933 -18.7187C159.933 -23.0437 159.088 -27.325 157.435 -31.3187C155.789 -35.3125 153.366 -38.9437 150.322 -42C147.271 -45.0562 143.655 -47.475 139.673 -49.1312C135.69 -50.7812 131.422 -51.6312 127.116 -51.6312C122.804 -51.6312 118.536 -50.7812 114.554 -49.125C110.565 -47.475 106.943 -45.05 103.892 -41.9875C100.842 -38.925 98.4248 -35.2937 96.7784 -31.2937C95.132 -27.3062 94.287 -23.0375 94.287 -18.725C94.2932 -9.99373 97.7538 -1.61872 103.911 4.55628C110.068 10.725 118.412 14.1875 127.11 14.1875ZM127.11 -37.0437C129.502 -37.0375 131.869 -36.5625 134.081 -35.6437C136.299 -34.725 138.306 -33.375 140.002 -31.6687C141.704 -29.9625 143.052 -27.9437 143.978 -25.7125C144.891 -23.4937 145.364 -21.1187 145.357 -18.7187C145.357 -13.8625 143.444 -9.21247 140.027 -5.77497C136.603 -2.34997 131.962 -0.424975 127.122 -0.424975C124.724 -0.424975 122.357 -0.893721 120.139 -1.81247C117.927 -2.73122 115.914 -4.07497 114.218 -5.77497C110.801 -9.21247 108.881 -13.8687 108.887 -18.7187C108.887 -21.1187 109.36 -23.4937 110.273 -25.7125C111.186 -27.9375 112.534 -29.9562 114.224 -31.6625C115.92 -33.3625 117.933 -34.7125 120.151 -35.6375C122.357 -36.5562 124.724 -37.0312 127.11 -37.0437Z" fill="white" fill-opacity="0.1"></path> <path d="M199.677 27.4249C199.677 27.3124 199.634 27.2124 199.559 27.1312C199.485 27.0562 199.379 27.0125 199.267 27.0125H144.028C143.922 27.0125 143.817 27.0562 143.736 27.1312C143.661 27.2062 143.612 27.3124 143.612 27.4249V42.4499C143.612 42.5562 143.655 42.6625 143.736 42.7437C143.81 42.8187 143.916 42.8625 144.028 42.8625H162.735C162.841 42.8625 162.946 42.9062 163.027 42.9812C163.102 43.0562 163.145 43.1624 163.145 43.2749V89.9937C163.145 90.0999 163.189 90.2062 163.263 90.2812C163.338 90.3562 163.443 90.4 163.555 90.4H179.727C179.833 90.4 179.939 90.3562 180.019 90.2812C180.094 90.2062 180.137 90.0999 180.137 89.9937V43.2749C180.137 43.1687 180.181 43.0624 180.256 42.9812C180.33 42.9062 180.436 42.8625 180.548 42.8625H199.261C199.373 42.8625 199.472 42.8187 199.553 42.7437C199.627 42.6687 199.671 42.5624 199.671 42.4499V27.4249H199.677Z" fill="white" fill-opacity="0.1"></path> <path d="M149.688 89.9127C149.7 89.9752 149.7 90.0377 149.688 90.1002C149.675 90.1627 149.644 90.219 149.607 90.269C149.57 90.319 149.52 90.3565 149.458 90.3815C149.402 90.4065 149.34 90.419 149.278 90.419H132.055C131.962 90.419 131.869 90.394 131.794 90.3315C131.72 90.2752 131.664 90.194 131.645 90.1002L116.473 27.5127C116.461 27.4502 116.455 27.3877 116.473 27.3252C116.486 27.2627 116.517 27.2065 116.554 27.1565C116.591 27.1065 116.647 27.069 116.703 27.0377C116.759 27.0127 116.821 27.0002 116.89 27.0002H134.112C134.205 27.0002 134.298 27.0252 134.373 27.0815C134.447 27.1377 134.497 27.219 134.522 27.3127L149.688 89.9127Z" fill="white" fill-opacity="0.1"></path> <path d="M99.3071 58.7315C99.2139 58.7315 99.1207 58.7565 99.0462 58.819C98.9716 58.8752 98.9157 58.9565 98.8971 59.0502L91.4291 89.919C91.4167 89.9815 91.4167 90.044 91.4291 90.1065C91.4415 90.169 91.4726 90.2252 91.5099 90.2752C91.5472 90.3252 91.5969 90.3627 91.659 90.3877C91.7149 90.4127 91.777 90.4252 91.8392 90.4252H109.061C109.155 90.4252 109.248 90.4002 109.322 90.3377C109.397 90.2815 109.453 90.2002 109.472 90.1065L116.946 59.2315C116.958 59.169 116.964 59.1065 116.946 59.044C116.933 58.9815 116.902 58.9252 116.865 58.8752C116.828 58.8252 116.772 58.7877 116.716 58.7565C116.66 58.7315 116.598 58.719 116.529 58.719L99.3071 58.7315Z" fill="white" fill-opacity="0.1"></path> <path d="M264.074 89.9127C264.062 89.9752 264.062 90.0377 264.074 90.1002C264.087 90.1627 264.118 90.219 264.155 90.269C264.199 90.319 264.248 90.3565 264.304 90.3815C264.36 90.4065 264.422 90.419 264.484 90.419H281.707C281.8 90.419 281.893 90.394 281.968 90.3315C282.042 90.2752 282.092 90.194 282.117 90.1002L297.289 27.5127C297.301 27.4502 297.301 27.3877 297.289 27.3252C297.276 27.2627 297.245 27.2065 297.208 27.1565C297.165 27.1065 297.115 27.069 297.059 27.0377C297.003 27.0127 296.941 27.0002 296.879 27.0002H279.656C279.563 27.0002 279.47 27.0252 279.396 27.0815C279.321 27.1377 279.271 27.219 279.246 27.3127L264.074 89.9127Z" fill="white" fill-opacity="0.1"></path> <path d="M314.461 58.7312C314.555 58.7312 314.648 58.7562 314.722 58.8187C314.797 58.875 314.847 58.9562 314.871 59.0499L322.346 89.9312C322.358 89.9937 322.358 90.0562 322.346 90.1187C322.333 90.1812 322.302 90.2374 322.265 90.2874C322.221 90.3374 322.172 90.375 322.116 90.4C322.06 90.425 321.998 90.4374 321.936 90.4374H304.713C304.62 90.4374 304.527 90.4124 304.452 90.3562C304.378 90.2999 304.328 90.2187 304.303 90.1249L296.823 59.2499C296.81 59.1874 296.804 59.125 296.823 59.0625C296.835 59 296.866 58.9437 296.904 58.8937C296.941 58.8437 296.997 58.8062 297.053 58.7812C297.109 58.7562 297.171 58.7437 297.239 58.7437H314.461V58.7312Z" fill="white" fill-opacity="0.1"></path> <path d="M232.91 91.6375C241.608 91.6375 249.952 88.175 256.109 82.0062C259.16 78.95 261.577 75.325 263.229 71.3312C264.882 67.3375 265.727 63.0562 265.733 58.7312C265.733 54.4062 264.882 50.125 263.236 46.1312C261.583 42.1375 259.166 38.5062 256.122 35.45C253.071 32.3937 249.455 29.975 245.473 28.3187C241.49 26.6687 237.222 25.8187 232.916 25.8187C228.605 25.8187 224.336 26.6687 220.354 28.325C216.365 29.975 212.743 32.4 209.692 35.4625C206.642 38.525 204.225 42.1562 202.579 46.1562C200.932 50.1437 200.087 54.4125 200.087 58.725C200.093 67.4562 203.554 75.8312 209.711 82.0062C215.862 88.175 224.206 91.6375 232.91 91.6375ZM232.91 40.4062C235.302 40.4125 237.669 40.8875 239.881 41.8062C242.099 42.725 244.106 44.075 245.802 45.7812C247.504 47.4875 248.853 49.5062 249.778 51.7375C250.692 53.9562 251.164 56.3312 251.158 58.7312C251.158 63.5875 249.244 68.2375 245.827 71.675C242.404 75.1 237.763 77.025 232.923 77.025C230.531 77.025 228.157 76.5562 225.939 75.6375C223.721 74.7187 221.714 73.375 220.018 71.675C216.601 68.2375 214.681 63.5812 214.688 58.7312C214.688 56.3312 215.16 53.9562 216.073 51.7375C216.986 49.5125 218.328 47.4937 220.025 45.7875C221.721 44.0875 223.734 42.7375 225.952 41.8125C228.151 40.8937 230.518 40.4125 232.91 40.4062Z" fill="white" fill-opacity="0.1"></path> <path d="M55.9034 91.6375C64.6016 91.6375 72.9455 88.175 79.1026 82.0062C82.1531 78.95 84.57 75.325 86.2226 71.3312C87.8752 67.3375 88.7202 63.0562 88.7264 58.7312C88.7264 54.4062 87.8752 50.125 86.2288 46.1312C84.5824 42.1375 82.1593 38.5062 79.115 35.45C76.0644 32.3937 72.4485 29.975 68.466 28.3187C64.4835 26.6687 60.2152 25.8187 55.9096 25.8187C51.5979 25.8187 47.3296 26.6687 43.3471 28.325C39.3584 29.975 35.7362 32.4 32.6857 35.4625C29.6351 38.525 27.2183 42.1562 25.5718 46.1562C23.9254 50.1437 23.0804 54.4125 23.0804 58.725C23.0867 67.4562 26.5473 75.8312 32.7043 82.0062C38.8613 88.175 47.2053 91.6375 55.9034 91.6375ZM55.9034 40.4062C58.2954 40.4125 60.6625 40.8875 62.8744 41.8062C65.0924 42.725 67.0992 44.075 68.7953 45.7812C70.4976 47.4875 71.8459 49.5062 72.7716 51.7375C73.6849 53.9562 74.1571 56.3312 74.1509 58.7312C74.1509 63.5875 72.2373 68.2375 68.8201 71.675C65.3968 75.1 60.7557 77.025 55.9159 77.025C53.5177 77.025 51.1443 76.5562 48.9325 75.6375C46.7207 74.7187 44.7077 73.375 43.0116 71.675C39.5945 68.2375 37.6747 63.5812 37.6809 58.7312C37.6809 56.3312 38.153 53.9562 39.0663 51.7375C39.9797 49.5125 41.3216 47.4937 43.0178 45.7875C44.7139 44.0875 46.7269 42.7375 48.9449 41.8125C51.1505 40.8937 53.5177 40.4125 55.9034 40.4062Z" fill="white" fill-opacity="0.1"></path> <path d="M20.5394 90.0566C20.5518 90.1191 20.5518 90.1816 20.5394 90.2441C20.527 90.3066 20.4959 90.3629 20.4586 90.4129C20.4213 90.4629 20.3716 90.5004 20.3095 90.5254C20.2536 90.5504 20.1915 90.5629 20.1293 90.5629H2.90705C2.81385 90.5629 2.72066 90.5379 2.6461 90.4754C2.57155 90.4191 2.51563 90.3379 2.49699 90.2441L-12.6812 27.6629C-12.6937 27.6004 -12.6999 27.5379 -12.6812 27.4754C-12.6688 27.4129 -12.6377 27.3566 -12.6005 27.3066C-12.5632 27.2566 -12.5073 27.2191 -12.4514 27.1879C-12.3954 27.1629 -12.3333 27.1504 -12.265 27.1504H4.95732C5.05051 27.1504 5.14371 27.1754 5.21826 27.2316C5.29282 27.2879 5.34873 27.3691 5.36737 27.4629L20.5394 90.0566Z" fill="white" fill-opacity="0.1"></path> <path d="M419.218 91.6375C427.916 91.6375 436.26 88.175 442.417 82.0062C445.467 78.95 447.884 75.325 449.537 71.3312C451.19 67.3375 452.035 63.0562 452.041 58.7312C452.041 54.4062 451.196 50.125 449.543 46.1312C447.891 42.1375 445.474 38.5062 442.429 35.45C439.379 32.3937 435.763 29.975 431.78 28.3187C427.798 26.6687 423.53 25.8187 419.224 25.8187C414.912 25.8187 410.644 26.6687 406.661 28.325C402.673 29.975 399.051 32.4 396 35.4625C392.949 38.525 390.533 42.1562 388.886 46.1562C387.24 50.1437 386.395 54.4125 386.395 58.725C386.401 67.4562 389.862 75.8312 396.019 82.0062C402.176 88.175 410.52 91.6375 419.218 91.6375ZM419.218 40.4062C421.61 40.4125 423.977 40.8875 426.189 41.8062C428.407 42.725 430.42 44.075 432.11 45.7812C433.812 47.4875 435.16 49.5062 436.086 51.7375C436.999 53.9562 437.471 56.3312 437.465 58.7312C437.465 63.5875 435.552 68.2375 432.134 71.675C428.711 75.1 424.07 77.025 419.23 77.025C416.832 77.025 414.459 76.5562 412.247 75.6375C410.035 74.7187 408.022 73.375 406.326 71.675C402.909 68.2375 400.989 63.5812 400.995 58.7312C400.995 56.3312 401.467 53.9562 402.381 51.7375C403.294 49.5125 404.642 47.4937 406.332 45.7875C408.028 44.0875 410.041 42.7375 412.259 41.8125C414.465 40.8937 416.832 40.4125 419.218 40.4062Z" fill="white" fill-opacity="0.1"></path> <path d="M353.05 90.0568C353.062 90.1193 353.062 90.1818 353.05 90.2443C353.038 90.3068 353.006 90.363 352.969 90.413C352.926 90.463 352.876 90.5005 352.82 90.5255C352.764 90.5505 352.702 90.563 352.64 90.563H335.418C335.324 90.563 335.231 90.538 335.157 90.4755C335.082 90.4193 335.032 90.338 335.008 90.2443L319.836 27.6568C319.823 27.5943 319.817 27.5318 319.836 27.4693C319.848 27.4068 319.879 27.3505 319.916 27.3005C319.954 27.2505 320.01 27.213 320.065 27.1818C320.121 27.1568 320.19 27.1443 320.252 27.1443H337.474C337.567 27.1443 337.66 27.1693 337.735 27.2255C337.81 27.2818 337.859 27.363 337.884 27.4568L353.05 90.0568Z" fill="white" fill-opacity="0.1"></path> <path d="M383.854 90.0568C383.872 90.1193 383.872 90.1818 383.854 90.2443C383.841 90.3068 383.81 90.363 383.773 90.413C383.736 90.463 383.68 90.5005 383.624 90.5255C383.568 90.5505 383.506 90.563 383.444 90.563H366.221C366.128 90.563 366.035 90.538 365.96 90.4755C365.886 90.4193 365.83 90.338 365.811 90.2443L350.639 27.6568C350.627 27.5943 350.627 27.5318 350.639 27.4693C350.652 27.4068 350.683 27.3505 350.72 27.3005C350.757 27.2505 350.813 27.213 350.869 27.1818C350.925 27.1568 350.987 27.1443 351.056 27.1443H368.278C368.371 27.1443 368.464 27.1693 368.539 27.2255C368.613 27.2818 368.669 27.363 368.688 27.4568L383.854 90.0568Z" fill="white" fill-opacity="0.1"></path> <path d="M487.846 90.0568C487.858 90.1193 487.858 90.1818 487.846 90.2443C487.833 90.3068 487.802 90.363 487.765 90.413C487.728 90.463 487.672 90.5005 487.616 90.5255C487.56 90.5505 487.498 90.563 487.43 90.563H470.207C470.114 90.563 470.021 90.538 469.946 90.4755C469.872 90.4193 469.822 90.338 469.797 90.2443L454.625 27.6568C454.613 27.5943 454.613 27.5318 454.625 27.4693C454.638 27.4068 454.669 27.3505 454.706 27.3005C454.743 27.2505 454.799 27.213 454.855 27.1818C454.911 27.1568 454.979 27.1443 455.041 27.1443H472.264C472.357 27.1443 472.45 27.1693 472.525 27.2255C472.599 27.2818 472.649 27.363 472.674 27.4568L487.846 90.0568Z" fill="white" fill-opacity="0.1"></path> <path d="M518.65 90.0568C518.662 90.1193 518.662 90.1818 518.65 90.2443C518.637 90.3068 518.606 90.363 518.569 90.413C518.532 90.463 518.482 90.5005 518.42 90.5255C518.364 90.5505 518.302 90.563 518.24 90.563H501.011C500.918 90.563 500.825 90.538 500.75 90.4755C500.676 90.4193 500.62 90.338 500.601 90.2443L485.429 27.6568C485.417 27.5943 485.41 27.5318 485.429 27.4693C485.441 27.4068 485.472 27.3505 485.51 27.3005C485.553 27.2505 485.603 27.213 485.659 27.1818C485.715 27.1568 485.777 27.1443 485.845 27.1443H503.068C503.161 27.1443 503.254 27.1693 503.328 27.2255C503.403 27.2818 503.459 27.363 503.478 27.4568L518.65 90.0568Z" fill="white" fill-opacity="0.1"></path> <g clip-path="url(#clip1_687_438)"> <path d="M408.099 409.35C408.099 409.237 408.056 409.137 407.981 409.056C407.906 408.981 407.799 408.938 407.687 408.938H352.118C352.012 408.938 351.906 408.981 351.824 409.056C351.749 409.131 351.699 409.237 351.699 409.35V424.375C351.699 424.481 351.743 424.587 351.824 424.669C351.899 424.744 352.006 424.788 352.118 424.788H370.937C371.043 424.788 371.149 424.831 371.231 424.906C371.306 424.981 371.349 425.088 371.349 425.2V471.919C371.349 472.025 371.393 472.131 371.468 472.206C371.543 472.281 371.649 472.325 371.762 472.325H388.031C388.137 472.325 388.243 472.281 388.324 472.206C388.399 472.131 388.443 472.025 388.443 471.919V425.194C388.443 425.087 388.487 424.981 388.562 424.9C388.637 424.825 388.743 424.781 388.856 424.781H407.681C407.787 424.781 407.893 424.737 407.974 424.662C408.049 424.587 408.093 424.481 408.093 424.369V409.35H408.099Z" fill="white" fill-opacity="0.1"></path> <path d="M357.812 471.838C357.824 471.9 357.824 471.963 357.812 472.025C357.799 472.088 357.768 472.144 357.73 472.194C357.693 472.244 357.643 472.281 357.58 472.306C357.524 472.331 357.462 472.344 357.399 472.344H340.074C339.98 472.344 339.887 472.319 339.812 472.256C339.737 472.2 339.68 472.119 339.662 472.025L324.393 409.444C324.38 409.381 324.374 409.319 324.393 409.256C324.405 409.194 324.437 409.138 324.474 409.088C324.518 409.038 324.568 409 324.624 408.969C324.68 408.944 324.743 408.931 324.812 408.931H342.137C342.23 408.931 342.324 408.956 342.399 409.013C342.474 409.069 342.524 409.15 342.549 409.244L357.812 471.838Z" fill="white" fill-opacity="0.1"></path> <path d="M307.124 440.657C307.031 440.657 306.937 440.682 306.862 440.744C306.787 440.8 306.737 440.882 306.712 440.975L299.199 471.844C299.187 471.907 299.187 471.969 299.199 472.032C299.212 472.094 299.243 472.15 299.281 472.2C299.318 472.25 299.374 472.288 299.431 472.313C299.487 472.338 299.549 472.35 299.612 472.35H316.937C317.031 472.35 317.124 472.325 317.199 472.263C317.274 472.207 317.331 472.125 317.349 472.032L324.868 441.157C324.881 441.094 324.881 441.032 324.868 440.969C324.856 440.907 324.824 440.85 324.787 440.8C324.749 440.75 324.693 440.713 324.637 440.682C324.581 440.65 324.518 440.644 324.449 440.644L307.124 440.657Z" fill="white" fill-opacity="0.1"></path> <path d="M472.881 471.838C472.862 471.9 472.862 471.963 472.881 472.025C472.893 472.088 472.924 472.144 472.962 472.194C473.006 472.244 473.056 472.282 473.112 472.307C473.168 472.332 473.231 472.344 473.293 472.344H490.618C490.712 472.344 490.806 472.319 490.881 472.257C490.956 472.2 491.006 472.119 491.031 472.025L506.293 409.438C506.306 409.375 506.306 409.313 506.293 409.25C506.281 409.188 506.249 409.132 506.212 409.082C506.174 409.032 506.118 408.994 506.062 408.963C506.006 408.938 505.943 408.925 505.881 408.925H488.556C488.462 408.925 488.368 408.95 488.293 409.007C488.218 409.063 488.168 409.144 488.143 409.238L472.881 471.838Z" fill="white" fill-opacity="0.1"></path> <path d="M441.524 473.563C450.274 473.563 458.668 470.1 464.862 463.931C467.93 460.875 470.362 457.25 472.024 453.256C473.687 449.263 474.537 444.981 474.543 440.656C474.543 436.331 473.693 432.05 472.03 428.056C470.368 424.063 467.937 420.431 464.868 417.375C461.799 414.319 458.162 411.9 454.155 410.244C450.149 408.594 445.855 407.744 441.524 407.744C437.187 407.744 432.893 408.594 428.887 410.25C424.874 411.9 421.23 414.325 418.162 417.388C415.093 420.45 412.662 424.081 411.005 428.081C409.349 432.069 408.499 436.338 408.499 440.65C408.505 449.381 411.987 457.756 418.18 463.931C424.38 470.1 432.774 473.563 441.524 473.563ZM441.524 422.331C443.93 422.338 446.312 422.813 448.537 423.731C450.768 424.65 452.787 426 454.493 427.706C456.205 429.413 457.562 431.431 458.493 433.663C459.412 435.881 459.887 438.256 459.88 440.656C459.88 445.513 457.955 450.163 454.518 453.6C451.074 457.025 446.405 458.95 441.537 458.95C439.13 458.95 436.743 458.481 434.512 457.563C432.28 456.644 430.262 455.3 428.555 453.6C425.118 450.163 423.187 445.506 423.193 440.656C423.193 438.256 423.668 435.881 424.587 433.663C425.505 431.438 426.855 429.419 428.562 427.713C430.268 426.013 432.293 424.663 434.524 423.738C436.743 422.819 439.124 422.344 441.524 422.331Z" fill="white" fill-opacity="0.1"></path> <path d="M33.3181 471.838C33.3056 471.9 33.3056 471.963 33.3181 472.025C33.3306 472.088 33.3618 472.144 33.3993 472.194C33.4368 472.244 33.4931 472.282 33.5493 472.307C33.6056 472.332 33.6681 472.344 33.7306 472.344H51.0556C51.1493 472.344 51.2431 472.319 51.3181 472.257C51.3931 472.2 51.4431 472.119 51.4681 472.025L66.7306 409.438C66.7431 409.375 66.7431 409.313 66.7306 409.25C66.7181 409.188 66.6868 409.132 66.6493 409.082C66.6118 409.032 66.5556 408.994 66.4993 408.963C66.4431 408.938 66.3806 408.925 66.3181 408.925H48.9993C48.9056 408.925 48.8118 408.95 48.7368 409.007C48.6618 409.063 48.6118 409.144 48.5868 409.238L33.3181 471.838Z" fill="white" fill-opacity="0.1"></path> <path d="M84.0056 440.656C84.0993 440.656 84.1931 440.681 84.2681 440.744C84.3431 440.8 84.3931 440.881 84.4181 440.975L91.9368 471.856C91.9493 471.919 91.9493 471.981 91.9368 472.044C91.9243 472.106 91.8931 472.162 91.8556 472.212C91.8181 472.262 91.7618 472.3 91.7056 472.325C91.6493 472.35 91.5868 472.363 91.5243 472.363H74.1993C74.1056 472.363 74.0118 472.337 73.9368 472.281C73.8618 472.225 73.8118 472.144 73.7868 472.05L66.2618 441.175C66.2493 441.112 66.2431 441.05 66.2556 440.987C66.2681 440.925 66.2993 440.869 66.3368 440.819C66.3743 440.769 66.4306 440.731 66.4868 440.706C66.5431 440.681 66.6056 440.669 66.6743 440.669H84.0056V440.656Z" fill="white" fill-opacity="0.1"></path> <path d="M1.96181 473.563C10.7118 473.563 19.1056 470.1 25.2993 463.931C28.3681 460.875 30.7993 457.25 32.4618 453.256C34.1243 449.263 34.9743 444.981 34.9806 440.656C34.9806 436.331 34.1243 432.05 32.4681 428.056C30.8118 424.063 28.3743 420.431 25.3118 417.375C22.2431 414.319 18.6056 411.9 14.5993 410.244C10.5931 408.594 6.29931 407.744 1.96806 407.744C-2.36944 407.744 -6.66319 408.594 -10.6694 410.25C-14.6819 411.9 -18.3257 414.325 -21.3944 417.388C-24.4632 420.45 -26.8944 424.081 -28.5507 428.081C-30.2069 432.069 -31.0569 436.338 -31.0569 440.65C-31.0507 449.381 -27.5694 457.756 -21.3757 463.931C-15.1819 470.1 -6.78819 473.563 1.96181 473.563ZM1.96181 422.331C4.36806 422.338 6.74931 422.813 8.97431 423.731C11.2056 424.65 13.2243 426 14.9306 427.706C16.6431 429.413 17.9993 431.431 18.9306 433.663C19.8493 435.881 20.3243 438.256 20.3181 440.656C20.3181 445.513 18.3931 450.163 14.9556 453.6C11.5118 457.025 6.84306 458.95 1.97431 458.95C-0.438194 458.95 -2.82569 458.481 -5.05069 457.563C-7.27569 456.644 -9.30069 455.3 -11.0069 453.6C-14.4444 450.163 -16.3757 445.506 -16.3694 440.656C-16.3694 438.256 -15.8944 435.881 -14.9757 433.663C-14.0569 431.438 -12.7007 429.419 -11.0007 427.713C-9.29444 426.013 -7.26944 424.663 -5.03819 423.738C-2.81944 422.819 -0.438192 422.344 1.96181 422.331Z" fill="white" fill-opacity="0.1"></path> <path d="M263.468 473.563C272.218 473.563 280.612 470.1 286.806 463.931C289.874 460.875 292.306 457.25 293.968 453.256C295.631 449.263 296.481 444.981 296.487 440.656C296.487 436.331 295.637 432.05 293.974 428.056C292.312 424.063 289.881 420.431 286.818 417.375C283.749 414.319 280.112 411.9 276.106 410.244C272.099 408.594 267.806 407.744 263.474 407.744C259.137 407.744 254.843 408.594 250.837 410.25C246.824 411.9 243.181 414.325 240.112 417.388C237.043 420.45 234.612 424.081 232.956 428.081C231.299 432.069 230.449 436.338 230.449 440.65C230.456 449.381 233.937 457.756 240.131 463.931C246.318 470.1 254.712 473.563 263.468 473.563ZM263.468 422.331C265.874 422.338 268.256 422.813 270.481 423.731C272.712 424.65 274.731 426 276.437 427.706C278.149 429.413 279.506 431.431 280.437 433.663C281.356 435.881 281.831 438.256 281.824 440.656C281.824 445.513 279.899 450.163 276.462 453.6C273.018 457.025 268.349 458.95 263.481 458.95C261.074 458.95 258.687 458.481 256.456 457.563C254.224 456.644 252.206 455.3 250.499 453.6C247.062 450.163 245.131 445.506 245.137 440.656C245.137 438.256 245.612 435.881 246.531 433.663C247.449 431.438 248.799 429.419 250.506 427.713C252.212 426.013 254.237 424.663 256.468 423.738C258.687 422.819 261.062 422.344 263.468 422.331Z" fill="white" fill-opacity="0.1"></path> <path d="M196.906 471.982C196.918 472.044 196.918 472.107 196.906 472.169C196.893 472.232 196.862 472.288 196.824 472.338C196.787 472.388 196.731 472.425 196.674 472.45C196.618 472.475 196.556 472.488 196.493 472.488H179.168C179.074 472.488 178.981 472.463 178.906 472.4C178.831 472.344 178.774 472.263 178.756 472.169L163.487 409.588C163.474 409.525 163.474 409.463 163.487 409.4C163.499 409.338 163.531 409.282 163.568 409.232C163.606 409.182 163.662 409.144 163.718 409.113C163.774 409.088 163.837 409.075 163.906 409.075H181.231C181.324 409.075 181.418 409.1 181.493 409.157C181.568 409.213 181.624 409.294 181.643 409.388L196.906 471.982Z" fill="white" fill-opacity="0.1"></path> <path d="M227.887 471.982C227.899 472.044 227.899 472.107 227.887 472.169C227.874 472.232 227.843 472.288 227.806 472.338C227.768 472.388 227.712 472.425 227.656 472.45C227.599 472.475 227.537 472.488 227.474 472.488H210.149C210.056 472.488 209.962 472.463 209.887 472.4C209.812 472.344 209.762 472.263 209.737 472.169L194.474 409.588C194.462 409.525 194.462 409.463 194.474 409.4C194.487 409.338 194.518 409.282 194.556 409.232C194.593 409.182 194.649 409.144 194.706 409.113C194.762 409.088 194.824 409.075 194.893 409.075H212.218C212.312 409.075 212.406 409.1 212.481 409.157C212.556 409.213 212.606 409.294 212.631 409.388L227.887 471.982Z" fill="white" fill-opacity="0.1"></path> <path d="M127.868 473.563C136.618 473.563 145.012 470.1 151.206 463.931C154.274 460.875 156.706 457.25 158.368 453.256C160.031 449.263 160.881 444.981 160.887 440.656C160.887 436.331 160.037 432.05 158.374 428.056C156.718 424.063 154.281 420.431 151.218 417.375C148.149 414.319 144.512 411.9 140.506 410.244C136.499 408.594 132.206 407.744 127.874 407.744C123.537 407.744 119.243 408.594 115.237 410.25C111.224 411.9 107.581 414.325 104.512 417.388C101.443 420.45 99.0118 424.081 97.3556 428.081C95.6993 432.069 94.8493 436.338 94.8493 440.65C94.8556 449.381 98.3368 457.756 104.531 463.931C110.724 470.1 119.118 473.563 127.868 473.563ZM127.868 422.331C130.274 422.338 132.656 422.813 134.881 423.731C137.112 424.65 139.131 426 140.837 427.706C142.549 429.413 143.906 431.431 144.837 433.663C145.756 435.881 146.231 438.256 146.224 440.656C146.224 445.513 144.299 450.163 140.862 453.6C137.418 457.025 132.749 458.95 127.881 458.95C125.468 458.95 123.087 458.481 120.856 457.563C118.631 456.644 116.606 455.3 114.899 453.6C111.462 450.163 109.531 445.506 109.537 440.656C109.537 438.256 110.012 435.881 110.931 433.663C111.849 431.438 113.206 429.419 114.906 427.713C116.612 426.013 118.637 424.663 120.868 423.738C123.087 422.819 125.468 422.344 127.868 422.331Z" fill="white" fill-opacity="0.1"></path> <path d="M200.868 486.8C200.868 486.687 200.824 486.587 200.749 486.506C200.674 486.431 200.568 486.387 200.456 486.387H144.887C144.781 486.387 144.674 486.431 144.593 486.506C144.518 486.581 144.468 486.687 144.468 486.8V501.825C144.468 501.931 144.512 502.037 144.593 502.119C144.668 502.194 144.774 502.237 144.887 502.237H163.706C163.812 502.237 163.918 502.281 163.999 502.356C164.074 502.431 164.118 502.537 164.118 502.65V549.369C164.118 549.475 164.162 549.581 164.237 549.656C164.312 549.731 164.418 549.775 164.531 549.775H180.799C180.906 549.775 181.012 549.731 181.093 549.656C181.168 549.581 181.212 549.475 181.212 549.369V502.65C181.212 502.544 181.256 502.437 181.331 502.356C181.406 502.281 181.512 502.237 181.624 502.237H200.449C200.562 502.237 200.662 502.194 200.743 502.119C200.818 502.044 200.862 501.937 200.862 501.825V486.8H200.868Z" fill="white" fill-opacity="0.1"></path> <path d="M150.581 549.288C150.593 549.35 150.593 549.413 150.581 549.475C150.568 549.538 150.537 549.594 150.499 549.644C150.462 549.694 150.412 549.731 150.349 549.756C150.293 549.781 150.231 549.794 150.168 549.794H132.843C132.749 549.794 132.656 549.769 132.581 549.706C132.506 549.65 132.449 549.569 132.431 549.475L117.168 486.888C117.156 486.825 117.149 486.763 117.168 486.7C117.181 486.638 117.212 486.581 117.249 486.531C117.287 486.481 117.343 486.444 117.399 486.413C117.456 486.388 117.518 486.375 117.587 486.375H134.912C135.006 486.375 135.099 486.4 135.174 486.456C135.249 486.513 135.299 486.594 135.324 486.688L150.581 549.288Z" fill="white" fill-opacity="0.1"></path> <path d="M99.8994 518.106C99.8056 518.106 99.7119 518.131 99.6369 518.194C99.5619 518.25 99.5056 518.331 99.4869 518.425L91.9744 549.294C91.9619 549.356 91.9619 549.419 91.9744 549.481C91.9869 549.544 92.0181 549.6 92.0556 549.65C92.0931 549.7 92.1431 549.738 92.2056 549.763C92.2619 549.788 92.3244 549.8 92.3869 549.8H109.712C109.806 549.8 109.899 549.775 109.974 549.713C110.049 549.656 110.106 549.575 110.124 549.481L117.643 518.606C117.656 518.544 117.662 518.481 117.643 518.419C117.631 518.356 117.599 518.3 117.562 518.25C117.524 518.2 117.468 518.163 117.412 518.131C117.356 518.106 117.293 518.094 117.224 518.094L99.8994 518.106Z" fill="white" fill-opacity="0.1"></path> <path d="M265.649 549.288C265.637 549.35 265.637 549.413 265.649 549.475C265.662 549.538 265.693 549.594 265.731 549.644C265.774 549.694 265.824 549.731 265.881 549.756C265.937 549.781 265.999 549.794 266.062 549.794H283.387C283.481 549.794 283.574 549.769 283.649 549.706C283.724 549.65 283.774 549.569 283.799 549.475L299.062 486.888C299.074 486.825 299.074 486.763 299.062 486.7C299.049 486.638 299.018 486.581 298.981 486.531C298.937 486.481 298.887 486.444 298.831 486.413C298.774 486.388 298.712 486.375 298.649 486.375H281.324C281.231 486.375 281.137 486.4 281.062 486.456C280.987 486.513 280.937 486.594 280.912 486.688L265.649 549.288Z" fill="white" fill-opacity="0.1"></path> <path d="M316.337 518.106C316.431 518.106 316.524 518.131 316.599 518.194C316.674 518.25 316.724 518.331 316.749 518.425L324.268 549.306C324.281 549.369 324.281 549.431 324.268 549.494C324.256 549.556 324.224 549.612 324.187 549.662C324.143 549.712 324.093 549.75 324.037 549.775C323.981 549.8 323.918 549.812 323.856 549.812H306.531C306.437 549.812 306.343 549.787 306.268 549.731C306.193 549.675 306.143 549.594 306.118 549.5L298.593 518.625C298.581 518.562 298.574 518.5 298.593 518.437C298.606 518.375 298.637 518.319 298.674 518.269C298.712 518.219 298.768 518.181 298.824 518.156C298.881 518.131 298.943 518.119 299.012 518.119H316.337V518.106Z" fill="white" fill-opacity="0.1"></path> <path d="M234.299 551.012C243.049 551.012 251.443 547.55 257.637 541.381C260.706 538.325 263.137 534.7 264.799 530.706C266.462 526.712 267.312 522.431 267.318 518.106C267.318 513.781 266.462 509.5 264.806 505.506C263.143 501.512 260.712 497.881 257.649 494.825C254.581 491.769 250.943 489.35 246.937 487.694C242.931 486.044 238.637 485.194 234.306 485.194C229.968 485.194 225.674 486.044 221.668 487.7C217.656 489.35 214.012 491.775 210.943 494.837C207.874 497.9 205.443 501.531 203.787 505.531C202.131 509.519 201.281 513.787 201.281 518.1C201.287 526.831 204.768 535.206 210.962 541.381C217.149 547.55 225.543 551.012 234.299 551.012ZM234.299 499.781C236.706 499.787 239.087 500.262 241.312 501.181C243.543 502.1 245.562 503.45 247.268 505.156C248.981 506.862 250.337 508.881 251.268 511.112C252.187 513.331 252.662 515.706 252.656 518.106C252.656 522.962 250.731 527.612 247.293 531.05C243.849 534.475 239.181 536.4 234.312 536.4C231.906 536.4 229.518 535.931 227.287 535.012C225.056 534.094 223.037 532.75 221.331 531.05C217.893 527.612 215.962 522.956 215.968 518.106C215.968 515.706 216.443 513.331 217.362 511.112C218.281 508.887 219.631 506.869 221.337 505.162C223.043 503.462 225.068 502.112 227.299 501.187C229.512 500.269 231.893 499.787 234.299 499.781Z" fill="white" fill-opacity="0.1"></path> <path d="M56.2368 551.012C64.9868 551.012 73.3806 547.55 79.5743 541.381C82.6431 538.325 85.0743 534.7 86.7368 530.706C88.3993 526.712 89.2493 522.431 89.2556 518.106C89.2556 513.781 88.3993 509.5 86.7431 505.506C85.0868 501.512 82.6493 497.881 79.5868 494.825C76.5181 491.769 72.8806 489.35 68.8743 487.694C64.8681 486.044 60.5743 485.194 56.2431 485.194C51.9056 485.194 47.6118 486.044 43.6056 487.7C39.5931 489.35 35.9493 491.775 32.8806 494.837C29.8118 497.9 27.3806 501.531 25.7243 505.531C24.0681 509.519 23.2181 513.787 23.2181 518.1C23.2243 526.831 26.7056 535.206 32.8993 541.381C39.0931 547.55 47.4868 551.012 56.2368 551.012ZM56.2368 499.781C58.6431 499.787 61.0243 500.262 63.2493 501.181C65.4806 502.1 67.4993 503.45 69.2056 505.156C70.9181 506.862 72.2743 508.881 73.2056 511.112C74.1243 513.331 74.5993 515.706 74.5931 518.106C74.5931 522.962 72.6681 527.612 69.2306 531.05C65.7868 534.475 61.1181 536.4 56.2493 536.4C53.8368 536.4 51.4493 535.931 49.2243 535.012C46.9993 534.094 44.9743 532.75 43.2681 531.05C39.8306 527.612 37.8993 522.956 37.9056 518.106C37.9056 515.706 38.3806 513.331 39.2993 511.112C40.2181 508.887 41.5681 506.869 43.2743 505.162C44.9806 503.462 47.0056 502.112 49.2368 501.187C51.4556 500.269 53.8368 499.787 56.2368 499.781Z" fill="white" fill-opacity="0.1"></path> <path d="M20.6619 549.432C20.6744 549.494 20.6744 549.557 20.6619 549.619C20.6494 549.682 20.6182 549.738 20.5807 549.788C20.5432 549.838 20.4932 549.875 20.4307 549.9C20.3744 549.925 20.3119 549.938 20.2494 549.938H2.92441C2.83066 549.938 2.73691 549.913 2.66191 549.85C2.58691 549.794 2.53066 549.713 2.51191 549.619L-12.7568 487.038C-12.7693 486.975 -12.7756 486.913 -12.7568 486.85C-12.7443 486.788 -12.7131 486.732 -12.6756 486.682C-12.6381 486.632 -12.5818 486.594 -12.5256 486.563C-12.4693 486.538 -12.4068 486.525 -12.3381 486.525H4.98691C5.08066 486.525 5.17441 486.55 5.24941 486.607C5.32441 486.663 5.38066 486.744 5.39941 486.838L20.6619 549.432Z" fill="white" fill-opacity="0.1"></path> <path d="M421.718 551.012C430.468 551.012 438.862 547.55 445.056 541.381C448.124 538.325 450.556 534.7 452.218 530.706C453.881 526.712 454.731 522.431 454.737 518.106C454.737 513.781 453.887 509.5 452.224 505.506C450.562 501.512 448.131 497.881 445.068 494.825C441.999 491.769 438.362 489.35 434.356 487.694C430.349 486.044 426.056 485.194 421.724 485.194C417.387 485.194 413.093 486.044 409.087 487.7C405.074 489.35 401.431 491.775 398.362 494.837C395.293 497.9 392.862 501.531 391.206 505.531C389.549 509.519 388.699 513.787 388.699 518.1C388.706 526.831 392.187 535.206 398.381 541.381C404.574 547.55 412.968 551.012 421.718 551.012ZM421.718 499.781C424.124 499.787 426.506 500.262 428.731 501.181C430.962 502.1 432.987 503.45 434.687 505.156C436.399 506.862 437.756 508.881 438.687 511.112C439.606 513.331 440.081 515.706 440.074 518.106C440.074 522.962 438.149 527.612 434.712 531.05C431.268 534.475 426.599 536.4 421.731 536.4C419.318 536.4 416.931 535.931 414.706 535.012C412.481 534.094 410.456 532.75 408.749 531.05C405.312 527.612 403.381 522.956 403.387 518.106C403.387 515.706 403.862 513.331 404.781 511.112C405.699 508.887 407.056 506.869 408.756 505.162C410.462 503.462 412.487 502.112 414.718 501.187C416.937 500.269 419.318 499.787 421.718 499.781Z" fill="white" fill-opacity="0.1"></path> <path d="M355.156 549.432C355.168 549.494 355.168 549.557 355.156 549.619C355.143 549.682 355.112 549.738 355.074 549.788C355.031 549.838 354.981 549.876 354.924 549.901C354.868 549.926 354.806 549.938 354.743 549.938H337.418C337.324 549.938 337.231 549.913 337.156 549.851C337.081 549.794 337.031 549.713 337.006 549.619L321.743 487.032C321.731 486.969 321.724 486.907 321.743 486.844C321.756 486.782 321.787 486.726 321.824 486.676C321.862 486.626 321.918 486.588 321.974 486.557C322.031 486.532 322.099 486.519 322.162 486.519H339.487C339.581 486.519 339.674 486.544 339.749 486.601C339.824 486.657 339.874 486.738 339.899 486.832L355.156 549.432Z" fill="white" fill-opacity="0.1"></path> <path d="M386.143 549.432C386.162 549.494 386.162 549.557 386.143 549.619C386.131 549.682 386.099 549.738 386.062 549.788C386.024 549.838 385.968 549.876 385.912 549.901C385.856 549.926 385.793 549.938 385.731 549.938H368.406C368.312 549.938 368.218 549.913 368.143 549.851C368.068 549.794 368.012 549.713 367.993 549.619L352.731 487.032C352.718 486.969 352.718 486.907 352.731 486.844C352.743 486.782 352.774 486.726 352.812 486.676C352.849 486.626 352.906 486.588 352.962 486.557C353.018 486.532 353.081 486.519 353.149 486.519H370.474C370.568 486.519 370.662 486.544 370.737 486.601C370.812 486.657 370.868 486.738 370.887 486.832L386.143 549.432Z" fill="white" fill-opacity="0.1"></path> <path d="M490.755 549.432C490.768 549.494 490.768 549.557 490.755 549.619C490.743 549.682 490.712 549.738 490.674 549.788C490.637 549.838 490.58 549.876 490.524 549.901C490.468 549.926 490.405 549.938 490.337 549.938H473.012C472.918 549.938 472.824 549.913 472.749 549.851C472.674 549.794 472.624 549.713 472.599 549.619L457.337 487.032C457.324 486.969 457.324 486.907 457.337 486.844C457.349 486.782 457.38 486.726 457.418 486.676C457.455 486.626 457.512 486.588 457.568 486.557C457.624 486.532 457.693 486.519 457.755 486.519H475.08C475.174 486.519 475.268 486.544 475.343 486.601C475.418 486.657 475.468 486.738 475.493 486.832L490.755 549.432Z" fill="white" fill-opacity="0.1"></path> <path d="M521.743 549.432C521.755 549.494 521.755 549.557 521.743 549.619C521.73 549.682 521.699 549.738 521.662 549.788C521.624 549.838 521.574 549.876 521.512 549.901C521.455 549.926 521.393 549.938 521.33 549.938H503.999C503.905 549.938 503.812 549.913 503.737 549.851C503.662 549.794 503.605 549.713 503.587 549.619L488.324 487.032C488.312 486.969 488.305 486.907 488.324 486.844C488.337 486.782 488.368 486.726 488.405 486.676C488.449 486.626 488.499 486.588 488.555 486.557C488.612 486.532 488.674 486.519 488.743 486.519H506.068C506.162 486.519 506.255 486.544 506.33 486.601C506.405 486.657 506.462 486.738 506.48 486.832L521.743 549.432Z" fill="white" fill-opacity="0.1"></path> </g> <g clip-path="url(#clip2_687_438)"> <path d="M408.099 256.225C408.099 256.112 408.056 256.012 407.981 255.931C407.906 255.856 407.799 255.812 407.687 255.812H352.118C352.012 255.812 351.906 255.856 351.824 255.931C351.749 256.006 351.699 256.112 351.699 256.225V271.25C351.699 271.356 351.743 271.462 351.824 271.544C351.899 271.619 352.006 271.663 352.118 271.663H370.937C371.043 271.663 371.149 271.706 371.231 271.781C371.306 271.856 371.349 271.963 371.349 272.075V318.794C371.349 318.9 371.393 319.006 371.468 319.081C371.543 319.156 371.649 319.2 371.762 319.2H388.031C388.137 319.2 388.243 319.156 388.324 319.081C388.399 319.006 388.443 318.9 388.443 318.794V272.069C388.443 271.962 388.487 271.856 388.562 271.775C388.637 271.7 388.743 271.656 388.856 271.656H407.681C407.787 271.656 407.893 271.612 407.974 271.537C408.049 271.462 408.093 271.356 408.093 271.244V256.225H408.099Z" fill="white" fill-opacity="0.1"></path> <path d="M357.812 318.713C357.824 318.775 357.824 318.838 357.812 318.9C357.799 318.963 357.768 319.019 357.73 319.069C357.693 319.119 357.643 319.156 357.58 319.181C357.524 319.206 357.462 319.219 357.399 319.219H340.074C339.98 319.219 339.887 319.194 339.812 319.131C339.737 319.075 339.68 318.994 339.662 318.9L324.393 256.319C324.38 256.256 324.374 256.194 324.393 256.131C324.405 256.069 324.437 256.013 324.474 255.963C324.518 255.913 324.568 255.875 324.624 255.844C324.68 255.819 324.743 255.806 324.812 255.806H342.137C342.23 255.806 342.324 255.831 342.399 255.888C342.474 255.944 342.524 256.025 342.549 256.119L357.812 318.713Z" fill="white" fill-opacity="0.1"></path> <path d="M307.124 287.532C307.031 287.532 306.937 287.557 306.862 287.619C306.787 287.675 306.737 287.757 306.712 287.85L299.199 318.719C299.187 318.782 299.187 318.844 299.199 318.907C299.212 318.969 299.243 319.025 299.281 319.075C299.318 319.125 299.374 319.163 299.431 319.188C299.487 319.213 299.549 319.225 299.612 319.225H316.937C317.031 319.225 317.124 319.2 317.199 319.138C317.274 319.082 317.331 319 317.349 318.907L324.868 288.032C324.881 287.969 324.881 287.907 324.868 287.844C324.856 287.782 324.824 287.725 324.787 287.675C324.749 287.625 324.693 287.588 324.637 287.557C324.581 287.525 324.518 287.519 324.449 287.519L307.124 287.532Z" fill="white" fill-opacity="0.1"></path> <path d="M472.881 318.713C472.862 318.775 472.862 318.838 472.881 318.9C472.893 318.963 472.924 319.019 472.962 319.069C473.006 319.119 473.056 319.157 473.112 319.182C473.168 319.207 473.231 319.219 473.293 319.219H490.618C490.712 319.219 490.806 319.194 490.881 319.132C490.956 319.075 491.006 318.994 491.031 318.9L506.293 256.313C506.306 256.25 506.306 256.188 506.293 256.125C506.281 256.063 506.249 256.007 506.212 255.957C506.174 255.907 506.118 255.869 506.062 255.838C506.006 255.813 505.943 255.8 505.881 255.8H488.556C488.462 255.8 488.368 255.825 488.293 255.882C488.218 255.938 488.168 256.019 488.143 256.113L472.881 318.713Z" fill="white" fill-opacity="0.1"></path> <path d="M441.524 320.438C450.274 320.438 458.668 316.975 464.862 310.806C467.93 307.75 470.362 304.125 472.024 300.131C473.687 296.138 474.537 291.856 474.543 287.531C474.543 283.206 473.693 278.925 472.03 274.931C470.368 270.938 467.937 267.306 464.868 264.25C461.799 261.194 458.162 258.775 454.155 257.119C450.149 255.469 445.855 254.619 441.524 254.619C437.187 254.619 432.893 255.469 428.887 257.125C424.874 258.775 421.23 261.2 418.162 264.263C415.093 267.325 412.662 270.956 411.005 274.956C409.349 278.944 408.499 283.213 408.499 287.525C408.505 296.256 411.987 304.631 418.18 310.806C424.38 316.975 432.774 320.438 441.524 320.438ZM441.524 269.206C443.93 269.213 446.312 269.688 448.537 270.606C450.768 271.525 452.787 272.875 454.493 274.581C456.205 276.288 457.562 278.306 458.493 280.538C459.412 282.756 459.887 285.131 459.88 287.531C459.88 292.388 457.955 297.038 454.518 300.475C451.074 303.9 446.405 305.825 441.537 305.825C439.13 305.825 436.743 305.356 434.512 304.438C432.28 303.519 430.262 302.175 428.555 300.475C425.118 297.038 423.187 292.381 423.193 287.531C423.193 285.131 423.668 282.756 424.587 280.538C425.505 278.313 426.855 276.294 428.562 274.588C430.268 272.888 432.293 271.538 434.524 270.613C436.743 269.694 439.124 269.219 441.524 269.206Z" fill="white" fill-opacity="0.1"></path> <path d="M33.3181 318.713C33.3056 318.775 33.3056 318.838 33.3181 318.9C33.3306 318.963 33.3618 319.019 33.3993 319.069C33.4368 319.119 33.4931 319.157 33.5493 319.182C33.6056 319.207 33.6681 319.219 33.7306 319.219H51.0556C51.1493 319.219 51.2431 319.194 51.3181 319.132C51.3931 319.075 51.4431 318.994 51.4681 318.9L66.7306 256.313C66.7431 256.25 66.7431 256.188 66.7306 256.125C66.7181 256.063 66.6868 256.007 66.6493 255.957C66.6118 255.907 66.5556 255.869 66.4993 255.838C66.4431 255.813 66.3806 255.8 66.3181 255.8H48.9993C48.9056 255.8 48.8118 255.825 48.7368 255.882C48.6618 255.938 48.6118 256.019 48.5868 256.113L33.3181 318.713Z" fill="white" fill-opacity="0.1"></path> <path d="M84.0056 287.531C84.0993 287.531 84.1931 287.556 84.2681 287.619C84.3431 287.675 84.3931 287.756 84.4181 287.85L91.9368 318.731C91.9493 318.794 91.9493 318.856 91.9368 318.919C91.9243 318.981 91.8931 319.037 91.8556 319.087C91.8181 319.137 91.7618 319.175 91.7056 319.2C91.6493 319.225 91.5868 319.238 91.5243 319.238H74.1993C74.1056 319.238 74.0118 319.212 73.9368 319.156C73.8618 319.1 73.8118 319.019 73.7868 318.925L66.2618 288.05C66.2493 287.987 66.2431 287.925 66.2556 287.862C66.2681 287.8 66.2993 287.744 66.3368 287.694C66.3743 287.644 66.4306 287.606 66.4868 287.581C66.5431 287.556 66.6056 287.544 66.6743 287.544H84.0056V287.531Z" fill="white" fill-opacity="0.1"></path> <path d="M1.96181 320.438C10.7118 320.438 19.1056 316.975 25.2993 310.806C28.3681 307.75 30.7993 304.125 32.4618 300.131C34.1243 296.138 34.9743 291.856 34.9806 287.531C34.9806 283.206 34.1243 278.925 32.4681 274.931C30.8118 270.938 28.3743 267.306 25.3118 264.25C22.2431 261.194 18.6056 258.775 14.5993 257.119C10.5931 255.469 6.29931 254.619 1.96806 254.619C-2.36944 254.619 -6.66319 255.469 -10.6694 257.125C-14.6819 258.775 -18.3257 261.2 -21.3944 264.263C-24.4632 267.325 -26.8944 270.956 -28.5507 274.956C-30.2069 278.944 -31.0569 283.213 -31.0569 287.525C-31.0507 296.256 -27.5694 304.631 -21.3757 310.806C-15.1819 316.975 -6.78819 320.438 1.96181 320.438ZM1.96181 269.206C4.36806 269.213 6.74931 269.688 8.97431 270.606C11.2056 271.525 13.2243 272.875 14.9306 274.581C16.6431 276.288 17.9993 278.306 18.9306 280.538C19.8493 282.756 20.3243 285.131 20.3181 287.531C20.3181 292.388 18.3931 297.038 14.9556 300.475C11.5118 303.9 6.84306 305.825 1.97431 305.825C-0.438194 305.825 -2.82569 305.356 -5.05069 304.438C-7.27569 303.519 -9.30069 302.175 -11.0069 300.475C-14.4444 297.038 -16.3757 292.381 -16.3694 287.531C-16.3694 285.131 -15.8944 282.756 -14.9757 280.538C-14.0569 278.313 -12.7007 276.294 -11.0007 274.588C-9.29444 272.888 -7.26944 271.538 -5.03819 270.613C-2.81944 269.694 -0.438192 269.219 1.96181 269.206Z" fill="white" fill-opacity="0.1"></path> <path d="M263.468 320.438C272.218 320.438 280.612 316.975 286.806 310.806C289.874 307.75 292.306 304.125 293.968 300.131C295.631 296.138 296.481 291.856 296.487 287.531C296.487 283.206 295.637 278.925 293.974 274.931C292.312 270.938 289.881 267.306 286.818 264.25C283.749 261.194 280.112 258.775 276.106 257.119C272.099 255.469 267.806 254.619 263.474 254.619C259.137 254.619 254.843 255.469 250.837 257.125C246.824 258.775 243.181 261.2 240.112 264.263C237.043 267.325 234.612 270.956 232.956 274.956C231.299 278.944 230.449 283.213 230.449 287.525C230.456 296.256 233.937 304.631 240.131 310.806C246.318 316.975 254.712 320.438 263.468 320.438ZM263.468 269.206C265.874 269.213 268.256 269.688 270.481 270.606C272.712 271.525 274.731 272.875 276.437 274.581C278.149 276.288 279.506 278.306 280.437 280.538C281.356 282.756 281.831 285.131 281.824 287.531C281.824 292.388 279.899 297.038 276.462 300.475C273.018 303.9 268.349 305.825 263.481 305.825C261.074 305.825 258.687 305.356 256.456 304.438C254.224 303.519 252.206 302.175 250.499 300.475C247.062 297.038 245.131 292.381 245.137 287.531C245.137 285.131 245.612 282.756 246.531 280.538C247.449 278.313 248.799 276.294 250.506 274.588C252.212 272.888 254.237 271.538 256.468 270.613C258.687 269.694 261.062 269.219 263.468 269.206Z" fill="white" fill-opacity="0.1"></path> <path d="M196.906 318.857C196.918 318.919 196.918 318.982 196.906 319.044C196.893 319.107 196.862 319.163 196.824 319.213C196.787 319.263 196.731 319.3 196.674 319.325C196.618 319.35 196.556 319.363 196.493 319.363H179.168C179.074 319.363 178.981 319.338 178.906 319.275C178.831 319.219 178.774 319.138 178.756 319.044L163.487 256.463C163.474 256.4 163.474 256.338 163.487 256.275C163.499 256.213 163.531 256.157 163.568 256.107C163.606 256.057 163.662 256.019 163.718 255.988C163.774 255.963 163.837 255.95 163.906 255.95H181.231C181.324 255.95 181.418 255.975 181.493 256.032C181.568 256.088 181.624 256.169 181.643 256.263L196.906 318.857Z" fill="white" fill-opacity="0.1"></path> <path d="M227.887 318.857C227.899 318.919 227.899 318.982 227.887 319.044C227.874 319.107 227.843 319.163 227.806 319.213C227.768 319.263 227.712 319.3 227.656 319.325C227.599 319.35 227.537 319.363 227.474 319.363H210.149C210.056 319.363 209.962 319.338 209.887 319.275C209.812 319.219 209.762 319.138 209.737 319.044L194.474 256.463C194.462 256.4 194.462 256.338 194.474 256.275C194.487 256.213 194.518 256.157 194.556 256.107C194.593 256.057 194.649 256.019 194.706 255.988C194.762 255.963 194.824 255.95 194.893 255.95H212.218C212.312 255.95 212.406 255.975 212.481 256.032C212.556 256.088 212.606 256.169 212.631 256.263L227.887 318.857Z" fill="white" fill-opacity="0.1"></path> <path d="M127.868 320.438C136.618 320.438 145.012 316.975 151.206 310.806C154.274 307.75 156.706 304.125 158.368 300.131C160.031 296.138 160.881 291.856 160.887 287.531C160.887 283.206 160.037 278.925 158.374 274.931C156.718 270.938 154.281 267.306 151.218 264.25C148.149 261.194 144.512 258.775 140.506 257.119C136.499 255.469 132.206 254.619 127.874 254.619C123.537 254.619 119.243 255.469 115.237 257.125C111.224 258.775 107.581 261.2 104.512 264.263C101.443 267.325 99.0118 270.956 97.3556 274.956C95.6993 278.944 94.8493 283.213 94.8493 287.525C94.8556 296.256 98.3368 304.631 104.531 310.806C110.724 316.975 119.118 320.438 127.868 320.438ZM127.868 269.206C130.274 269.213 132.656 269.688 134.881 270.606C137.112 271.525 139.131 272.875 140.837 274.581C142.549 276.288 143.906 278.306 144.837 280.538C145.756 282.756 146.231 285.131 146.224 287.531C146.224 292.388 144.299 297.038 140.862 300.475C137.418 303.9 132.749 305.825 127.881 305.825C125.468 305.825 123.087 305.356 120.856 304.438C118.631 303.519 116.606 302.175 114.899 300.475C111.462 297.038 109.531 292.381 109.537 287.531C109.537 285.131 110.012 282.756 110.931 280.538C111.849 278.313 113.206 276.294 114.906 274.588C116.612 272.888 118.637 271.538 120.868 270.613C123.087 269.694 125.468 269.219 127.868 269.206Z" fill="white" fill-opacity="0.1"></path> <path d="M200.868 333.675C200.868 333.562 200.824 333.462 200.749 333.381C200.674 333.306 200.568 333.262 200.456 333.262H144.887C144.781 333.262 144.674 333.306 144.593 333.381C144.518 333.456 144.468 333.562 144.468 333.675V348.7C144.468 348.806 144.512 348.912 144.593 348.994C144.668 349.069 144.774 349.112 144.887 349.112H163.706C163.812 349.112 163.918 349.156 163.999 349.231C164.074 349.306 164.118 349.412 164.118 349.525V396.244C164.118 396.35 164.162 396.456 164.237 396.531C164.312 396.606 164.418 396.65 164.531 396.65H180.799C180.906 396.65 181.012 396.606 181.093 396.531C181.168 396.456 181.212 396.35 181.212 396.244V349.525C181.212 349.419 181.256 349.312 181.331 349.231C181.406 349.156 181.512 349.112 181.624 349.112H200.449C200.562 349.112 200.662 349.069 200.743 348.994C200.818 348.919 200.862 348.812 200.862 348.7V333.675H200.868Z" fill="white" fill-opacity="0.1"></path> <path d="M150.581 396.163C150.593 396.225 150.593 396.288 150.581 396.35C150.568 396.413 150.537 396.469 150.499 396.519C150.462 396.569 150.412 396.606 150.349 396.631C150.293 396.656 150.231 396.669 150.168 396.669H132.843C132.749 396.669 132.656 396.644 132.581 396.581C132.506 396.525 132.449 396.444 132.431 396.35L117.168 333.763C117.156 333.7 117.149 333.638 117.168 333.575C117.181 333.513 117.212 333.456 117.249 333.406C117.287 333.356 117.343 333.319 117.399 333.288C117.456 333.263 117.518 333.25 117.587 333.25H134.912C135.006 333.25 135.099 333.275 135.174 333.331C135.249 333.388 135.299 333.469 135.324 333.563L150.581 396.163Z" fill="white" fill-opacity="0.1"></path> <path d="M99.8994 364.981C99.8056 364.981 99.7119 365.006 99.6369 365.069C99.5619 365.125 99.5056 365.206 99.4869 365.3L91.9744 396.169C91.9619 396.231 91.9619 396.294 91.9744 396.356C91.9869 396.419 92.0181 396.475 92.0556 396.525C92.0931 396.575 92.1431 396.613 92.2056 396.638C92.2619 396.663 92.3244 396.675 92.3869 396.675H109.712C109.806 396.675 109.899 396.65 109.974 396.588C110.049 396.531 110.106 396.45 110.124 396.356L117.643 365.481C117.656 365.419 117.662 365.356 117.643 365.294C117.631 365.231 117.599 365.175 117.562 365.125C117.524 365.075 117.468 365.038 117.412 365.006C117.356 364.981 117.293 364.969 117.224 364.969L99.8994 364.981Z" fill="white" fill-opacity="0.1"></path> <path d="M265.649 396.163C265.637 396.225 265.637 396.288 265.649 396.35C265.662 396.413 265.693 396.469 265.731 396.519C265.774 396.569 265.824 396.606 265.881 396.631C265.937 396.656 265.999 396.669 266.062 396.669H283.387C283.481 396.669 283.574 396.644 283.649 396.581C283.724 396.525 283.774 396.444 283.799 396.35L299.062 333.763C299.074 333.7 299.074 333.638 299.062 333.575C299.049 333.513 299.018 333.456 298.981 333.406C298.937 333.356 298.887 333.319 298.831 333.288C298.774 333.263 298.712 333.25 298.649 333.25H281.324C281.231 333.25 281.137 333.275 281.062 333.331C280.987 333.388 280.937 333.469 280.912 333.563L265.649 396.163Z" fill="white" fill-opacity="0.1"></path> <path d="M316.337 364.981C316.431 364.981 316.524 365.006 316.599 365.069C316.674 365.125 316.724 365.206 316.749 365.3L324.268 396.181C324.281 396.244 324.281 396.306 324.268 396.369C324.256 396.431 324.224 396.487 324.187 396.537C324.143 396.587 324.093 396.625 324.037 396.65C323.981 396.675 323.918 396.687 323.856 396.687H306.531C306.437 396.687 306.343 396.662 306.268 396.606C306.193 396.55 306.143 396.469 306.118 396.375L298.593 365.5C298.581 365.437 298.574 365.375 298.593 365.312C298.606 365.25 298.637 365.194 298.674 365.144C298.712 365.094 298.768 365.056 298.824 365.031C298.881 365.006 298.943 364.994 299.012 364.994H316.337V364.981Z" fill="white" fill-opacity="0.1"></path> <path d="M234.299 397.887C243.049 397.887 251.443 394.425 257.637 388.256C260.706 385.2 263.137 381.575 264.799 377.581C266.462 373.587 267.312 369.306 267.318 364.981C267.318 360.656 266.462 356.375 264.806 352.381C263.143 348.387 260.712 344.756 257.649 341.7C254.581 338.644 250.943 336.225 246.937 334.569C242.931 332.919 238.637 332.069 234.306 332.069C229.968 332.069 225.674 332.919 221.668 334.575C217.656 336.225 214.012 338.65 210.943 341.712C207.874 344.775 205.443 348.406 203.787 352.406C202.131 356.394 201.281 360.662 201.281 364.975C201.287 373.706 204.768 382.081 210.962 388.256C217.149 394.425 225.543 397.887 234.299 397.887ZM234.299 346.656C236.706 346.662 239.087 347.137 241.312 348.056C243.543 348.975 245.562 350.325 247.268 352.031C248.981 353.737 250.337 355.756 251.268 357.987C252.187 360.206 252.662 362.581 252.656 364.981C252.656 369.837 250.731 374.487 247.293 377.925C243.849 381.35 239.181 383.275 234.312 383.275C231.906 383.275 229.518 382.806 227.287 381.887C225.056 380.969 223.037 379.625 221.331 377.925C217.893 374.487 215.962 369.831 215.968 364.981C215.968 362.581 216.443 360.206 217.362 357.987C218.281 355.762 219.631 353.744 221.337 352.037C223.043 350.337 225.068 348.987 227.299 348.062C229.512 347.144 231.893 346.662 234.299 346.656Z" fill="white" fill-opacity="0.1"></path> <path d="M56.2368 397.887C64.9868 397.887 73.3806 394.425 79.5743 388.256C82.6431 385.2 85.0743 381.575 86.7368 377.581C88.3993 373.587 89.2493 369.306 89.2556 364.981C89.2556 360.656 88.3993 356.375 86.7431 352.381C85.0868 348.387 82.6493 344.756 79.5868 341.7C76.5181 338.644 72.8806 336.225 68.8743 334.569C64.8681 332.919 60.5743 332.069 56.2431 332.069C51.9056 332.069 47.6118 332.919 43.6056 334.575C39.5931 336.225 35.9493 338.65 32.8806 341.712C29.8118 344.775 27.3806 348.406 25.7243 352.406C24.0681 356.394 23.2181 360.662 23.2181 364.975C23.2243 373.706 26.7056 382.081 32.8993 388.256C39.0931 394.425 47.4868 397.887 56.2368 397.887ZM56.2368 346.656C58.6431 346.662 61.0243 347.137 63.2493 348.056C65.4806 348.975 67.4993 350.325 69.2056 352.031C70.9181 353.737 72.2743 355.756 73.2056 357.987C74.1243 360.206 74.5993 362.581 74.5931 364.981C74.5931 369.837 72.6681 374.487 69.2306 377.925C65.7868 381.35 61.1181 383.275 56.2493 383.275C53.8368 383.275 51.4493 382.806 49.2243 381.887C46.9993 380.969 44.9743 379.625 43.2681 377.925C39.8306 374.487 37.8993 369.831 37.9056 364.981C37.9056 362.581 38.3806 360.206 39.2993 357.987C40.2181 355.762 41.5681 353.744 43.2743 352.037C44.9806 350.337 47.0056 348.987 49.2368 348.062C51.4556 347.144 53.8368 346.662 56.2368 346.656Z" fill="white" fill-opacity="0.1"></path> <path d="M20.6619 396.307C20.6744 396.369 20.6744 396.432 20.6619 396.494C20.6494 396.557 20.6182 396.613 20.5807 396.663C20.5432 396.713 20.4932 396.75 20.4307 396.775C20.3744 396.8 20.3119 396.813 20.2494 396.813H2.92441C2.83066 396.813 2.73691 396.788 2.66191 396.725C2.58691 396.669 2.53066 396.588 2.51191 396.494L-12.7568 333.913C-12.7693 333.85 -12.7756 333.788 -12.7568 333.725C-12.7443 333.663 -12.7131 333.607 -12.6756 333.557C-12.6381 333.507 -12.5818 333.469 -12.5256 333.438C-12.4693 333.413 -12.4068 333.4 -12.3381 333.4H4.98691C5.08066 333.4 5.17441 333.425 5.24941 333.482C5.32441 333.538 5.38066 333.619 5.39941 333.713L20.6619 396.307Z" fill="white" fill-opacity="0.1"></path> <path d="M421.718 397.887C430.468 397.887 438.862 394.425 445.056 388.256C448.124 385.2 450.556 381.575 452.218 377.581C453.881 373.587 454.731 369.306 454.737 364.981C454.737 360.656 453.887 356.375 452.224 352.381C450.562 348.387 448.131 344.756 445.068 341.7C441.999 338.644 438.362 336.225 434.356 334.569C430.349 332.919 426.056 332.069 421.724 332.069C417.387 332.069 413.093 332.919 409.087 334.575C405.074 336.225 401.431 338.65 398.362 341.712C395.293 344.775 392.862 348.406 391.206 352.406C389.549 356.394 388.699 360.662 388.699 364.975C388.706 373.706 392.187 382.081 398.381 388.256C404.574 394.425 412.968 397.887 421.718 397.887ZM421.718 346.656C424.124 346.662 426.506 347.137 428.731 348.056C430.962 348.975 432.987 350.325 434.687 352.031C436.399 353.737 437.756 355.756 438.687 357.987C439.606 360.206 440.081 362.581 440.074 364.981C440.074 369.837 438.149 374.487 434.712 377.925C431.268 381.35 426.599 383.275 421.731 383.275C419.318 383.275 416.931 382.806 414.706 381.887C412.481 380.969 410.456 379.625 408.749 377.925C405.312 374.487 403.381 369.831 403.387 364.981C403.387 362.581 403.862 360.206 404.781 357.987C405.699 355.762 407.056 353.744 408.756 352.037C410.462 350.337 412.487 348.987 414.718 348.062C416.937 347.144 419.318 346.662 421.718 346.656Z" fill="white" fill-opacity="0.1"></path> <path d="M355.156 396.307C355.168 396.369 355.168 396.432 355.156 396.494C355.143 396.557 355.112 396.613 355.074 396.663C355.031 396.713 354.981 396.751 354.924 396.776C354.868 396.801 354.806 396.813 354.743 396.813H337.418C337.324 396.813 337.231 396.788 337.156 396.726C337.081 396.669 337.031 396.588 337.006 396.494L321.743 333.907C321.731 333.844 321.724 333.782 321.743 333.719C321.756 333.657 321.787 333.601 321.824 333.551C321.862 333.501 321.918 333.463 321.974 333.432C322.031 333.407 322.099 333.394 322.162 333.394H339.487C339.581 333.394 339.674 333.419 339.749 333.476C339.824 333.532 339.874 333.613 339.899 333.707L355.156 396.307Z" fill="white" fill-opacity="0.1"></path> <path d="M386.143 396.307C386.162 396.369 386.162 396.432 386.143 396.494C386.131 396.557 386.099 396.613 386.062 396.663C386.024 396.713 385.968 396.751 385.912 396.776C385.856 396.801 385.793 396.813 385.731 396.813H368.406C368.312 396.813 368.218 396.788 368.143 396.726C368.068 396.669 368.012 396.588 367.993 396.494L352.731 333.907C352.718 333.844 352.718 333.782 352.731 333.719C352.743 333.657 352.774 333.601 352.812 333.551C352.849 333.501 352.906 333.463 352.962 333.432C353.018 333.407 353.081 333.394 353.149 333.394H370.474C370.568 333.394 370.662 333.419 370.737 333.476C370.812 333.532 370.868 333.613 370.887 333.707L386.143 396.307Z" fill="white" fill-opacity="0.1"></path> <path d="M490.755 396.307C490.768 396.369 490.768 396.432 490.755 396.494C490.743 396.557 490.712 396.613 490.674 396.663C490.637 396.713 490.58 396.751 490.524 396.776C490.468 396.801 490.405 396.813 490.337 396.813H473.012C472.918 396.813 472.824 396.788 472.749 396.726C472.674 396.669 472.624 396.588 472.599 396.494L457.337 333.907C457.324 333.844 457.324 333.782 457.337 333.719C457.349 333.657 457.38 333.601 457.418 333.551C457.455 333.501 457.512 333.463 457.568 333.432C457.624 333.407 457.693 333.394 457.755 333.394H475.08C475.174 333.394 475.268 333.419 475.343 333.476C475.418 333.532 475.468 333.613 475.493 333.707L490.755 396.307Z" fill="white" fill-opacity="0.1"></path> <path d="M521.743 396.307C521.755 396.369 521.755 396.432 521.743 396.494C521.73 396.557 521.699 396.613 521.662 396.663C521.624 396.713 521.574 396.751 521.512 396.776C521.455 396.801 521.393 396.813 521.33 396.813H503.999C503.905 396.813 503.812 396.788 503.737 396.726C503.662 396.669 503.605 396.588 503.587 396.494L488.324 333.907C488.312 333.844 488.305 333.782 488.324 333.719C488.337 333.657 488.368 333.601 488.405 333.551C488.449 333.501 488.499 333.463 488.555 333.432C488.612 333.407 488.674 333.394 488.743 333.394H506.068C506.162 333.394 506.255 333.419 506.33 333.476C506.405 333.532 506.462 333.613 506.48 333.707L521.743 396.307Z" fill="white" fill-opacity="0.1"></path> </g> <g clip-path="url(#clip3_687_438)"> <path d="M408.099 103.1C408.099 102.987 408.056 102.887 407.981 102.806C407.906 102.731 407.799 102.688 407.687 102.688H352.118C352.012 102.688 351.906 102.731 351.824 102.806C351.749 102.881 351.699 102.987 351.699 103.1V118.125C351.699 118.231 351.743 118.337 351.824 118.419C351.899 118.494 352.006 118.538 352.118 118.538H370.937C371.043 118.538 371.149 118.581 371.231 118.656C371.306 118.731 371.349 118.838 371.349 118.95V165.669C371.349 165.775 371.393 165.881 371.468 165.956C371.543 166.031 371.649 166.075 371.762 166.075H388.031C388.137 166.075 388.243 166.031 388.324 165.956C388.399 165.881 388.443 165.775 388.443 165.669V118.944C388.443 118.837 388.487 118.731 388.562 118.65C388.637 118.575 388.743 118.531 388.856 118.531H407.681C407.787 118.531 407.893 118.487 407.974 118.412C408.049 118.337 408.093 118.231 408.093 118.119V103.1H408.099Z" fill="white" fill-opacity="0.1"></path> <path d="M357.812 165.588C357.824 165.65 357.824 165.713 357.812 165.775C357.799 165.838 357.768 165.894 357.73 165.944C357.693 165.994 357.643 166.031 357.58 166.056C357.524 166.081 357.462 166.094 357.399 166.094H340.074C339.98 166.094 339.887 166.069 339.812 166.006C339.737 165.95 339.68 165.869 339.662 165.775L324.393 103.194C324.38 103.131 324.374 103.069 324.393 103.006C324.405 102.944 324.437 102.888 324.474 102.838C324.518 102.788 324.568 102.75 324.624 102.719C324.68 102.694 324.743 102.681 324.812 102.681H342.137C342.23 102.681 342.324 102.706 342.399 102.763C342.474 102.819 342.524 102.9 342.549 102.994L357.812 165.588Z" fill="white" fill-opacity="0.1"></path> <path d="M307.124 134.407C307.031 134.407 306.937 134.432 306.862 134.494C306.787 134.55 306.737 134.632 306.712 134.725L299.199 165.594C299.187 165.657 299.187 165.719 299.199 165.782C299.212 165.844 299.243 165.9 299.281 165.95C299.318 166 299.374 166.038 299.431 166.063C299.487 166.088 299.549 166.1 299.612 166.1H316.937C317.031 166.1 317.124 166.075 317.199 166.013C317.274 165.957 317.331 165.875 317.349 165.782L324.868 134.907C324.881 134.844 324.881 134.782 324.868 134.719C324.856 134.657 324.824 134.6 324.787 134.55C324.749 134.5 324.693 134.463 324.637 134.432C324.581 134.4 324.518 134.394 324.449 134.394L307.124 134.407Z" fill="white" fill-opacity="0.1"></path> <path d="M472.881 165.588C472.862 165.65 472.862 165.713 472.881 165.775C472.893 165.838 472.924 165.894 472.962 165.944C473.006 165.994 473.056 166.032 473.112 166.057C473.168 166.082 473.231 166.094 473.293 166.094H490.618C490.712 166.094 490.806 166.069 490.881 166.007C490.956 165.95 491.006 165.869 491.031 165.775L506.293 103.188C506.306 103.125 506.306 103.063 506.293 103C506.281 102.938 506.249 102.882 506.212 102.832C506.174 102.782 506.118 102.744 506.062 102.713C506.006 102.688 505.943 102.675 505.881 102.675H488.556C488.462 102.675 488.368 102.7 488.293 102.757C488.218 102.813 488.168 102.894 488.143 102.988L472.881 165.588Z" fill="white" fill-opacity="0.1"></path> <path d="M441.524 167.313C450.274 167.313 458.668 163.85 464.862 157.681C467.93 154.625 470.362 151 472.024 147.006C473.687 143.013 474.537 138.731 474.543 134.406C474.543 130.081 473.693 125.8 472.03 121.806C470.368 117.813 467.937 114.181 464.868 111.125C461.799 108.069 458.162 105.65 454.155 103.994C450.149 102.344 445.855 101.494 441.524 101.494C437.187 101.494 432.893 102.344 428.887 104C424.874 105.65 421.23 108.075 418.162 111.138C415.093 114.2 412.662 117.831 411.005 121.831C409.349 125.819 408.499 130.088 408.499 134.4C408.505 143.131 411.987 151.506 418.18 157.681C424.38 163.85 432.774 167.313 441.524 167.313ZM441.524 116.081C443.93 116.088 446.312 116.563 448.537 117.481C450.768 118.4 452.787 119.75 454.493 121.456C456.205 123.163 457.562 125.181 458.493 127.413C459.412 129.631 459.887 132.006 459.88 134.406C459.88 139.263 457.955 143.913 454.518 147.35C451.074 150.775 446.405 152.7 441.537 152.7C439.13 152.7 436.743 152.231 434.512 151.313C432.28 150.394 430.262 149.05 428.555 147.35C425.118 143.913 423.187 139.256 423.193 134.406C423.193 132.006 423.668 129.631 424.587 127.413C425.505 125.188 426.855 123.169 428.562 121.463C430.268 119.763 432.293 118.413 434.524 117.488C436.743 116.569 439.124 116.094 441.524 116.081Z" fill="white" fill-opacity="0.1"></path> <path d="M33.3181 165.588C33.3056 165.65 33.3056 165.713 33.3181 165.775C33.3306 165.838 33.3618 165.894 33.3993 165.944C33.4368 165.994 33.4931 166.032 33.5493 166.057C33.6056 166.082 33.6681 166.094 33.7306 166.094H51.0556C51.1493 166.094 51.2431 166.069 51.3181 166.007C51.3931 165.95 51.4431 165.869 51.4681 165.775L66.7306 103.188C66.7431 103.125 66.7431 103.063 66.7306 103C66.7181 102.938 66.6868 102.882 66.6493 102.832C66.6118 102.782 66.5556 102.744 66.4993 102.713C66.4431 102.688 66.3806 102.675 66.3181 102.675H48.9993C48.9056 102.675 48.8118 102.7 48.7368 102.757C48.6618 102.813 48.6118 102.894 48.5868 102.988L33.3181 165.588Z" fill="white" fill-opacity="0.1"></path> <path d="M84.0056 134.406C84.0993 134.406 84.1931 134.431 84.2681 134.494C84.3431 134.55 84.3931 134.631 84.4181 134.725L91.9368 165.606C91.9493 165.669 91.9493 165.731 91.9368 165.794C91.9243 165.856 91.8931 165.912 91.8556 165.962C91.8181 166.012 91.7618 166.05 91.7056 166.075C91.6493 166.1 91.5868 166.113 91.5243 166.113H74.1993C74.1056 166.113 74.0118 166.087 73.9368 166.031C73.8618 165.975 73.8118 165.894 73.7868 165.8L66.2618 134.925C66.2493 134.862 66.2431 134.8 66.2556 134.737C66.2681 134.675 66.2993 134.619 66.3368 134.569C66.3743 134.519 66.4306 134.481 66.4868 134.456C66.5431 134.431 66.6056 134.419 66.6743 134.419H84.0056V134.406Z" fill="white" fill-opacity="0.1"></path> <path d="M1.96181 167.313C10.7118 167.313 19.1056 163.85 25.2993 157.681C28.3681 154.625 30.7993 151 32.4618 147.006C34.1243 143.013 34.9743 138.731 34.9806 134.406C34.9806 130.081 34.1243 125.8 32.4681 121.806C30.8118 117.813 28.3743 114.181 25.3118 111.125C22.2431 108.069 18.6056 105.65 14.5993 103.994C10.5931 102.344 6.29931 101.494 1.96806 101.494C-2.36944 101.494 -6.66319 102.344 -10.6694 104C-14.6819 105.65 -18.3257 108.075 -21.3944 111.138C-24.4632 114.2 -26.8944 117.831 -28.5507 121.831C-30.2069 125.819 -31.0569 130.088 -31.0569 134.4C-31.0507 143.131 -27.5694 151.506 -21.3757 157.681C-15.1819 163.85 -6.78819 167.313 1.96181 167.313ZM1.96181 116.081C4.36806 116.088 6.74931 116.563 8.97431 117.481C11.2056 118.4 13.2243 119.75 14.9306 121.456C16.6431 123.163 17.9993 125.181 18.9306 127.413C19.8493 129.631 20.3243 132.006 20.3181 134.406C20.3181 139.263 18.3931 143.913 14.9556 147.35C11.5118 150.775 6.84306 152.7 1.97431 152.7C-0.438194 152.7 -2.82569 152.231 -5.05069 151.313C-7.27569 150.394 -9.30069 149.05 -11.0069 147.35C-14.4444 143.913 -16.3757 139.256 -16.3694 134.406C-16.3694 132.006 -15.8944 129.631 -14.9757 127.413C-14.0569 125.188 -12.7007 123.169 -11.0007 121.463C-9.29444 119.763 -7.26944 118.413 -5.03819 117.488C-2.81944 116.569 -0.438192 116.094 1.96181 116.081Z" fill="white" fill-opacity="0.1"></path> <path d="M263.468 167.313C272.218 167.313 280.612 163.85 286.806 157.681C289.874 154.625 292.306 151 293.968 147.006C295.631 143.013 296.481 138.731 296.487 134.406C296.487 130.081 295.637 125.8 293.974 121.806C292.312 117.813 289.881 114.181 286.818 111.125C283.749 108.069 280.112 105.65 276.106 103.994C272.099 102.344 267.806 101.494 263.474 101.494C259.137 101.494 254.843 102.344 250.837 104C246.824 105.65 243.181 108.075 240.112 111.138C237.043 114.2 234.612 117.831 232.956 121.831C231.299 125.819 230.449 130.088 230.449 134.4C230.456 143.131 233.937 151.506 240.131 157.681C246.318 163.85 254.712 167.313 263.468 167.313ZM263.468 116.081C265.874 116.088 268.256 116.563 270.481 117.481C272.712 118.4 274.731 119.75 276.437 121.456C278.149 123.163 279.506 125.181 280.437 127.413C281.356 129.631 281.831 132.006 281.824 134.406C281.824 139.263 279.899 143.913 276.462 147.35C273.018 150.775 268.349 152.7 263.481 152.7C261.074 152.7 258.687 152.231 256.456 151.313C254.224 150.394 252.206 149.05 250.499 147.35C247.062 143.913 245.131 139.256 245.137 134.406C245.137 132.006 245.612 129.631 246.531 127.413C247.449 125.188 248.799 123.169 250.506 121.463C252.212 119.763 254.237 118.413 256.468 117.488C258.687 116.569 261.062 116.094 263.468 116.081Z" fill="white" fill-opacity="0.1"></path> <path d="M196.906 165.732C196.918 165.794 196.918 165.857 196.906 165.919C196.893 165.982 196.862 166.038 196.824 166.088C196.787 166.138 196.731 166.175 196.674 166.2C196.618 166.225 196.556 166.238 196.493 166.238H179.168C179.074 166.238 178.981 166.213 178.906 166.15C178.831 166.094 178.774 166.013 178.756 165.919L163.487 103.338C163.474 103.275 163.474 103.213 163.487 103.15C163.499 103.088 163.531 103.032 163.568 102.982C163.606 102.932 163.662 102.894 163.718 102.863C163.774 102.838 163.837 102.825 163.906 102.825H181.231C181.324 102.825 181.418 102.85 181.493 102.907C181.568 102.963 181.624 103.044 181.643 103.138L196.906 165.732Z" fill="white" fill-opacity="0.1"></path> <path d="M227.887 165.732C227.899 165.794 227.899 165.857 227.887 165.919C227.874 165.982 227.843 166.038 227.806 166.088C227.768 166.138 227.712 166.175 227.656 166.2C227.599 166.225 227.537 166.238 227.474 166.238H210.149C210.056 166.238 209.962 166.213 209.887 166.15C209.812 166.094 209.762 166.013 209.737 165.919L194.474 103.338C194.462 103.275 194.462 103.213 194.474 103.15C194.487 103.088 194.518 103.032 194.556 102.982C194.593 102.932 194.649 102.894 194.706 102.863C194.762 102.838 194.824 102.825 194.893 102.825H212.218C212.312 102.825 212.406 102.85 212.481 102.907C212.556 102.963 212.606 103.044 212.631 103.138L227.887 165.732Z" fill="white" fill-opacity="0.1"></path> <path d="M127.868 167.313C136.618 167.313 145.012 163.85 151.206 157.681C154.274 154.625 156.706 151 158.368 147.006C160.031 143.013 160.881 138.731 160.887 134.406C160.887 130.081 160.037 125.8 158.374 121.806C156.718 117.813 154.281 114.181 151.218 111.125C148.149 108.069 144.512 105.65 140.506 103.994C136.499 102.344 132.206 101.494 127.874 101.494C123.537 101.494 119.243 102.344 115.237 104C111.224 105.65 107.581 108.075 104.512 111.138C101.443 114.2 99.0118 117.831 97.3556 121.831C95.6993 125.819 94.8493 130.088 94.8493 134.4C94.8556 143.131 98.3368 151.506 104.531 157.681C110.724 163.85 119.118 167.313 127.868 167.313ZM127.868 116.081C130.274 116.088 132.656 116.563 134.881 117.481C137.112 118.4 139.131 119.75 140.837 121.456C142.549 123.163 143.906 125.181 144.837 127.413C145.756 129.631 146.231 132.006 146.224 134.406C146.224 139.263 144.299 143.913 140.862 147.35C137.418 150.775 132.749 152.7 127.881 152.7C125.468 152.7 123.087 152.231 120.856 151.313C118.631 150.394 116.606 149.05 114.899 147.35C111.462 143.913 109.531 139.256 109.537 134.406C109.537 132.006 110.012 129.631 110.931 127.413C111.849 125.188 113.206 123.169 114.906 121.463C116.612 119.763 118.637 118.413 120.868 117.488C123.087 116.569 125.468 116.094 127.868 116.081Z" fill="white" fill-opacity="0.1"></path> <path d="M200.868 180.55C200.868 180.437 200.824 180.337 200.749 180.256C200.674 180.181 200.568 180.137 200.456 180.137H144.887C144.781 180.137 144.674 180.181 144.593 180.256C144.518 180.331 144.468 180.437 144.468 180.55V195.575C144.468 195.681 144.512 195.787 144.593 195.869C144.668 195.944 144.774 195.987 144.887 195.987H163.706C163.812 195.987 163.918 196.031 163.999 196.106C164.074 196.181 164.118 196.287 164.118 196.4V243.119C164.118 243.225 164.162 243.331 164.237 243.406C164.312 243.481 164.418 243.525 164.531 243.525H180.799C180.906 243.525 181.012 243.481 181.093 243.406C181.168 243.331 181.212 243.225 181.212 243.119V196.4C181.212 196.294 181.256 196.187 181.331 196.106C181.406 196.031 181.512 195.987 181.624 195.987H200.449C200.562 195.987 200.662 195.944 200.743 195.869C200.818 195.794 200.862 195.687 200.862 195.575V180.55H200.868Z" fill="white" fill-opacity="0.1"></path> <path d="M150.581 243.038C150.593 243.1 150.593 243.163 150.581 243.225C150.568 243.288 150.537 243.344 150.499 243.394C150.462 243.444 150.412 243.481 150.349 243.506C150.293 243.531 150.231 243.544 150.168 243.544H132.843C132.749 243.544 132.656 243.519 132.581 243.456C132.506 243.4 132.449 243.319 132.431 243.225L117.168 180.638C117.156 180.575 117.149 180.513 117.168 180.45C117.181 180.388 117.212 180.331 117.249 180.281C117.287 180.231 117.343 180.194 117.399 180.163C117.456 180.138 117.518 180.125 117.587 180.125H134.912C135.006 180.125 135.099 180.15 135.174 180.206C135.249 180.263 135.299 180.344 135.324 180.438L150.581 243.038Z" fill="white" fill-opacity="0.1"></path> <path d="M99.8994 211.856C99.8056 211.856 99.7119 211.881 99.6369 211.944C99.5619 212 99.5056 212.081 99.4869 212.175L91.9744 243.044C91.9619 243.106 91.9619 243.169 91.9744 243.231C91.9869 243.294 92.0181 243.35 92.0556 243.4C92.0931 243.45 92.1431 243.488 92.2056 243.513C92.2619 243.538 92.3244 243.55 92.3869 243.55H109.712C109.806 243.55 109.899 243.525 109.974 243.463C110.049 243.406 110.106 243.325 110.124 243.231L117.643 212.356C117.656 212.294 117.662 212.231 117.643 212.169C117.631 212.106 117.599 212.05 117.562 212C117.524 211.95 117.468 211.913 117.412 211.881C117.356 211.856 117.293 211.844 117.224 211.844L99.8994 211.856Z" fill="white" fill-opacity="0.1"></path> <path d="M265.649 243.038C265.637 243.1 265.637 243.163 265.649 243.225C265.662 243.288 265.693 243.344 265.731 243.394C265.774 243.444 265.824 243.481 265.881 243.506C265.937 243.531 265.999 243.544 266.062 243.544H283.387C283.481 243.544 283.574 243.519 283.649 243.456C283.724 243.4 283.774 243.319 283.799 243.225L299.062 180.638C299.074 180.575 299.074 180.513 299.062 180.45C299.049 180.388 299.018 180.331 298.981 180.281C298.937 180.231 298.887 180.194 298.831 180.163C298.774 180.138 298.712 180.125 298.649 180.125H281.324C281.231 180.125 281.137 180.15 281.062 180.206C280.987 180.263 280.937 180.344 280.912 180.438L265.649 243.038Z" fill="white" fill-opacity="0.1"></path> <path d="M316.337 211.856C316.431 211.856 316.524 211.881 316.599 211.944C316.674 212 316.724 212.081 316.749 212.175L324.268 243.056C324.281 243.119 324.281 243.181 324.268 243.244C324.256 243.306 324.224 243.362 324.187 243.412C324.143 243.462 324.093 243.5 324.037 243.525C323.981 243.55 323.918 243.562 323.856 243.562H306.531C306.437 243.562 306.343 243.537 306.268 243.481C306.193 243.425 306.143 243.344 306.118 243.25L298.593 212.375C298.581 212.312 298.574 212.25 298.593 212.187C298.606 212.125 298.637 212.069 298.674 212.019C298.712 211.969 298.768 211.931 298.824 211.906C298.881 211.881 298.943 211.869 299.012 211.869H316.337V211.856Z" fill="white" fill-opacity="0.1"></path> <path d="M234.299 244.762C243.049 244.762 251.443 241.3 257.637 235.131C260.706 232.075 263.137 228.45 264.799 224.456C266.462 220.462 267.312 216.181 267.318 211.856C267.318 207.531 266.462 203.25 264.806 199.256C263.143 195.262 260.712 191.631 257.649 188.575C254.581 185.519 250.943 183.1 246.937 181.444C242.931 179.794 238.637 178.944 234.306 178.944C229.968 178.944 225.674 179.794 221.668 181.45C217.656 183.1 214.012 185.525 210.943 188.587C207.874 191.65 205.443 195.281 203.787 199.281C202.131 203.269 201.281 207.537 201.281 211.85C201.287 220.581 204.768 228.956 210.962 235.131C217.149 241.3 225.543 244.762 234.299 244.762ZM234.299 193.531C236.706 193.537 239.087 194.012 241.312 194.931C243.543 195.85 245.562 197.2 247.268 198.906C248.981 200.612 250.337 202.631 251.268 204.862C252.187 207.081 252.662 209.456 252.656 211.856C252.656 216.712 250.731 221.362 247.293 224.8C243.849 228.225 239.181 230.15 234.312 230.15C231.906 230.15 229.518 229.681 227.287 228.762C225.056 227.844 223.037 226.5 221.331 224.8C217.893 221.362 215.962 216.706 215.968 211.856C215.968 209.456 216.443 207.081 217.362 204.862C218.281 202.637 219.631 200.619 221.337 198.912C223.043 197.212 225.068 195.862 227.299 194.937C229.512 194.019 231.893 193.537 234.299 193.531Z" fill="white" fill-opacity="0.1"></path> <path d="M56.2368 244.762C64.9868 244.762 73.3806 241.3 79.5743 235.131C82.6431 232.075 85.0743 228.45 86.7368 224.456C88.3993 220.462 89.2493 216.181 89.2556 211.856C89.2556 207.531 88.3993 203.25 86.7431 199.256C85.0868 195.262 82.6493 191.631 79.5868 188.575C76.5181 185.519 72.8806 183.1 68.8743 181.444C64.8681 179.794 60.5743 178.944 56.2431 178.944C51.9056 178.944 47.6118 179.794 43.6056 181.45C39.5931 183.1 35.9493 185.525 32.8806 188.587C29.8118 191.65 27.3806 195.281 25.7243 199.281C24.0681 203.269 23.2181 207.537 23.2181 211.85C23.2243 220.581 26.7056 228.956 32.8993 235.131C39.0931 241.3 47.4868 244.762 56.2368 244.762ZM56.2368 193.531C58.6431 193.537 61.0243 194.012 63.2493 194.931C65.4806 195.85 67.4993 197.2 69.2056 198.906C70.9181 200.612 72.2743 202.631 73.2056 204.862C74.1243 207.081 74.5993 209.456 74.5931 211.856C74.5931 216.712 72.6681 221.362 69.2306 224.8C65.7868 228.225 61.1181 230.15 56.2493 230.15C53.8368 230.15 51.4493 229.681 49.2243 228.762C46.9993 227.844 44.9743 226.5 43.2681 224.8C39.8306 221.362 37.8993 216.706 37.9056 211.856C37.9056 209.456 38.3806 207.081 39.2993 204.862C40.2181 202.637 41.5681 200.619 43.2743 198.912C44.9806 197.212 47.0056 195.862 49.2368 194.937C51.4556 194.019 53.8368 193.537 56.2368 193.531Z" fill="white" fill-opacity="0.1"></path> <path d="M20.6619 243.182C20.6744 243.244 20.6744 243.307 20.6619 243.369C20.6494 243.432 20.6182 243.488 20.5807 243.538C20.5432 243.588 20.4932 243.625 20.4307 243.65C20.3744 243.675 20.3119 243.688 20.2494 243.688H2.92441C2.83066 243.688 2.73691 243.663 2.66191 243.6C2.58691 243.544 2.53066 243.463 2.51191 243.369L-12.7568 180.788C-12.7693 180.725 -12.7756 180.663 -12.7568 180.6C-12.7443 180.538 -12.7131 180.482 -12.6756 180.432C-12.6381 180.382 -12.5818 180.344 -12.5256 180.313C-12.4693 180.288 -12.4068 180.275 -12.3381 180.275H4.98691C5.08066 180.275 5.17441 180.3 5.24941 180.357C5.32441 180.413 5.38066 180.494 5.39941 180.588L20.6619 243.182Z" fill="white" fill-opacity="0.1"></path> <path d="M421.718 244.762C430.468 244.762 438.862 241.3 445.056 235.131C448.124 232.075 450.556 228.45 452.218 224.456C453.881 220.462 454.731 216.181 454.737 211.856C454.737 207.531 453.887 203.25 452.224 199.256C450.562 195.262 448.131 191.631 445.068 188.575C441.999 185.519 438.362 183.1 434.356 181.444C430.349 179.794 426.056 178.944 421.724 178.944C417.387 178.944 413.093 179.794 409.087 181.45C405.074 183.1 401.431 185.525 398.362 188.587C395.293 191.65 392.862 195.281 391.206 199.281C389.549 203.269 388.699 207.537 388.699 211.85C388.706 220.581 392.187 228.956 398.381 235.131C404.574 241.3 412.968 244.762 421.718 244.762ZM421.718 193.531C424.124 193.537 426.506 194.012 428.731 194.931C430.962 195.85 432.987 197.2 434.687 198.906C436.399 200.612 437.756 202.631 438.687 204.862C439.606 207.081 440.081 209.456 440.074 211.856C440.074 216.712 438.149 221.362 434.712 224.8C431.268 228.225 426.599 230.15 421.731 230.15C419.318 230.15 416.931 229.681 414.706 228.762C412.481 227.844 410.456 226.5 408.749 224.8C405.312 221.362 403.381 216.706 403.387 211.856C403.387 209.456 403.862 207.081 404.781 204.862C405.699 202.637 407.056 200.619 408.756 198.912C410.462 197.212 412.487 195.862 414.718 194.937C416.937 194.019 419.318 193.537 421.718 193.531Z" fill="white" fill-opacity="0.1"></path> <path d="M355.156 243.182C355.168 243.244 355.168 243.307 355.156 243.369C355.143 243.432 355.112 243.488 355.074 243.538C355.031 243.588 354.981 243.626 354.924 243.651C354.868 243.676 354.806 243.688 354.743 243.688H337.418C337.324 243.688 337.231 243.663 337.156 243.601C337.081 243.544 337.031 243.463 337.006 243.369L321.743 180.782C321.731 180.719 321.724 180.657 321.743 180.594C321.756 180.532 321.787 180.476 321.824 180.426C321.862 180.376 321.918 180.338 321.974 180.307C322.031 180.282 322.099 180.269 322.162 180.269H339.487C339.581 180.269 339.674 180.294 339.749 180.351C339.824 180.407 339.874 180.488 339.899 180.582L355.156 243.182Z" fill="white" fill-opacity="0.1"></path> <path d="M386.143 243.182C386.162 243.244 386.162 243.307 386.143 243.369C386.131 243.432 386.099 243.488 386.062 243.538C386.024 243.588 385.968 243.626 385.912 243.651C385.856 243.676 385.793 243.688 385.731 243.688H368.406C368.312 243.688 368.218 243.663 368.143 243.601C368.068 243.544 368.012 243.463 367.993 243.369L352.731 180.782C352.718 180.719 352.718 180.657 352.731 180.594C352.743 180.532 352.774 180.476 352.812 180.426C352.849 180.376 352.906 180.338 352.962 180.307C353.018 180.282 353.081 180.269 353.149 180.269H370.474C370.568 180.269 370.662 180.294 370.737 180.351C370.812 180.407 370.868 180.488 370.887 180.582L386.143 243.182Z" fill="white" fill-opacity="0.1"></path> <path d="M490.755 243.182C490.768 243.244 490.768 243.307 490.755 243.369C490.743 243.432 490.712 243.488 490.674 243.538C490.637 243.588 490.58 243.626 490.524 243.651C490.468 243.676 490.405 243.688 490.337 243.688H473.012C472.918 243.688 472.824 243.663 472.749 243.601C472.674 243.544 472.624 243.463 472.599 243.369L457.337 180.782C457.324 180.719 457.324 180.657 457.337 180.594C457.349 180.532 457.38 180.476 457.418 180.426C457.455 180.376 457.512 180.338 457.568 180.307C457.624 180.282 457.693 180.269 457.755 180.269H475.08C475.174 180.269 475.268 180.294 475.343 180.351C475.418 180.407 475.468 180.488 475.493 180.582L490.755 243.182Z" fill="white" fill-opacity="0.1"></path> <path d="M521.743 243.182C521.755 243.244 521.755 243.307 521.743 243.369C521.73 243.432 521.699 243.488 521.662 243.538C521.624 243.588 521.574 243.626 521.512 243.651C521.455 243.676 521.393 243.688 521.33 243.688H503.999C503.905 243.688 503.812 243.663 503.737 243.601C503.662 243.544 503.605 243.463 503.587 243.369L488.324 180.782C488.312 180.719 488.305 180.657 488.324 180.594C488.337 180.532 488.368 180.476 488.405 180.426C488.449 180.376 488.499 180.338 488.555 180.307C488.612 180.282 488.674 180.269 488.743 180.269H506.068C506.162 180.269 506.255 180.294 506.33 180.351C506.405 180.407 506.462 180.488 506.48 180.582L521.743 243.182Z" fill="white" fill-opacity="0.1"></path> </g> </g> <defs> <clipPath id="clip0_687_438"> <path d="M0 0H483C494.046 0 503 8.9543 503 20V506C503 517.046 494.046 526 483 526H0V0Z" fill="white"></path> </clipPath> <clipPath id="clip1_687_438"> <rect width="800" height="143.638" fill="white" transform="translate(0 407.375)"></rect> </clipPath> <clipPath id="clip2_687_438"> <rect width="800" height="143.638" fill="white" transform="translate(0 254.25)"></rect> </clipPath> <clipPath id="clip3_687_438"> <rect width="800" height="143.638" fill="white" transform="translate(0 101.125)"></rect> </clipPath> </defs> </svg> 